<svg height="1024" node-id="1" sillyvg="true" template-height="1024" template-width="1024" version="1.1" viewBox="0 0 1024 1024" width="1024" xmlns="http://www.w3.org/2000/svg" xmlns:xlink="http://www.w3.org/1999/xlink"><defs node-id="346"><linearGradient gradientTransform="matrix(-0.9878 0.156 0.156 0.9878 1441.5571 -199.9507)" gradientUnits="userSpaceOnUse" id="SVGID_3_" node-id="41" spreadMethod="pad" x1="1353.9691" x2="1353.9691" y1="1182.7537" y2="448.4654"><stop offset="0" stop-color="#ffcdd6"/><stop offset="0.3975" stop-color="#6d8daf"/><stop offset="1" stop-color="#253a59"/></linearGradient><linearGradient gradientTransform="matrix(-0.9878 0.156 0.156 0.9878 1441.5571 -199.9507)" gradientUnits="userSpaceOnUse" id="SVGID_4_" node-id="64" spreadMethod="pad" x1="1210.1354" x2="1210.1354" y1="1012.8888" y2="929.9699"><stop offset="0" stop-color="#ffcdd6"/><stop offset="0.3975" stop-color="#6d8daf"/><stop offset="1" stop-color="#253a59"/></linearGradient><linearGradient gradientTransform="matrix(0.9608 -0.2773 0.2773 0.9608 -3909.5781 989.9255)" gradientUnits="userSpaceOnUse" id="SVGID_5_" node-id="69" spreadMethod="pad" x1="4436.689" x2="4436.689" y1="1227.2609" y2="1177.1008"><stop offset="0" stop-color="#ffcdd6"/><stop offset="0.3975" stop-color="#6d8daf"/><stop offset="1" stop-color="#253a59"/></linearGradient><linearGradient gradientTransform="matrix(0.9608 -0.2773 0.2773 0.9608 -3909.5781 989.9255)" gradientUnits="userSpaceOnUse" id="SVGID_6_" node-id="74" spreadMethod="pad" x1="4283.4717" x2="4283.4717" y1="1051.1827" y2="1001.0227"><stop offset="0" stop-color="#ffcdd6"/><stop offset="0.3975" stop-color="#6d8daf"/><stop offset="1" stop-color="#253a59"/></linearGradient><linearGradient gradientTransform="matrix(-0.9878 0.156 0.156 0.9878 1441.5571 -199.9507)" gradientUnits="userSpaceOnUse" id="SVGID_7_" node-id="79" spreadMethod="pad" x1="931.6846" x2="931.6846" y1="936.0536" y2="880.0206"><stop offset="0" stop-color="#ffcdd6"/><stop offset="0.3975" stop-color="#6d8daf"/><stop offset="1" stop-color="#253a59"/></linearGradient><linearGradient gradientTransform="matrix(-0.9878 0.156 0.156 0.9878 1441.5571 -199.9507)" gradientUnits="userSpaceOnUse" id="SVGID_8_" node-id="84" spreadMethod="pad" x1="1199.3181" x2="1199.3181" y1="956.0803" y2="889.5092"><stop offset="0" stop-color="#ffcdd6"/><stop offset="0.3975" stop-color="#6d8daf"/><stop offset="1" stop-color="#253a59"/></linearGradient><linearGradient gradientTransform="matrix(-0.9878 0.156 0.156 0.9878 1441.5571 -199.9507)" gradientUnits="userSpaceOnUse" id="SVGID_9_" node-id="89" spreadMethod="pad" x1="1202.3468" x2="1202.3468" y1="1033.3132" y2="986.3517"><stop offset="0" stop-color="#ffcdd6"/><stop offset="0.3975" stop-color="#6d8daf"/><stop offset="1" stop-color="#253a59"/></linearGradient><linearGradient gradientTransform="matrix(-0.4984 0.1706 0.3015 0.8807 -47.3529 -173.6091)" gradientUnits="userSpaceOnUse" id="SVGID_10_" node-id="94" spreadMethod="pad" x1="-376.6374" x2="-376.6374" y1="1138.6528" y2="1082.6198"><stop offset="0" stop-color="#ffcdd6"/><stop offset="0.3975" stop-color="#6d8daf"/><stop offset="1" stop-color="#253a59"/></linearGradient><linearGradient gradientTransform="matrix(-0.4984 0.1706 0.3015 0.8807 -47.3529 -173.6091)" gradientUnits="userSpaceOnUse" id="SVGID_11_" node-id="99" spreadMethod="pad" x1="-374.9946" x2="-374.9946" y1="1254.5636" y2="1209.4369"><stop offset="0" stop-color="#ffcdd6"/><stop offset="0.3975" stop-color="#6d8daf"/><stop offset="1" stop-color="#253a59"/></linearGradient><linearGradient gradientTransform="matrix(-0.6986 0.7155 0.7155 0.6986 392.5781 -1658.087)" gradientUnits="userSpaceOnUse" id="SVGID_12_" node-id="104" spreadMethod="pad" x1="1471.8313" x2="1471.8313" y1="1568.6166" y2="1512.5835"><stop offset="0" stop-color="#ffcdd6"/><stop offset="0.3975" stop-color="#6d8daf"/><stop offset="1" stop-color="#253a59"/></linearGradient><linearGradient gradientTransform="matrix(-0.9878 0.156 0.156 0.9878 1441.5571 -199.9507)" gradientUnits="userSpaceOnUse" id="SVGID_13_" node-id="109" spreadMethod="pad" x1="1181.5889" x2="1181.5889" y1="971.4428" y2="909.1839"><stop offset="0" stop-color="#ffcdd6"/><stop offset="0.3975" stop-color="#6d8daf"/><stop offset="1" stop-color="#253a59"/></linearGradient><linearGradient gradientTransform="matrix(-0.9968 0.08002978 0.08002978 0.9968 1522.2512 -71.247)" gradientUnits="userSpaceOnUse" id="SVGID_14_" node-id="114" spreadMethod="pad" x1="1197.3499" x2="1197.3499" y1="1028.1449" y2="965.8859"><stop offset="0" stop-color="#ffcdd6"/><stop offset="0.3975" stop-color="#6d8daf"/><stop offset="1" stop-color="#253a59"/></linearGradient><linearGradient gradientTransform="matrix(-0.9968 0.08002978 0.08002978 0.9968 1522.2512 -71.247)" gradientUnits="userSpaceOnUse" id="SVGID_15_" node-id="119" spreadMethod="pad" x1="1192.8575" x2="1192.8575" y1="1079.5941" y2="1031.6279"><stop offset="0" stop-color="#ffcdd6"/><stop offset="0.3975" stop-color="#6d8daf"/><stop offset="1" stop-color="#253a59"/></linearGradient><linearGradient gradientTransform="matrix(-0.9992 -0.03896803 -0.03896803 0.9992 1618.9055 366.6035)" gradientUnits="userSpaceOnUse" id="SVGID_16_" node-id="124" spreadMethod="pad" x1="1217.939" x2="1217.939" y1="578.4929" y2="503.7971"><stop offset="0" stop-color="#ffcdd6"/><stop offset="0.3975" stop-color="#6d8daf"/><stop offset="1" stop-color="#253a59"/></linearGradient><linearGradient gradientTransform="matrix(-1.5102 0.1341 0.08625692 0.9717 2519.4221 54.2145)" gradientUnits="userSpaceOnUse" id="SVGID_17_" node-id="129" spreadMethod="pad" x1="1465.6196" x2="1465.6196" y1="571.1263" y2="496.4306"><stop offset="0" stop-color="#ffcdd6"/><stop offset="0.3975" stop-color="#6d8daf"/><stop offset="1" stop-color="#253a59"/></linearGradient><linearGradient gradientTransform="matrix(-1.1576 -0.04514193 -0.02325369 0.5963 2056.7437 672.0914)" gradientUnits="userSpaceOnUse" id="SVGID_18_" node-id="134" spreadMethod="pad" x1="1332.5494" x2="1332.5494" y1="454.5799" y2="392.321"><stop offset="0" stop-color="#ffcdd6"/><stop offset="0.3975" stop-color="#6d8daf"/><stop offset="1" stop-color="#253a59"/></linearGradient><linearGradient gradientTransform="matrix(-0.5471 0.05842011 0.07664157 0.7178 263.5027 248.3578)" gradientUnits="userSpaceOnUse" id="SVGID_19_" node-id="139" spreadMethod="pad" x1="-631.6264" x2="-631.6264" y1="1067.1492" y2="1004.8902"><stop offset="0" stop-color="#ffcdd6"/><stop offset="0.3975" stop-color="#6d8daf"/><stop offset="1" stop-color="#253a59"/></linearGradient><linearGradient gradientTransform="matrix(-0.663 0.7486 0.4697 0.416 344.2622 -1586.7623)" gradientUnits="userSpaceOnUse" id="SVGID_20_" node-id="144" spreadMethod="pad" x1="1621.7754" x2="1621.7754" y1="2540.1084" y2="2477.8494"><stop offset="0" stop-color="#ffcdd6"/><stop offset="0.3975" stop-color="#6d8daf"/><stop offset="1" stop-color="#253a59"/></linearGradient><linearGradient gradientTransform="matrix(-0.663 0.7486 0.2772 0.2455 435.3859 -1506.0608)" gradientUnits="userSpaceOnUse" id="SVGID_21_" node-id="149" spreadMethod="pad" x1="1467.7328" x2="1467.7328" y1="3787.8352" y2="3725.5762"><stop offset="0" stop-color="#ffcdd6"/><stop offset="0.3975" stop-color="#6d8daf"/><stop offset="1" stop-color="#253a59"/></linearGradient><linearGradient gradientTransform="matrix(-0.7745 0.6325 0.2527 0.3095 704.0175 -1451.2799)" gradientUnits="userSpaceOnUse" id="SVGID_22_" node-id="154" spreadMethod="pad" x1="1405.757" x2="1405.757" y1="3604.5618" y2="3542.3027"><stop offset="0" stop-color="#ffcdd6"/><stop offset="0.3975" stop-color="#6d8daf"/><stop offset="1" stop-color="#253a59"/></linearGradient><linearGradient gradientTransform="matrix(-0.4363 0.3462 0.2077 0.2617 174.6384 -816.1171)" gradientUnits="userSpaceOnUse" id="SVGID_23_" node-id="159" spreadMethod="pad" x1="1047.8557" x2="1047.8557" y1="3968.8015" y2="3906.5425"><stop offset="0" stop-color="#ffcdd6"/><stop offset="0.3975" stop-color="#6d8daf"/><stop offset="1" stop-color="#253a59"/></linearGradient><linearGradient gradientTransform="matrix(-0.4099 0.3252 0.1725 0.2174 220.0891 -656.2553)" gradientUnits="userSpaceOnUse" id="SVGID_24_" node-id="164" spreadMethod="pad" x1="1005.4971" x2="1005.4971" y1="4295.2026" y2="4230.189"><stop offset="0" stop-color="#ffcdd6"/><stop offset="0.3975" stop-color="#6d8daf"/><stop offset="1" stop-color="#253a59"/></linearGradient><linearGradient gradientTransform="matrix(-0.4099 0.3252 0.1725 0.2174 220.0891 -656.2553)" gradientUnits="userSpaceOnUse" id="SVGID_25_" node-id="169" spreadMethod="pad" x1="1017.9" x2="1017.9" y1="4376.244" y2="4329.185"><stop offset="0" stop-color="#ffcdd6"/><stop offset="0.3975" stop-color="#6d8daf"/><stop offset="1" stop-color="#253a59"/></linearGradient><linearGradient gradientTransform="matrix(-0.9366 0.3504 0.2133 0.5703 1334.7756 -582.9675)" gradientUnits="userSpaceOnUse" id="SVGID_26_" node-id="174" spreadMethod="pad" x1="1178.1385" x2="1178.1385" y1="1198.6626" y2="1136.4037"><stop offset="0" stop-color="#ffcdd6"/><stop offset="0.3975" stop-color="#6d8daf"/><stop offset="1" stop-color="#253a59"/></linearGradient><linearGradient gradientTransform="matrix(-0.4218 0.1258 0.1172 0.3928 523.3163 -44.2854)" gradientUnits="userSpaceOnUse" id="SVGID_27_" node-id="179" spreadMethod="pad" x1="412.2613" x2="412.2613" y1="1376.6943" y2="1314.4354"><stop offset="0" stop-color="#ffcdd6"/><stop offset="0.3975" stop-color="#6d8daf"/><stop offset="1" stop-color="#253a59"/></linearGradient><linearGradient gradientTransform="matrix(-0.4218 0.1258 0.1172 0.3928 523.3163 -44.2854)" gradientUnits="userSpaceOnUse" id="SVGID_28_" node-id="184" spreadMethod="pad" x1="386.2726" x2="386.2726" y1="1525.616" y2="1463.357"><stop offset="0" stop-color="#ffcdd6"/><stop offset="0.3975" stop-color="#6d8daf"/><stop offset="1" stop-color="#253a59"/></linearGradient><linearGradient gradientTransform="matrix(-0.3415 0.1018 0.09899385 0.3319 404.1564 56.4686)" gradientUnits="userSpaceOnUse" id="SVGID_29_" node-id="189" spreadMethod="pad" x1="65.893" x2="65.893" y1="1695.7535" y2="1632.3004"><stop offset="0" stop-color="#ffcdd6"/><stop offset="0.3975" stop-color="#6d8daf"/><stop offset="1" stop-color="#253a59"/></linearGradient><linearGradient gradientTransform="matrix(-0.3219 0.06898668 0.05610669 0.2618 416.4595 187.3169)" gradientUnits="userSpaceOnUse" id="SVGID_30_" node-id="194" spreadMethod="pad" x1="-123.7423" x2="-123.7423" y1="1779.0583" y2="1715.7074"><stop offset="0" stop-color="#ffcdd6"/><stop offset="0.3975" stop-color="#6d8daf"/><stop offset="1" stop-color="#253a59"/></linearGradient><linearGradient gradientTransform="matrix(-0.4099 0.3252 0.1725 0.2174 220.0891 -656.2553)" gradientUnits="userSpaceOnUse" id="SVGID_31_" node-id="199" spreadMethod="pad" x1="1036.917" x2="1036.917" y1="4475.074" y2="4430.0093"><stop offset="0" stop-color="#ffcdd6"/><stop offset="0.3975" stop-color="#6d8daf"/><stop offset="1" stop-color="#253a59"/></linearGradient><linearGradient gradientTransform="matrix(-0.3219 0.06898668 0.05610669 0.2618 416.4595 187.3169)" gradientUnits="userSpaceOnUse" id="SVGID_32_" node-id="204" spreadMethod="pad" x1="-134.5071" x2="-134.5071" y1="1886.8821" y2="1824.6232"><stop offset="0" stop-color="#ffcdd6"/><stop offset="0.3975" stop-color="#6d8daf"/><stop offset="1" stop-color="#253a59"/></linearGradient><linearGradient gradientTransform="matrix(-0.4218 0.1258 0.1172 0.3928 523.3163 -44.2854)" gradientUnits="userSpaceOnUse" id="SVGID_33_" node-id="209" spreadMethod="pad" x1="395.273" x2="395.273" y1="1458.328" y2="1396.0691"><stop offset="0" stop-color="#ffcdd6"/><stop offset="0.3975" stop-color="#6d8daf"/><stop offset="1" stop-color="#253a59"/></linearGradient><linearGradient gradientTransform="matrix(-0.9988 0.04827541 0.04827541 0.9988 1550.1887 84.0789)" gradientUnits="userSpaceOnUse" id="SVGID_34_" node-id="214" spreadMethod="pad" x1="938.2351" x2="938.2351" y1="708.017" y2="660.8069"><stop offset="0" stop-color="#ffcdd6"/><stop offset="0.3975" stop-color="#6d8daf"/><stop offset="1" stop-color="#253a59"/></linearGradient><linearGradient gradientTransform="matrix(-0.9878 0.156 0.156 0.9878 1441.5571 -199.9507)" gradientUnits="userSpaceOnUse" id="SVGID_35_" node-id="219" spreadMethod="pad" x1="931.0428" x2="931.0428" y1="989.8279" y2="927.569"><stop offset="0" stop-color="#ffcdd6"/><stop offset="0.3975" stop-color="#6d8daf"/><stop offset="1" stop-color="#253a59"/></linearGradient><linearGradient gradientTransform="matrix(-0.9878 0.156 0.156 0.9878 1441.5571 -199.9507)" gradientUnits="userSpaceOnUse" id="SVGID_36_" node-id="224" spreadMethod="pad" x1="1206.5796" x2="1206.5796" y1="872.8439" y2="799.6232"><stop offset="0" stop-color="#ffcdd6"/><stop offset="0.3975" stop-color="#6d8daf"/><stop offset="1" stop-color="#253a59"/></linearGradient><linearGradient gradientTransform="matrix(-0.9449 0.3274 0.3274 0.9449 1258.6617 -481.464)" gradientUnits="userSpaceOnUse" id="SVGID_37_" node-id="229" spreadMethod="pad" x1="1251.2634" x2="1251.2634" y1="873.9184" y2="816.7714"><stop offset="0" stop-color="#ffcdd6"/><stop offset="0.3975" stop-color="#6d8daf"/><stop offset="1" stop-color="#253a59"/></linearGradient><linearGradient gradientTransform="matrix(0.6756 -0.7373 -0.7373 -0.6756 -3228.5183 3176.5881)" gradientUnits="userSpaceOnUse" id="SVGID_38_" node-id="234" spreadMethod="pad" x1="4282.97" x2="4282.97" y1="-602.0406" y2="-645.0559"><stop offset="0" stop-color="#ffcdd6"/><stop offset="0.3975" stop-color="#6d8daf"/><stop offset="1" stop-color="#253a59"/></linearGradient><linearGradient gradientTransform="matrix(-0.886 0.4636 0.4636 0.886 914.4877 -1044.1149)" gradientUnits="userSpaceOnUse" id="SVGID_39_" node-id="239" spreadMethod="pad" x1="1217.7119" x2="1217.7119" y1="1359.0944" y2="1316.0791"><stop offset="0" stop-color="#ffcdd6"/><stop offset="0.3975" stop-color="#6d8daf"/><stop offset="1" stop-color="#253a59"/></linearGradient><linearGradient gradientTransform="matrix(-0.473 0.1023 0.1759 0.8137 -52.9721 38.6556)" gradientUnits="userSpaceOnUse" id="SVGID_40_" node-id="244" spreadMethod="pad" x1="-750.0404" x2="-750.0404" y1="1009.0703" y2="966.055"><stop offset="0" stop-color="#ffcdd6"/><stop offset="0.3975" stop-color="#6d8daf"/><stop offset="1" stop-color="#253a59"/></linearGradient><linearGradient gradientTransform="matrix(-0.473 0.1023 0.1759 0.8137 -52.9721 38.6556)" gradientUnits="userSpaceOnUse" id="SVGID_41_" node-id="249" spreadMethod="pad" x1="-767.665" x2="-767.665" y1="1084.6705" y2="1041.6553"><stop offset="0" stop-color="#ffcdd6"/><stop offset="0.3975" stop-color="#6d8daf"/><stop offset="1" stop-color="#253a59"/></linearGradient><linearGradient gradientTransform="matrix(0.4698 -0.116 0.1995 0.8082 -720.9564 193.6131)" gradientUnits="userSpaceOnUse" id="SVGID_42_" node-id="254" spreadMethod="pad" x1="1865.258" x2="1865.258" y1="1341.0867" y2="1298.0714"><stop offset="0" stop-color="#ffcdd6"/><stop offset="0.3975" stop-color="#6d8daf"/><stop offset="1" stop-color="#253a59"/></linearGradient><linearGradient gradientTransform="matrix(-0.886 0.4636 0.4636 0.886 914.4877 -1044.1149)" gradientUnits="userSpaceOnUse" id="SVGID_43_" node-id="259" spreadMethod="pad" x1="1123.6808" x2="1123.6808" y1="1138.4852" y2="1095.47"><stop offset="0" stop-color="#ffcdd6"/><stop offset="0.3975" stop-color="#6d8daf"/><stop offset="1" stop-color="#253a59"/></linearGradient><linearGradient gradientTransform="matrix(-0.9878 0.156 0.156 0.9878 1441.5571 -199.9507)" gradientUnits="userSpaceOnUse" id="SVGID_44_" node-id="264" spreadMethod="pad" x1="1258.4515" x2="1258.4515" y1="638.9978" y2="630.0694"><stop offset="0" stop-color="#ffcdd6"/><stop offset="0.3975" stop-color="#6d8daf"/><stop offset="1" stop-color="#253a59"/></linearGradient><linearGradient gradientTransform="matrix(-0.8374 0.5467 0.5467 0.8374 828.9915 -1314.6564)" gradientUnits="userSpaceOnUse" id="SVGID_45_" node-id="269" spreadMethod="pad" x1="1480.8784" x2="1480.8784" y1="1353.5236" y2="1344.5951"><stop offset="0" stop-color="#ffcdd6"/><stop offset="0.3975" stop-color="#6d8daf"/><stop offset="1" stop-color="#253a59"/></linearGradient><linearGradient gradientTransform="matrix(-0.8374 0.5467 0.5467 0.8374 828.9915 -1314.6564)" gradientUnits="userSpaceOnUse" id="SVGID_46_" node-id="274" spreadMethod="pad" x1="1678.7288" x2="1678.7288" y1="1247.2003" y2="1238.2719"><stop offset="0" stop-color="#ffcdd6"/><stop offset="0.3975" stop-color="#6d8daf"/><stop offset="1" stop-color="#253a59"/></linearGradient><linearGradient gradientTransform="matrix(1.1078 0.5423 0.5993 -1.2243 -5429.9106 -402.9797)" gradientUnits="userSpaceOnUse" id="SVGID_47_" node-id="279" spreadMethod="pad" x1="4398.6895" x2="4398.6895" y1="1082.1675" y2="1073.239"><stop offset="0" stop-color="#ffcdd6"/><stop offset="0.3975" stop-color="#6d8daf"/><stop offset="1" stop-color="#253a59"/></linearGradient><linearGradient gradientTransform="matrix(-0.9878 0.156 0.156 0.9878 1441.5571 -199.9507)" gradientUnits="userSpaceOnUse" id="SVGID_48_" node-id="284" spreadMethod="pad" x1="967.623" x2="967.623" y1="724.6918" y2="715.7634"><stop offset="0" stop-color="#ffcdd6"/><stop offset="0.3975" stop-color="#6d8daf"/><stop offset="1" stop-color="#253a59"/></linearGradient><linearGradient gradientTransform="matrix(-0.9727 -0.2319 -0.2319 0.9727 1596.0823 946.0814)" gradientUnits="userSpaceOnUse" id="SVGID_49_" node-id="289" spreadMethod="pad" x1="1279.7172" x2="1279.7172" y1="-34.6002" y2="-43.5286"><stop offset="0" stop-color="#ffcdd6"/><stop offset="0.3975" stop-color="#6d8daf"/><stop offset="1" stop-color="#253a59"/></linearGradient><linearGradient gradientTransform="matrix(-1.3131 0.1706 0.1857 1.4292 2369.3623 -458.8353)" gradientUnits="userSpaceOnUse" id="SVGID_50_" node-id="294" spreadMethod="pad" x1="1595.4762" x2="1595.4762" y1="574.5792" y2="565.6508"><stop offset="0" stop-color="#ffcdd6"/><stop offset="0.3975" stop-color="#6d8daf"/><stop offset="1" stop-color="#253a59"/></linearGradient><linearGradient gradientTransform="matrix(-1.0688 0.7816 0.8508 1.1633 1453.6625 -1492.4739)" gradientUnits="userSpaceOnUse" id="SVGID_51_" node-id="299" spreadMethod="pad" x1="1631.2828" x2="1631.2828" y1="956.8398" y2="947.9114"><stop offset="0" stop-color="#ffcdd6"/><stop offset="0.3975" stop-color="#6d8daf"/><stop offset="1" stop-color="#253a59"/></linearGradient><linearGradient gradientTransform="matrix(-1.0496 -0.02366882 -0.01890258 0.8382 1992.9026 319.4382)" gradientUnits="userSpaceOnUse" id="SVGID_52_" node-id="304" spreadMethod="pad" x1="1388.7307" x2="1388.7307" y1="752.142" y2="743.2136"><stop offset="0" stop-color="#ffcdd6"/><stop offset="0.3975" stop-color="#6d8daf"/><stop offset="1" stop-color="#253a59"/></linearGradient><linearGradient gradientTransform="matrix(-0.1152 0.9933 0.9933 0.1152 -1527.4991 -2164.9297)" gradientUnits="userSpaceOnUse" id="SVGID_53_" node-id="309" spreadMethod="pad" x1="2550.0088" x2="2550.0088" y1="2239.0686" y2="2230.1401"><stop offset="0" stop-color="#ffcdd6"/><stop offset="0.3975" stop-color="#6d8daf"/><stop offset="1" stop-color="#253a59"/></linearGradient><linearGradient gradientTransform="matrix(-1.0603 0.3107 1.0313 3.5197 1216.3599 -2025.3021)" gradientUnits="userSpaceOnUse" id="SVGID_54_" node-id="314" spreadMethod="pad" x1="1373.3146" x2="1373.3146" y1="645.752" y2="636.8235"><stop offset="0" stop-color="#ffcdd6"/><stop offset="0.3975" stop-color="#6d8daf"/><stop offset="1" stop-color="#253a59"/></linearGradient><linearGradient gradientTransform="matrix(0.3602 -1.0445 -3.4673 -1.1955 -1119.3273 4441.3369)" gradientUnits="userSpaceOnUse" id="SVGID_55_" node-id="319" spreadMethod="pad" x1="3785.151" x2="3785.151" y1="50.7429" y2="41.8145"><stop offset="0" stop-color="#ffcdd6"/><stop offset="0.3975" stop-color="#6d8daf"/><stop offset="1" stop-color="#253a59"/></linearGradient><linearGradient gradientTransform="matrix(-0.01029433 -1.1048 -3.6675 0.03418575 167.8557 4058.0242)" gradientUnits="userSpaceOnUse" id="SVGID_56_" node-id="324" spreadMethod="pad" x1="3269.6953" x2="3269.6953" y1="14.2881" y2="5.3597"><stop offset="0" stop-color="#ffcdd6"/><stop offset="0.3975" stop-color="#6d8daf"/><stop offset="1" stop-color="#253a59"/></linearGradient><linearGradient gradientTransform="matrix(0.2132 -0.977 -0.977 -0.2132 -1128.5581 4047.7146)" gradientUnits="userSpaceOnUse" id="SVGID_57_" node-id="329" spreadMethod="pad" x1="3382.4568" x2="3382.4568" y1="-875.3734" y2="-888.5687"><stop offset="0" stop-color="#ffcdd6"/><stop offset="0.3975" stop-color="#6d8daf"/><stop offset="1" stop-color="#253a59"/></linearGradient><linearGradient gradientTransform="matrix(-0.9825 0.1862 0.1862 0.9825 1432.9153 -296.2955)" gradientUnits="userSpaceOnUse" id="SVGID_58_" node-id="335" spreadMethod="pad" x1="1351.6503" x2="1354.6171" y1="542.2535" y2="638.8802"><stop offset="0" stop-color="#ffcdd6"/><stop offset="0.3975" stop-color="#6d8daf"/><stop offset="1" stop-color="#253a59"/></linearGradient><linearGradient gradientTransform="matrix(-0.9878 0.156 0.156 0.9878 1441.5571 -199.9507)" gradientUnits="userSpaceOnUse" id="SVGID_59_" node-id="340" spreadMethod="pad" x1="973.8454" x2="973.8454" y1="416.4846" y2="540.1195"><stop offset="0" stop-color="#ffcdd6"/><stop offset="0.3975" stop-color="#6d8daf"/><stop offset="1" stop-color="#253a59"/></linearGradient><clipPath id="SVGID_2_" node-id="23"><path d="M 980.40 512.00 C 980.40 636.23 931.05 755.37 843.21 843.21 C 755.37 931.05 636.23 980.40 512.00 980.40 C 387.77 980.40 268.63 931.05 180.79 843.21 C 92.95 755.37 43.60 636.23 43.60 512.00 C 43.60 387.77 92.95 268.63 180.79 180.79 C 268.63 92.95 387.77 43.60 512.00 43.60 C 636.23 43.60 755.37 92.95 843.21 180.79 C 931.05 268.63 980.40 387.77 980.40 512.00 Z" fill="#000000" fill-rule="nonzero" node-id="805" stroke="none" target-height="936.80005" target-width="936.80005" target-x="43.6" target-y="43.6"/></clipPath></defs><path d="M 0.00 0.00 L 0.00 1024.00 L 1024.00 1024.00 L 1024.00 0.00 L 0.00 0.00 Z M 512.00 980.40 C 253.30 980.40 43.60 770.70 43.60 512.00 C 43.60 253.30 253.30 43.60 512.00 43.60 C 770.70 43.60 980.40 253.30 980.40 512.00 C 980.40 770.70 770.70 980.40 512.00 980.40 Z" fill="#eeebe6" fill-opacity="0" fill-rule="nonzero" node-id="809" stroke="none" target-height="1024" target-width="1024" target-x="0" target-y="0"/><path d="M 980.40 512.00 C 980.40 636.23 931.05 755.37 843.21 843.21 C 755.37 931.05 636.23 980.40 512.00 980.40 C 387.77 980.40 268.63 931.05 180.79 843.21 C 92.95 755.37 43.60 636.23 43.60 512.00 C 43.60 387.77 92.95 268.63 180.79 180.79 C 268.63 92.95 387.77 43.60 512.00 43.60 C 636.23 43.60 755.37 92.95 843.21 180.79 C 931.05 268.63 980.40 387.77 980.40 512.00 Z" fill="none" node-id="811" stroke="none" target-height="936.80005" target-width="936.80005" target-x="43.6" target-y="43.6"/><g node-id="1041"><path d="M 980.40 512.00 C 980.40 636.23 931.05 755.37 843.21 843.21 C 755.37 931.05 636.23 980.40 512.00 980.40 C 387.77 980.40 268.63 931.05 180.79 843.21 C 92.95 755.37 43.60 636.23 43.60 512.00 C 43.60 387.77 92.95 268.63 180.79 180.79 C 268.63 92.95 387.77 43.60 512.00 43.60 C 636.23 43.60 755.37 92.95 843.21 180.79 C 931.05 268.63 980.40 387.77 980.40 512.00 Z" fill="none" group-id="1" node-id="815" stroke="none" target-height="936.80005" target-width="936.80005" target-x="43.6" target-y="43.6"/><g node-id="1043"><g node-id="1045"><path d="M 752.00 370.60 C 750.40 370.30 748.70 372.10 748.60 374.30 C 749.00 374.50 749.60 375.30 750.30 375.40 C 751.70 375.60 753.60 373.80 753.50 372.10 C 753.50 371.60 752.60 370.70 752.00 370.60 Z" fill="#99000f" fill-rule="nonzero" group-id="1,3,5" node-id="821" stroke="none" target-height="5.3000183" target-width="5" target-x="748.6" target-y="370.3"/><path d="M 702.60 175.70 C 705.10 176.60 707.20 175.90 709.10 174.40 C 714.10 170.20 728.80 171.10 733.70 173.50 L 733.70 173.50 C 733.70 173.50 733.70 173.50 733.70 173.50 C 733.80 173.50 733.90 173.60 734.00 173.60 C 734.10 173.70 734.30 173.80 734.40 173.90 C 735.50 174.50 737.70 175.70 739.00 176.30 C 739.00 176.30 739.00 176.30 739.00 176.30 C 739.20 176.40 739.40 176.50 739.60 176.60 C 740.60 177.10 741.80 177.40 742.80 177.70 C 744.00 178.10 745.30 178.30 746.40 178.90 C 746.90 179.10 747.40 179.80 747.50 180.40 C 747.90 181.80 748.20 183.20 748.50 184.60 C 748.80 186.00 749.30 187.50 749.40 188.90 C 749.90 193.80 750.30 198.40 751.00 203.30 C 751.10 204.20 752.50 204.90 753.30 205.70 C 753.70 204.80 754.50 204.00 754.60 203.10 C 754.70 198.10 754.70 193.20 754.60 188.20 C 754.60 185.00 753.50 182.20 750.20 180.40 C 749.80 180.20 749.40 179.40 749.50 178.90 C 750.20 175.50 749.80 175.10 746.50 173.20 C 742.10 170.60 737.10 169.70 732.20 169.10 C 727.30 168.50 715.10 167.30 710.10 169.20 C 709.30 169.50 708.30 169.40 707.40 169.20 C 705.00 168.80 702.40 169.60 701.10 171.40 C 699.90 173.20 700.40 174.90 702.60 175.70 Z" fill="#99000f" fill-rule="nonzero" group-id="1,3,5" node-id="823" stroke="none" target-height="38.399994" target-width="54.799988" target-x="699.9" target-y="167.3"/><path d="M 746.30 378.50 C 743.30 380.90 739.90 380.30 736.40 379.90 C 734.10 379.60 731.70 379.70 729.40 379.70 C 726.40 379.70 716.40 380.10 713.40 379.90 C 710.80 379.70 708.20 379.20 705.80 378.30 C 703.00 377.20 700.50 375.50 697.70 374.20 C 694.70 372.80 692.90 370.70 692.60 367.70 C 692.40 365.80 692.20 363.90 692.00 362.10 C 691.30 353.30 690.40 344.50 689.90 335.70 C 689.60 330.50 690.30 329.40 690.10 324.20 C 689.90 316.40 689.40 317.80 689.10 310.00 C 688.90 304.30 688.70 308.50 688.50 302.80 C 688.40 299.00 688.00 295.10 688.00 291.30 C 688.10 284.60 688.50 277.80 688.70 271.10 C 688.80 268.40 688.60 265.70 688.60 263.00 C 688.70 255.60 688.80 251.10 688.90 243.70 C 688.90 237.90 688.90 234.60 688.80 228.80 C 688.80 228.80 688.40 225.80 688.80 224.50 C 688.80 224.50 688.80 224.50 688.80 224.40 C 688.80 224.90 688.80 225.10 688.80 225.10 C 688.80 224.80 688.80 224.60 688.80 224.30 C 689.10 223.20 689.30 221.40 689.00 219.50 C 689.00 219.50 689.00 219.40 689.00 219.40 C 689.10 217.40 689.20 215.50 689.30 212.70 C 689.40 210.30 689.30 207.80 689.50 205.40 C 689.50 205.10 689.60 204.70 689.70 204.40 C 689.90 203.10 690.40 200.80 690.70 200.20 C 691.20 199.40 691.30 195.80 691.40 194.70 C 691.40 194.60 691.40 194.50 691.40 194.40 C 691.50 193.90 692.50 193.20 693.20 193.10 C 695.10 192.90 695.90 192.00 695.90 190.40 C 695.90 188.40 696.20 186.40 695.70 184.60 C 694.90 181.80 695.60 179.70 697.50 177.50 C 698.10 176.80 697.70 175.50 697.80 174.50 C 696.70 174.80 695.40 174.80 694.60 175.40 C 692.90 176.70 691.70 178.50 690.10 179.90 C 688.10 181.60 687.00 183.50 687.00 185.90 C 687.00 186.70 686.70 187.50 686.60 188.30 C 685.80 195.30 684.30 202.00 684.20 209.00 C 684.00 222.10 684.70 222.30 684.90 235.40 C 685.10 244.30 685.10 250.30 685.10 259.20 C 685.10 261.80 685.00 264.50 685.00 267.10 C 685.10 271.10 685.40 275.20 685.30 279.20 C 685.10 289.10 684.40 295.10 684.40 305.00 C 684.40 316.10 684.90 311.80 685.10 322.90 C 685.30 337.30 685.40 347.50 685.70 361.90 C 685.80 368.10 686.80 374.20 691.20 379.50 C 693.70 382.60 696.80 384.50 700.00 383.80 C 707.80 382.20 722.60 383.10 730.00 384.90 C 735.90 386.40 740.80 385.10 745.70 382.80 C 747.60 381.90 748.60 380.40 748.20 378.10 C 747.50 378.20 746.70 378.20 746.30 378.50 Z" fill="#99000f" fill-rule="nonzero" group-id="1,3,5" node-id="825" stroke="none" target-height="211.9" target-width="64.599976" target-x="684" target-y="174.5"/><path d="M 754.00 211.00 C 753.90 210.10 753.10 209.30 752.60 208.50 C 752.30 208.60 751.90 208.60 751.60 208.70 C 751.40 210.00 750.90 211.30 750.90 212.60 C 750.90 218.30 751.00 213.60 750.90 219.30 C 750.90 223.70 750.70 225.70 750.60 230.10 C 750.60 231.20 750.20 231.80 749.40 232.00 L 750.30 236.00 C 750.50 236.10 750.80 236.10 751.00 236.20 C 751.80 236.40 752.80 237.00 753.40 236.80 C 754.00 236.50 754.50 235.60 754.50 234.80 C 754.70 233.50 754.40 232.10 754.50 230.80 C 755.20 219.80 755.50 221.90 754.00 211.00 Z" fill="#99000f" fill-rule="nonzero" group-id="1,3,5" node-id="827" stroke="none" target-height="28.5" target-width="6.0999756" target-x="749.4" target-y="208.5"/><path d="M 757.10 348.00 C 756.60 336.20 756.60 333.20 756.40 321.30 C 756.30 316.10 756.40 315.60 756.30 310.40 C 756.10 304.60 755.70 308.90 755.40 303.10 C 755.30 301.80 755.30 300.50 755.60 299.30 C 756.00 297.40 756.00 295.60 754.60 293.90 C 754.30 293.50 754.40 292.20 754.90 291.90 C 756.70 290.80 756.80 289.30 756.50 287.60 C 755.80 282.90 754.70 278.10 754.60 273.40 C 754.40 266.60 754.70 259.80 755.30 253.00 C 755.70 248.60 754.90 247.20 754.50 242.80 C 754.40 242.30 753.90 241.90 753.50 241.40 C 753.00 241.70 752.30 242.00 751.90 242.40 C 751.50 242.90 751.30 243.50 751.10 244.10 C 751.10 244.20 751.10 244.30 751.00 244.40 C 750.50 246.40 750.80 251.30 750.80 251.30 L 750.80 251.30 C 751.10 254.90 751.40 255.70 751.60 259.30 C 751.60 259.50 751.40 259.70 751.40 259.90 C 751.20 260.90 751.00 261.90 750.90 262.80 C 750.80 264.70 750.70 266.70 750.70 268.60 C 750.70 271.10 750.80 273.60 750.90 276.00 C 751.00 277.90 751.00 279.70 751.10 281.60 C 751.10 282.30 751.00 283.00 751.10 283.60 C 751.70 286.50 750.70 288.70 750.10 292.10 C 749.90 293.20 749.90 294.30 749.90 294.60 C 750.00 299.10 749.80 297.70 750.00 302.20 C 750.10 304.10 750.90 304.00 750.90 305.90 C 751.10 312.70 751.20 311.00 751.40 317.80 C 751.60 328.20 751.80 329.70 752.00 340.10 C 752.10 344.30 752.10 348.60 752.10 352.80 C 752.10 354.70 751.90 356.70 751.80 358.60 C 751.70 361.10 751.70 363.70 751.70 366.20 C 751.70 366.80 751.80 367.80 752.20 367.90 C 752.70 368.10 754.00 367.90 754.20 367.60 C 755.10 366.20 756.20 364.70 756.50 363.20 C 757.40 358.20 757.40 353.10 757.10 348.00 Z" fill="#99000f" fill-rule="nonzero" group-id="1,3,5" node-id="829" stroke="none" target-height="126.70001" target-width="7.6000366" target-x="749.8" target-y="241.4"/></g><g node-id="1046"><path d="M 706.90 181.00 L 711.20 183.10 C 711.40 183.20 711.40 183.40 711.20 183.50 L 710.40 185.00 L 710.40 192.50 L 711.20 192.50 L 713.10 190.60 L 715.70 192.90 C 715.90 193.30 715.90 193.50 715.50 193.50 L 710.40 193.70 L 710.40 197.30 C 713.10 198.60 714.80 199.60 715.30 200.50 C 715.40 201.60 714.90 202.50 713.80 203.10 C 713.00 203.60 712.60 203.50 712.50 202.70 C 711.90 201.00 711.20 199.50 710.40 198.40 L 710.20 211.90 L 710.40 220.30 C 710.30 221.90 709.30 223.50 707.60 225.20 C 707.00 225.70 706.60 225.60 706.50 224.80 L 706.70 211.70 L 706.70 204.00 C 704.70 207.60 701.40 212.00 696.90 217.10 C 696.80 217.20 696.60 217.20 696.50 217.10 C 696.20 217.00 696.20 216.80 696.30 216.50 C 700.40 210.90 703.90 203.30 706.60 193.60 L 705.30 193.60 C 703.30 193.60 701.50 193.80 700.00 194.20 L 698.70 192.70 L 706.60 192.70 L 706.60 187.60 C 706.60 184.70 706.60 182.60 706.60 181.20 C 706.80 180.80 706.80 180.70 706.90 181.00 Z M 722.70 190.90 C 722.70 190.50 722.80 190.40 723.10 190.50 L 727.00 192.40 C 727.40 192.50 727.40 192.80 727.00 193.20 L 726.40 194.10 L 726.40 201.80 C 726.50 208.90 725.50 214.10 723.40 217.20 C 721.50 220.30 717.10 223.70 710.10 227.30 C 709.80 227.30 709.70 227.20 709.50 227.10 C 709.50 226.80 709.60 226.70 709.90 226.50 C 718.50 222.10 722.80 215.60 722.70 206.80 L 717.30 213.00 C 717.20 213.40 716.90 213.40 716.50 213.20 L 714.20 210.40 L 716.60 209.10 L 716.20 192.60 L 716.00 186.60 C 716.00 186.40 716.10 186.20 716.20 186.20 C 716.20 186.10 716.30 186.10 716.60 186.20 L 719.60 188.80 L 719.00 207.60 L 722.80 205.30 C 722.80 203.90 722.80 202.50 722.80 201.00 L 722.80 197.60 C 722.90 194.20 722.80 191.90 722.70 190.90 Z M 725.70 182.30 L 728.30 185.30 C 728.40 185.40 728.30 185.60 727.90 185.90 C 726.80 186.30 724.30 187.10 720.60 188.30 L 720.40 188.10 C 722.90 185.90 724.70 183.90 725.70 182.30 Z M 729.40 186.10 L 732.80 188.50 L 736.70 188.10 L 738.20 186.20 L 741.20 187.90 C 741.60 188.00 741.60 188.30 741.20 188.70 L 740.40 189.80 L 740.40 199.90 L 740.60 205.30 C 740.30 207.80 739.00 209.70 736.50 210.90 C 736.60 209.30 736.10 208.10 735.00 207.30 C 734.90 207.20 734.90 207.10 735.00 206.90 C 735.10 206.90 735.20 206.90 735.40 206.90 C 736.00 207.00 736.40 207.00 736.50 206.70 C 736.70 206.60 736.90 206.30 736.90 205.80 L 736.90 188.90 L 732.60 189.30 L 732.80 220.10 C 732.80 222.20 731.90 224.30 730.00 226.50 C 729.70 226.70 729.50 226.90 729.20 226.90 C 728.90 226.90 728.80 226.70 728.80 226.30 L 729.20 216.40 L 729.20 192.00 C 729.20 191.10 729.10 189.90 729.00 188.20 C 729.00 187.30 729.00 186.70 729.00 186.30 C 729.00 185.90 729.20 185.90 729.40 186.10 Z" fill="#99000f" fill-rule="nonzero" group-id="1,3,6" node-id="834" stroke="none" target-height="46.600006" target-width="45.399963" target-x="696.2" target-y="180.7"/><path d="M 699.10 243.30 C 702.90 244.90 704.70 246.60 704.70 248.40 C 704.40 249.70 703.70 250.50 702.40 251.00 C 701.30 251.10 700.60 250.70 700.50 249.70 C 700.50 247.30 699.90 245.30 698.60 243.70 C 698.70 243.30 698.80 243.20 699.10 243.30 Z M 709.90 243.50 L 705.00 264.90 C 704.70 266.30 704.70 267.30 704.80 267.90 C 704.80 268.50 705.00 269.20 705.40 270.00 C 705.40 269.90 705.50 269.90 705.60 270.20 C 705.80 271.10 705.80 271.80 705.40 272.30 C 704.80 273.10 703.60 273.50 702.00 273.80 C 701.20 273.90 700.90 273.50 700.90 272.50 C 701.30 270.40 701.40 268.80 701.30 267.80 C 701.30 266.60 700.70 265.70 699.40 265.20 C 699.30 265.00 699.30 264.80 699.60 264.60 C 700.60 264.90 701.30 264.50 701.90 263.50 L 709.40 243.60 C 709.50 243.50 709.60 243.40 709.80 243.20 C 709.90 243.20 709.90 243.40 709.90 243.50 Z M 704.90 230.90 C 708.70 232.50 710.60 234.30 710.90 236.20 C 710.60 237.80 709.80 238.80 708.50 239.20 C 707.50 239.50 706.80 239.10 706.40 238.10 C 706.30 234.90 705.60 232.70 704.50 231.50 C 704.40 231.40 704.40 231.30 704.50 231.10 C 704.50 231.00 704.60 230.90 704.90 230.90 Z M 724.20 263.70 C 724.60 263.60 724.70 263.70 724.60 264.10 L 716.70 269.90 C 716.10 270.40 715.20 271.10 714.10 272.00 C 713.00 272.90 712.20 273.40 711.80 273.70 C 711.50 274.20 711.20 274.30 710.90 273.90 L 708.10 271.50 C 708.00 271.20 707.90 271.10 707.90 270.90 C 707.90 270.80 708.00 270.70 708.30 270.70 C 709.40 270.20 710.80 269.70 712.40 269.20 C 712.90 269.10 713.30 269.00 713.50 268.80 L 713.30 243.10 L 713.10 233.70 C 713.10 233.50 713.20 233.30 713.30 233.30 C 713.40 233.30 713.50 233.40 713.70 233.50 L 717.50 235.80 L 721.40 235.80 L 721.40 229.20 L 726.70 230.70 C 727.10 230.70 727.10 231.00 726.90 231.50 L 726.30 233.00 L 725.90 235.60 L 729.80 235.40 L 731.30 233.00 L 735.80 235.40 C 735.90 235.40 736.00 235.50 736.20 235.60 L 736.00 236.00 L 734.90 237.70 L 734.90 249.70 L 735.10 250.30 C 735.20 250.70 735.10 250.90 734.70 250.90 C 733.30 250.80 732.10 250.70 731.10 250.70 C 730.20 250.70 728.20 250.70 725.10 250.70 C 725.30 258.20 731.30 265.00 742.90 271.00 C 743.00 271.10 743.10 271.20 743.10 271.40 C 743.10 271.50 743.00 271.60 742.70 271.60 C 740.30 271.20 738.00 272.10 735.80 274.20 C 728.80 268.30 725.00 260.50 724.40 250.80 C 722.50 250.90 720.10 251.00 717.10 251.00 L 716.90 267.30 L 724.20 263.70 Z M 717.40 236.90 L 717.20 242.30 L 728.60 242.10 C 728.80 242.10 729.00 242.20 729.00 242.50 C 729.00 242.80 728.90 242.90 728.60 243.10 L 717.20 243.50 L 717.00 249.70 L 729.90 249.50 L 729.90 236.60 L 717.40 236.90 Z M 736.80 251.70 L 739.60 255.30 C 739.80 255.40 739.80 255.60 739.40 255.90 L 737.90 256.30 C 735.10 257.30 732.10 258.20 728.90 258.90 L 728.70 258.70 C 731.90 256.50 734.60 254.20 736.80 251.70 Z" fill="#99000f" fill-rule="nonzero" group-id="1,3,6" node-id="836" stroke="none" target-height="45.09999" target-width="44.5" target-x="698.6" target-y="229.2"/><path d="M 706.90 287.40 L 706.50 316.70 C 706.40 318.70 705.40 320.50 703.70 322.10 C 703.20 322.50 702.90 322.50 702.80 322.10 L 703.00 308.40 L 703.20 288.90 L 703.00 283.50 L 707.30 285.00 C 707.70 285.10 707.70 285.40 707.50 285.80 L 706.90 287.40 Z M 707.90 309.70 C 707.50 309.70 707.30 309.60 707.30 309.30 C 707.30 308.90 707.40 308.70 707.70 308.50 L 713.30 308.10 L 713.30 290.30 C 711.70 290.40 710.30 290.60 709.20 290.90 L 707.90 289.60 L 726.70 289.20 L 729.00 286.80 L 731.80 289.60 C 732.00 289.70 732.00 289.90 731.80 290.20 L 724.90 290.20 L 727.00 291.30 C 727.20 291.30 727.20 291.40 727.00 291.70 L 726.60 292.80 L 726.60 307.10 L 727.20 307.10 L 729.50 304.30 L 732.90 307.10 L 733.10 307.50 C 733.00 307.60 732.80 307.70 732.70 307.70 L 726.70 308.30 L 726.90 315.10 C 726.60 316.70 725.60 318.50 723.90 320.40 C 723.40 320.80 723.00 320.70 722.80 320.20 L 722.80 308.60 L 707.90 309.70 Z M 708.10 277.30 C 712.50 278.80 714.60 280.00 714.50 280.90 C 714.50 282.40 713.90 283.60 712.60 284.50 C 711.70 284.90 711.20 284.70 710.90 283.90 C 709.90 281.20 708.80 279.10 707.70 277.70 C 707.60 277.30 707.70 277.10 708.10 277.30 Z M 721.40 296.20 L 716.90 296.40 L 716.70 301.30 L 721.20 301.10 C 721.40 301.10 721.60 301.20 721.60 301.50 C 721.60 301.80 721.50 301.90 721.20 302.10 L 716.70 302.30 L 716.70 308.10 L 722.50 307.50 L 722.70 290.20 L 716.90 290.40 L 716.90 295.50 L 721.40 295.50 C 721.80 295.70 721.80 296.00 721.40 296.20 Z M 723.80 282.70 C 721.90 282.80 720.00 283.00 718.20 283.30 L 716.90 282.00 L 732.80 281.40 L 735.10 279.30 L 738.70 281.70 C 738.90 281.70 738.90 281.90 738.70 282.30 L 737.20 284.20 L 737.40 303.00 L 737.80 313.30 C 738.00 316.90 736.10 319.90 732.00 322.10 C 731.70 322.20 731.60 322.30 731.40 322.30 C 731.30 322.20 731.20 322.00 731.20 321.70 C 731.20 319.90 730.60 318.60 729.30 317.80 C 729.00 317.40 729.10 317.20 729.50 317.20 C 732.10 317.30 733.30 316.70 733.10 315.30 L 732.90 282.50 L 723.80 282.70 Z" fill="#99000f" fill-rule="nonzero" group-id="1,3,6" node-id="838" stroke="none" target-height="45.399994" target-width="36.100037" target-x="702.8" target-y="277.1"/><path d="M 699.80 362.90 C 699.40 362.90 699.20 362.80 699.20 362.50 C 699.20 362.10 699.30 361.90 699.60 361.90 L 721.70 361.50 L 724.30 359.10 L 727.30 361.90 C 727.40 362.20 727.30 362.30 726.90 362.50 L 699.80 362.90 Z M 723.30 335.70 L 723.30 331.80 L 716.40 332.00 L 715.80 335.60 C 714.70 336.50 713.90 336.60 713.50 336.00 L 713.10 332.10 L 706.50 332.10 C 705.40 332.10 703.90 332.20 702.20 332.50 C 701.70 332.60 701.40 332.70 701.30 332.70 L 699.80 331.20 L 712.90 331.00 L 712.30 325.60 L 717.60 326.90 C 717.80 326.90 717.80 327.10 717.60 327.50 L 717.00 328.40 L 716.40 331.00 L 723.20 330.80 L 723.40 325.20 L 728.30 327.10 C 728.50 327.20 728.50 327.40 728.30 327.70 L 727.70 328.60 L 726.90 330.90 L 735.50 330.70 L 737.90 328.30 L 741.30 331.30 C 741.50 331.70 741.50 331.90 741.10 331.90 L 726.50 332.10 L 725.20 336.00 C 724.40 336.20 723.80 336.20 723.30 335.70 Z M 733.90 336.30 L 736.20 334.60 L 741.10 338.90 C 741.30 339.20 741.40 339.40 741.30 339.70 C 741.20 339.80 740.90 339.90 740.50 339.90 C 738.40 340.00 735.90 340.80 733.20 342.30 C 732.90 342.30 732.80 342.20 732.80 341.90 L 734.10 337.40 L 707.50 338.00 C 706.70 341.50 704.90 344.30 701.90 346.30 C 701.40 346.60 701.00 346.40 700.80 345.90 C 700.20 344.50 700.20 343.50 701.00 342.90 C 703.70 340.80 704.90 338.40 704.60 335.80 C 704.60 335.40 704.70 335.20 704.80 335.20 C 704.90 335.20 705.20 335.30 705.60 335.40 C 706.10 335.70 706.70 336.20 707.50 336.90 L 733.90 336.30 Z M 728.50 341.50 L 732.30 343.90 C 732.50 344.00 732.50 344.20 732.30 344.50 C 732.40 344.50 732.40 344.60 732.30 344.70 L 731.40 345.80 L 730.80 349.60 C 730.40 352.00 729.00 353.50 726.50 354.10 C 725.90 354.20 725.60 354.00 725.60 353.50 C 725.70 352.40 725.30 351.60 724.30 351.20 C 724.00 351.00 724.10 350.80 724.50 350.80 C 725.90 351.10 726.60 350.70 726.80 349.90 L 727.40 345.60 C 727.60 345.00 727.50 344.60 726.80 344.50 L 712.70 344.90 L 712.10 345.80 L 710.60 355.40 L 732.40 355.00 L 734.30 352.70 L 738.10 355.10 C 738.30 355.20 738.30 355.50 738.10 355.90 L 737.00 357.00 C 736.00 362.30 734.90 365.70 733.60 367.50 C 732.70 368.90 731.00 369.90 728.30 370.50 C 727.90 370.70 727.70 370.80 727.50 370.70 C 727.20 370.60 727.20 370.30 727.30 369.90 C 727.40 368.10 726.90 367.00 725.60 366.50 C 725.50 366.40 725.40 366.20 725.40 365.90 C 725.50 365.80 725.70 365.70 726.00 365.70 C 727.10 365.80 727.90 365.90 728.40 365.90 C 730.10 365.50 731.50 362.20 732.30 356.00 L 710.40 356.40 C 710.30 356.50 710.10 356.70 710.00 356.80 C 709.40 357.60 708.50 358.10 707.40 358.50 C 707.00 358.60 706.80 358.70 706.60 358.70 C 706.30 358.60 706.30 358.40 706.40 358.10 L 707.20 353.60 L 708.50 345.50 L 708.90 341.70 L 712.50 343.80 L 713.10 343.80 C 714.80 341.50 716.30 339.60 717.40 337.80 L 720.60 340.20 C 720.80 340.30 720.80 340.50 720.40 340.60 L 719.30 341.00 L 714.00 343.60 L 726.80 343.40 L 728.50 341.50 Z M 715.40 346.80 C 718.80 347.80 720.60 348.80 720.80 349.80 C 720.80 350.90 720.20 351.80 719.10 352.40 C 718.30 352.90 717.80 352.80 717.60 352.00 C 717.10 349.90 716.30 348.20 715.20 347.10 C 715.10 346.80 715.10 346.70 715.40 346.80 Z" fill="#99000f" fill-rule="nonzero" group-id="1,3,6" node-id="840" stroke="none" target-height="45.599976" target-width="42.299988" target-x="699.2" target-y="325.2"/></g></g></g><g clip-path="url(#SVGID_2_)" group-id="2" id="sillyvg_g_3" node-id="847"><path d="M -592.70 933.30 C -529.40 933.30 -529.40 957.30 -466.00 957.30 C -402.70 957.30 -402.70 933.30 -339.30 933.30 C -275.90 933.30 -275.90 957.30 -212.60 957.30 C -149.30 957.30 -149.30 933.30 -85.90 933.30 C -22.50 933.30 -22.50 957.30 40.80 957.30 C 104.20 957.30 104.20 933.30 167.50 933.30 C 230.90 933.30 230.90 957.30 294.20 957.30 C 357.60 957.30 357.60 933.30 420.90 933.30 C 484.30 933.30 484.30 957.30 547.60 957.30 C 611.00 957.30 611.00 933.30 674.30 933.30 C 737.70 933.30 737.70 957.30 801.00 957.30 C 864.40 957.30 864.40 933.30 927.70 933.30 C 991.10 933.30 991.10 957.30 1054.40 957.30 C 1117.80 957.30 1117.80 933.30 1181.10 933.30 C 1244.40 933.30 1244.50 957.30 1307.80 957.30 C 1371.20 957.30 1371.20 933.30 1434.50 933.30 C 1497.90 933.30 1497.90 957.30 1561.20 957.30 C 1624.60 957.30 1624.60 933.30 1687.90 933.30 C 1751.30 933.30 1751.30 957.30 1814.60 957.30 C 1878.00 957.30 1878.00 933.30 1941.30 933.30 C 2004.70 933.30 2004.70 957.30 2068.00 957.30 C 2131.40 957.30 2131.40 933.30 2194.70 933.30 C 2258.10 933.30 2258.10 957.30 2321.40 957.30 C 2384.80 957.30 2384.80 933.30 2448.10 933.30 C 2511.50 933.30 2511.50 957.30 2574.80 957.30 C 2638.10 957.30 2638.20 933.30 2701.50 933.30" fill="none" group-id="2,4,7,9" node-id="853" stroke="#253a59" stroke-linecap="butt" stroke-opacity="0.1" stroke-width="40" target-height="24" target-width="3294.2" target-x="-592.7" target-y="933.3"/><path d="M -421.80 1037.20 C -365.90 1037.20 -365.90 1061.20 -310.00 1061.20 C -254.10 1061.20 -254.10 1037.20 -198.20 1037.20 C -142.30 1037.20 -142.30 1061.20 -86.40 1061.20 C -30.50 1061.20 -30.50 1037.20 25.40 1037.20 C 81.30 1037.20 81.30 1061.20 137.20 1061.20 C 193.10 1061.20 193.10 1037.20 249.00 1037.20 C 304.90 1037.20 304.90 1061.20 360.80 1061.20 C 416.70 1061.20 416.70 1037.20 472.60 1037.20 C 528.50 1037.20 528.50 1061.20 584.40 1061.20 C 640.30 1061.20 640.30 1037.20 696.20 1037.20 C 752.10 1037.20 752.10 1061.20 808.00 1061.20 C 863.90 1061.20 863.90 1037.20 919.80 1037.20 C 975.70 1037.20 975.70 1061.20 1031.60 1061.20 C 1087.50 1061.20 1087.50 1037.20 1143.40 1037.20 C 1199.30 1037.20 1199.30 1061.20 1255.20 1061.20 C 1311.10 1061.20 1311.10 1037.20 1367.00 1037.20 C 1422.90 1037.20 1422.90 1061.20 1478.80 1061.20 C 1534.70 1061.20 1534.70 1037.20 1590.60 1037.20 C 1646.50 1037.20 1646.50 1061.20 1702.40 1061.20 C 1758.30 1061.20 1758.30 1037.20 1814.20 1037.20 C 1870.10 1037.20 1870.10 1061.20 1926.00 1061.20 C 1981.90 1061.20 1981.90 1037.20 2037.80 1037.20 C 2093.70 1037.20 2093.70 1061.20 2149.60 1061.20 C 2205.50 1061.20 2205.50 1037.20 2261.40 1037.20 C 2317.30 1037.20 2317.30 1061.20 2373.20 1061.20 C 2429.10 1061.20 2429.10 1037.20 2485.00 1037.20" fill="none" group-id="2,4,7,10" node-id="858" stroke="#253a59" stroke-linecap="butt" stroke-opacity="0.1" stroke-width="20" target-height="24" target-width="2906.8" target-x="-421.8" target-y="1037.2"/><path d="M -510.90 985.30 C -466.70 985.30 -466.70 1009.30 -422.50 1009.30 C -378.30 1009.30 -378.30 985.30 -334.10 985.30 C -289.90 985.30 -289.90 1009.30 -245.70 1009.30 C -201.50 1009.30 -201.50 985.30 -157.30 985.30 C -113.10 985.30 -113.10 1009.30 -68.90 1009.30 C -24.70 1009.30 -24.70 985.30 19.50 985.30 C 63.70 985.30 63.70 1009.30 107.90 1009.30 C 152.10 1009.30 152.10 985.30 196.30 985.30 C 240.50 985.30 240.50 1009.30 284.70 1009.30 C 328.90 1009.30 328.90 985.30 373.10 985.30 C 417.30 985.30 417.30 1009.30 461.50 1009.30 C 505.70 1009.30 505.70 985.30 549.90 985.30 C 594.10 985.30 594.10 1009.30 638.30 1009.30 C 682.50 1009.30 682.50 985.30 726.70 985.30 C 770.90 985.30 770.90 1009.30 815.10 1009.30 C 859.30 1009.30 859.30 985.30 903.50 985.30 C 947.70 985.30 947.70 1009.30 991.90 1009.30 C 1036.10 1009.30 1036.10 985.30 1080.30 985.30 C 1124.50 985.30 1124.50 1009.30 1168.70 1009.30 C 1212.90 1009.30 1212.90 985.30 1257.10 985.30 C 1301.30 985.30 1301.30 1009.30 1345.50 1009.30 C 1389.70 1009.30 1389.70 985.30 1433.90 985.30 C 1478.10 985.30 1478.10 1009.30 1522.30 1009.30 C 1566.50 1009.30 1566.50 985.30 1610.70 985.30 C 1654.90 985.30 1654.90 1009.30 1699.10 1009.30 C 1743.30 1009.30 1743.30 985.30 1787.50 985.30" fill="none" group-id="2,4,7,11" node-id="863" stroke="#253a59" stroke-linecap="butt" stroke-opacity="0.2" stroke-width="10" target-height="24" target-width="2298.4" target-x="-510.9" target-y="985.3"/><path d="M -510.90 881.30 C -476.50 881.30 -476.50 905.30 -442.20 905.30 C -407.80 905.30 -407.80 881.30 -373.50 881.30 C -339.10 881.30 -339.10 905.30 -304.80 905.30 C -270.40 905.30 -270.40 881.30 -236.10 881.30 C -201.70 881.30 -201.70 905.30 -167.40 905.30 C -133.00 905.30 -133.00 881.30 -98.70 881.30 C -64.30 881.30 -64.30 905.30 -30.00 905.30 C 4.40 905.30 4.40 881.30 38.70 881.30 C 73.10 881.30 73.10 905.30 107.40 905.30 C 141.80 905.30 141.80 881.30 176.10 881.30 C 210.50 881.30 210.50 905.30 244.80 905.30 C 279.20 905.30 279.20 881.30 313.50 881.30 C 347.90 881.30 347.90 905.30 382.20 905.30 C 416.60 905.30 416.60 881.30 450.90 881.30 C 485.30 881.30 485.30 905.30 519.60 905.30 C 554.00 905.30 554.00 881.30 588.30 881.30 C 622.70 881.30 622.70 905.30 657.00 905.30 C 691.40 905.30 691.40 881.30 725.70 881.30 C 760.10 881.30 760.10 905.30 794.40 905.30 C 828.80 905.30 828.80 881.30 863.10 881.30 C 897.50 881.30 897.50 905.30 931.80 905.30 C 966.20 905.30 966.20 881.30 1000.50 881.30 C 1034.90 881.30 1034.90 905.30 1069.20 905.30 C 1103.60 905.30 1103.60 881.30 1137.90 881.30 C 1172.30 881.30 1172.30 905.30 1206.60 905.30 C 1241.00 905.30 1241.00 881.30 1275.30 881.30" fill="none" group-id="2,4,7,12" node-id="868" stroke="#253a59" stroke-linecap="butt" stroke-opacity="0.2" stroke-width="10" target-height="24" target-width="1786.2001" target-x="-510.9" target-y="881.3"/><path d="M -510.90 1089.20 C -476.20 1089.20 -476.20 1113.20 -441.50 1113.20 C -406.80 1113.20 -406.80 1089.20 -372.10 1089.20 C -337.40 1089.20 -337.40 1113.20 -302.70 1113.20 C -268.00 1113.20 -268.00 1089.20 -233.30 1089.20 C -198.60 1089.20 -198.60 1113.20 -163.90 1113.20 C -129.20 1113.20 -129.20 1089.20 -94.50 1089.20 C -59.80 1089.20 -59.80 1113.20 -25.10 1113.20 C 9.60 1113.20 9.60 1089.20 44.30 1089.20 C 79.00 1089.20 79.00 1113.20 113.70 1113.20 C 148.40 1113.20 148.40 1089.20 183.10 1089.20 C 217.80 1089.20 217.80 1113.20 252.50 1113.20 C 287.20 1113.20 287.20 1089.20 321.90 1089.20 C 356.60 1089.20 356.60 1113.20 391.30 1113.20 C 426.00 1113.20 426.00 1089.20 460.70 1089.20 C 495.40 1089.20 495.40 1113.20 530.10 1113.20 C 564.80 1113.20 564.80 1089.20 599.50 1089.20 C 634.20 1089.20 634.20 1113.20 668.90 1113.20 C 703.60 1113.20 703.60 1089.20 738.30 1089.20 C 773.00 1089.20 773.00 1113.20 807.70 1113.20 C 842.40 1113.20 842.40 1089.20 877.10 1089.20 C 911.80 1089.20 911.80 1113.20 946.50 1113.20 C 981.20 1113.20 981.20 1089.20 1015.90 1089.20 C 1050.60 1089.20 1050.60 1113.20 1085.30 1113.20 C 1120.00 1113.20 1120.00 1089.20 1154.70 1089.20 C 1189.40 1089.20 1189.40 1113.20 1224.10 1113.20 C 1258.80 1113.20 1258.80 1089.20 1293.50 1089.20" fill="none" group-id="2,4,7,13" node-id="873" stroke="#253a59" stroke-linecap="butt" stroke-opacity="0.5" stroke-width="5" target-height="24" target-width="1804.4" target-x="-510.9" target-y="1089.2"/><path d="M -510.90 829.40 C -455.10 829.40 -455.10 853.40 -399.20 853.40 C -343.40 853.40 -343.40 829.40 -287.50 829.40 C -231.70 829.40 -231.70 853.40 -175.80 853.40 C -120.00 853.40 -120.00 829.40 -64.10 829.40 C -8.30 829.40 -8.30 853.40 47.60 853.40 C 103.40 853.40 103.40 829.40 159.30 829.40 C 215.10 829.40 215.10 853.40 271.00 853.40 C 326.80 853.40 326.80 829.40 382.70 829.40 C 438.50 829.40 438.50 853.40 494.40 853.40 C 550.20 853.40 550.20 829.40 606.10 829.40 C 661.90 829.40 661.90 853.40 717.80 853.40 C 773.60 853.40 773.60 829.40 829.50 829.40 C 885.30 829.40 885.30 853.40 941.20 853.40 C 997.00 853.40 997.00 829.40 1052.90 829.40 C 1108.70 829.40 1108.70 853.40 1164.60 853.40 C 1220.40 853.40 1220.40 829.40 1276.30 829.40 C 1332.20 829.40 1332.10 853.40 1388.00 853.40 C 1443.80 853.40 1443.80 829.40 1499.70 829.40 C 1555.50 829.40 1555.50 853.40 1611.40 853.40 C 1667.20 853.40 1667.20 829.40 1723.10 829.40 C 1778.90 829.40 1778.90 853.40 1834.80 853.40 C 1890.60 853.40 1890.60 829.40 1946.50 829.40 C 2002.30 829.40 2002.30 853.40 2058.20 853.40 C 2114.00 853.40 2114.00 829.40 2169.90 829.40 C 2225.70 829.40 2225.70 853.40 2281.60 853.40 C 2337.40 853.40 2337.40 829.40 2393.30 829.40" fill="none" group-id="2,4,7,14" node-id="878" stroke="#253a59" stroke-linecap="butt" stroke-opacity="0.3" stroke-width="5" target-height="24" target-width="2904.2" target-x="-510.9" target-y="829.4"/><path d="M -19.50 1228.20 C -19.50 1228.20 74.40 1044.70 94.30 1029.40 C 114.30 1014.10 139.70 989.70 160.30 975.10 C 176.00 964.00 220.00 917.60 234.00 898.60 C 240.60 889.70 315.20 807.20 374.70 785.70 C 435.50 763.70 580.20 726.10 632.10 903.90 C 632.10 903.90 605.90 714.60 393.10 772.40 C 313.00 794.20 240.70 875.80 219.50 901.00 C 190.20 935.70 169.00 959.00 151.30 971.10 C 133.60 983.20 94.10 1016.50 86.00 1024.30 C 86.00 1024.30 82.80 980.00 104.80 930.90 C 117.50 902.60 120.70 860.30 120.70 860.30 C 120.70 860.30 137.10 799.00 262.60 737.20 C 262.60 737.20 173.20 767.70 122.50 842.30 C 122.50 842.30 99.50 773.20 172.60 687.10 C 172.60 687.10 216.50 616.80 233.10 586.20 C 249.70 555.60 265.30 506.50 304.30 493.80 C 304.30 493.80 267.00 494.10 228.60 586.90 C 228.60 586.90 178.10 668.50 157.40 697.00 C 136.70 725.40 119.90 760.70 116.50 774.30 C 116.50 774.30 114.60 727.00 123.30 699.60 C 132.00 672.20 146.90 524.30 25.10 491.30 C -96.70 458.30 -191.40 590.80 -191.40 590.80 C -191.40 590.80 -79.00 455.00 34.20 498.70 C 147.40 542.40 120.90 689.60 120.90 689.60 C 120.90 689.60 107.00 737.50 108.90 779.10 C 110.80 820.80 113.40 855.70 112.30 869.40 C 111.30 883.10 102.50 920.10 89.60 943.10 C 68.90 980.00 70.90 1040.60 70.90 1040.60 C 70.90 1040.60 22.40 1101.60 -43.40 1232.00 L -19.50 1228.20 Z" fill="url(#SVGID_3_)" fill-rule="nonzero" group-id="2,4,8,15" node-id="886" stroke="none" target-height="777" target-width="823.5" target-x="-191.4" target-y="455"/><path d="M 242.90 747.70 C 242.90 747.70 476.70 620.90 593.90 1150.70" fill="none" group-id="2,4,8,15,17,18" node-id="892" stroke="#253a59" stroke-linecap="butt" stroke-width="1.5" target-height="529.7999" target-width="351.00003" target-x="242.9" target-y="620.9"/><path d="M 257.70 739.90 C 257.70 739.90 564.40 532.50 677.60 807.00 C 677.60 807.00 724.80 911.10 767.30 1109.50" fill="none" group-id="2,4,8,15,17,18" node-id="894" stroke="#253a59" stroke-linecap="butt" stroke-width="3" target-height="577" target-width="509.59998" target-x="257.7" target-y="532.5"/><path d="M 486.20 664.80 C 486.20 664.80 573.10 680.80 606.90 826.50 C 640.70 972.20 664.90 1125.60 664.90 1125.60" fill="none" group-id="2,4,8,15,17,18" node-id="896" stroke="#253a59" stroke-linecap="butt" stroke-width="1.5" target-height="460.8" target-width="178.70001" target-x="486.2" target-y="664.8"/><path d="M 627.80 890.40 C 627.80 890.40 641.30 935.00 679.80 1139.80" fill="none" group-id="2,4,8,15,17,18" node-id="898" stroke="#253a59" stroke-linecap="butt" stroke-width="1.5" target-height="249.40002" target-width="52" target-x="627.8" target-y="890.4"/><path d="M 286.00 502.60 C 286.00 502.60 463.70 432.30 570.70 619.70 C 677.70 807.10 731.30 1129.00 731.30 1129.00" fill="none" group-id="2,4,8,15,17,18" node-id="900" stroke="#253a59" stroke-linecap="butt" stroke-width="2" target-height="696.7" target-width="445.3" target-x="286" target-y="432.3"/><path d="M 278.40 507.70 C 278.40 507.70 478.00 427.50 624.90 1131.90" fill="none" group-id="2,4,8,15,17,18" node-id="902" stroke="#253a59" stroke-linecap="butt" stroke-width="1.5" target-height="704.4" target-width="346.50003" target-x="278.4" target-y="427.5"/><path d="M 252.00 540.30 C 252.00 540.30 301.40 388.00 437.60 450.50 C 573.80 513.00 684.10 1122.60 684.10 1122.60" fill="none" group-id="2,4,8,15,17,18" node-id="904" stroke="#253a59" stroke-linecap="butt" stroke-width="1.5" target-height="734.6" target-width="432.09998" target-x="252" target-y="388"/><path d="M 202.10 637.20 C 202.10 637.20 348.50 556.70 393.50 903.50 L 434.70 1161.90" fill="none" group-id="2,4,8,15,17,18" node-id="906" stroke="#253a59" stroke-linecap="butt" stroke-width="3" target-height="605.2" target-width="232.6" target-x="202.1" target-y="556.7"/><path d="M 219.80 601.00 C 219.80 601.00 175.70 386.70 23.90 445.60 C -161.20 517.40 -10.00 1111.60 -10.00 1111.60" fill="none" group-id="2,4,8,15,17,18" node-id="908" stroke="#253a59" stroke-linecap="butt" stroke-width="3" target-height="724.89996" target-width="381" target-x="-161.2" target-y="386.7"/><path d="M 275.30 851.90 C 275.30 851.90 440.40 735.60 519.40 1148.50" fill="none" group-id="2,4,8,15,17,18" node-id="910" stroke="#253a59" stroke-linecap="butt" stroke-width="1.5" target-height="412.90002" target-width="244.10004" target-x="275.3" target-y="735.6"/><path d="M 79.70 552.60 C 79.70 552.60 -26.70 472.80 -54.80 666.60 C -76.20 814.30 -86.80 1088.60 -124.20 1250.10" fill="none" group-id="2,4,8,15,17" node-id="913" stroke="#253a59" stroke-linecap="butt" stroke-width="1.5" target-height="777.3" target-width="203.9" target-x="-124.2" target-y="472.8"/><path d="M 70.50 517.10 C 70.50 517.10 -5.70 416.30 -63.40 488.90 C -149.70 597.60 24.70 1181.80 24.70 1181.80" fill="none" group-id="2,4,8,15,17" node-id="915" stroke="#253a59" stroke-linecap="butt" stroke-width="1.5" target-height="765.50006" target-width="220.2" target-x="-149.7" target-y="416.3"/><path d="M -180.00 576.50 C -180.00 576.50 -263.90 670.40 -228.40 823.90 C -183.90 1016.60 -150.80 1270.90 -150.80 1270.90" fill="none" group-id="2,4,8,15,17" node-id="917" stroke="#253a59" stroke-linecap="butt" stroke-width="1.5" target-height="694.4" target-width="113.09999" target-x="-263.9" target-y="576.5"/><path d="M 186.10 654.00 C 186.10 654.00 128.50 625.10 68.40 669.50 C -57.40 762.50 -4.70 1056.60 27.90 1263.50" fill="none" group-id="2,4,8,15,17" node-id="919" stroke="#253a59" stroke-linecap="butt" stroke-width="1.5" target-height="638.4" target-width="243.5" target-x="-57.4" target-y="625.1"/><path d="M 277.20 638.50 C 277.20 638.50 381.90 566.50 444.90 676.80 C 507.90 787.10 571.20 1134.30 571.20 1134.30" fill="none" group-id="2,4,8,15,17" node-id="921" stroke="#253a59" stroke-linecap="butt" stroke-width="1.5" target-height="567.80005" target-width="294" target-x="277.2" target-y="566.5"/><path d="M 181.00 503.60 C 181.00 503.60 91.00 444.60 70.70 595.00 C 57.10 695.60 109.20 1219.70 109.20 1219.70" fill="none" group-id="2,4,8,15,17" node-id="923" stroke="#253a59" stroke-linecap="butt" stroke-width="1.5" target-height="775.1" target-width="123.9" target-x="57.1" target-y="444.6"/><path d="M 396.30 906.60 C 396.30 906.60 417.90 912.20 393.60 991.00 C 393.60 991.00 386.00 926.30 396.30 906.60 Z" fill="url(#SVGID_4_)" fill-rule="nonzero" group-id="2,4,8,15" node-id="926" stroke="none" target-height="84.400024" target-width="31.899994" target-x="386" target-y="906.6"/><path d="M 677.50 891.30 C 677.50 891.30 670.60 898.90 697.90 937.60 C 697.90 937.60 685.90 900.10 677.50 891.30 Z" fill="url(#SVGID_5_)" fill-rule="nonzero" group-id="2,4,8,15" node-id="928" stroke="none" target-height="46.299988" target-width="27.300049" target-x="670.6" target-y="891.3"/><path d="M 481.40 764.60 C 481.40 764.60 474.50 772.20 501.80 810.90 C 501.90 810.90 489.90 773.40 481.40 764.60 Z" fill="url(#SVGID_6_)" fill-rule="nonzero" group-id="2,4,8,15" node-id="930" stroke="none" target-height="46.30005" target-width="27.399994" target-x="474.5" target-y="764.6"/><path d="M 655.00 815.20 C 655.00 815.20 673.60 846.10 674.40 868.90 C 674.40 868.90 664.30 848.70 659.40 842.90 C 654.50 837.10 649.60 821.20 655.00 815.20 Z" fill="url(#SVGID_7_)" fill-rule="nonzero" group-id="2,4,8,15" node-id="932" stroke="none" target-height="53.700012" target-width="24.800049" target-x="649.6" target-y="815.2"/><path d="M 390.30 866.60 C 390.30 866.60 416.60 902.60 416.60 929.80 C 416.60 929.80 402.60 906.10 395.50 899.40 C 388.40 892.80 382.00 874.00 390.30 866.60 Z" fill="url(#SVGID_8_)" fill-rule="nonzero" group-id="2,4,8,15" node-id="934" stroke="none" target-height="63.200012" target-width="34.600006" target-x="382" target-y="866.6"/><path d="M 404.00 962.50 C 404.00 962.50 422.50 987.90 422.50 1007.10 C 422.50 1007.10 412.60 990.40 407.60 985.70 C 402.70 980.90 398.20 967.70 404.00 962.50 Z" fill="url(#SVGID_9_)" fill-rule="nonzero" group-id="2,4,8,15" node-id="936" stroke="none" target-height="44.599976" target-width="24.299988" target-x="398.2" target-y="962.5"/><path d="M 465.00 716.20 C 465.00 716.20 481.80 743.30 487.30 763.70 C 487.30 763.70 477.40 745.90 473.50 740.90 C 469.50 735.80 463.40 721.70 465.00 716.20 Z" fill="url(#SVGID_10_)" fill-rule="nonzero" group-id="2,4,8,15" node-id="938" stroke="none" target-height="47.5" target-width="23.899994" target-x="463.4" target-y="716.2"/><path d="M 502.80 828.00 C 502.80 828.00 516.40 849.80 520.70 866.30 C 520.70 866.30 512.80 852.00 509.60 847.90 C 506.40 843.80 501.50 832.50 502.80 828.00 Z" fill="url(#SVGID_11_)" fill-rule="nonzero" group-id="2,4,8,15" node-id="940" stroke="none" target-height="38.299988" target-width="19.200012" target-x="501.5" target-y="828"/><path d="M 444.00 454.30 C 444.00 454.30 477.40 467.90 491.60 485.80 C 491.60 485.80 471.50 475.60 464.00 473.90 C 456.60 472.20 443.20 462.30 444.00 454.30 Z" fill="url(#SVGID_12_)" fill-rule="nonzero" group-id="2,4,8,15" node-id="942" stroke="none" target-height="31.5" target-width="48.399994" target-x="443.2" target-y="454.3"/><path d="M 416.30 882.40 C 416.30 882.40 411.50 899.20 426.00 943.90 C 426.00 943.90 427.60 907.00 416.30 882.40 Z" fill="url(#SVGID_13_)" fill-rule="nonzero" group-id="2,4,8,15" node-id="944" stroke="none" target-height="61.5" target-width="16.100006" target-x="411.5" target-y="882.4"/><path d="M 406.00 987.40 C 406.00 987.40 399.90 1003.80 411.00 1049.50 C 411.00 1049.40 415.50 1012.70 406.00 987.40 Z" fill="url(#SVGID_14_)" fill-rule="nonzero" group-id="2,4,8,15" node-id="946" stroke="none" target-height="62.099976" target-width="15.600006" target-x="399.9" target-y="987.4"/><path d="M 415.80 1052.50 C 415.80 1052.50 411.10 1065.10 419.60 1100.30 C 419.60 1100.30 423.00 1072.10 415.80 1052.50 Z" fill="url(#SVGID_15_)" fill-rule="nonzero" group-id="2,4,8,15" node-id="948" stroke="none" target-height="47.80005" target-width="11.899994" target-x="411.1" target-y="1052.5"/><path d="M 383.80 822.60 C 383.80 822.60 371.20 841.60 377.20 897.10 C 377.30 897.10 392.00 853.80 383.80 822.60 Z" fill="url(#SVGID_16_)" fill-rule="nonzero" group-id="2,4,8,15" node-id="950" stroke="none" target-height="74.5" target-width="20.799988" target-x="371.2" target-y="822.6"/><path d="M 351.20 732.90 C 351.20 732.90 335.00 753.40 352.10 806.00 C 352.10 805.90 368.10 761.50 351.20 732.90 Z" fill="url(#SVGID_17_)" fill-rule="nonzero" group-id="2,4,8,15" node-id="952" stroke="none" target-height="73.099976" target-width="33.100006" target-x="335" target-y="732.9"/><path d="M 505.10 845.90 C 505.10 845.90 496.20 855.00 503.70 883.00 C 503.70 883.00 513.00 861.70 505.10 845.90 Z" fill="url(#SVGID_18_)" fill-rule="nonzero" group-id="2,4,8,15" node-id="954" stroke="none" target-height="37.099976" target-width="16.799988" target-x="496.2" target-y="845.9"/><path d="M 686.10 932.70 C 686.10 932.70 683.30 944.50 690.90 977.40 C 690.90 977.40 692.10 951.00 686.10 932.70 Z" fill="url(#SVGID_19_)" fill-rule="nonzero" group-id="2,4,8,15" node-id="956" stroke="none" target-height="44.700012" target-width="8.799988" target-x="683.3" target-y="932.7"/><path d="M 432.80 658.00 C 432.80 658.00 435.40 670.10 462.00 683.90 C 462.00 683.90 449.90 663.30 432.80 658.00 Z" fill="url(#SVGID_20_)" fill-rule="nonzero" group-id="2,4,8,15" node-id="958" stroke="none" target-height="25.900024" target-width="29.200012" target-x="432.8" target-y="658"/><path d="M 494.90 507.30 C 494.90 507.30 494.40 516.70 512.20 522.60 C 512.20 522.60 507.00 508.20 494.90 507.30 Z" fill="url(#SVGID_21_)" fill-rule="nonzero" group-id="2,4,8,15" node-id="960" stroke="none" target-height="15.299988" target-width="17.800018" target-x="494.4" target-y="507.3"/><path d="M 510.40 534.10 C 510.40 534.10 508.70 543.70 526.10 553.40 C 526.10 553.40 522.70 537.50 510.40 534.10 Z" fill="url(#SVGID_22_)" fill-rule="nonzero" group-id="2,4,8,15" node-id="962" stroke="none" target-height="19.300049" target-width="17.399963" target-x="508.7" target-y="534.1"/><path d="M 528.70 569.10 C 528.70 569.10 528.80 575.80 541.60 585.40 C 541.60 585.40 537.30 573.40 528.70 569.10 Z" fill="url(#SVGID_23_)" fill-rule="nonzero" group-id="2,4,8,15" node-id="964" stroke="none" target-height="16.300049" target-width="12.899963" target-x="528.7" target-y="569.1"/><path d="M 537.30 590.60 C 537.30 590.60 536.90 596.60 549.20 604.20 C 549.10 604.30 545.70 593.80 537.30 590.60 Z" fill="url(#SVGID_24_)" fill-rule="nonzero" group-id="2,4,8,15" node-id="966" stroke="none" target-height="13.700012" target-width="12.299988" target-x="536.9" target-y="590.6"/><path d="M 549.30 616.10 C 549.30 616.10 549.00 620.40 557.90 626.00 C 557.90 626.00 555.40 618.50 549.30 616.10 Z" fill="url(#SVGID_25_)" fill-rule="nonzero" group-id="2,4,8,15" node-id="968" stroke="none" target-height="9.900024" target-width="8.900024" target-x="549" target-y="616.1"/><path d="M 473.80 477.90 C 473.80 477.90 470.30 489.50 487.10 513.40 C 487.00 513.40 486.20 490.10 473.80 477.90 Z" fill="url(#SVGID_26_)" fill-rule="nonzero" group-id="2,4,8,15" node-id="970" stroke="none" target-height="35.50003" target-width="16.800018" target-x="470.3" target-y="477.9"/><path d="M 503.40 523.90 C 503.40 523.90 502.20 531.10 510.70 548.40 C 510.70 548.40 509.60 533.30 503.40 523.90 Z" fill="url(#SVGID_27_)" fill-rule="nonzero" group-id="2,4,8,15" node-id="972" stroke="none" target-height="24.5" target-width="8.5" target-x="502.2" target-y="523.9"/><path d="M 531.80 579.20 C 531.80 579.20 530.60 586.40 539.10 603.70 C 539.10 603.60 538.00 588.50 531.80 579.20 Z" fill="url(#SVGID_28_)" fill-rule="nonzero" group-id="2,4,8,15" node-id="974" stroke="none" target-height="24.5" target-width="8.5" target-x="530.6" target-y="579.2"/><path d="M 543.10 605.00 C 543.10 605.00 541.90 611.10 549.70 626.00 C 549.70 626.00 548.70 613.00 543.10 605.00 Z" fill="url(#SVGID_29_)" fill-rule="nonzero" group-id="2,4,8,15" node-id="976" stroke="none" target-height="21" target-width="7.799988" target-x="541.9" target-y="605"/><path d="M 552.50 628.00 C 552.50 628.00 550.80 632.80 556.20 644.60 C 556.20 644.60 556.70 634.40 552.50 628.00 Z" fill="url(#SVGID_30_)" fill-rule="nonzero" group-id="2,4,8,15" node-id="978" stroke="none" target-height="16.599976" target-width="5.9000244" target-x="550.8" target-y="628"/><path d="M 559.10 644.10 C 559.10 644.10 558.90 648.30 566.90 653.90 C 566.90 653.90 564.60 646.50 559.10 644.10 Z" fill="url(#SVGID_31_)" fill-rule="nonzero" group-id="2,4,8,15" node-id="980" stroke="none" target-height="9.800049" target-width="8" target-x="558.9" target-y="644.1"/><path d="M 562.10 655.80 C 562.10 655.80 560.60 660.50 565.60 672.10 C 565.60 672.10 566.00 662.10 562.10 655.80 Z" fill="url(#SVGID_32_)" fill-rule="nonzero" group-id="2,4,8,15" node-id="982" stroke="none" target-height="16.299988" target-width="5.4000244" target-x="560.6" target-y="655.8"/><path d="M 520.10 553.90 C 520.10 553.90 518.90 561.10 527.40 578.40 C 527.40 578.30 526.30 563.20 520.10 553.90 Z" fill="url(#SVGID_33_)" fill-rule="nonzero" group-id="2,4,8,15" node-id="984" stroke="none" target-height="24.5" target-width="8.5" target-x="518.9" target-y="553.9"/><path d="M 644.90 789.40 C 644.90 789.40 640.40 801.60 647.20 836.60 C 647.20 836.60 650.90 808.90 644.90 789.40 Z" fill="url(#SVGID_34_)" fill-rule="nonzero" group-id="2,4,8,15" node-id="986" stroke="none" target-height="47.19995" target-width="10.5" target-x="640.4" target-y="789.4"/><path d="M 666.60 861.50 C 666.60 861.50 661.80 878.30 676.30 923.00 C 676.30 923.00 677.90 886.10 666.60 861.50 Z" fill="url(#SVGID_35_)" fill-rule="nonzero" group-id="2,4,8,15" node-id="988" stroke="none" target-height="61.5" target-width="16.100037" target-x="661.8" target-y="861.5"/><path d="M 368.20 779.70 C 368.20 779.70 384.70 764.80 400.50 848.10 C 400.50 848.10 383.10 827.00 374.40 818.90 C 358.30 803.70 359.80 778.50 368.20 779.70 Z" fill="url(#SVGID_36_)" fill-rule="nonzero" group-id="2,4,8,15" node-id="990" stroke="none" target-height="83.29999" target-width="42.200012" target-x="358.3" target-y="764.8"/><path d="M 339.80 701.90 C 339.80 701.90 348.70 688.80 372.00 750.70 C 372.00 750.70 357.00 736.40 349.90 731.10 C 336.70 721.30 333.90 701.80 339.80 701.90 Z" fill="url(#SVGID_37_)" fill-rule="nonzero" group-id="2,4,8,15" node-id="992" stroke="none" target-height="61.900024" target-width="38.100006" target-x="333.9" target-y="688.8"/><path d="M 138.90 456.60 C 138.90 456.60 129.00 459.80 123.50 442.50 C 117.90 425.10 111.40 423.00 111.40 423.00 C 111.40 423.00 145.90 441.50 138.90 456.60 Z" fill="url(#SVGID_38_)" fill-rule="nonzero" group-id="2,4,8,15" node-id="994" stroke="none" target-height="36.799988" target-width="34.499992" target-x="111.4" target-y="423"/><path d="M 448.00 685.30 C 448.00 685.30 458.40 685.60 457.70 703.90 C 457.00 722.20 462.40 726.30 462.40 726.30 C 462.40 726.30 436.30 697.20 448.00 685.30 Z" fill="url(#SVGID_39_)" fill-rule="nonzero" group-id="2,4,8,15" node-id="996" stroke="none" target-height="41" target-width="26.100006" target-x="436.3" target-y="685.3"/><path d="M 473.00 747.80 C 473.00 747.80 478.20 751.00 476.70 764.80 C 475.20 778.60 477.60 783.40 477.60 783.40 C 477.60 783.40 466.40 753.50 473.00 747.80 Z" fill="url(#SVGID_40_)" fill-rule="nonzero" group-id="2,4,8,15" node-id="998" stroke="none" target-height="35.600037" target-width="11.800018" target-x="466.4" target-y="747.8"/><path d="M 494.60 807.50 C 494.60 807.50 499.80 810.70 498.30 824.50 C 496.80 838.30 499.20 843.10 499.20 843.10 C 499.20 843.10 488.00 813.20 494.60 807.50 Z" fill="url(#SVGID_41_)" fill-rule="nonzero" group-id="2,4,8,15" node-id="1000" stroke="none" target-height="35.599976" target-width="11.799988" target-x="488" target-y="807.5"/><path d="M 413.20 1026.70 C 413.20 1026.70 410.00 1031.90 417.40 1043.60 C 424.80 1055.40 424.70 1060.70 424.70 1060.70 C 424.70 1060.70 421.70 1029.00 413.20 1026.70 Z" fill="url(#SVGID_42_)" fill-rule="nonzero" group-id="2,4,8,15" node-id="1002" stroke="none" target-height="34" target-width="14.799988" target-x="410" target-y="1026.7"/><path d="M 429.00 446.30 C 429.00 446.30 439.40 446.60 438.70 464.90 C 438.00 483.10 443.40 487.30 443.40 487.30 C 443.40 487.30 417.30 458.10 429.00 446.30 Z" fill="url(#SVGID_43_)" fill-rule="nonzero" group-id="2,4,8,15" node-id="1004" stroke="none" target-height="41" target-width="26.100006" target-x="417.3" target-y="446.3"/><path d="M 298.10 618.50 C 298.10 618.50 303.50 624.80 297.40 627.60 C 297.40 627.70 290.90 621.00 298.10 618.50 Z" fill="url(#SVGID_44_)" fill-rule="nonzero" group-id="2,4,8,15" node-id="1006" stroke="none" target-height="9.200012" target-width="12.600006" target-x="290.9" target-y="618.5"/><path d="M 325.10 620.10 C 325.10 620.10 332.60 623.70 328.20 628.70 C 328.20 628.70 319.50 625.30 325.10 620.10 Z" fill="url(#SVGID_45_)" fill-rule="nonzero" group-id="2,4,8,15" node-id="1008" stroke="none" target-height="8.600037" target-width="13.100006" target-x="319.5" target-y="620.1"/><path d="M 101.30 639.20 C 101.30 639.20 108.80 642.80 104.40 647.80 C 104.40 647.80 95.70 644.50 101.30 639.20 Z" fill="url(#SVGID_46_)" fill-rule="nonzero" group-id="2,4,8,15" node-id="1010" stroke="none" target-height="8.599976" target-width="13.100006" target-x="95.7" target-y="639.2"/><path d="M 84.80 667.70 C 84.80 667.70 84.20 656.70 92.50 657.90 C 92.50 657.90 93.90 670.10 84.80 667.70 Z" fill="url(#SVGID_47_)" fill-rule="nonzero" group-id="2,4,8,15" node-id="1012" stroke="none" target-height="13.399963" target-width="9.700005" target-x="84.2" target-y="656.7"/><path d="M 598.70 657.80 C 598.70 657.80 604.10 664.10 598.00 666.90 C 598.00 666.90 591.50 660.30 598.70 657.80 Z" fill="url(#SVGID_48_)" fill-rule="nonzero" group-id="2,4,8,15" node-id="1014" stroke="none" target-height="9.100037" target-width="12.599976" target-x="591.5" target-y="657.8"/><path d="M 362.60 607.20 C 362.60 607.20 365.20 615.10 358.50 615.40 C 358.50 615.40 355.00 606.80 362.60 607.20 Z" fill="url(#SVGID_49_)" fill-rule="nonzero" group-id="2,4,8,15" node-id="1016" stroke="none" target-height="8.600037" target-width="10.200012" target-x="355" target-y="606.8"/><path d="M 381.10 621.60 C 381.10 621.60 388.10 631.00 380.00 634.70 C 380.00 634.70 371.50 624.80 381.10 621.60 Z" fill="url(#SVGID_50_)" fill-rule="nonzero" group-id="2,4,8,15" node-id="1018" stroke="none" target-height="13.100037" target-width="16.600006" target-x="371.5" target-y="621.6"/><path d="M 518.00 884.30 C 518.00 884.30 528.70 889.10 523.40 896.30 C 523.30 896.30 511.10 891.80 518.00 884.30 Z" fill="url(#SVGID_51_)" fill-rule="nonzero" group-id="2,4,8,15" node-id="1020" stroke="none" target-height="12" target-width="17.600006" target-x="511.1" target-y="884.3"/><path d="M 522.60 909.60 C 522.60 909.60 527.00 915.60 520.20 917.00 C 520.20 917.00 514.70 910.50 522.60 909.60 Z" fill="url(#SVGID_52_)" fill-rule="nonzero" group-id="2,4,8,15" node-id="1022" stroke="none" target-height="7.4000244" target-width="12.299988" target-x="514.7" target-y="909.6"/><path d="M 394.30 623.70 C 394.30 623.70 401.80 620.20 402.90 626.80 C 402.90 626.80 394.80 631.30 394.30 623.70 Z" fill="url(#SVGID_53_)" fill-rule="nonzero" group-id="2,4,8,15" node-id="1024" stroke="none" target-height="11.099976" target-width="8.600006" target-x="394.3" target-y="620.2"/><path d="M 418.40 642.40 C 418.40 642.40 430.30 666.00 425.40 674.50 C 425.40 674.40 411.80 649.50 418.40 642.40 Z" fill="url(#SVGID_54_)" fill-rule="nonzero" group-id="2,4,8,15" node-id="1026" stroke="none" target-height="32.099976" target-width="18.5" target-x="411.8" target-y="642.4"/><path d="M 98.50 439.10 C 98.50 439.10 72.40 435.20 68.30 426.20 C 68.30 426.20 96.40 429.60 98.50 439.10 Z" fill="url(#SVGID_55_)" fill-rule="nonzero" group-id="2,4,8,15" node-id="1028" stroke="none" target-height="12.899994" target-width="30.199997" target-x="68.3" target-y="426.2"/><path d="M 114.60 447.20 C 114.60 447.20 88.70 452.20 81.80 445.20 C 81.80 445.20 109.50 439.00 114.60 447.20 Z" fill="url(#SVGID_56_)" fill-rule="nonzero" group-id="2,4,8,15" node-id="1030" stroke="none" target-height="13.200012" target-width="32.799995" target-x="81.8" target-y="439"/><path d="M 460.30 934.30 C 460.30 934.30 448.70 938.30 448.10 928.50 C 448.10 928.50 460.70 923.10 460.30 934.30 Z" fill="url(#SVGID_57_)" fill-rule="nonzero" group-id="2,4,8,15" node-id="1032" stroke="none" target-height="15.200012" target-width="12.600006" target-x="448.1" target-y="923.1"/><path d="M 178.10 546.60 L 175.90 546.60 C 175.90 546.60 183.70 539.40 185.00 537.30 C 185.00 537.30 183.00 535.30 188.40 531.10 C 188.40 531.10 219.50 503.70 222.90 499.90 C 226.90 495.40 227.40 487.90 242.50 483.00 C 257.60 478.10 261.10 481.90 261.10 481.90 C 261.10 481.90 269.20 479.80 272.60 479.20 C 276.00 478.60 274.30 480.50 274.30 480.50 C 274.30 480.50 267.40 483.10 262.70 489.50 C 262.70 489.50 257.00 502.20 255.80 503.90 C 254.60 505.60 256.80 523.00 246.60 534.90 C 244.40 537.40 242.00 539.90 239.40 542.30 C 240.00 544.30 241.10 546.80 243.20 548.80 L 252.50 541.30 C 252.50 541.30 254.60 537.40 256.80 540.30 C 256.80 540.30 257.30 541.60 257.40 542.30 C 257.40 542.30 257.40 542.30 256.30 541.80 C 256.10 541.90 255.20 541.70 253.00 544.10 L 244.50 551.40 C 244.50 551.40 241.40 555.30 239.00 552.40 C 237.70 550.90 236.90 547.60 236.30 544.70 C 231.10 548.60 224.80 551.80 217.10 553.10 C 217.10 554.30 217.10 556.10 216.60 556.60 L 228.20 573.90 L 231.80 576.10 C 231.80 576.10 233.30 574.30 239.00 580.00 C 239.00 580.00 238.40 580.50 237.80 580.20 C 237.20 579.90 233.60 577.90 232.30 579.00 C 231.00 580.10 230.30 581.80 230.30 581.80 L 229.00 579.10 C 229.00 579.10 227.60 577.60 227.00 575.10 C 226.40 572.60 215.40 557.70 215.40 557.70 C 215.40 557.70 210.60 555.40 208.90 553.90 L 208.90 553.90 C 204.10 553.90 198.70 553.40 192.80 552.00 C 172.60 554.40 167.70 557.70 167.70 557.70 L 159.10 566.20 C 157.50 567.80 155.20 568.70 153.00 568.60 L 148.60 568.40 C 148.50 568.60 154.30 561.20 178.10 546.60 Z" fill="url(#SVGID_58_)" fill-rule="nonzero" group-id="2,4,8,16" node-id="1037" stroke="none" target-height="103.69998" target-width="127.5" target-x="148.5" target-y="478.1"/><path d="M 617.20 367.80 C 617.20 367.80 613.40 365.50 606.00 366.10 C 606.00 366.10 607.30 356.30 604.50 356.40 C 604.50 356.40 565.90 363.10 553.90 371.10 C 553.90 371.10 536.40 372.50 531.80 381.30 C 531.80 381.30 530.10 382.40 527.70 381.90 L 522.30 380.60 C 522.30 380.60 495.70 359.00 482.60 380.10 C 482.60 380.10 475.60 380.60 474.10 382.60 C 474.10 382.60 474.30 383.80 481.40 382.90 C 481.40 382.90 485.40 393.50 491.30 392.80 C 491.30 392.80 494.10 394.10 494.90 399.20 C 495.70 404.30 515.30 432.50 525.20 436.10 C 525.20 436.10 529.80 440.30 530.10 442.40 L 529.90 444.30 C 529.90 444.30 520.90 448.20 520.30 448.90 C 520.30 448.90 510.40 451.20 510.00 456.50 C 510.00 456.50 510.50 458.20 511.00 458.20 C 511.00 458.20 510.80 457.20 511.30 456.60 C 511.30 456.60 515.20 453.10 517.70 453.20 C 517.70 453.20 513.70 460.70 515.80 462.60 C 515.80 462.60 517.10 456.00 519.20 454.50 C 519.20 454.50 528.30 451.60 530.40 457.90 C 530.40 457.90 532.00 451.80 521.00 452.60 L 522.40 451.60 C 522.40 451.60 531.50 448.70 534.10 453.90 C 534.10 453.90 535.00 447.70 523.50 450.20 C 523.50 450.20 523.00 448.80 528.40 446.80 L 540.10 441.60 C 540.10 441.60 548.20 447.50 551.80 458.90 L 556.00 486.50 C 556.00 486.50 559.60 486.80 558.90 473.30 C 558.90 473.30 561.00 483.30 563.40 484.40 C 563.40 484.40 568.50 487.60 560.30 461.30 C 560.30 461.30 556.60 441.80 557.00 436.40 C 557.30 431.10 557.00 411.50 548.60 402.90 C 548.60 402.90 559.30 414.90 567.60 415.80 C 567.80 416.00 632.50 383.90 617.20 367.80 Z" fill="url(#SVGID_59_)" fill-rule="nonzero" group-id="2,4,8,16" node-id="1039" stroke="none" target-height="131.30002" target-width="158.4" target-x="474.1" target-y="356.3"/></g></svg>