<svg height="1024" node-id="1" sillyvg="true" template-height="1024" template-width="1024" version="1.1" viewBox="0 0 1024 1024" width="1024" xmlns="http://www.w3.org/2000/svg" xmlns:xlink="http://www.w3.org/1999/xlink"><defs node-id="95"><linearGradient gradientTransform="matrix(-1 0.00435078 0.00435078 1 1406.6429 -4.7734)" gradientUnits="userSpaceOnUse" id="SVGID_3_" node-id="38" spreadMethod="pad" x1="1098.3022" x2="1098.3022" y1="702.5673" y2="760.2749"><stop offset="0" stop-color="#ffcdd6"/><stop offset="0.3975" stop-color="#6d8daf"/><stop offset="1" stop-color="#253a59"/></linearGradient><clipPath id="SVGID_2_" node-id="9"><path d="M 980.70 510.00 C 980.70 634.23 931.35 753.37 843.51 841.21 C 755.67 929.05 636.53 978.40 512.30 978.40 C 388.07 978.40 268.93 929.05 181.09 841.21 C 93.25 753.37 43.90 634.23 43.90 510.00 C 43.90 385.77 93.25 266.63 181.09 178.79 C 268.93 90.95 388.07 41.60 512.30 41.60 C 636.53 41.60 755.67 90.95 843.51 178.79 C 931.35 266.63 980.70 385.77 980.70 510.00 Z" fill="#000000" fill-rule="nonzero" node-id="106" stroke="none" target-height="936.80005" target-width="936.8" target-x="43.9" target-y="41.6"/></clipPath></defs><path d="M 2.50 -2.10 L 2.50 1021.90 L 1026.50 1021.90 L 1026.50 -2.10 L 2.50 -2.10 Z M 513.00 976.90 C 254.30 976.90 44.60 767.20 44.60 508.50 C 44.60 249.80 254.30 40.10 513.00 40.10 C 771.70 40.10 981.40 249.80 981.40 508.50 C 981.40 767.20 771.70 976.90 513.00 976.90 Z" fill="#eeebe6" fill-opacity="0" fill-rule="nonzero" node-id="110" stroke="none" target-height="1024" target-width="1024" target-x="2.5" target-y="-2.1"/><path d="M 980.40 512.00 C 980.40 636.23 931.05 755.37 843.21 843.21 C 755.37 931.05 636.23 980.40 512.00 980.40 C 387.77 980.40 268.63 931.05 180.79 843.21 C 92.95 755.37 43.60 636.23 43.60 512.00 C 43.60 387.77 92.95 268.63 180.79 180.79 C 268.63 92.95 387.77 43.60 512.00 43.60 C 636.23 43.60 755.37 92.95 843.21 180.79 C 931.05 268.63 980.40 387.77 980.40 512.00 Z" fill="none" node-id="112" stroke="none" target-height="936.80005" target-width="936.80005" target-x="43.6" target-y="43.6"/><g node-id="365"><g clip-path="url(#SVGID_2_)" group-id="1" id="sillyvg_g_1" node-id="116"><path d="M 728.28 717.21 L 726.78 717.22 L 726.74 709.42 L 728.24 709.41 Z" fill="#253a59" fill-opacity="0.5" fill-rule="nonzero" group-id="1,3,5,10,16,20" node-id="126" stroke="none" target-height="7.8065186" target-width="1.5339355" target-x="726.74243" target-y="709.4143"/><path d="M 708.13 715.03 L 706.63 715.04 L 706.60 707.24 L 708.10 707.23 Z" fill="#253a59" fill-opacity="0.5" fill-rule="nonzero" group-id="1,3,5,10,16,21" node-id="131" stroke="none" target-height="7.8065186" target-width="1.5339355" target-x="706.5981" target-y="707.2308"/><path d="M 687.99 713.26 L 686.49 713.27 L 686.46 705.47 L 687.96 705.46 Z" fill="#253a59" fill-opacity="0.5" fill-rule="nonzero" group-id="1,3,5,10,16,22" node-id="136" stroke="none" target-height="7.8065796" target-width="1.5339355" target-x="686.4576" target-y="705.4589"/><path d="M 667.75 711.59 L 666.25 711.59 L 666.22 703.79 L 667.72 703.79 Z" fill="#253a59" fill-opacity="0.5" fill-rule="nonzero" group-id="1,3,5,10,16,23" node-id="141" stroke="none" target-height="7.8065186" target-width="1.5339355" target-x="666.2175" target-y="703.7876"/><path d="M 647.61 709.82 L 646.11 709.82 L 646.08 702.02 L 647.58 702.02 Z" fill="#253a59" fill-opacity="0.5" fill-rule="nonzero" group-id="1,3,5,10,16,24" node-id="146" stroke="none" target-height="7.8065796" target-width="1.5339355" target-x="646.07715" target-y="702.01575"/><path d="M 627.47 708.14 L 625.97 708.15 L 625.94 700.35 L 627.44 700.34 Z" fill="#253a59" fill-opacity="0.5" fill-rule="nonzero" group-id="1,3,5,10,16,25" node-id="151" stroke="none" target-height="7.8065186" target-width="1.5339355" target-x="625.937" target-y="700.344"/><path d="M 607.23 706.78 L 605.73 706.79 L 605.70 698.99 L 607.20 698.98 Z" fill="#253a59" fill-opacity="0.5" fill-rule="nonzero" group-id="1,3,5,10,16,26" node-id="156" stroke="none" target-height="7.8065796" target-width="1.5339355" target-x="605.7004" target-y="698.9843"/><path d="M 587.10 705.52 L 585.60 705.53 L 585.56 697.73 L 587.06 697.72 Z" fill="#253a59" fill-opacity="0.5" fill-rule="nonzero" group-id="1,3,5,10,16,27" node-id="161" stroke="none" target-height="7.8065186" target-width="1.5339355" target-x="585.56415" target-y="697.7244"/><path d="M 566.97 705.19 L 565.47 705.19 L 565.44 697.39 L 566.94 697.39 Z" fill="#253a59" fill-opacity="0.5" fill-rule="nonzero" group-id="1,3,5,10,16,28" node-id="166" stroke="none" target-height="7.8064575" target-width="1.5339355" target-x="565.4357" target-y="697.3879"/><path d="M 546.74 704.34 L 545.24 704.35 L 545.20 696.55 L 546.70 696.54 Z" fill="#253a59" fill-opacity="0.5" fill-rule="nonzero" group-id="1,3,5,10,16,29" node-id="171" stroke="none" target-height="7.8065796" target-width="1.5339355" target-x="545.2033" target-y="696.5401"/><path d="M 526.61 704.00 L 525.11 704.01 L 525.08 696.21 L 526.58 696.20 Z" fill="#253a59" fill-opacity="0.5" fill-rule="nonzero" group-id="1,3,5,10,16,30" node-id="176" stroke="none" target-height="7.8065186" target-width="1.5339355" target-x="525.075" target-y="696.20355"/><path d="M 506.48 704.08 L 504.98 704.09 L 504.95 696.29 L 506.45 696.28 Z" fill="#253a59" fill-opacity="0.5" fill-rule="nonzero" group-id="1,3,5,10,16,31" node-id="181" stroke="none" target-height="7.8065186" target-width="1.5339355" target-x="504.9505" target-y="696.2789"/><path d="M 486.26 704.15 L 484.76 704.16 L 484.73 696.36 L 486.23 696.35 Z" fill="#253a59" fill-opacity="0.5" fill-rule="nonzero" group-id="1,3,5,10,16,32" node-id="186" stroke="none" target-height="7.8065186" target-width="1.5339355" target-x="484.72598" target-y="696.35455"/><path d="M 466.14 704.74 L 464.64 704.75 L 464.61 696.95 L 466.11 696.94 Z" fill="#253a59" fill-opacity="0.5" fill-rule="nonzero" group-id="1,3,5,10,16,33" node-id="191" stroke="none" target-height="7.8065186" target-width="1.5339355" target-x="464.6057" target-y="696.9416"/><path d="M 445.92 705.74 L 444.42 705.75 L 444.39 697.95 L 445.89 697.94 Z" fill="#253a59" fill-opacity="0.5" fill-rule="nonzero" group-id="1,3,5,10,16,34" node-id="196" stroke="none" target-height="7.8065186" target-width="1.5339355" target-x="444.38913" target-y="697.9408"/><path d="M 425.80 706.23 L 424.30 706.23 L 424.27 698.43 L 425.77 698.43 Z" fill="#253a59" fill-opacity="0.5" fill-rule="nonzero" group-id="1,3,5,10,16,35" node-id="201" stroke="none" target-height="7.8065186" target-width="1.5339355" target-x="424.26846" target-y="698.42786"/><path d="M 405.69 707.74 L 404.19 707.75 L 404.16 699.95 L 405.66 699.94 Z" fill="#253a59" fill-opacity="0.5" fill-rule="nonzero" group-id="1,3,5,10,16,36" node-id="206" stroke="none" target-height="7.8064575" target-width="1.5339355" target-x="404.15604" target-y="699.93854"/><path d="M 385.48 709.15 L 383.98 709.16 L 383.94 701.36 L 385.44 701.35 Z" fill="#253a59" fill-opacity="0.5" fill-rule="nonzero" group-id="1,3,5,10,16,37" node-id="211" stroke="none" target-height="7.8065186" target-width="1.5339355" target-x="383.9433" target-y="701.3495"/><path d="M 365.37 711.07 L 363.87 711.08 L 363.83 703.28 L 365.33 703.27 Z" fill="#253a59" fill-opacity="0.5" fill-rule="nonzero" group-id="1,3,5,10,16,38" node-id="216" stroke="none" target-height="7.8065186" target-width="1.5339355" target-x="363.83475" target-y="703.2719"/><path d="M 345.16 712.99 L 343.66 713.00 L 343.63 705.20 L 345.13 705.19 Z" fill="#253a59" fill-opacity="0.5" fill-rule="nonzero" group-id="1,3,5,10,16,39" node-id="221" stroke="none" target-height="7.8065186" target-width="1.5339355" target-x="343.62616" target-y="705.1947"/><path d="M 325.05 714.92 L 323.55 714.92 L 323.52 707.12 L 325.02 707.12 Z" fill="#253a59" fill-opacity="0.5" fill-rule="nonzero" group-id="1,3,5,10,16,40" node-id="226" stroke="none" target-height="7.8065796" target-width="1.5339355" target-x="323.51773" target-y="707.11694"/><path d="M 304.85 717.25 L 303.35 717.26 L 303.31 709.46 L 304.81 709.45 Z" fill="#253a59" fill-opacity="0.5" fill-rule="nonzero" group-id="1,3,5,10,16,41" node-id="231" stroke="none" target-height="7.8065186" target-width="1.5339355" target-x="303.31287" target-y="709.45154"/><path d="M 555.50 750.80 C 555.40 735.10 542.70 722.50 527.00 722.50 C 511.30 722.60 498.70 735.30 498.70 751.00 C 498.70 751.10 498.70 751.10 498.70 751.20 L -592.80 743.40 C -592.80 743.40 -24.20 733.50 167.80 725.20 C 359.80 716.90 442.50 682.30 755.60 716.50 C 1138.80 758.40 1167.30 740.20 1167.30 740.20 L 1215.80 756.30 L 555.40 751.60 C 555.50 751.30 555.50 751.10 555.50 750.80 Z" fill="url(#SVGID_3_)" fill-rule="nonzero" group-id="1,3,5,10,17" node-id="237" stroke="none" target-height="76.10004" target-width="1808.6001" target-x="-592.8" target-y="682.3"/><path d="M 555.60 752.30 C 555.40 764.80 542.50 774.70 526.90 774.50 C 511.20 774.20 498.70 763.90 498.90 751.40 C 498.90 751.40 498.90 751.30 498.90 751.30 L -592.60 743.50 C -592.60 743.50 -24.20 758.70 167.70 767.80 C 359.60 776.90 442.00 805.50 755.40 782.30 C 1138.90 753.80 1214.10 773.10 1214.10 773.10 L 1215.90 756.50 L 555.50 751.80 C 555.60 751.90 555.60 752.10 555.60 752.30 Z" fill="#253a59" fill-opacity="0.2" fill-rule="nonzero" group-id="1,3,5,10,17,42" node-id="241" stroke="none" target-height="62" target-width="1808.5" target-x="-592.6" target-y="743.5"/><path d="M 82.90 728.10 C 82.90 728.10 88.10 722.50 93.20 724.80 C 98.20 727.10 106.70 727.60 114.70 726.30 C 122.60 725.00 128.40 726.20 128.40 726.20 C 128.40 726.20 143.00 724.10 162.60 723.50 C 169.30 723.30 165.50 721.80 171.10 721.70 C 173.60 721.60 176.90 722.50 179.50 722.30 C 202.10 720.70 177.10 717.00 243.60 718.30 C 248.50 718.40 252.60 718.00 255.70 718.00 C 258.90 718.00 257.10 715.40 261.40 718.50 C 261.40 718.50 265.10 720.50 255.20 720.30 C 252.80 720.20 233.20 725.00 214.60 722.60 C 212.90 722.40 209.80 723.60 207.70 723.80 C 205.40 723.90 203.70 723.30 201.60 723.40 C 191.50 724.00 183.20 724.50 180.20 724.60 C 170.80 724.90 87.10 734.10 82.90 729.70 C 81.40 728.20 82.90 728.10 82.90 728.10 Z" fill="#ffcdd6" fill-rule="nonzero" group-id="1,3,5,11" node-id="248" stroke="none" target-height="18.699951" target-width="183.70001" target-x="81.4" target-y="715.4"/><path d="M 279.10 716.10 C 279.40 716.10 282.20 715.80 283.40 715.20 C 284.40 714.60 289.30 711.40 293.50 713.20 C 298.60 715.30 303.00 713.90 311.10 713.40 C 311.70 713.40 315.30 712.80 317.20 712.40 C 317.50 712.30 317.90 712.30 318.20 712.50 C 318.40 712.70 319.60 712.70 323.70 712.00 C 330.40 710.90 326.50 710.20 332.10 709.90 C 334.60 709.70 337.90 710.50 340.50 710.20 C 363.00 707.80 355.60 703.30 422.10 702.40 C 427.00 702.30 431.10 701.80 434.20 701.70 C 436.10 701.60 440.80 701.10 445.10 701.20 C 446.90 701.30 468.60 702.90 445.10 704.00 C 444.70 704.00 444.30 704.00 443.80 704.00 C 441.40 704.00 420.00 709.80 401.40 708.10 C 399.70 707.90 396.60 709.30 394.60 709.50 C 392.30 709.70 390.60 709.10 388.50 709.30 C 378.40 710.30 370.00 709.10 367.00 709.30 C 357.60 709.90 273.50 720.10 270.00 718.30 C 268.80 717.80 276.50 716.60 279.10 716.10 Z" fill="#ffcdd6" fill-rule="nonzero" group-id="1,3,5,11" node-id="250" stroke="none" target-height="19" target-width="199.80002" target-x="268.8" target-y="701.1"/><path d="M 920.20 732.30 C 920.20 732.30 915.20 726.50 910.10 728.60 C 905.00 730.70 896.50 730.90 888.60 729.20 C 880.80 727.60 874.90 728.60 874.90 728.60 C 874.90 728.60 860.40 726.00 840.80 724.60 C 834.10 724.10 838.00 722.80 832.40 722.40 C 829.90 722.20 826.60 723.00 824.00 722.70 C 801.50 720.20 826.60 717.50 760.10 716.30 C 755.20 716.20 751.10 715.70 748.00 715.60 C 744.80 715.50 742.50 706.40 730.50 714.50 C 730.50 714.50 731.30 716.70 748.50 717.90 C 750.90 718.10 770.30 723.40 788.90 721.80 C 790.60 721.60 793.70 723.00 795.70 723.20 C 798.00 723.40 799.70 722.90 801.80 723.10 C 811.90 724.10 820.20 724.90 823.20 725.10 C 832.60 725.70 915.90 738.20 920.30 733.90 C 921.60 732.40 920.20 732.30 920.20 732.30 Z" fill="#ffcdd6" fill-rule="nonzero" group-id="1,3,5,11" node-id="252" stroke="none" target-height="31.799988" target-width="191.09998" target-x="730.5" target-y="706.4"/><path d="M 734.30 713.70 C 734.00 713.70 731.20 713.40 730.00 712.80 C 729.00 712.20 724.10 709.10 719.90 710.90 C 714.80 713.10 710.40 711.70 702.30 711.30 C 701.70 711.30 698.10 710.70 696.20 710.40 C 695.90 710.30 695.50 710.30 695.20 710.50 C 695.00 710.70 693.80 710.70 689.70 710.10 C 683.00 709.10 686.90 708.30 681.30 708.00 C 678.80 707.90 675.50 708.60 672.90 708.40 C 650.30 706.20 657.80 701.70 591.20 701.30 C 586.30 701.30 582.20 700.80 579.10 700.70 C 577.20 700.70 572.50 700.10 568.20 700.30 C 566.40 700.40 544.70 702.20 568.30 703.10 C 568.70 703.10 569.10 703.10 569.60 703.10 C 572.00 703.10 593.40 708.70 612.00 706.90 C 613.70 706.70 616.80 708.10 618.90 708.20 C 621.20 708.40 622.90 707.80 625.00 708.00 C 635.10 708.90 643.50 707.60 646.50 707.80 C 655.90 708.30 740.10 717.80 743.50 716.00 C 744.60 715.30 736.90 714.20 734.30 713.70 Z" fill="#ffcdd6" fill-rule="nonzero" group-id="1,3,5,11" node-id="254" stroke="none" target-height="17.700012" target-width="199.89996" target-x="544.7" target-y="700.1"/><path d="M 872.00 769.60 L 853.30 711.40 C 853.30 711.40 852.60 709.70 851.20 710.50 C 849.80 711.40 738.90 792.10 738.90 792.10 L 752.70 792.90 L 848.10 715.80 L 863.50 769.80 L 872.00 769.60 Z" fill="#253a59" fill-rule="nonzero" group-id="1,3,6,12" node-id="262" stroke="none" target-height="83.20001" target-width="133.09998" target-x="738.9" target-y="709.7"/><path d="M 872.00 769.90 L 853.20 816.40 C 853.20 816.40 852.50 817.30 851.10 816.80 C 849.70 816.40 738.90 792.20 738.90 792.20 L 752.70 793.00 L 850.60 813.20 L 863.50 769.90 L 872.00 769.90 Z" fill="#253a59" fill-opacity="0.2" fill-rule="nonzero" group-id="1,3,6,12,18" node-id="266" stroke="none" target-height="47.399963" target-width="133.09998" target-x="738.9" target-y="769.9"/><path d="M 851.70 710.60 C 851.70 710.60 849.40 700.70 841.00 705.90 C 832.70 711.20 840.10 706.50 838.60 707.50 C 837.00 708.50 830.60 711.90 832.00 717.40 C 833.40 722.90 831.50 716.90 827.80 718.80 C 824.10 720.70 819.00 728.80 819.50 731.40 C 820.00 734.00 817.40 729.70 815.50 731.40 C 813.60 733.20 808.00 734.20 805.40 738.90 C 802.80 743.60 800.00 746.60 797.10 749.60 C 797.10 749.60 803.20 746.40 806.80 743.60 C 810.60 740.90 851.70 710.60 851.70 710.60 Z" fill="#ffcdd6" fill-rule="nonzero" group-id="1,3,6,12" node-id="269" stroke="none" target-height="48.899963" target-width="54.600037" target-x="797.1" target-y="700.7"/><path d="M 630.00 753.70 C 642.10 724.80 664.10 706.50 667.50 696.70 C 668.60 693.60 669.90 691.70 671.10 690.60 C 673.20 688.60 677.10 689.40 677.60 692.20 C 691.40 767.40 685.70 785.00 684.10 789.20 C 684.00 789.60 683.90 789.90 683.90 790.30 C 683.60 794.80 689.90 810.30 689.60 819.00 C 689.30 827.30 687.20 833.90 686.70 838.10 C 686.60 838.70 686.70 839.30 686.90 839.80 L 687.00 840.10 C 687.40 841.40 688.50 842.30 689.80 842.70 C 704.50 846.70 714.70 874.90 718.30 886.50 C 719.10 889.00 717.30 891.60 714.60 891.70 C 687.10 893.00 658.10 892.30 647.10 891.90 C 644.60 891.80 642.80 889.50 643.30 887.00 C 647.20 868.80 660.80 849.90 677.20 844.00 C 677.30 844.00 677.50 843.90 677.60 843.80 L 679.00 843.10 C 680.20 842.50 681.00 841.40 681.20 840.10 L 686.10 819.80 C 686.10 819.70 686.10 819.70 686.10 819.60 C 686.30 817.40 681.60 792.40 680.30 766.70 C 678.50 728.70 678.70 717.40 674.60 706.10 C 673.60 703.30 669.90 702.50 667.90 704.70 L 638.70 750.70 C 638.30 751.20 638.00 751.70 637.80 752.30 C 635.60 759.70 613.90 798.80 610.10 813.00 C 606.50 826.50 574.30 878.90 571.80 894.30 C 571.50 896.20 569.80 897.70 567.80 897.70 L 564.30 897.70 C 561.70 897.70 559.80 895.40 560.40 892.80 C 564.30 875.90 595.90 835.40 630.00 753.70 Z" fill="#253a59" fill-rule="nonzero" group-id="1,3,6,12" node-id="271" stroke="none" target-height="209.10004" target-width="159.29999" target-x="559.8" target-y="688.6"/><path d="M 630.80 938.00 C 643.10 948.20 665.20 954.50 668.70 958.00 C 669.80 959.10 671.10 959.70 672.40 960.10 C 674.50 960.80 678.40 960.50 678.90 959.50 C 692.30 932.80 686.50 926.60 684.90 925.10 C 684.80 925.00 684.70 924.80 684.70 924.70 C 684.40 923.10 690.50 917.60 690.20 914.50 C 689.90 911.60 687.70 909.20 687.10 907.80 C 687.00 907.60 687.10 907.40 687.30 907.20 L 687.40 907.10 C 687.80 906.60 688.90 906.30 690.20 906.20 C 704.90 904.70 714.90 894.70 718.40 890.50 C 719.20 889.60 717.30 888.70 714.70 888.70 C 687.20 888.40 658.20 888.80 647.20 889.00 C 644.70 889.00 642.90 889.90 643.40 890.80 C 647.40 897.20 661.10 903.80 677.60 905.80 C 677.70 905.80 677.90 905.80 678.00 905.90 L 679.40 906.10 C 680.60 906.30 681.40 906.70 681.60 907.10 L 686.60 914.30 C 686.60 914.30 686.60 914.30 686.60 914.40 C 686.80 915.20 682.20 924.10 681.20 933.20 C 679.60 946.70 679.90 950.70 675.90 954.70 C 674.90 955.70 671.30 956.00 669.20 955.20 L 639.80 939.00 C 639.40 938.80 639.10 938.60 638.90 938.40 C 636.70 935.80 614.70 922.10 610.80 917.10 C 607.10 912.30 574.60 894.00 572.00 888.50 C 571.70 887.80 570.00 887.30 568.00 887.30 L 564.50 887.30 C 561.90 887.30 560.00 888.20 560.60 889.00 C 564.40 895.10 596.20 909.30 630.80 938.00 Z" fill="#253a59" fill-opacity="0.2" fill-rule="nonzero" group-id="1,3,6,12,19" node-id="275" stroke="none" target-height="73.5" target-width="159.20001" target-x="560" target-y="887.3"/><path d="M 659.70 699.30 C 659.70 699.30 672.00 687.10 669.20 693.20 C 666.40 699.30 632.90 755.10 632.90 755.10 L 596.00 832.90 L 570.20 871.90 C 570.20 871.90 588.70 829.60 590.50 822.70 C 592.30 815.70 600.30 794.80 608.20 789.20 C 616.10 783.60 628.70 752.80 632.40 743.00 C 636.00 733.20 656.40 699.70 659.70 699.30 Z" fill="#ffcdd6" fill-rule="nonzero" group-id="1,3,6,12" node-id="278" stroke="none" target-height="184.80005" target-width="101.79999" target-x="570.2" target-y="687.1"/><path d="M 718.50 880.30 C 718.50 880.30 729.30 880.20 722.60 866.80 C 720.10 861.80 718.00 865.90 718.40 863.10 C 718.80 860.30 710.90 860.70 714.10 852.00 C 715.50 848.00 713.90 843.30 700.10 841.40 C 696.80 840.90 701.50 835.30 697.30 837.20 C 693.10 839.10 691.10 835.30 688.90 836.70 C 686.70 838.10 684.90 834.80 682.10 836.40 C 679.30 838.00 668.20 833.00 666.10 841.60 C 665.30 845.00 662.10 836.00 651.20 854.20 C 649.50 857.00 641.10 858.30 641.90 871.70 C 642.20 876.70 638.70 890.50 643.40 887.00 C 648.10 883.50 648.60 875.90 653.50 876.90 C 658.40 877.90 663.10 871.50 666.90 867.90 C 670.70 864.40 679.40 864.50 681.50 866.60 C 683.70 868.70 685.40 871.60 688.80 870.20 C 692.30 868.80 695.20 869.30 697.70 871.40 C 700.20 873.50 701.40 875.80 703.50 875.10 C 705.60 874.40 710.60 874.40 711.70 875.40 C 712.80 876.40 718.50 880.30 718.50 880.30 Z" fill="#ffcdd6" fill-rule="nonzero" group-id="1,3,6,12" node-id="280" stroke="none" target-height="57.5" target-width="90.599976" target-x="638.7" target-y="833"/><path d="M 471.30 882.80 L 450.80 755.90 C 450.60 754.40 449.30 753.30 447.70 753.30 L 446.90 753.30 C 445.60 753.30 444.40 754.10 444.00 755.30 L 413.70 838.70 C 413.30 839.80 413.60 841.10 414.40 842.00 L 414.40 842.00 C 416.00 843.60 418.80 843.00 419.50 840.80 L 442.00 776.80 C 443.10 773.80 447.50 774.20 448.00 777.40 L 464.40 883.80 C 464.60 885.30 465.90 886.40 467.50 886.40 L 468.20 886.40 C 470.10 886.30 471.60 884.60 471.30 882.80 Z" fill="#253a59" fill-rule="nonzero" group-id="1,3,6" node-id="283" stroke="none" target-height="133.10004" target-width="58.30002" target-x="413.3" target-y="753.3"/><path d="M 471.30 887.10 L 451.50 915.70 C 451.30 916.00 450.00 916.30 448.40 916.30 L 447.60 916.30 C 446.30 916.30 445.20 914.00 444.80 913.70 L 413.60 840.30 C 414.50 839.50 415.00 841.30 415.80 841.10 L 416.70 841.30 C 417.80 840.60 420.20 844.20 420.90 845.70 L 446.20 907.40 C 447.30 908.10 448.10 911.60 448.60 910.90 L 464.40 887.00 C 464.60 886.70 465.90 886.40 467.50 886.40 L 468.20 886.40 C 470.10 886.30 471.60 886.70 471.30 887.10 Z" fill="#253a59" fill-opacity="0.2" fill-rule="nonzero" group-id="1,3,6,13" node-id="287" stroke="none" target-height="76.79999" target-width="58" target-x="413.6" target-y="839.5"/><path d="M 438.00 755.90 C 439.00 751.00 443.80 747.60 448.60 748.80 C 450.00 749.20 450.90 749.80 450.90 751.00 C 450.70 755.00 449.70 759.10 446.70 759.20 C 443.70 759.30 440.20 764.70 440.00 766.90 C 439.80 769.10 441.10 773.80 438.50 776.20 C 435.90 778.60 433.30 787.10 431.60 792.90 C 429.90 798.70 423.20 819.10 421.50 821.60 C 419.80 824.10 415.00 832.70 413.50 828.20 C 412.00 823.70 412.00 820.10 414.70 819.10 C 417.40 818.20 419.90 816.40 419.90 814.30 C 419.90 812.30 421.10 806.60 423.10 804.80 C 425.10 803.00 427.30 798.50 427.30 792.90 C 427.30 787.30 423.90 787.00 429.10 782.40 C 434.30 777.80 434.70 780.90 433.70 776.20 C 432.70 771.50 429.20 768.30 431.50 764.20 C 433.90 760.10 437.40 761.00 437.60 757.80 C 437.80 757.30 437.90 756.60 438.00 755.90 Z" fill="#ffcdd6" fill-rule="nonzero" group-id="1,3,6" node-id="290" stroke="none" target-height="85.10004" target-width="38.899994" target-x="412" target-y="747.6"/><path d="M -10.00 503.00 L -10.50 493.50 C -10.50 493.50 -7.10 490.50 -2.80 490.80 C 1.50 491.20 2.60 490.50 2.60 490.50 L 3.80 489.30 C 4.60 488.50 5.70 488.00 6.90 488.00 L 7.20 488.00 C 7.20 488.00 6.60 484.10 9.00 483.80 C 9.60 483.70 10.20 483.70 10.80 483.70 C 12.80 483.80 14.60 482.60 15.20 480.70 L 15.20 480.60 C 15.20 480.60 15.00 479.40 17.10 480.40 C 19.20 481.40 18.70 477.70 22.80 478.90 C 26.80 480.10 22.50 474.70 28.50 475.60 C 31.80 476.10 32.70 475.70 32.80 475.20 C 33.00 474.50 33.60 474.10 34.30 473.90 L 34.30 473.90 C 36.80 473.20 39.60 474.10 41.30 476.00 L 42.10 476.90 L 42.10 476.90 C 43.30 478.10 45.40 478.10 46.60 476.90 L 46.90 476.60 C 46.90 476.60 46.60 473.10 48.60 472.50 C 50.50 471.90 51.70 468.80 51.70 468.80 L 53.70 468.30 C 55.20 467.90 56.70 468.00 58.10 468.50 L 58.10 468.50 C 59.10 468.90 60.20 468.60 61.00 467.80 L 61.90 466.90 C 63.00 465.80 64.60 465.50 65.90 466.10 L 69.40 467.70 C 70.20 468.00 71.00 468.10 71.80 468.00 L 75.90 467.40 C 76.80 467.30 77.60 466.90 78.30 466.40 C 79.30 465.70 81.20 464.80 83.90 465.10 C 88.30 465.60 94.30 461.90 98.70 462.30 C 103.10 462.80 99.90 459.90 106.20 457.70 C 110.80 456.10 114.50 454.90 116.10 454.30 C 116.80 454.10 117.40 453.70 117.80 453.20 L 122.10 448.30 C 123.90 446.20 134.70 437.80 134.60 440.60 L 130.70 446.20 C 130.70 446.80 127.00 451.60 126.60 452.10 C 124.10 455.10 114.80 465.90 111.70 468.30 C 108.10 471.20 100.90 473.60 95.80 473.10 C 90.70 472.70 61.00 482.00 55.70 484.90 C 50.60 487.90 -8.30 506.20 -10.00 503.00 Z" fill="#ffcdd6" fill-rule="nonzero" group-id="1,3,7,14" node-id="297" stroke="none" target-height="68.400024" target-width="145.2" target-x="-10.5" target-y="437.8"/><path d="M 152.20 456.00 L 160.40 451.70 C 160.40 451.70 166.40 443.10 170.90 447.50 C 175.40 451.90 163.40 444.40 173.60 443.50 C 180.10 442.90 179.60 437.90 183.10 441.10 C 186.60 444.30 185.20 447.40 190.70 445.60 C 192.40 445.00 191.60 436.50 198.20 440.30 C 204.80 444.10 214.40 435.10 218.70 436.30 C 223.00 437.50 234.80 418.00 239.50 416.80 C 244.20 415.70 243.40 398.20 250.70 396.40 C 258.00 394.60 255.50 399.40 255.50 399.40 L 239.00 426.50 L 226.90 444.80 L 215.10 453.60 L 192.50 454.50 L 152.20 456.00 Z" fill="#ffcdd6" fill-rule="nonzero" group-id="1,3,7,14" node-id="299" stroke="none" target-height="61.399994" target-width="105.8" target-x="152.2" target-y="394.6"/><path d="M 136.40 431.30 C 135.60 430.80 132.30 428.50 136.50 424.90 C 141.30 420.80 145.50 412.00 150.30 411.20 C 154.10 410.60 160.20 417.40 162.50 416.80 C 163.10 416.60 171.70 410.70 171.80 411.30 L 163.90 417.70 C 164.00 418.10 163.80 418.60 163.40 418.80 L 155.70 424.10 C 155.70 424.10 155.60 424.20 155.60 424.20 L 148.80 430.70 C 148.60 430.90 148.40 431.00 148.10 431.00 L 138.40 431.80 C 138.30 431.80 138.10 431.80 138.00 431.80 C 138.00 431.80 136.50 431.40 136.40 431.30 Z" fill="#ffcdd6" fill-rule="nonzero" group-id="1,3,7,14" node-id="301" stroke="none" target-height="21.199982" target-width="39.5" target-x="132.3" target-y="410.6"/><path d="M 120.10 247.50 C 120.10 247.50 116.60 233.60 132.30 233.00 C 143.40 232.60 147.60 233.70 148.80 235.00 C 152.10 238.60 156.00 241.60 160.80 242.90 C 163.00 243.50 165.40 244.10 167.90 244.60 C 184.10 247.60 180.30 250.40 183.40 252.60 C 186.50 254.80 199.90 250.90 205.40 260.80 C 210.90 270.70 211.00 281.00 216.60 284.90 C 222.10 288.80 236.10 270.20 246.40 291.20 C 252.70 304.00 264.60 299.20 271.80 301.70 C 274.60 302.70 275.50 293.80 286.60 295.30 C 290.60 295.80 292.20 302.80 305.40 304.70 C 327.60 308.00 328.80 316.20 341.80 310.20 C 354.80 304.20 360.20 297.10 364.40 302.80 C 368.60 308.50 363.50 316.90 363.50 316.90 C 363.50 316.90 350.80 317.70 347.10 317.20 C 343.40 316.70 338.40 316.00 329.10 315.40 C 319.80 314.80 291.60 312.70 286.40 311.70 C 281.20 310.70 254.40 310.50 251.20 309.70 C 248.00 309.00 239.80 306.60 237.50 304.60 C 235.20 302.60 215.10 287.80 209.50 282.40 C 203.90 277.00 194.60 269.20 191.00 267.30 C 187.40 265.40 167.40 258.10 163.50 256.40 C 159.50 254.70 122.90 249.00 120.10 247.50 Z" fill="#ffcdd6" fill-rule="nonzero" group-id="1,3,7,14" node-id="303" stroke="none" target-height="85.100006" target-width="252" target-x="116.6" target-y="232.6"/><path d="M 383.90 306.30 C 395.80 296.80 403.40 314.20 402.60 318.30 C 401.80 322.40 381.30 315.80 381.30 315.80 C 381.30 315.80 380.20 309.30 383.90 306.30 Z" fill="#ffcdd6" fill-rule="nonzero" group-id="1,3,7,14" node-id="305" stroke="none" target-height="25.600006" target-width="23.199982" target-x="380.2" target-y="296.8"/><path d="M 284.50 388.30 C 284.50 388.30 300.00 391.10 314.00 399.10 C 317.00 400.80 327.80 399.10 330.40 401.30 C 345.60 413.90 329.20 415.30 329.20 415.30 L 284.50 388.30 Z" fill="#ffcdd6" fill-rule="nonzero" group-id="1,3,7,14" node-id="307" stroke="none" target-height="27" target-width="61.100006" target-x="284.5" target-y="388.3"/><path d="M 253.00 442.10 C 253.00 442.10 254.70 435.40 259.20 435.70 C 269.20 436.20 266.40 441.10 270.80 440.10 C 278.00 438.40 286.00 459.20 298.70 444.90 C 302.20 440.90 308.20 442.40 311.10 440.40 C 317.10 436.30 335.60 435.70 339.10 438.00 C 346.00 442.60 351.70 440.70 358.60 432.50 C 362.10 428.30 366.50 424.40 374.00 424.40 C 386.00 424.50 377.50 431.40 390.40 429.20 C 412.10 425.50 412.00 419.00 420.00 418.70 C 428.00 418.40 432.70 406.20 439.00 404.30 C 456.20 398.90 460.80 417.70 443.90 422.30 C 425.90 427.20 358.60 445.50 358.60 445.50 C 358.60 445.50 299.40 458.50 283.10 458.40 C 266.80 458.30 252.20 452.90 252.20 452.90 L 253.00 442.10 Z" fill="#ffcdd6" fill-rule="nonzero" group-id="1,3,7,14" node-id="309" stroke="none" target-height="60.30002" target-width="208.59999" target-x="252.2" target-y="398.9"/><path d="M 458.70 425.00 C 458.70 425.00 472.90 418.10 493.70 454.50 C 498.60 463.10 504.40 469.50 505.40 473.70 C 506.40 477.90 512.50 469.90 516.40 479.20 C 520.30 488.50 515.70 497.00 514.00 497.00 C 512.30 497.00 504.30 481.20 504.30 481.20 L 492.90 461.10 L 471.70 437.10 L 458.70 425.00 Z" fill="#ffcdd6" fill-rule="nonzero" group-id="1,3,7,14" node-id="311" stroke="none" target-height="78.899994" target-width="61.599976" target-x="458.7" target-y="418.1"/><path d="M 269.80 479.10 C 269.80 479.10 275.20 478.80 281.00 481.00 C 286.80 483.20 288.40 492.40 289.90 492.90 C 291.40 493.40 288.70 485.90 292.20 487.40 C 295.70 489.00 297.40 492.70 299.30 492.70 C 301.10 492.70 310.20 490.80 314.10 494.50 C 318.00 498.20 317.20 501.90 318.90 503.80 C 320.60 505.70 325.20 502.70 329.30 507.50 C 333.40 512.20 332.50 515.40 336.90 517.80 C 341.30 520.20 345.40 514.90 352.90 518.30 C 360.40 521.70 361.90 522.90 369.20 525.30 C 376.50 527.70 380.90 521.50 386.50 524.90 C 392.10 528.30 396.90 530.70 394.70 532.90 C 392.50 535.10 385.50 538.10 385.50 538.10 L 376.70 539.60 L 345.40 523.60 L 301.00 498.60 L 284.30 489.90 L 270.50 483.50 L 269.80 479.10 Z" fill="#ffcdd6" fill-rule="nonzero" group-id="1,3,7,14" node-id="313" stroke="none" target-height="60.799988" target-width="127.100006" target-x="269.8" target-y="478.8"/><path d="M 450.70 597.10 C 454.00 599.10 453.90 601.70 457.10 599.60 C 458.20 598.90 462.10 596.90 464.00 596.10 C 467.90 594.40 481.20 595.50 472.90 604.00 C 464.60 612.50 459.90 619.90 459.90 619.90 L 456.30 617.60 L 437.30 586.80 C 437.30 586.80 446.00 590.80 448.10 594.80 C 449.90 598.50 450.30 596.90 450.70 597.10 Z" fill="#ffcdd6" fill-rule="nonzero" group-id="1,3,7,14" node-id="315" stroke="none" target-height="33.100037" target-width="43.900024" target-x="437.3" target-y="586.8"/><path d="M 227.80 105.20 C 230.40 97.20 243.40 71.80 267.90 83.60 C 292.40 95.40 295.00 81.80 303.90 83.20 C 312.80 84.60 320.90 74.20 328.70 88.10 C 336.50 102.00 331.20 102.50 331.20 102.50 L 317.60 97.20 L 287.50 92.60 L 265.10 92.80 L 257.60 97.30 L 249.10 106.70 L 243.90 110.10 L 227.80 105.20 Z" fill="#ffcdd6" fill-rule="nonzero" group-id="1,3,7,14" node-id="317" stroke="none" target-height="38.299995" target-width="108.7" target-x="227.8" target-y="71.8"/><path d="M 287.70 166.20 C 287.70 166.20 293.20 168.00 297.60 172.30 C 301.90 176.60 306.40 191.20 304.70 191.90 C 303.00 192.60 298.80 189.30 296.00 183.30 C 293.20 177.30 287.70 166.20 287.70 166.20 Z" fill="#ffcdd6" fill-rule="nonzero" group-id="1,3,7,14" node-id="319" stroke="none" target-height="26.40001" target-width="18.699982" target-x="287.7" target-y="166.2"/><path d="M 61.60 513.00 C 68.00 508.30 78.30 505.10 87.60 508.60 C 96.90 512.10 99.80 512.30 107.80 512.40 C 115.80 512.50 121.50 505.00 124.50 509.60 C 127.60 514.10 121.30 521.70 121.30 521.70 C 121.30 521.70 114.80 528.00 105.80 524.30 C 96.80 520.60 88.80 518.30 79.70 517.40 C 70.60 516.50 62.00 514.60 62.00 514.60 L 61.60 513.00 Z" fill="#ffcdd6" fill-rule="nonzero" group-id="1,3,7,14" node-id="321" stroke="none" target-height="23" target-width="66" target-x="61.6" target-y="505"/><path d="M 129.10 534.30 C 129.10 534.30 145.60 534.60 149.90 538.90 C 154.20 543.20 156.40 549.80 160.50 551.80 C 164.60 553.80 163.60 546.00 167.70 547.10 C 171.80 548.20 172.40 553.20 175.90 553.90 C 179.40 554.50 182.90 552.90 188.00 557.40 C 193.10 562.00 209.90 558.60 213.40 560.10 C 216.90 561.60 238.90 567.10 240.20 574.50 C 241.50 581.90 237.50 580.40 237.50 580.40 L 228.30 578.20 L 216.80 573.50 L 191.90 567.10 L 162.00 558.10 L 129.70 537.70 C 129.70 537.70 127.60 537.30 129.10 534.30 Z" fill="#ffcdd6" fill-rule="nonzero" group-id="1,3,7,14" node-id="323" stroke="none" target-height="47.600037" target-width="113.9" target-x="127.6" target-y="534.3"/><path d="M 304.70 193.60 C 304.70 193.60 298.00 184.40 284.20 159.10 C 284.10 158.70 283.90 157.60 283.90 157.60 C 283.00 148.20 274.40 132.30 268.20 125.40 C 262.10 118.60 248.00 106.20 246.00 109.60 C 250.60 109.00 248.70 105.00 261.20 96.40 C 263.20 95.00 265.70 94.30 268.10 94.40 C 276.70 94.50 285.20 94.30 293.60 95.30 C 305.60 96.70 321.50 97.70 329.80 105.30 C 333.00 108.20 333.50 112.70 336.10 108.60 C 334.90 102.80 332.20 99.80 325.30 95.60 C 314.30 94.00 286.70 89.70 282.70 89.80 C 277.10 89.90 263.60 86.90 257.80 93.30 C 254.50 96.90 244.80 105.20 244.80 105.20 C 239.10 110.10 230.90 101.10 224.40 105.10 C 220.70 107.30 211.50 104.60 206.20 105.60 C 200.50 106.70 198.70 112.10 193.50 114.80 C 184.70 119.50 146.70 165.00 137.30 170.40 C 133.90 172.30 118.60 186.50 118.60 186.50 C 113.80 192.80 109.00 194.30 104.60 199.30 C 100.10 204.30 95.40 209.30 90.10 213.40 C 79.10 221.80 71.40 233.60 58.40 240.60 C 44.60 248.00 29.00 244.90 15.70 253.10 C 15.80 251.80 -7.90 260.70 -19.90 265.80 C -19.60 266.50 -19.30 267.20 -19.00 267.80 C -17.10 267.60 -15.20 267.80 -13.40 267.30 C 3.30 262.40 19.90 257.20 36.60 252.40 C 38.90 251.70 43.20 251.90 44.00 253.20 C 45.90 256.30 48.60 259.70 45.10 264.30 C 35.70 276.80 27.10 289.90 17.80 302.50 C 16.30 304.50 13.00 305.20 10.00 306.70 C 12.30 317.00 2.90 324.40 -1.50 333.50 C -4.40 339.40 -9.60 344.30 -13.70 349.60 C -15.30 351.70 -16.90 353.90 -18.50 356.00 C -20.20 352.80 -20.40 350.20 -20.40 347.60 C -20.30 334.30 -20.10 321.00 -19.90 307.70 C -19.80 304.00 -21.20 299.70 -15.30 298.70 C -14.60 298.60 -14.40 295.80 -13.90 294.20 C -14.40 294.10 -14.90 293.90 -15.40 293.80 C -16.60 294.90 -17.90 296.00 -20.00 298.00 C -21.10 285.20 -22.00 273.60 -22.90 262.50 C -29.50 263.10 -24.80 267.20 -25.50 271.20 C -24.80 282.10 -23.40 292.40 -23.70 302.70 C -24.20 323.50 -25.40 344.40 -26.60 365.20 C -26.80 367.70 -29.10 370.10 -30.40 372.60 C -31.10 372.40 -31.90 372.10 -32.60 371.90 C -34.40 358.20 -36.50 344.60 -37.80 330.90 C -38.40 324.80 -37.10 318.60 -36.70 312.60 C -44.20 305.30 -41.40 293.60 -46.00 284.20 C -47.30 286.30 -48.00 288.60 -48.40 290.90 C -48.60 292.30 -48.10 293.80 -47.90 295.20 C -46.30 307.00 -44.60 318.70 -43.30 330.60 C -42.60 336.90 -42.90 343.40 -42.70 350.60 C -42.40 351.20 -41.00 352.90 -40.60 354.80 C -39.80 359.80 -40.10 365.00 -38.80 369.90 C -36.60 378.40 -39.80 385.30 -46.30 389.30 C -51.00 392.20 -52.80 401.40 -60.00 397.40 C -61.10 401.50 -60.90 406.40 -63.30 409.20 C -78.20 426.60 -93.90 443.30 -108.80 460.70 C -117.20 470.50 -124.50 481.30 -132.30 491.60 L -172.20 550.60 L -157.80 557.50 L -127.10 504.70 L -127.10 504.70 C -125.10 500.90 -123.20 498.80 -121.10 497.80 L -116.50 492.60 C -114.00 483.40 -107.70 480.60 -100.40 478.90 C -100.80 478.20 -101.20 477.60 -101.60 476.90 C -103.70 477.60 -105.70 478.30 -107.80 479.00 C -108.10 478.50 -108.10 478.50 -108.50 478.00 C -93.70 460.70 -78.90 443.40 -64.10 426.00 C -63.10 426.50 -63.20 426.40 -62.30 426.90 C -62.90 430.10 -63.60 433.20 -64.20 436.40 C -63.70 436.50 -63.30 436.60 -62.80 436.80 C -61.90 433.10 -61.00 429.40 -60.00 425.00 C -51.30 425.10 -41.90 424.90 -32.70 425.60 C -30.70 425.70 -27.90 428.70 -27.40 430.90 C -24.30 444.40 -22.00 458.10 -18.80 471.60 C -17.60 476.40 -18.90 480.30 -21.30 483.10 L -20.00 487.30 C -19.10 486.80 -18.10 486.30 -17.10 485.90 C -17.00 487.80 -16.40 490.90 -16.70 493.90 C -16.80 494.50 -17.00 495.20 -17.30 495.80 L -16.50 498.30 L -16.00 501.40 L -23.00 522.10 L -43.20 542.00 L -90.70 596.00 L -102.30 626.40 L -124.50 661.60 L -147.80 697.00 L -165.20 741.20 L -173.70 758.00 C -173.30 760.10 -173.90 763.60 -174.70 765.70 C -175.50 767.70 -178.50 768.90 -179.60 769.70 C -178.40 772.60 -177.30 775.20 -176.50 777.10 C -177.90 776.90 -179.20 776.70 -180.40 776.60 L -181.30 783.90 C -173.00 792.00 -165.20 799.70 -157.70 807.00 L -153.90 804.70 C -153.90 804.70 -130.30 740.20 -130.10 735.30 L -130.10 735.30 C -130.00 733.70 -130.00 732.10 -129.90 730.60 C -129.50 730.50 -129.10 730.50 -128.80 730.40 L -119.40 695.50 C -119.60 695.40 -119.80 695.30 -120.00 695.20 C -118.60 692.00 -117.20 688.80 -115.70 685.70 C -113.80 681.90 -111.80 678.40 -108.90 676.40 L -94.60 653.40 L -88.10 642.00 C -88.10 642.00 -88.10 642.00 -88.10 642.00 C -88.10 642.00 -88.00 642.00 -88.00 641.90 L -81.90 631.10 L -65.10 618.10 C -65.30 617.70 -65.60 617.30 -65.90 616.80 C -65.60 616.60 -65.30 616.30 -65.00 616.10 C -64.60 616.40 -64.10 616.70 -63.70 616.90 L -59.50 613.60 C -60.80 613.40 -62.20 613.10 -63.50 612.80 C -60.40 610.80 -57.50 609.00 -54.40 607.10 L -49.90 600.00 C -51.30 600.40 -52.80 600.70 -54.30 601.00 C -49.50 590.00 -30.20 582.20 -13.60 582.00 L -14.20 579.80 C -15.40 579.70 -16.50 579.70 -17.70 579.60 C -19.70 579.50 -21.60 578.30 -23.50 577.70 C -30.30 580.20 -37.40 582.90 -44.50 585.60 C -44.80 585.10 -44.70 585.20 -45.00 584.70 C -36.60 578.00 -28.10 571.30 -18.90 563.90 L -19.80 560.80 C -27.70 565.90 -35.60 571.00 -43.60 576.10 C -42.20 570.80 -40.10 566.70 -34.00 564.90 C -31.70 564.20 -25.00 561.30 -31.40 555.10 C -25.70 552.40 -20.40 549.90 -15.10 547.40 L -7.50 546.10 C -5.00 544.20 -2.40 543.20 1.00 544.70 L 3.00 544.40 L 24.20 539.50 L 31.90 531.80 C 31.80 531.80 31.70 531.80 31.60 531.80 C 39.20 521.00 48.50 517.90 59.00 517.50 C 60.30 517.50 61.60 518.50 62.90 519.10 L 62.90 519.10 C 62.90 519.10 62.90 519.10 62.90 519.10 C 62.90 519.10 62.90 519.10 62.90 519.10 C 63.30 519.30 64.00 519.30 64.20 519.60 C 64.40 519.90 64.60 520.10 64.80 520.40 L 69.60 523.60 C 73.80 524.60 78.20 522.00 82.80 521.00 C 87.50 520.00 92.80 521.80 98.60 522.50 L 130.80 541.10 L 136.70 544.30 C 136.70 544.20 148.60 551.90 153.50 556.30 C 153.60 556.40 153.80 556.60 153.90 556.80 L 165.80 561.70 C 165.80 561.70 198.90 571.90 199.10 571.50 C 205.50 572.80 212.10 573.60 218.30 575.60 C 229.30 579.10 239.80 583.60 249.00 591.30 C 254.80 596.20 260.10 600.80 264.00 607.50 C 268.20 614.70 273.80 621.10 277.80 628.40 C 282.30 636.60 289.60 643.90 287.90 655.50 C 290.20 654.20 292.00 653.30 291.80 653.30 C 290.30 646.70 290.70 639.70 287.30 635.60 C 283.70 631.10 279.00 627.80 276.50 619.80 C 270.70 614.80 268.70 611.80 267.20 607.30 C 265.70 602.80 262.80 598.80 258.90 596.10 C 250.30 590.10 240.60 582.60 240.30 578.20 C 231.90 582.60 227.40 574.80 219.40 572.90 C 173.90 562.20 150.20 550.40 116.40 525.50 C 121.00 523.50 124.50 521.90 128.90 520.00 C 129.70 518.30 131.40 515.00 133.00 511.60 C 130.90 512.70 128.60 513.90 126.30 515.00 C 127.00 511.50 127.60 508.30 128.20 505.10 C 126.90 504.70 127.30 504.80 126.00 504.40 C 122.40 511.60 125.40 524.40 112.80 523.90 C 107.10 523.70 101.70 519.40 96.70 516.80 C 63.30 506.00 33.00 514.50 4.50 536.10 C 5.30 531.70 5.70 529.50 6.20 527.10 C -2.50 532.70 -10.60 537.90 -18.80 543.20 C -19.60 542.50 -19.70 542.50 -20.50 541.90 C -18.20 534.40 -13.60 530.10 -8.30 530.90 C -3.90 526.40 -1.40 522.70 2.10 520.50 C 24.90 505.80 50.70 498.10 76.10 489.40 C 82.40 487.20 89.10 486.10 95.80 484.40 C 96.10 484.00 96.80 482.00 98.00 481.60 C 111.30 477.30 124.60 473.30 137.90 469.20 C 142.20 467.90 146.50 466.70 152.70 465.00 C 154.00 465.20 154.00 465.20 156.10 465.60 C 170.30 462.00 172.50 463.40 181.60 474.70 C 188.00 482.70 195.90 489.70 203.20 497.00 C 210.50 504.30 217.90 511.50 226.00 518.20 C 219.40 511.70 212.20 505.70 209.20 497.10 C 208.20 497.40 207.30 497.70 206.30 497.90 C 196.10 486.60 185.90 475.20 174.60 462.60 C 182.00 462.10 188.10 460.80 194.10 461.50 C 201.80 462.40 204.70 468.90 206.70 475.50 C 208.80 477.40 211.00 479.30 213.30 481.40 C 214.90 480.10 216.80 478.50 218.30 477.20 C 215.20 475.60 212.00 474.00 209.10 472.10 C 208.90 472.00 210.10 469.70 210.40 468.90 C 207.50 466.60 204.40 464.10 199.60 460.20 C 211.40 459.50 221.20 458.70 231.00 458.30 C 232.70 458.20 234.60 459.50 236.10 460.60 C 241.60 464.80 246.50 470.00 252.40 473.30 C 278.70 488.10 305.50 502.10 331.70 517.00 C 352.70 528.90 373.30 541.40 393.90 554.10 C 401.60 558.90 408.70 564.70 416.00 570.00 C 428.50 579.10 430.50 586.20 425.20 600.80 C 423.00 606.80 421.30 613.10 419.50 619.20 C 421.30 615.30 423.20 611.40 424.80 607.30 C 428.00 599.20 434.10 591.60 427.50 581.80 C 428.50 581.50 429.40 581.20 430.40 581.00 C 434.30 585.90 438.60 590.50 442.00 595.70 C 445.70 601.20 449.10 607.10 451.80 613.20 C 453.70 617.40 454.30 622.10 455.50 626.70 C 456.50 626.70 459.70 625.90 461.90 627.00 C 464.30 628.30 466.00 631.20 467.60 633.70 C 468.80 635.60 469.50 638.00 470.40 640.10 C 470.10 636.60 469.80 633.10 469.50 629.20 C 472.60 629.50 475.70 629.80 478.90 630.10 C 479.00 629.10 479.00 629.50 479.10 628.50 C 475.70 627.80 472.30 627.40 469.00 626.40 C 461.50 624.00 460.40 620.30 465.40 614.50 C 469.70 609.40 474.00 604.10 477.50 598.40 C 471.20 604.80 464.90 611.20 458.70 617.50 C 450.10 604.20 441.40 590.90 432.50 577.10 C 433.20 576.70 435.50 575.40 437.80 574.00 C 428.10 579.30 422.70 571.70 416.30 567.10 C 406.90 560.30 397.50 553.50 388.10 546.70 C 386.20 545.30 384.40 543.80 381.40 541.40 C 386.50 538.90 390.60 536.80 394.70 534.80 C 394.60 534.60 394.50 534.30 394.50 534.10 C 393.50 534.20 392.20 534.00 391.40 534.60 C 382.40 541.00 375.00 537.30 366.40 532.40 C 342.40 518.50 317.70 505.80 293.30 492.50 C 284.70 487.80 276.10 483.10 267.80 477.90 C 265.40 476.40 264.20 473.10 262.40 470.50 C 262.30 471.50 262.20 472.60 262.00 474.50 C 255.10 469.70 245.50 468.60 243.90 456.70 C 263.60 463.50 282.70 459.70 301.70 460.10 C 308.80 460.20 314.00 456.80 320.50 456.10 C 333.80 454.80 347.10 452.40 360.20 449.60 C 367.40 448.10 374.20 445.00 381.30 442.80 C 387.30 440.90 393.40 439.30 400.20 437.30 C 398.90 443.20 397.60 448.60 396.40 454.10 C 398.80 451.70 402.60 451.10 401.50 445.60 C 400.90 442.50 405.10 436.40 408.60 434.90 C 421.20 429.40 434.30 424.10 448.60 426.70 C 450.60 427.00 452.20 429.10 454.00 430.50 C 454.60 430.90 455.00 431.90 455.50 431.90 C 467.80 431.30 473.00 441.20 479.70 448.50 C 480.70 449.60 480.30 453.20 479.20 454.80 C 476.70 458.30 473.30 461.20 470.40 464.40 C 462.50 473.00 454.90 481.60 451.90 493.40 C 451.00 497.20 448.70 500.70 446.80 504.70 C 448.20 505.10 449.80 505.60 451.30 506.00 C 452.30 494.30 456.60 484.00 464.20 475.10 C 468.90 469.60 473.90 464.20 478.50 458.50 C 482.20 454.00 485.00 453.10 489.00 458.50 C 507.50 483.10 519.60 509.70 518.40 541.40 C 518.20 546.70 521.10 552.20 522.60 557.50 C 524.20 553.10 518.90 548.90 523.20 543.80 C 524.80 541.90 520.80 535.90 520.10 531.60 C 518.10 518.50 519.50 505.00 511.90 492.90 C 503.80 480.00 496.90 466.30 488.90 453.40 C 485.30 447.60 480.90 442.00 475.70 437.70 C 467.50 431.00 459.90 423.00 446.60 421.40 C 450.10 420.30 451.60 419.90 453.60 419.20 C 443.40 416.80 434.40 425.80 426.00 421.60 C 423.10 423.20 420.70 425.10 418.00 426.00 C 410.20 428.50 402.30 430.50 394.50 432.90 C 386.50 435.30 378.50 437.80 369.20 440.70 C 372.00 436.00 373.80 433.00 375.10 430.90 C 368.80 435.10 362.60 442.00 355.30 443.50 C 333.40 448.10 311.00 450.70 288.80 453.60 C 284.30 454.20 279.10 451.10 274.80 452.10 C 259.10 455.60 258.00 455.40 253.00 440.80 C 252.60 439.50 251.70 438.40 250.10 435.80 C 250.40 439.30 250.60 441.00 250.80 442.90 C 245.50 442.20 240.60 441.50 235.60 440.80 C 244.30 419.80 254.70 400.10 271.50 384.10 C 274.30 385.50 277.20 386.70 279.90 388.20 C 294.80 396.70 309.60 405.40 324.60 413.60 C 328.10 415.50 332.40 416.00 336.40 417.00 C 326.60 411.50 316.80 405.90 307.00 400.40 C 291.90 392.00 276.60 383.90 261.60 375.20 C 255.50 371.70 252.80 366.80 255.20 358.80 C 259.30 345.60 258.50 332.30 252.10 319.60 C 250.90 317.10 250.30 314.30 249.40 311.70 C 257.00 311.40 264.00 310.30 270.80 310.90 C 294.10 312.90 317.30 315.50 340.50 318.10 C 341.60 318.20 342.50 319.80 343.50 320.60 L 343.50 320.50 C 344.70 320.50 346.00 320.90 347.10 320.50 C 357.50 316.80 368.50 314.70 378.60 318.80 C 387.00 322.20 395.20 318.50 403.50 322.10 C 401.60 315.20 397.80 313.80 392.10 314.10 C 383.60 314.50 375.00 314.00 366.20 313.90 C 366.10 311.90 366.10 310.50 366.10 310.20 C 363.10 311.50 359.50 314.60 356.00 314.50 C 335.40 313.50 314.90 311.80 294.40 310.20 C 284.80 309.50 275.20 308.30 265.60 307.90 C 256.10 307.50 246.80 307.60 239.10 300.60 C 234.60 296.50 229.50 293.10 224.70 289.30 C 217.50 283.60 210.20 278.00 203.30 272.00 C 201.80 270.70 201.50 268.10 200.80 266.50 C 198.70 266.10 195.10 266.40 192.60 264.90 C 175.60 254.70 157.00 249.90 137.70 247.20 C 120.90 244.90 104.60 242.60 89.00 249.30 L 71.00 254.80 L 64.80 255.90 L 78.00 239.80 C 78.00 239.80 80.90 233.50 83.30 232.30 C 91.30 224.10 97.60 217.10 104.50 210.90 C 111.30 204.90 116.40 196.10 128.00 195.90 C 126.40 194.90 125.40 194.20 124.10 193.40 C 129.30 186.70 135.40 183.70 143.90 186.90 C 153.50 190.50 157.50 182.00 160.00 179.80 C 156.00 180.30 153.20 182.60 150.10 183.20 C 147.90 183.60 145.30 181.80 142.90 181.00 C 143.90 179.00 144.50 176.50 146.10 175.10 C 148.30 173.10 151.70 172.40 153.80 170.30 C 165.50 158.10 176.80 145.40 188.50 133.20 C 190.90 130.70 194.80 129.40 198.60 127.30 C 198.50 122.50 204.60 116.20 213.80 114.20 C 220.80 112.70 233.40 113.10 234.10 112.30 C 243.70 116.00 253.80 118.70 262.90 123.50 C 273.20 129.00 280.20 153.50 282.30 158.30 C 283.50 161.20 284.00 164.30 285.10 167.30 C 285.60 168.60 286.20 170.30 287.30 170.90 C 291.80 173.30 294.80 179.90 293.00 184.60 C 291.70 187.80 290.20 190.90 288.80 194.10 C 289.30 194.40 289.20 194.30 289.70 194.60 C 291.90 191.70 294.20 188.80 296.90 185.20 C 301.30 192.10 299.80 187.90 303.60 194.00 L 304.70 193.60 Z M -40.30 422.10 C -38.50 418.00 -36.60 413.80 -34.70 409.50 C -43.60 422.50 -47.60 424.50 -61.50 421.50 C -54.90 417.00 -49.40 413.10 -44.10 409.50 C -44.70 408.90 -46.30 407.20 -46.30 407.10 C -42.90 403.40 -39.40 399.80 -34.70 395.10 C -32.70 405.70 -31.10 413.80 -29.60 421.80 C -33.50 422.00 -36.70 422.10 -40.30 422.10 Z M -66.90 603.40 C -67.60 602.70 -68.30 602.10 -69.00 601.40 C -63.50 595.80 -58.00 590.20 -52.40 584.50 C -57.40 590.90 -59.20 600.00 -66.90 603.40 Z M 220.50 440.40 C 219.10 440.90 218.20 443.20 217.10 444.80 C 212.80 451.00 199.90 451.90 195.30 446.30 C 191.70 448.10 188.30 450.80 184.60 451.50 C 181.50 452.00 178.00 450.00 174.80 447.70 C 162.50 456.00 149.40 453.20 134.20 450.50 C 133.00 452.10 130.50 455.40 128.00 458.70 C 127.40 458.20 126.90 457.70 126.30 457.30 C 132.30 451.20 138.30 445.10 144.60 438.60 C 147.30 437.80 151.40 436.60 155.60 435.40 C 155.40 434.80 155.30 434.20 155.10 433.50 C 152.60 433.80 150.10 434.10 145.90 434.60 C 153.10 426.10 159.50 419.30 169.80 417.80 C 170.30 416.30 170.90 414.30 171.80 411.40 C 159.20 417.60 151.70 431.30 138.10 431.90 C 136.80 435.20 136.30 438.50 134.40 440.70 C 128.00 448.20 121.70 456.00 114.10 462.20 C 109.30 466.20 102.50 468.40 96.30 470.10 C 89.00 472.10 81.20 472.10 74.00 474.10 C 68.80 475.60 64.00 478.70 59.50 481.70 C 53.20 486.00 46.00 484.30 40.30 482.80 C 32.40 480.60 25.90 482.90 21.60 487.30 C 14.40 494.70 5.90 494.50 -2.90 495.40 C -4.40 495.60 -5.80 496.40 -7.80 497.10 C -7.70 487.40 -15.60 476.80 -7.60 467.60 C -9.00 468.90 -10.60 470.40 -12.40 472.10 C -14.60 462.30 -16.60 453.20 -18.60 444.20 C -19.40 440.50 -20.90 436.80 -20.80 433.10 C -20.70 429.90 -20.10 425.50 -14.90 426.10 C -5.20 427.30 4.50 428.70 14.20 430.10 C 16.00 427.60 17.80 425.40 19.60 423.00 C 7.00 429.80 -5.50 423.00 -19.40 424.20 C -15.80 421.20 -13.70 419.40 -11.50 417.60 C -11.70 417.20 -11.90 416.80 -12.20 416.30 C -15.50 417.90 -18.70 419.40 -23.20 421.50 C -25.40 410.40 -27.60 399.60 -29.70 388.70 C -29.00 388.50 -28.30 388.30 -27.70 388.10 C -26.90 388.90 -26.00 389.70 -24.70 391.00 C -23.70 388.10 -22.80 385.60 -22.10 383.40 C -22.80 383.50 -24.00 383.80 -26.50 384.30 C -21.10 375.30 -16.10 368.40 -5.10 368.80 C -7.30 368.20 -9.60 367.70 -12.60 366.90 C -11.50 364.70 -10.80 363.00 -9.70 361.50 C -6.60 357.30 -3.10 353.40 0.00 349.10 C 4.60 342.80 9.00 336.50 13.30 330.00 C 21.50 317.30 28.80 303.90 38.00 292.00 C 42.60 286.10 45.80 279.00 51.60 274.00 C 53.00 272.80 54.50 271.40 56.20 270.80 C 73.20 265.40 90.30 260.20 107.40 254.90 C 108.30 254.60 109.30 254.40 110.20 254.20 C 122.30 251.70 123.20 252.30 125.80 263.60 C 126.20 263.40 126.80 263.20 126.90 263.00 C 127.20 251.90 127.80 251.20 138.60 252.80 C 167.40 257.10 193.80 266.80 214.30 288.90 C 218.00 292.90 220.90 296.10 214.40 301.10 C 215.20 301.30 215.90 301.60 216.70 301.80 C 218.80 300.10 220.90 298.40 223.10 296.70 C 256.40 311.50 247.10 364.90 248.30 370.10 C 255.70 374.80 261.50 378.40 267.90 382.40 C 252.90 394.50 244.60 410.60 234.90 425.80 C 231.30 431.80 228.00 438.10 220.50 440.40 Z" fill="#253a59" fill-rule="nonzero" group-id="1,3,7,15" node-id="328" stroke="none" target-height="720.1" target-width="706.1" target-x="-181.3" target-y="86.9"/></g></g><path d="M 980.70 510.00 C 980.70 634.23 931.35 753.37 843.51 841.21 C 755.67 929.05 636.53 978.40 512.30 978.40 C 388.07 978.40 268.93 929.05 181.09 841.21 C 93.25 753.37 43.90 634.23 43.90 510.00 C 43.90 385.77 93.25 266.63 181.09 178.79 C 268.93 90.95 388.07 41.60 512.30 41.60 C 636.53 41.60 755.67 90.95 843.51 178.79 C 931.35 266.63 980.70 385.77 980.70 510.00 Z" fill="none" node-id="334" stroke="none" target-height="936.80005" target-width="936.8" target-x="43.9" target-y="41.6"/><path d="M 980.70 510.00 C 980.70 634.23 931.35 753.37 843.51 841.21 C 755.67 929.05 636.53 978.40 512.30 978.40 C 388.07 978.40 268.93 929.05 181.09 841.21 C 93.25 753.37 43.90 634.23 43.90 510.00 C 43.90 385.77 93.25 266.63 181.09 178.79 C 268.93 90.95 388.07 41.60 512.30 41.60 C 636.53 41.60 755.67 90.95 843.51 178.79 C 931.35 266.63 980.70 385.77 980.70 510.00 Z" fill="none" group-id="2" node-id="338" stroke="none" target-height="936.80005" target-width="936.8" target-x="43.9" target-y="41.6"/><path d="M 752.30 368.60 C 750.70 368.30 749.00 370.10 748.90 372.30 C 749.30 372.50 749.90 373.30 750.60 373.40 C 752.00 373.60 753.90 371.80 753.80 370.10 C 753.80 369.60 752.90 368.70 752.30 368.60 Z" fill="#99000f" fill-rule="nonzero" group-id="2,4,8" node-id="344" stroke="none" target-height="5.3000183" target-width="5" target-x="748.9" target-y="368.3"/><path d="M 702.90 173.70 C 705.40 174.60 707.50 173.90 709.40 172.40 C 714.40 168.20 729.10 169.10 734.00 171.50 L 734.00 171.50 C 734.00 171.50 734.00 171.50 734.00 171.50 C 734.10 171.50 734.20 171.60 734.30 171.60 C 734.40 171.70 734.60 171.80 734.70 171.90 C 735.80 172.50 738.00 173.70 739.30 174.30 C 739.30 174.30 739.30 174.30 739.30 174.30 C 739.50 174.40 739.70 174.50 739.90 174.60 C 740.90 175.10 742.10 175.40 743.10 175.70 C 744.30 176.10 745.60 176.30 746.70 176.90 C 747.20 177.10 747.70 177.80 747.80 178.40 C 748.20 179.80 748.50 181.20 748.80 182.60 C 749.10 184.00 749.60 185.50 749.70 186.90 C 750.20 191.80 750.60 196.40 751.30 201.30 C 751.40 202.20 752.80 202.90 753.60 203.70 C 754.00 202.80 754.80 202.00 754.90 201.10 C 755.00 196.10 755.00 191.20 754.90 186.20 C 754.90 183.00 753.80 180.20 750.50 178.40 C 750.10 178.20 749.70 177.40 749.80 176.90 C 750.50 173.50 750.10 173.10 746.80 171.20 C 742.40 168.60 737.40 167.70 732.50 167.10 C 727.60 166.50 715.40 165.30 710.40 167.20 C 709.60 167.50 708.60 167.40 707.70 167.20 C 705.30 166.80 702.70 167.60 701.40 169.40 C 700.10 171.20 700.70 172.90 702.90 173.70 Z" fill="#99000f" fill-rule="nonzero" group-id="2,4,8" node-id="346" stroke="none" target-height="38.399994" target-width="54.900024" target-x="700.1" target-y="165.3"/><path d="M 746.60 376.50 C 743.60 378.90 740.20 378.30 736.70 377.90 C 734.40 377.60 732.00 377.70 729.70 377.70 C 726.70 377.70 716.70 378.10 713.70 377.90 C 711.10 377.70 708.50 377.20 706.10 376.30 C 703.30 375.20 700.80 373.50 698.00 372.20 C 695.00 370.80 693.20 368.70 692.90 365.70 C 692.70 363.80 692.50 361.90 692.30 360.10 C 691.60 351.30 690.70 342.50 690.20 333.70 C 689.90 328.50 690.60 327.40 690.40 322.20 C 690.20 314.40 689.70 315.80 689.40 308.00 C 689.20 302.30 689.00 306.50 688.80 300.80 C 688.70 297.00 688.30 293.10 688.30 289.30 C 688.40 282.60 688.80 275.80 689.00 269.10 C 689.10 266.40 688.90 263.70 688.90 261.00 C 689.00 253.60 689.10 249.10 689.20 241.70 C 689.20 235.90 689.20 232.60 689.10 226.80 C 689.10 226.80 688.70 223.80 689.10 222.50 C 689.10 222.50 689.10 222.50 689.10 222.40 C 689.10 222.90 689.10 223.10 689.10 223.10 C 689.10 222.80 689.10 222.60 689.10 222.30 C 689.40 221.20 689.60 219.40 689.30 217.50 C 689.30 217.50 689.30 217.40 689.30 217.40 C 689.40 215.40 689.50 213.50 689.60 210.70 C 689.70 208.30 689.60 205.80 689.80 203.40 C 689.80 203.10 689.90 202.70 690.00 202.40 C 690.20 201.10 690.70 198.80 691.00 198.20 C 691.50 197.40 691.60 193.80 691.70 192.70 C 691.70 192.60 691.70 192.50 691.70 192.40 C 691.80 191.90 692.80 191.20 693.50 191.10 C 695.40 190.90 696.20 190.00 696.20 188.40 C 696.20 186.40 696.50 184.40 696.00 182.60 C 695.20 179.80 695.90 177.70 697.80 175.50 C 698.40 174.80 698.00 173.50 698.10 172.50 C 697.00 172.80 695.70 172.80 694.90 173.40 C 693.20 174.70 692.00 176.50 690.40 177.90 C 688.40 179.60 687.30 181.50 687.30 183.90 C 687.30 184.70 687.00 185.50 686.90 186.30 C 686.10 193.30 684.60 200.00 684.50 207.00 C 684.30 220.10 685.00 220.30 685.20 233.40 C 685.40 242.30 685.40 248.30 685.40 257.20 C 685.40 259.80 685.30 262.50 685.30 265.10 C 685.40 269.10 685.70 273.20 685.60 277.20 C 685.40 287.10 684.70 293.10 684.70 303.00 C 684.70 314.10 685.20 309.80 685.40 320.90 C 685.60 335.30 685.70 345.50 686.00 359.90 C 686.10 366.10 687.10 372.20 691.50 377.50 C 694.00 380.60 697.10 382.50 700.30 381.80 C 708.10 380.20 722.90 381.10 730.30 382.90 C 736.20 384.40 741.10 383.10 746.00 380.80 C 747.90 379.90 748.90 378.40 748.50 376.10 C 747.80 376.20 747.00 376.20 746.60 376.50 Z" fill="#99000f" fill-rule="nonzero" group-id="2,4,8" node-id="348" stroke="none" target-height="211.9" target-width="64.60004" target-x="684.3" target-y="172.5"/><path d="M 754.30 209.00 C 754.20 208.10 753.40 207.30 752.90 206.50 C 752.60 206.60 752.20 206.60 751.90 206.70 C 751.70 208.00 751.20 209.30 751.20 210.60 C 751.20 216.30 751.30 211.60 751.20 217.30 C 751.20 221.70 751.00 223.70 750.90 228.10 C 750.90 229.20 750.50 229.80 749.70 230.00 L 750.60 234.00 C 750.80 234.10 751.10 234.10 751.30 234.20 C 752.10 234.40 753.10 235.00 753.70 234.80 C 754.30 234.50 754.80 233.60 754.80 232.80 C 755.00 231.50 754.70 230.10 754.80 228.80 C 755.50 217.80 755.70 219.90 754.30 209.00 Z" fill="#99000f" fill-rule="nonzero" group-id="2,4,8" node-id="350" stroke="none" target-height="28.5" target-width="6" target-x="749.7" target-y="206.5"/><path d="M 757.40 346.00 C 756.90 334.20 756.90 331.20 756.70 319.30 C 756.60 314.10 756.70 313.60 756.60 308.40 C 756.40 302.60 756.00 306.90 755.70 301.10 C 755.60 299.80 755.60 298.50 755.90 297.30 C 756.30 295.40 756.30 293.60 754.90 291.90 C 754.60 291.50 754.70 290.20 755.20 289.90 C 757.00 288.80 757.10 287.30 756.80 285.60 C 756.10 280.90 755.00 276.10 754.90 271.40 C 754.70 264.60 755.00 257.80 755.60 251.00 C 756.00 246.60 755.20 245.20 754.80 240.80 C 754.70 240.30 754.20 239.90 753.80 239.40 C 753.30 239.70 752.60 240.00 752.20 240.40 C 751.80 240.90 751.60 241.50 751.40 242.10 C 751.40 242.20 751.40 242.30 751.30 242.40 C 750.80 244.40 751.10 249.30 751.10 249.30 L 751.10 249.30 C 751.40 252.90 751.70 253.70 751.90 257.30 C 751.90 257.50 751.70 257.70 751.70 257.90 C 751.50 258.90 751.30 259.90 751.20 260.80 C 751.10 262.70 751.00 264.70 751.00 266.60 C 751.00 269.10 751.10 271.60 751.20 274.00 C 751.30 275.90 751.30 277.70 751.40 279.60 C 751.40 280.30 751.30 281.00 751.40 281.60 C 752.00 284.50 751.00 286.70 750.40 290.10 C 750.20 291.20 750.20 292.30 750.20 292.60 C 750.30 297.10 750.10 295.70 750.30 300.20 C 750.40 302.10 751.20 302.00 751.20 303.90 C 751.40 310.70 751.50 309.00 751.70 315.80 C 751.90 326.20 752.10 327.70 752.30 338.10 C 752.40 342.30 752.40 346.60 752.40 350.80 C 752.40 352.70 752.20 354.70 752.10 356.60 C 752.00 359.10 752.00 361.70 752.00 364.20 C 752.00 364.80 752.10 365.80 752.50 365.90 C 753.00 366.10 754.30 365.90 754.50 365.60 C 755.40 364.20 756.50 362.70 756.80 361.20 C 757.60 356.20 757.70 351.10 757.40 346.00 Z" fill="#99000f" fill-rule="nonzero" group-id="2,4,8" node-id="352" stroke="none" target-height="126.70001" target-width="7.6000366" target-x="750.1" target-y="239.4"/><path d="M 724.70 183.00 L 728.60 185.30 C 732.20 183.40 734.90 181.70 736.70 180.00 C 736.90 179.80 737.10 179.80 737.30 180.00 L 740.70 183.90 C 740.80 184.30 740.70 184.50 740.30 184.70 C 738.90 184.70 735.20 185.20 729.00 186.20 C 729.40 186.20 729.10 186.30 728.10 186.40 L 728.10 195.00 L 737.50 194.80 L 740.10 192.20 L 743.50 195.00 C 743.70 195.40 743.70 195.60 743.30 195.80 L 734.50 196.00 L 737.50 198.10 C 738.00 198.20 738.10 198.50 737.70 199.00 L 736.60 200.50 L 736.80 219.30 C 736.70 221.00 735.70 222.50 734.00 223.80 C 733.40 224.30 732.90 224.30 732.70 223.80 L 732.70 196.00 L 728.20 196.20 C 728.20 205.10 727.10 211.20 724.80 214.60 C 722.90 217.90 718.10 221.20 710.40 224.70 C 710.10 224.80 710.00 224.80 710.00 224.70 C 709.90 224.60 709.90 224.40 710.00 224.10 C 715.60 221.20 719.30 218.50 721.10 215.80 L 705.20 216.70 C 704.40 218.50 703.40 219.70 702.00 220.50 C 701.60 220.60 701.40 220.60 701.20 220.30 L 701.40 211.30 L 701.40 190.30 C 701.40 189.30 701.30 187.50 701.20 184.90 C 701.20 183.30 701.20 182.30 701.20 181.90 C 701.20 181.70 701.30 181.60 701.40 181.70 L 705.70 183.60 C 705.90 183.70 705.90 183.90 705.70 184.00 L 704.90 185.50 L 704.90 207.80 C 707.30 204.20 709.40 199.80 711.30 194.70 C 709.70 194.80 708.20 195.00 706.80 195.30 L 705.50 194.00 L 712.60 193.80 L 712.60 185.20 L 712.20 180.10 C 712.20 179.70 712.30 179.60 712.60 179.70 L 716.50 181.00 C 716.70 181.00 716.80 181.20 716.70 181.60 L 716.10 182.90 L 716.10 192.70 C 718.00 189.60 719.40 186.70 720.40 184.10 L 723.00 186.50 C 723.00 186.60 722.90 186.80 722.80 187.10 L 716.00 193.70 L 718.60 193.50 L 720.50 191.40 L 723.10 193.80 C 723.30 194.10 723.30 194.20 722.90 194.20 L 716.00 194.60 L 715.80 202.90 L 716.00 208.90 C 715.90 210.70 714.90 212.40 713.00 214.20 C 712.50 214.50 712.20 214.30 712.10 213.80 L 712.30 203.90 L 712.30 200.10 C 710.80 202.90 708.30 206.00 704.80 209.70 L 704.80 215.90 L 716.80 215.30 L 719.40 212.50 L 721.70 214.60 C 723.60 211.40 724.40 204.70 724.30 194.70 L 724.30 189.10 C 724.30 188.00 724.20 186.50 724.10 184.80 C 724.10 184.20 724.10 183.80 724.10 183.70 C 724.10 183.00 724.30 182.90 724.70 183.00 Z M 706.30 186.20 C 706.00 185.80 706.10 185.70 706.50 185.80 C 708.80 186.40 710.30 187.30 711.20 188.40 C 711.30 189.20 711.00 190.00 710.30 190.80 C 709.50 191.40 709.00 191.40 708.80 190.80 C 708.40 189.00 707.50 187.50 706.30 186.20 Z M 716.80 196.70 C 720.60 198.10 722.50 199.30 722.60 200.50 C 722.80 201.30 722.40 202.30 721.30 203.50 C 720.50 203.90 720.00 203.80 719.80 203.10 C 719.20 200.70 718.00 198.70 716.40 197.10 C 716.30 196.70 716.40 196.60 716.80 196.70 Z" fill="#99000f" fill-rule="nonzero" group-id="2,4,9" node-id="357" stroke="none" target-height="45.199997" target-width="42.5" target-x="701.2" target-y="179.6"/><path d="M 708.00 227.10 L 712.10 229.20 C 712.30 229.50 712.30 229.60 712.10 229.60 L 711.50 231.10 L 711.30 238.00 L 713.70 238.00 L 715.80 235.90 L 718.40 238.30 C 718.50 238.60 718.40 238.70 718.00 238.70 L 711.20 238.90 L 711.20 243.80 C 713.80 244.80 715.40 245.80 716.10 246.80 C 716.30 247.80 715.90 248.70 714.80 249.40 C 714.00 249.90 713.60 249.80 713.50 249.00 C 712.90 247.00 712.10 245.50 711.20 244.50 L 711.20 258.00 L 711.40 266.40 C 711.00 268.10 710.10 269.80 708.60 271.30 C 707.80 271.80 707.40 271.70 707.30 270.90 L 707.70 257.80 L 707.70 249.50 C 704.90 253.60 701.50 257.80 697.40 262.10 C 697.30 262.20 697.10 262.30 696.80 262.30 C 696.70 262.20 696.70 262.00 696.80 261.70 C 701.40 255.10 705.10 247.70 707.70 239.60 L 707.70 239.00 L 706.40 239.00 C 704.50 239.00 702.80 239.10 701.10 239.40 L 699.80 238.10 L 707.70 237.90 L 707.70 233.60 C 707.70 230.70 707.60 228.60 707.50 227.20 C 707.60 227.10 707.70 227.00 708.00 227.10 Z M 721.10 249.10 L 726.20 250.40 C 726.60 250.50 726.60 250.70 726.40 251.00 L 725.60 252.50 C 726.40 262.30 721.50 269.20 711.00 273.30 C 710.70 273.40 710.60 273.40 710.60 273.10 C 710.50 273.00 710.50 272.80 710.80 272.70 C 715.40 269.90 718.40 267.10 719.60 264.10 C 721.00 261.10 721.50 256.10 721.10 249.10 Z M 732.90 227.90 L 736.30 232.00 C 736.40 232.10 736.50 232.30 736.50 232.40 C 736.40 232.50 736.20 232.60 735.90 232.60 C 735.10 232.70 733.60 232.90 731.40 233.00 C 729.80 233.10 728.40 233.30 727.30 233.40 L 730.70 234.90 C 730.90 235.00 731.00 235.20 730.90 235.50 L 730.10 236.10 C 729.70 236.70 729.20 237.70 728.40 238.90 C 728.00 239.70 727.70 240.20 727.50 240.60 L 736.90 240.40 L 739.30 238.00 L 742.50 240.60 C 742.60 240.90 742.50 241.00 742.10 241.20 L 726.70 241.60 C 724.10 245.90 719.90 250.00 714.30 254.20 C 713.70 254.30 713.50 254.20 713.90 253.80 C 717.50 250.60 720.50 246.60 722.70 241.80 L 722.50 241.80 C 720.50 241.80 718.60 241.90 716.90 242.20 L 715.40 240.90 L 723.10 240.70 C 724.10 238.60 725.00 236.30 725.70 233.80 C 724.70 233.90 723.00 234.10 720.60 234.40 C 719.60 234.50 718.80 234.70 718.30 234.80 C 718.00 234.80 717.90 234.70 717.90 234.60 C 717.80 234.40 717.80 234.20 718.10 234.20 C 725.80 231.50 730.70 229.50 732.90 227.90 Z M 729.90 249.10 L 735.20 251.00 C 735.40 251.10 735.40 251.30 735.20 251.60 L 734.30 252.70 L 734.30 267.70 C 733.80 269.40 732.80 270.90 731.30 272.20 C 730.50 272.80 730.00 272.80 729.80 272.20 L 730.00 263.60 L 730.00 254.40 L 730.00 249.10 Z M 730.50 241.60 C 732.20 244.60 736.60 247.20 743.40 249.30 C 743.60 249.30 743.80 249.40 743.80 249.50 C 743.80 249.80 743.70 249.90 743.60 249.90 C 742.00 250.20 740.30 251.20 738.50 252.90 C 734.40 250.30 731.60 246.60 730.10 241.80 L 730.50 241.60 Z" fill="#99000f" fill-rule="nonzero" group-id="2,4,9" node-id="359" stroke="none" target-height="46.399994" target-width="47.099976" target-x="696.7" target-y="227"/><path d="M 707.80 297.90 C 708.20 298.00 708.70 298.30 709.30 298.70 C 710.10 299.10 710.50 299.40 710.80 299.60 C 711.90 297.00 712.90 294.30 713.80 291.70 L 709.10 291.90 C 706.80 296.00 703.60 300.30 699.30 304.70 C 699.20 304.80 699.00 304.80 698.90 304.70 C 698.80 304.60 698.80 304.40 698.90 304.10 C 703.40 298.20 706.80 291.00 709.00 282.30 L 708.20 282.30 C 707.80 282.30 707.40 282.30 706.90 282.30 C 705.30 282.40 704.10 282.60 703.30 282.90 L 701.60 281.40 L 715.10 281.20 L 717.70 278.80 L 720.50 281.60 C 720.70 281.90 720.70 282.00 720.30 282.20 L 710.00 282.40 L 712.60 284.10 C 712.80 284.20 712.80 284.40 712.60 284.70 C 712.20 285.50 711.70 286.60 710.90 288.10 C 710.30 289.40 709.80 290.30 709.60 290.90 L 713.40 290.70 L 715.30 288.60 L 719.10 291.00 C 719.30 291.30 719.30 291.60 718.90 291.90 L 717.60 293.20 C 716.60 296.10 715.30 298.80 713.80 301.50 C 715.80 302.80 716.90 303.80 717.00 304.70 C 716.90 306.00 716.20 307.10 715.10 308.30 C 714.30 308.80 713.80 308.60 713.40 307.70 C 713.00 306.60 712.50 305.50 711.90 304.50 C 708.10 309.90 703.10 314.90 696.70 319.70 C 696.60 319.80 696.40 319.80 696.30 319.70 C 696.30 319.60 696.40 319.40 696.50 319.10 C 702.10 313.80 706.60 308.00 709.80 301.50 C 709.70 301.30 709.40 300.90 709.00 300.60 C 708.60 300.00 708.00 299.30 707.10 298.50 C 707.30 298.20 707.40 298.10 707.80 297.90 Z M 723.70 275.20 L 729.00 277.60 C 729.20 277.70 729.20 277.90 729.00 278.20 L 727.90 279.10 C 727.90 282.10 728.00 285.00 728.30 287.70 L 733.70 287.10 L 736.00 284.50 L 739.40 287.10 C 739.60 287.50 739.60 287.70 739.20 287.70 L 728.30 288.60 C 728.70 291.60 729.10 294.30 729.60 296.70 L 736.70 295.80 L 738.80 292.80 L 742.60 295.60 C 742.70 295.70 742.70 295.90 742.40 296.20 L 730.00 297.90 C 730.50 300.00 731.10 302.00 731.90 303.70 C 733.60 301.80 735.10 299.90 736.40 298.10 L 736.80 297.90 L 739.60 300.70 C 739.80 300.80 739.80 301.10 739.60 301.50 C 740.00 301.10 739.90 301.20 739.40 301.70 C 737.60 303.70 735.60 305.60 733.40 307.30 C 735.10 310.30 737.00 312.60 739.00 314.10 C 739.50 314.50 740.00 314.50 740.50 314.10 C 740.40 314.10 740.40 314.10 740.50 314.10 L 742.00 311.80 C 742.20 311.60 742.40 311.50 742.60 311.60 C 742.80 311.60 742.90 311.70 742.80 312.00 C 741.70 314.10 741.80 316.10 743.20 318.00 C 743.70 319.20 743.40 320.10 742.40 320.60 C 741.40 321.10 740.20 320.90 738.80 320.00 C 734.90 317.60 731.90 314.30 729.80 310.10 C 724.50 313.70 717.70 316.90 709.20 319.70 C 709.10 319.80 708.90 319.80 708.80 319.50 C 708.70 319.40 708.70 319.20 708.80 319.10 C 716.90 315.80 723.50 311.90 728.50 307.10 C 727.50 304.40 726.60 301.40 725.90 298.30 L 724.00 298.70 C 721.90 299.00 720.20 299.30 719.10 299.60 L 717.40 298.30 L 725.70 297.20 C 725.20 294.60 724.80 291.90 724.60 289.10 C 722.70 289.20 721.10 289.50 719.70 289.90 L 718.00 288.60 L 724.60 288.00 C 724.30 285.90 724.20 282.70 724.00 278.40 C 723.80 277.10 723.70 276.00 723.70 275.20 Z M 731.80 278.10 C 734.80 278.70 736.40 279.70 736.70 280.90 C 736.70 281.90 736.10 282.70 734.80 283.30 C 734.00 283.70 733.60 283.50 733.50 282.70 C 733.40 280.70 732.70 279.20 731.60 278.20 C 731.60 278.00 731.70 277.90 731.80 278.10 Z" fill="#99000f" fill-rule="nonzero" group-id="2,4,9" node-id="361" stroke="none" target-height="45.899994" target-width="47.400024" target-x="696.3" target-y="275.2"/><path d="M 707.80 327.40 C 707.50 327.40 707.40 327.20 707.20 326.80 C 707.20 326.60 707.30 326.40 707.60 326.40 L 728.40 325.80 L 730.80 323.20 L 733.80 326.00 C 734.00 326.40 734.00 326.60 733.60 326.60 L 722.20 327.00 L 722.20 331.30 L 735.30 330.90 L 737.60 329.20 L 742.30 334.30 C 742.50 334.60 742.60 334.80 742.50 335.10 C 742.40 335.40 742.10 335.40 741.70 335.30 C 739.60 335.30 737.30 335.90 734.90 337.20 C 734.50 337.20 734.40 337.10 734.50 336.80 L 735.40 332.10 L 722.10 332.50 L 722.30 340.00 C 722.30 341.60 721.40 343.30 719.50 344.90 C 718.70 345.30 718.40 345.20 718.40 344.50 L 718.40 332.70 L 706.40 332.90 C 705.50 336.40 703.80 338.80 701.30 340.20 C 700.90 340.50 700.60 340.30 700.40 339.80 C 699.80 338.30 699.80 337.20 700.60 336.60 C 702.30 335.10 703.30 333.10 703.40 330.60 C 703.40 330.20 703.50 330.00 703.60 330.00 C 703.70 330.00 704.00 330.10 704.40 330.20 C 705.20 330.70 705.80 331.30 706.30 331.90 L 718.50 331.50 L 718.50 327.00 L 707.80 327.40 Z M 714.20 355.70 C 712.40 355.70 710.80 355.80 709.10 356.10 L 707.80 354.60 L 730.70 354.40 L 730.70 348.40 L 730.30 347.30 L 732.60 344.30 L 737.10 347.10 C 737.30 347.20 737.30 347.50 737.10 347.90 L 735.80 349.80 L 735.60 352.60 L 735.80 360.10 C 736.00 363.10 735.00 365.70 732.80 368.00 C 732.30 368.50 731.90 368.50 731.70 368.00 C 731.20 366.60 730.40 365.20 729.40 363.70 L 709.10 363.90 C 707.00 363.90 705.30 364.10 704.20 364.50 L 702.70 363.20 L 730.60 363.00 L 730.60 355.50 L 714.20 355.70 Z M 710.20 348.60 C 708.30 348.70 706.70 348.90 705.30 349.20 L 703.80 347.70 L 728.60 347.30 L 728.60 348.20 L 710.20 348.60 Z M 716.00 341.10 C 716.40 341.20 716.60 341.40 716.60 341.70 C 716.60 342.00 716.40 342.10 716.00 342.30 L 707.00 342.70 C 706.60 342.80 706.40 342.70 706.20 342.30 C 706.20 341.90 706.40 341.70 706.80 341.50 L 716.00 341.10 Z M 715.10 336.20 C 715.50 336.30 715.70 336.50 715.70 336.80 C 715.70 337.10 715.50 337.20 715.10 337.40 L 708.30 337.80 C 707.90 337.80 707.70 337.60 707.70 337.20 C 707.70 336.80 707.90 336.60 708.30 336.60 L 715.10 336.20 Z M 733.30 340.70 C 733.70 340.70 733.90 340.90 733.90 341.30 C 733.90 341.60 733.70 341.70 733.30 341.90 L 724.90 342.30 C 724.50 342.30 724.30 342.20 724.10 341.90 C 724.10 341.50 724.30 341.30 724.70 341.10 L 733.30 340.70 Z M 731.80 335.80 C 732.40 336.10 732.40 336.40 731.80 336.90 L 725.00 337.10 C 724.70 337.10 724.60 336.90 724.60 336.50 C 724.60 336.30 724.70 336.10 725.00 336.10 L 731.80 335.80 Z" fill="#99000f" fill-rule="nonzero" group-id="2,4,9" node-id="363" stroke="none" target-height="45.299988" target-width="42.799988" target-x="699.8" target-y="323.2"/></svg>