<svg height="1024" node-id="1" sillyvg="true" template-height="1024" template-width="1024" version="1.1" viewBox="0 0 1024 1024" width="1024" xmlns="http://www.w3.org/2000/svg" xmlns:xlink="http://www.w3.org/1999/xlink"><defs node-id="152"><linearGradient gradientUnits="userSpaceOnUse" id="SVGID_3_" node-id="13" spreadMethod="pad" x1="36.2554" x2="36.2554" y1="414.4572" y2="399.4437"><stop offset="0" stop-color="#ffcdd6"/><stop offset="0.3975" stop-color="#6d8daf"/><stop offset="1" stop-color="#253a59"/></linearGradient><linearGradient gradientUnits="userSpaceOnUse" id="SVGID_4_" node-id="18" spreadMethod="pad" x1="-46.7205" x2="-46.7205" y1="376.8818" y2="365.4684"><stop offset="0" stop-color="#ffcdd6"/><stop offset="0.3975" stop-color="#6d8daf"/><stop offset="1" stop-color="#253a59"/></linearGradient><linearGradient gradientUnits="userSpaceOnUse" id="SVGID_5_" node-id="23" spreadMethod="pad" x1="-87.4126" x2="-87.4126" y1="401.9633" y2="396.2549"><stop offset="0" stop-color="#ffcdd6"/><stop offset="0.3975" stop-color="#6d8daf"/><stop offset="1" stop-color="#253a59"/></linearGradient><linearGradient gradientUnits="userSpaceOnUse" id="SVGID_6_" node-id="28" spreadMethod="pad" x1="-253.201" x2="-253.201" y1="452.7319" y2="445.4651"><stop offset="0" stop-color="#ffcdd6"/><stop offset="0.3975" stop-color="#6d8daf"/><stop offset="1" stop-color="#253a59"/></linearGradient><linearGradient gradientUnits="userSpaceOnUse" id="SVGID_7_" node-id="33" spreadMethod="pad" x1="-154.1202" x2="-154.1202" y1="449.0985" y2="441.8318"><stop offset="0" stop-color="#ffcdd6"/><stop offset="0.3975" stop-color="#6d8daf"/><stop offset="1" stop-color="#253a59"/></linearGradient><linearGradient gradientTransform="matrix(0.9998 0.02140446 -0.02140446 0.9998 -5.876 -89.1797)" gradientUnits="userSpaceOnUse" id="SVGID_8_" node-id="42" spreadMethod="pad" x1="711.8983" x2="748.1744" y1="967.0679" y2="967.0679"><stop offset="0" stop-color="#ffcdd6"/><stop offset="0.3975" stop-color="#6d8daf"/><stop offset="1" stop-color="#253a59"/></linearGradient><linearGradient gradientTransform="matrix(0.9998 0.02140446 -0.02140446 0.9998 -5.876 -89.1797)" gradientUnits="userSpaceOnUse" id="SVGID_9_" node-id="47" spreadMethod="pad" x1="711.3071" x2="724.6484" y1="968.0986" y2="968.0986"><stop offset="0" stop-color="#ffcdd6"/><stop offset="0.3975" stop-color="#6d8daf"/><stop offset="1" stop-color="#253a59"/></linearGradient><linearGradient gradientUnits="userSpaceOnUse" id="SVGID_10_" node-id="54" spreadMethod="pad" x1="665.9603" x2="665.9603" y1="898.6125" y2="866.0734"><stop offset="0" stop-color="#ffcdd6"/><stop offset="0.3975" stop-color="#6d8daf"/><stop offset="1" stop-color="#253a59"/></linearGradient><linearGradient gradientUnits="userSpaceOnUse" id="SVGID_11_" node-id="59" spreadMethod="pad" x1="628.1168" x2="740.7834" y1="901.1742" y2="901.1742"><stop offset="0" stop-color="#ffcdd6"/><stop offset="0.3975" stop-color="#6d8daf"/><stop offset="1" stop-color="#253a59"/></linearGradient><linearGradient gradientTransform="matrix(-0.3076 0.9515 -0.9515 -0.3076 1589.1189 399.2807)" gradientUnits="userSpaceOnUse" id="SVGID_12_" node-id="64" spreadMethod="pad" x1="727.9892" x2="779.9882" y1="735.8931" y2="735.8931"><stop offset="0" stop-color="#ffcdd6"/><stop offset="0.3975" stop-color="#6d8daf"/><stop offset="1" stop-color="#253a59"/></linearGradient><linearGradient gradientUnits="userSpaceOnUse" id="SVGID_13_" node-id="80" spreadMethod="pad" x1="700.5951" x2="700.5951" y1="712.9508" y2="485.876"><stop offset="0" stop-color="#ffcdd6"/><stop offset="0.3975" stop-color="#6d8daf"/><stop offset="1" stop-color="#253a59"/></linearGradient><linearGradient gradientUnits="userSpaceOnUse" id="SVGID_14_" node-id="85" spreadMethod="pad" x1="183.2703" x2="183.2703" y1="701.3383" y2="582.1736"><stop offset="0" stop-color="#ffcdd6"/><stop offset="0.3975" stop-color="#6d8daf"/><stop offset="1" stop-color="#253a59"/></linearGradient><linearGradient gradientUnits="userSpaceOnUse" id="SVGID_15_" node-id="90" spreadMethod="pad" x1="491.8883" x2="491.8883" y1="712.3839" y2="465.3053"><stop offset="0" stop-color="#ffcdd6"/><stop offset="0.3975" stop-color="#6d8daf"/><stop offset="1" stop-color="#253a59"/></linearGradient><linearGradient gradientUnits="userSpaceOnUse" id="SVGID_16_" node-id="95" spreadMethod="pad" x1="459.3113" x2="459.3113" y1="712.3839" y2="644.7203"><stop offset="0" stop-color="#ffcdd6"/><stop offset="0.3975" stop-color="#6d8daf"/><stop offset="1" stop-color="#253a59"/></linearGradient><linearGradient gradientUnits="userSpaceOnUse" id="SVGID_17_" node-id="101" spreadMethod="pad" x1="700.5951" x2="700.5951" y1="-126.57425" y2="0.17886372"><stop offset="0" stop-color="#ffcdd6"/><stop offset="0.3975" stop-color="#6d8daf"/><stop offset="1" stop-color="#253a59"/></linearGradient><linearGradient gradientUnits="userSpaceOnUse" id="SVGID_18_" node-id="106" spreadMethod="pad" x1="183.2703" x2="183.2703" y1="-120.09214" y2="-53.574467"><stop offset="0" stop-color="#ffcdd6"/><stop offset="0.3975" stop-color="#6d8daf"/><stop offset="1" stop-color="#253a59"/></linearGradient><linearGradient gradientUnits="userSpaceOnUse" id="SVGID_19_" node-id="111" spreadMethod="pad" x1="491.8883" x2="491.8883" y1="-126.25782" y2="11.661407"><stop offset="0" stop-color="#ffcdd6"/><stop offset="0.3975" stop-color="#6d8daf"/><stop offset="1" stop-color="#253a59"/></linearGradient><linearGradient gradientUnits="userSpaceOnUse" id="SVGID_20_" node-id="116" spreadMethod="pad" x1="459.3113" x2="459.3113" y1="-126.25782" y2="-88.48801"><stop offset="0" stop-color="#ffcdd6"/><stop offset="0.3975" stop-color="#6d8daf"/><stop offset="1" stop-color="#253a59"/></linearGradient><linearGradient gradientUnits="userSpaceOnUse" id="SVGID_21_" node-id="121" spreadMethod="pad" x1="327.2079" x2="327.2079" y1="497.9098" y2="530.9278"><stop offset="0" stop-color="#ffcdd6"/><stop offset="0.3975" stop-color="#6d8daf"/><stop offset="1" stop-color="#253a59"/></linearGradient><linearGradient gradientUnits="userSpaceOnUse" id="SVGID_22_" node-id="126" spreadMethod="pad" x1="-846.0459" x2="-846.0459" y1="514.4188" y2="540.7869"><stop offset="0" stop-color="#ffcdd6"/><stop offset="0.3975" stop-color="#6d8daf"/><stop offset="1" stop-color="#253a59"/></linearGradient><linearGradient gradientUnits="userSpaceOnUse" id="SVGID_23_" node-id="131" spreadMethod="pad" x1="389.074" x2="389.074" y1="513.3825" y2="539.7507"><stop offset="0" stop-color="#ffcdd6"/><stop offset="0.3975" stop-color="#6d8daf"/><stop offset="1" stop-color="#253a59"/></linearGradient><clipPath id="SVGID_2_" node-id="9"><path d="M 980.40 512.00 C 980.40 636.23 931.05 755.37 843.21 843.21 C 755.37 931.05 636.23 980.40 512.00 980.40 C 387.77 980.40 268.63 931.05 180.79 843.21 C 92.95 755.37 43.60 636.23 43.60 512.00 C 43.60 387.77 92.95 268.63 180.79 180.79 C 268.63 92.95 387.77 43.60 512.00 43.60 C 636.23 43.60 755.37 92.95 843.21 180.79 C 931.05 268.63 980.40 387.77 980.40 512.00 Z" fill="#000000" fill-rule="nonzero" node-id="323" stroke="none" target-height="936.80005" target-width="936.80005" target-x="43.6" target-y="43.6"/></clipPath></defs><path d="M 0.00 0.00 L 0.00 1024.00 L 1024.00 1024.00 L 1024.00 0.00 L 0.00 0.00 Z M 511.90 980.20 C 253.20 980.20 43.50 770.50 43.50 511.80 C 43.50 253.10 253.30 43.50 511.90 43.50 C 770.50 43.50 980.30 253.20 980.30 511.90 C 980.30 770.60 770.60 980.20 511.90 980.20 Z" fill="#eeebe6" fill-opacity="0" fill-rule="nonzero" node-id="327" stroke="none" target-height="1024" target-width="1024" target-x="0" target-y="0"/><path d="M 980.40 512.00 C 980.40 636.23 931.05 755.37 843.21 843.21 C 755.37 931.05 636.23 980.40 512.00 980.40 C 387.77 980.40 268.63 931.05 180.79 843.21 C 92.95 755.37 43.60 636.23 43.60 512.00 C 43.60 387.77 92.95 268.63 180.79 180.79 C 268.63 92.95 387.77 43.60 512.00 43.60 C 636.23 43.60 755.37 92.95 843.21 180.79 C 931.05 268.63 980.40 387.77 980.40 512.00 Z" fill="none" node-id="329" stroke="none" target-height="936.80005" target-width="936.80005" target-x="43.6" target-y="43.6"/><g node-id="487"><g clip-path="url(#SVGID_2_)" group-id="1" id="sillyvg_g_1" node-id="333"><path d="M 826.40 405.90 C 826.40 405.90 805.30 407.40 804.60 414.40 C 804.60 414.40 795.20 401.40 780.50 400.10 C 780.50 400.10 794.80 396.00 804.70 407.20 C 804.70 407.30 816.80 401.20 826.40 405.90 Z" fill="url(#SVGID_3_)" fill-rule="nonzero" group-id="1,3,5" node-id="337" stroke="none" target-height="18.399994" target-width="45.900024" target-x="780.5" target-y="396"/><path d="M 737.90 370.40 C 737.90 370.40 721.80 371.50 721.40 376.90 C 721.40 376.90 714.20 367.00 703.10 366.00 C 703.10 366.00 714.00 362.90 721.50 371.40 C 721.40 371.40 730.60 366.80 737.90 370.40 Z" fill="url(#SVGID_4_)" fill-rule="nonzero" group-id="1,3,5" node-id="339" stroke="none" target-height="14" target-width="34.80005" target-x="703.1" target-y="362.9"/><path d="M 688.50 398.70 C 688.50 398.70 680.50 399.30 680.20 401.90 C 680.20 401.90 676.60 396.90 671.00 396.50 C 671.00 396.50 676.40 395.00 680.20 399.20 C 680.20 399.20 684.80 396.90 688.50 398.70 Z" fill="url(#SVGID_5_)" fill-rule="nonzero" group-id="1,3,5" node-id="341" stroke="none" target-height="6.899994" target-width="17.5" target-x="671" target-y="395"/><path d="M 525.10 448.60 C 525.10 448.60 514.90 449.30 514.60 452.70 C 514.60 452.70 510.00 446.40 502.90 445.80 C 502.90 445.80 509.80 443.80 514.60 449.20 C 514.60 449.30 520.40 446.30 525.10 448.60 Z" fill="url(#SVGID_6_)" fill-rule="nonzero" group-id="1,3,5" node-id="343" stroke="none" target-height="8.900024" target-width="22.199982" target-x="502.9" target-y="443.8"/><path d="M 624.10 445.00 C 624.10 445.00 613.90 445.70 613.60 449.10 C 613.60 449.10 609.00 442.80 601.90 442.20 C 601.90 442.20 608.80 440.20 613.60 445.60 C 613.70 445.60 619.50 442.70 624.10 445.00 Z" fill="url(#SVGID_7_)" fill-rule="nonzero" group-id="1,3,5" node-id="345" stroke="none" target-height="8.899994" target-width="22.199951" target-x="601.9" target-y="440.2"/><path d="M 685.80 900.80 C 685.80 900.80 679.90 885.50 700.90 885.40 C 721.90 885.30 721.60 898.60 721.10 901.60 L 685.80 900.80 Z" fill="url(#SVGID_8_)" fill-rule="nonzero" group-id="1,3,6,9,11,18" node-id="356" stroke="none" target-height="16.299988" target-width="42" target-x="679.9" target-y="885.3"/><path d="M 684.40 900.80 C 684.40 900.80 683.80 888.20 691.90 887.30 C 699.50 886.50 697.60 901.00 697.60 901.00 L 684.40 900.80 Z" fill="url(#SVGID_9_)" fill-rule="nonzero" group-id="1,3,6,9,11,18" node-id="358" stroke="none" target-height="14.5" target-width="15.700012" target-x="683.8" target-y="886.5"/><path d="M 667.90 894.10 L 667.90 894.10 C 667.90 894.10 667.90 894.10 667.90 894.10 C 667.90 894.10 667.90 894.10 667.90 894.10 Z" fill="#000000" fill-rule="nonzero" group-id="1,3,6,9,11,19" node-id="363" stroke="none" target-height="0" target-width="0" target-x="667.9" target-y="894.1"/><path d="M 666.60 894.60 C 666.60 894.30 666.50 894.00 666.60 893.80 C 666.70 893.60 666.70 893.20 666.80 893.00 C 666.80 893.00 666.80 892.90 666.80 892.90 C 666.80 892.90 666.70 892.80 666.70 892.80 C 666.90 892.50 666.90 892.10 666.80 891.70 C 666.80 891.30 666.80 890.90 666.80 890.50 C 666.90 890.50 666.80 890.20 666.80 890.20 C 666.80 889.90 666.80 889.50 666.80 889.20 C 666.80 889.10 666.90 889.00 666.90 888.90 C 666.70 888.00 666.90 887.20 666.90 886.30 C 666.90 885.70 666.90 885.20 666.90 884.60 C 667.00 883.70 666.90 882.70 667.50 881.80 C 667.50 882.00 667.90 881.20 668.10 880.60 C 668.20 880.60 668.20 880.60 668.30 880.60 C 668.30 880.70 670.50 878.20 670.50 878.20 C 670.60 878.00 670.80 877.80 671.00 877.50 C 671.10 877.50 671.40 876.70 671.30 876.60 C 671.90 876.40 672.20 875.30 672.10 875.20 C 671.90 875.00 671.00 874.90 670.90 875.10 C 670.70 875.50 670.40 875.60 670.10 875.70 C 669.60 875.80 669.10 876.00 668.60 875.70 C 668.00 875.40 667.40 875.00 666.90 874.70 C 666.80 874.60 666.70 874.60 666.70 874.50 C 666.50 873.90 666.00 873.40 666.00 872.60 C 666.00 872.50 666.00 872.40 665.90 872.30 C 665.80 872.00 666.00 871.70 666.30 871.70 C 667.10 871.70 667.30 871.40 667.30 870.60 C 667.30 870.40 667.40 870.10 667.40 869.90 C 667.40 869.90 667.50 869.70 667.40 869.70 C 667.00 869.40 667.20 869.30 667.50 869.10 C 668.10 868.70 668.60 868.30 669.20 867.90 C 669.10 867.50 668.40 867.50 668.10 867.40 C 667.80 867.20 664.90 866.40 663.90 866.10 C 663.00 865.80 662.90 866.20 662.70 866.70 C 662.60 867.10 662.40 867.40 662.20 867.80 C 661.90 868.50 661.70 869.20 661.40 870.00 C 661.30 870.40 661.10 870.80 661.00 871.20 C 661.00 871.40 661.00 871.60 661.00 871.70 C 661.10 871.90 661.40 871.90 661.60 871.80 C 661.90 871.70 662.20 871.60 662.70 871.50 C 662.60 871.80 662.50 872.00 662.40 872.10 C 662.10 872.50 661.80 872.90 661.50 873.40 C 661.30 873.70 661.20 873.90 661.10 874.20 C 660.90 874.70 660.60 875.10 660.40 875.60 C 660.20 876.10 660.20 876.60 660.10 877.20 C 659.90 878.20 659.70 879.10 659.60 880.10 C 659.60 880.40 659.60 880.70 659.70 881.00 C 659.90 881.60 660.10 882.10 660.20 882.70 C 660.30 883.00 660.20 883.30 660.10 883.70 C 660.00 884.60 659.90 885.60 659.90 886.50 C 659.90 886.70 659.90 886.90 659.90 887.00 C 659.90 887.20 659.80 887.30 659.70 887.50 C 659.60 887.70 659.50 887.80 659.70 887.90 C 659.80 887.90 659.80 888.00 659.80 888.10 C 659.80 888.50 659.80 888.90 659.90 889.30 C 660.10 889.30 660.40 889.30 660.60 889.20 C 661.00 890.50 661.00 891.80 660.80 893.00 C 660.90 893.10 661.00 893.20 661.00 893.30 C 661.00 894.10 661.00 894.90 660.90 895.80 C 660.90 895.90 660.10 898.60 660.10 898.60 L 665.80 898.20 C 666.00 898.20 666.30 894.50 666.60 894.60 Z" fill="url(#SVGID_10_)" fill-rule="nonzero" group-id="1,3,6,9,11,19" node-id="365" stroke="none" target-height="32.799988" target-width="12.700012" target-x="659.5" target-y="865.8"/><path d="M 628.10 892.20 C 628.10 892.20 642.10 909.20 660.10 910.20 L 714.10 910.20 C 714.10 910.20 727.10 910.50 740.80 901.20 C 740.80 901.20 650.50 899.50 628.10 892.20 Z" fill="url(#SVGID_11_)" fill-rule="nonzero" group-id="1,3,6,9,11" node-id="368" stroke="none" target-height="18.299988" target-width="112.70001" target-x="628.1" target-y="892.2"/><path d="M 677.60 870.00 L 636.30 910.80" fill="none" group-id="1,3,6,9,11" node-id="370" stroke="url(#SVGID_12_)" stroke-linecap="butt" stroke-width="1" target-height="40.799988" target-width="41.299988" target-x="636.3" target-y="870"/><path d="M 685.80 914.70 C 685.80 914.70 679.90 922.10 700.90 922.10 C 721.90 922.10 721.60 915.70 721.10 914.30 L 685.80 914.70 Z" fill="#c5d1d6" fill-opacity="0.5" fill-rule="nonzero" group-id="1,3,6,9,12,20" node-id="377" stroke="none" target-height="7.799988" target-width="42" target-x="679.9" target-y="914.3"/><path d="M 684.40 914.70 C 684.40 914.70 683.80 920.80 691.90 921.20 C 699.50 921.60 697.60 914.50 697.60 914.50 L 684.40 914.70 Z" fill="#c5d1d6" fill-opacity="0.5" fill-rule="nonzero" group-id="1,3,6,9,12,20" node-id="379" stroke="none" target-height="7.0999756" target-width="15.700012" target-x="683.8" target-y="914.5"/><path d="M 667.90 918.00 L 667.90 918.00 C 667.90 918.00 667.90 918.00 667.90 918.00 C 667.90 918.00 667.90 918.00 667.90 918.00 Z" fill="#c5d1d6" fill-opacity="0.5" fill-rule="nonzero" group-id="1,3,6,9,12,21" node-id="384" stroke="none" target-height="0" target-width="0" target-x="667.9" target-y="918"/><path d="M 666.60 917.70 C 666.60 917.80 666.50 918.00 666.60 918.10 C 666.70 918.20 666.70 918.40 666.80 918.50 C 666.80 918.50 666.80 918.50 666.80 918.50 C 666.80 918.50 666.70 918.60 666.70 918.60 C 666.90 918.80 666.90 918.90 666.80 919.10 C 666.80 919.30 666.80 919.50 666.80 919.70 C 666.90 919.70 666.80 919.80 666.80 919.90 C 666.80 920.10 666.80 920.20 666.80 920.40 C 666.80 920.40 666.90 920.50 666.90 920.50 C 666.70 920.90 666.90 921.30 666.90 921.70 C 666.90 922.00 666.90 922.20 666.90 922.50 C 667.00 923.00 666.90 923.40 667.50 923.90 C 667.50 923.80 667.90 924.20 668.10 924.50 C 668.20 924.50 668.20 924.50 668.30 924.50 C 668.30 924.50 670.50 925.60 670.50 925.60 C 670.60 925.70 670.80 925.80 671.00 925.90 C 671.10 925.90 671.40 926.30 671.30 926.30 C 671.90 926.40 672.20 926.90 672.10 927.00 C 671.90 927.10 671.00 927.10 670.90 927.00 C 670.70 926.80 670.40 926.80 670.10 926.70 C 669.60 926.70 669.10 926.50 668.60 926.70 C 668.00 926.90 667.40 927.00 666.90 927.20 C 666.80 927.20 666.70 927.30 666.70 927.30 C 666.50 927.60 666.00 927.90 666.00 928.20 C 666.00 928.20 666.00 928.30 665.90 928.30 C 665.80 928.50 666.00 928.60 666.30 928.60 C 667.10 928.60 667.30 928.80 667.30 929.10 C 667.30 929.20 667.40 929.30 667.40 929.40 C 667.40 929.40 667.50 929.50 667.40 929.50 C 667.00 929.70 667.20 929.70 667.50 929.80 C 668.10 930.00 668.60 930.20 669.20 930.40 C 669.10 930.60 668.40 930.60 668.10 930.70 C 667.80 930.80 664.90 931.20 663.90 931.30 C 663.00 931.40 662.90 931.30 662.70 931.00 C 662.60 930.80 662.40 930.70 662.20 930.50 C 661.90 930.20 661.70 929.80 661.40 929.50 C 661.30 929.30 661.10 929.10 661.00 928.90 C 661.00 928.80 661.00 928.70 661.00 928.70 C 661.10 928.60 661.40 928.60 661.60 928.60 C 661.90 928.60 662.20 928.70 662.70 928.80 C 662.60 928.70 662.50 928.60 662.40 928.50 C 662.10 928.30 661.80 928.10 661.50 927.90 C 661.30 927.80 661.20 927.60 661.10 927.50 C 660.90 927.30 660.60 927.10 660.40 926.80 C 660.20 926.60 660.20 926.30 660.10 926.00 C 659.90 925.50 659.70 925.10 659.60 924.60 C 659.60 924.50 659.60 924.30 659.70 924.20 C 659.90 923.90 660.10 923.70 660.20 923.40 C 660.30 923.30 660.20 923.10 660.10 922.90 C 660.00 922.40 659.90 922.00 659.90 921.50 C 659.90 921.40 659.90 921.30 659.90 921.20 C 659.90 921.10 659.80 921.00 659.70 921.00 C 659.60 920.90 659.50 920.90 659.70 920.80 C 659.80 920.80 659.80 920.70 659.80 920.70 C 659.80 920.50 659.80 920.30 659.90 920.10 C 660.10 920.10 660.40 920.10 660.60 920.10 C 661.00 919.50 661.00 918.90 660.80 918.30 C 660.90 918.20 661.00 918.20 661.00 918.10 C 661.00 917.70 661.00 917.30 660.90 916.90 C 660.90 916.90 660.10 915.60 660.10 915.60 L 665.80 915.80 C 666.00 916.00 666.30 917.70 666.60 917.70 Z" fill="#c5d1d6" fill-opacity="0.5" fill-rule="nonzero" group-id="1,3,6,9,12,21" node-id="386" stroke="none" target-height="15.800049" target-width="12.700012" target-x="659.5" target-y="915.6"/><path d="M 628.10 918.90 C 628.10 918.90 642.10 910.70 660.10 910.20 L 714.10 910.20 C 714.10 910.20 727.10 910.00 740.80 914.60 C 740.80 914.50 650.50 915.30 628.10 918.90 Z" fill="#c5d1d6" fill-opacity="0.5" fill-rule="nonzero" group-id="1,3,6,9,12" node-id="389" stroke="none" target-height="8.900024" target-width="112.70001" target-x="628.1" target-y="910"/><path d="M 677.60 929.60 L 636.30 910.80" fill="none" group-id="1,3,6,9,12" node-id="391" stroke="#c5d1d6" stroke-linecap="butt" stroke-opacity="0.5" stroke-width="1" target-height="18.799988" target-width="41.299988" target-x="636.3" target-y="910.8"/><path d="M 333.70 692.20 C 333.70 692.20 362.80 648.40 458.70 624.20 C 554.60 600.00 584.40 485.90 641.60 485.90 C 682.10 485.90 713.00 541.30 794.10 606.70 C 862.90 662.20 850.10 612.30 921.10 606.70 C 966.00 603.10 1034.80 665.40 1067.60 666.20 L 1051.20 713.00 L 334.70 710.70 L 333.70 692.20 Z" fill="url(#SVGID_13_)" fill-opacity="0.9" fill-rule="nonzero" group-id="1,3,6,10,13,22" node-id="401" stroke="none" target-height="227.1" target-width="733.89996" target-x="333.7" target-y="485.9"/><path d="M -91.10 663.90 C -91.10 663.90 -115.60 648.90 -4.60 642.90 C 106.40 636.90 148.20 580.90 183.20 582.20 C 218.20 583.50 244.80 619.50 314.80 639.40 C 384.80 659.30 415.80 669.30 459.80 670.30 L 459.80 701.30 L -91.20 701.30 L -91.20 663.90 Z" fill="url(#SVGID_14_)" fill-opacity="0.5" fill-rule="nonzero" group-id="1,3,6,10,13,23" node-id="406" stroke="none" target-height="120.39996" target-width="575.39996" target-x="-115.6" target-y="580.9"/><path d="M -28.10 710.70 C -28.10 710.70 -35.20 691.10 51.90 690.20 C 237.30 688.20 206.80 608.70 267.70 606.70 C 328.60 604.70 322.10 486.50 409.70 466.90 C 500.70 446.50 563.00 636.30 648.00 658.30 C 733.00 680.30 1012.10 692.30 1012.10 692.30 L 1012.10 712.50 L -28.10 710.70 Z" fill="url(#SVGID_15_)" fill-rule="nonzero" group-id="1,3,6,10,13" node-id="409" stroke="none" target-height="266" target-width="1047.2999" target-x="-35.2" target-y="446.5"/><path d="M -89.70 693.60 C -89.70 693.60 -129.40 686.10 50.50 683.10 C 87.70 682.50 96.30 671.50 124.80 669.20 C 160.00 666.40 166.80 685.70 226.00 682.60 C 308.00 678.30 349.30 631.20 391.50 648.50 C 540.70 710.00 526.00 657.20 573.00 652.20 C 591.10 650.30 637.80 691.50 661.00 693.50 C 704.60 697.30 731.00 664.20 780.00 665.20 C 853.60 666.70 847.60 703.40 1012.00 696.90 L 1012.00 712.40 L -89.70 712.40 L -89.70 693.60 Z" fill="url(#SVGID_16_)" fill-opacity="0.5" fill-rule="nonzero" group-id="1,3,6,10,13,24" node-id="413" stroke="none" target-height="81.20001" target-width="1141.4" target-x="-129.4" target-y="631.2"/><path d="M 333.70 724.50 C 333.70 724.50 362.80 748.90 458.70 762.50 C 554.60 776.10 584.40 839.70 641.60 839.70 C 682.10 839.70 713.00 808.80 794.10 772.30 C 862.90 741.30 850.10 769.10 921.10 772.30 C 966.00 774.30 1034.80 739.60 1067.60 739.10 L 1051.20 713.00 L 334.70 714.30 L 333.70 724.50 Z" fill="url(#SVGID_17_)" fill-opacity="0.089999996" fill-rule="nonzero" group-id="1,3,6,10,14,25" node-id="421" stroke="none" target-height="126.70001" target-width="733.89996" target-x="333.7" target-y="713"/><path d="M -91.10 740.40 C -91.10 740.40 -115.60 748.80 -4.60 752.10 C 106.40 755.40 148.20 786.70 183.20 786.00 C 218.20 785.30 244.80 765.20 314.80 754.10 C 384.80 743.00 415.80 737.40 459.80 736.80 L 459.80 719.50 L -91.20 719.50 L -91.20 740.40 Z" fill="url(#SVGID_18_)" fill-opacity="0.05" fill-rule="nonzero" group-id="1,3,6,10,14,26" node-id="426" stroke="none" target-height="67.20001" target-width="575.39996" target-x="-115.6" target-y="719.5"/><path d="M -28.10 714.20 C -28.10 714.20 -35.20 725.20 51.90 725.70 C 237.30 726.80 206.80 771.20 267.70 772.30 C 328.60 773.40 322.10 839.40 409.70 850.40 C 500.70 861.80 563.00 755.80 648.00 743.50 C 733.00 731.20 1012.10 724.50 1012.10 724.50 L 1012.10 713.30 L -28.10 714.20 Z" fill="url(#SVGID_19_)" fill-opacity="0.1" fill-rule="nonzero" group-id="1,3,6,10,14" node-id="429" stroke="none" target-height="148.5" target-width="1047.2999" target-x="-35.2" target-y="713.3"/><path d="M -89.70 723.70 C -89.70 723.70 -129.40 727.90 50.50 729.60 C 87.70 729.90 96.30 736.10 124.80 737.40 C 160.00 739.00 166.80 728.20 226.00 729.90 C 308.00 732.30 349.30 758.60 391.50 748.90 C 540.80 714.60 526.00 744.10 573.00 746.90 C 591.10 748.00 637.80 725.00 661.00 723.80 C 704.60 721.70 731.00 740.20 780.00 739.60 C 853.60 738.80 847.60 718.30 1012.00 721.90 L 1012.00 713.20 L -89.70 713.20 L -89.70 723.70 Z" fill="url(#SVGID_20_)" fill-opacity="0.05" fill-rule="nonzero" group-id="1,3,6,10,14,27" node-id="433" stroke="none" target-height="45.399963" target-width="1141.4" target-x="-129.4" target-y="713.2"/><path d="M 378.00 510.30 C 375.50 510.30 373.10 510.80 371.40 511.70 C 370.30 508.10 364.80 505.30 358.20 505.30 C 355.80 505.30 353.50 505.70 351.50 506.30 C 349.40 501.50 340.60 497.80 330.20 497.80 C 320.60 497.80 312.40 500.90 309.50 505.10 C 304.30 505.70 300.00 507.60 297.70 510.20 C 295.50 508.80 292.40 507.90 288.90 507.90 C 283.20 507.90 278.40 510.20 277.30 513.30 C 276.20 512.90 275.00 512.70 273.70 512.70 C 269.70 512.70 266.50 514.50 266.50 516.80 C 266.50 519.10 269.70 520.90 273.70 520.90 C 276.20 520.90 278.40 520.20 279.70 519.00 C 281.90 520.60 285.20 521.60 289.00 521.60 C 292.60 521.60 295.70 520.70 297.90 519.30 C 298.00 519.50 298.20 519.60 298.40 519.80 C 297.80 520.60 297.50 521.50 297.50 522.40 C 297.50 527.00 305.50 530.70 315.50 530.70 C 320.00 530.70 324.20 529.90 327.30 528.60 C 332.00 529.70 337.70 530.40 343.70 530.40 C 358.70 530.40 371.20 526.40 373.90 521.00 C 375.20 521.40 376.70 521.60 378.30 521.60 C 383.80 521.60 388.30 519.00 388.30 515.80 C 388.00 512.90 383.60 510.30 378.00 510.30 Z" fill="url(#SVGID_21_)" fill-opacity="0.5" fill-rule="nonzero" group-id="1,3,6,10,15" node-id="439" stroke="none" target-height="32.900024" target-width="121.79999" target-x="266.5" target-y="497.8"/><path d="M 561.60 524.30 C 563.50 524.30 565.30 524.70 566.60 525.50 C 567.40 522.60 571.50 520.40 576.50 520.40 C 578.30 520.40 580.00 520.70 581.50 521.20 C 583.10 517.30 589.60 514.40 597.50 514.40 C 604.70 514.40 610.90 516.90 613.00 520.30 C 616.90 520.80 620.10 522.30 621.90 524.40 C 623.50 523.30 625.90 522.60 628.50 522.60 C 632.80 522.60 636.30 524.40 637.20 526.90 C 638.00 526.60 638.90 526.40 639.90 526.40 C 642.90 526.40 645.30 527.90 645.30 529.70 C 645.30 531.50 642.90 533.00 639.90 533.00 C 638.00 533.00 636.40 532.40 635.40 531.50 C 633.80 532.70 631.30 533.50 628.40 533.50 C 625.70 533.50 623.30 532.80 621.70 531.60 C 621.60 531.70 621.50 531.90 621.30 532.00 C 621.70 532.70 622.00 533.40 622.00 534.10 C 622.00 537.80 616.00 540.70 608.50 540.70 C 605.10 540.70 602.00 540.10 599.60 539.00 C 596.00 539.90 591.80 540.40 587.30 540.40 C 576.10 540.40 566.70 537.20 564.70 532.90 C 563.70 533.20 562.60 533.40 561.40 533.40 C 557.20 533.40 553.90 531.30 553.90 528.80 C 554.10 526.40 557.50 524.30 561.60 524.30 Z" fill="url(#SVGID_22_)" fill-opacity="0.5" fill-rule="nonzero" group-id="1,3,6,10,16" node-id="444" stroke="none" target-height="26.299988" target-width="91.39996" target-x="553.9" target-y="514.4"/><path d="M 422.30 523.30 C 420.60 523.30 419.10 523.70 418.00 524.50 C 417.30 521.60 413.70 519.40 409.40 519.40 C 407.80 519.40 406.30 519.70 405.00 520.20 C 403.60 516.30 397.90 513.40 391.10 513.40 C 384.80 513.40 379.50 515.90 377.60 519.30 C 374.20 519.80 371.40 521.30 369.90 523.40 C 368.50 522.30 366.40 521.60 364.10 521.60 C 360.40 521.60 357.30 523.40 356.50 525.90 C 355.80 525.60 355.00 525.40 354.10 525.40 C 351.50 525.40 349.40 526.90 349.40 528.70 C 349.40 530.50 351.50 532.00 354.10 532.00 C 355.70 532.00 357.20 531.40 358.00 530.50 C 359.40 531.70 361.60 532.50 364.10 532.50 C 366.40 532.50 368.50 531.80 369.90 530.60 C 370.00 530.70 370.10 530.90 370.20 531.00 C 369.80 531.70 369.60 532.40 369.60 533.10 C 369.60 536.80 374.90 539.70 381.30 539.70 C 384.30 539.70 387.00 539.10 389.00 538.00 C 392.10 538.90 395.80 539.40 399.70 539.40 C 409.50 539.40 417.60 536.20 419.40 531.90 C 420.30 532.20 421.20 532.40 422.30 532.40 C 425.90 532.40 428.80 530.30 428.80 527.80 C 428.80 525.30 425.90 523.30 422.30 523.30 Z" fill="url(#SVGID_23_)" fill-opacity="0.86" fill-rule="nonzero" group-id="1,3,6,10,17" node-id="449" stroke="none" target-height="26.299988" target-width="79.399994" target-x="349.4" target-y="513.4"/></g></g><g node-id="488"><path d="M 980.40 512.00 C 980.40 636.23 931.05 755.37 843.21 843.21 C 755.37 931.05 636.23 980.40 512.00 980.40 C 387.77 980.40 268.63 931.05 180.79 843.21 C 92.95 755.37 43.60 636.23 43.60 512.00 C 43.60 387.77 92.95 268.63 180.79 180.79 C 268.63 92.95 387.77 43.60 512.00 43.60 C 636.23 43.60 755.37 92.95 843.21 180.79 C 931.05 268.63 980.40 387.77 980.40 512.00 Z" fill="none" group-id="2" node-id="458" stroke="none" target-height="936.80005" target-width="936.80005" target-x="43.6" target-y="43.6"/><path d="M 980.40 512.00 C 980.40 636.23 931.05 755.37 843.21 843.21 C 755.37 931.05 636.23 980.40 512.00 980.40 C 387.77 980.40 268.63 931.05 180.79 843.21 C 92.95 755.37 43.60 636.23 43.60 512.00 C 43.60 387.77 92.95 268.63 180.79 180.79 C 268.63 92.95 387.77 43.60 512.00 43.60 C 636.23 43.60 755.37 92.95 843.21 180.79 C 931.05 268.63 980.40 387.77 980.40 512.00 Z" fill="none" group-id="2" node-id="460" stroke="none" target-height="936.80005" target-width="936.80005" target-x="43.6" target-y="43.6"/><g node-id="490"><g node-id="493"><path d="M 334.50 370.60 C 332.90 370.30 331.20 372.10 331.10 374.30 C 331.50 374.50 332.10 375.30 332.80 375.40 C 334.20 375.60 336.10 373.80 336.00 372.10 C 335.90 371.60 335.10 370.70 334.50 370.60 Z" fill="#99000f" fill-rule="nonzero" group-id="2,4,7" node-id="466" stroke="none" target-height="5.3000183" target-width="5" target-x="331.1" target-y="370.3"/><path d="M 285.10 175.70 C 287.60 176.60 289.70 175.90 291.60 174.40 C 296.60 170.20 311.30 171.10 316.20 173.50 L 316.20 173.50 C 316.20 173.50 316.20 173.50 316.20 173.50 C 316.30 173.50 316.40 173.60 316.50 173.60 C 316.60 173.70 316.80 173.80 316.90 173.90 C 318.00 174.50 320.20 175.70 321.50 176.30 C 321.50 176.30 321.50 176.30 321.50 176.30 C 321.70 176.40 321.90 176.50 322.10 176.60 C 323.10 177.10 324.30 177.40 325.30 177.70 C 326.50 178.10 327.80 178.30 328.90 178.90 C 329.40 179.10 329.90 179.80 330.00 180.40 C 330.40 181.80 330.70 183.20 331.00 184.60 C 331.30 186.00 331.80 187.50 331.90 188.90 C 332.40 193.80 332.80 198.40 333.50 203.30 C 333.60 204.20 335.00 204.90 335.80 205.70 C 336.20 204.80 337.00 204.00 337.10 203.10 C 337.20 198.10 337.20 193.20 337.10 188.20 C 337.10 185.00 336.00 182.20 332.70 180.40 C 332.30 180.20 331.90 179.40 332.00 178.90 C 332.70 175.50 332.30 175.10 329.00 173.20 C 324.60 170.60 319.60 169.70 314.70 169.10 C 309.80 168.50 297.60 167.30 292.60 169.20 C 291.80 169.50 290.80 169.40 289.90 169.20 C 287.50 168.80 284.90 169.60 283.60 171.40 C 282.30 173.20 282.90 174.90 285.10 175.70 Z" fill="#99000f" fill-rule="nonzero" group-id="2,4,7" node-id="468" stroke="none" target-height="38.399994" target-width="54.900024" target-x="282.3" target-y="167.3"/><path d="M 328.70 378.50 C 325.70 380.90 322.30 380.30 318.80 379.90 C 316.50 379.60 314.10 379.70 311.80 379.70 C 308.80 379.70 298.80 380.10 295.80 379.90 C 293.20 379.70 290.60 379.20 288.20 378.30 C 285.40 377.20 282.90 375.50 280.10 374.20 C 277.10 372.80 275.30 370.70 275.00 367.70 C 274.80 365.80 274.60 363.90 274.40 362.10 C 273.70 353.30 272.80 344.50 272.30 335.70 C 272.00 330.50 272.70 329.40 272.50 324.20 C 272.30 316.40 271.80 317.80 271.50 310.00 C 271.30 304.30 271.10 308.50 270.90 302.80 C 270.80 299.00 270.40 295.10 270.40 291.30 C 270.50 284.60 270.90 277.80 271.10 271.10 C 271.20 268.40 271.00 265.70 271.00 263.00 C 271.10 255.60 271.20 251.10 271.30 243.70 C 271.30 237.90 271.30 234.60 271.20 228.80 C 271.20 228.80 270.80 225.80 271.20 224.50 C 271.20 224.50 271.20 224.50 271.20 224.40 C 271.20 224.90 271.20 225.10 271.20 225.10 C 271.20 224.80 271.20 224.60 271.20 224.30 C 271.50 223.20 271.70 221.40 271.40 219.50 C 271.40 219.50 271.40 219.40 271.40 219.40 C 271.50 217.40 271.60 215.50 271.70 212.70 C 271.80 210.30 271.70 207.80 271.90 205.40 C 271.90 205.10 272.00 204.70 272.10 204.40 C 272.30 203.10 272.80 200.80 273.10 200.20 C 273.60 199.40 273.70 195.80 273.80 194.70 C 273.80 194.60 273.80 194.50 273.80 194.40 C 273.90 193.90 274.90 193.20 275.60 193.10 C 277.50 192.90 278.30 192.00 278.30 190.40 C 278.30 188.40 278.60 186.40 278.10 184.60 C 277.30 181.80 278.00 179.70 279.90 177.50 C 280.50 176.80 280.10 175.50 280.20 174.50 C 279.10 174.80 277.80 174.80 277.00 175.40 C 275.30 176.70 274.10 178.50 272.50 179.90 C 270.50 181.60 269.40 183.50 269.40 185.90 C 269.40 186.70 269.10 187.50 269.00 188.30 C 268.20 195.30 266.70 202.00 266.60 209.00 C 266.40 222.10 267.10 222.30 267.30 235.40 C 267.50 244.30 267.50 250.30 267.50 259.20 C 267.50 261.80 267.40 264.50 267.40 267.10 C 267.50 271.10 267.80 275.20 267.70 279.20 C 267.50 289.10 266.80 295.10 266.80 305.00 C 266.80 316.10 267.30 311.80 267.50 322.90 C 267.70 337.30 267.80 347.50 268.10 361.90 C 268.20 368.10 269.20 374.20 273.60 379.50 C 276.10 382.60 279.20 384.50 282.40 383.80 C 290.20 382.20 305.00 383.10 312.40 384.90 C 318.30 386.40 323.20 385.10 328.10 382.80 C 330.00 381.90 331.00 380.40 330.60 378.10 C 329.90 378.20 329.20 378.20 328.70 378.50 Z" fill="#99000f" fill-rule="nonzero" group-id="2,4,7" node-id="470" stroke="none" target-height="211.9" target-width="64.600006" target-x="266.4" target-y="174.5"/><path d="M 336.50 211.00 C 336.40 210.10 335.60 209.30 335.10 208.50 C 334.80 208.60 334.40 208.60 334.10 208.70 C 333.90 210.00 333.40 211.30 333.40 212.60 C 333.40 218.30 333.50 213.60 333.40 219.30 C 333.40 223.70 333.20 225.70 333.10 230.10 C 333.10 231.20 332.70 231.80 331.90 232.00 L 332.80 236.00 C 333.00 236.10 333.30 236.10 333.50 236.20 C 334.30 236.40 335.30 237.00 335.90 236.80 C 336.50 236.50 337.00 235.60 337.00 234.80 C 337.20 233.50 336.90 232.10 337.00 230.80 C 337.60 219.80 337.90 221.90 336.50 211.00 Z" fill="#99000f" fill-rule="nonzero" group-id="2,4,7" node-id="472" stroke="none" target-height="28.5" target-width="6" target-x="331.9" target-y="208.5"/><path d="M 339.60 348.00 C 339.10 336.20 339.10 333.20 338.90 321.30 C 338.80 316.10 338.90 315.60 338.80 310.40 C 338.60 304.60 338.20 308.90 337.90 303.10 C 337.80 301.80 337.80 300.50 338.10 299.30 C 338.50 297.40 338.50 295.60 337.10 293.90 C 336.80 293.50 336.90 292.20 337.40 291.90 C 339.20 290.80 339.30 289.30 339.00 287.60 C 338.30 282.90 337.20 278.10 337.10 273.40 C 336.90 266.60 337.20 259.80 337.80 253.00 C 338.20 248.60 337.40 247.20 337.00 242.80 C 336.90 242.30 336.40 241.90 336.00 241.40 C 335.50 241.70 334.80 242.00 334.40 242.40 C 334.00 242.90 333.80 243.50 333.60 244.10 C 333.60 244.20 333.60 244.30 333.50 244.40 C 333.00 246.40 333.30 251.30 333.30 251.30 L 333.30 251.30 C 333.60 254.90 333.90 255.70 334.10 259.30 C 334.10 259.50 333.90 259.70 333.90 259.90 C 333.70 260.90 333.50 261.90 333.40 262.80 C 333.30 264.70 333.20 266.70 333.20 268.60 C 333.20 271.10 333.30 273.60 333.40 276.00 C 333.50 277.90 333.50 279.70 333.60 281.60 C 333.60 282.30 333.50 283.00 333.60 283.60 C 334.20 286.50 333.20 288.70 332.60 292.10 C 332.40 293.20 332.40 294.30 332.40 294.60 C 332.50 299.10 332.30 297.70 332.50 302.20 C 332.60 304.10 333.40 304.00 333.40 305.90 C 333.60 312.70 333.70 311.00 333.90 317.80 C 334.10 328.20 334.30 329.70 334.50 340.10 C 334.60 344.30 334.60 348.60 334.60 352.80 C 334.60 354.70 334.40 356.70 334.30 358.60 C 334.20 361.10 334.20 363.70 334.20 366.20 C 334.20 366.80 334.30 367.80 334.70 367.90 C 335.20 368.10 336.50 367.90 336.70 367.60 C 337.60 366.20 338.70 364.70 339.00 363.20 C 339.80 358.20 339.80 353.10 339.60 348.00 Z" fill="#99000f" fill-rule="nonzero" group-id="2,4,7" node-id="474" stroke="none" target-height="126.70001" target-width="7.5" target-x="332.3" target-y="241.4"/></g><g node-id="494"><path d="M 301.60 211.80 C 301.20 213.20 300.40 214.40 299.20 215.60 C 298.60 216.10 298.10 215.90 297.70 215.00 C 296.60 212.40 295.20 209.80 293.60 207.30 C 289.70 213.90 285.00 219.70 279.50 224.70 C 279.20 224.80 279.10 224.80 279.10 224.70 C 279.00 224.60 279.00 224.40 279.10 224.10 C 284.50 218.10 288.50 211.30 291.30 203.80 C 289.50 201.10 287.20 198.00 284.40 194.60 C 284.30 194.20 284.40 194.10 284.80 194.20 C 285.00 194.50 285.50 194.80 286.10 195.30 C 288.70 197.40 290.80 199.20 292.50 200.60 C 293.70 196.80 294.70 193.10 295.30 189.30 L 284.80 189.90 C 284.40 189.90 284.20 189.70 284.00 189.30 C 283.90 188.90 284.00 188.70 284.40 188.50 L 295.10 188.10 L 297.50 185.30 L 301.80 188.30 C 302.00 188.40 302.00 188.60 301.80 188.90 L 300.10 190.80 C 298.80 195.40 297.30 199.60 295.40 203.40 C 297.70 205.30 299.60 207.30 301.20 209.40 C 301.80 210.30 301.90 211.00 301.60 211.80 Z M 302.50 188.20 C 302.10 188.30 301.90 188.20 301.90 187.80 C 301.90 187.40 302.10 187.20 302.50 187.00 L 315.30 186.60 L 317.20 184.20 L 321.50 186.80 C 321.70 187.10 321.70 187.30 321.50 187.60 L 320.00 189.50 C 317.90 197.60 315.20 204.10 311.90 208.80 C 314.90 214.10 319.60 218.70 326.00 222.90 C 326.40 223.00 326.40 223.30 326.00 223.70 C 323.50 223.40 321.10 224.30 318.90 226.30 C 314.30 221.30 311.10 216.70 309.30 212.60 C 306.30 216.70 301.20 221.50 294.10 226.90 C 293.80 227.00 293.70 227.00 293.50 226.90 C 293.40 226.80 293.40 226.60 293.50 226.30 C 299.50 221.50 304.30 215.80 307.90 209.00 C 306.30 204.40 305.20 197.40 304.70 188.20 L 302.50 188.20 Z M 315.30 187.60 L 305.40 188.20 C 306.40 195.10 307.90 200.70 309.90 205.10 C 312.30 199.70 314.10 193.90 315.30 187.60 Z" fill="#99000f" fill-rule="nonzero" group-id="2,4,8" node-id="479" stroke="none" target-height="42.800003" target-width="47.399994" target-x="279" target-y="184.2"/><path d="M 285.40 261.70 C 285.40 263.30 284.80 264.80 283.50 266.20 C 282.90 266.70 282.50 266.70 282.40 266.20 L 282.60 257.80 L 282.60 244.30 L 282.40 237.50 L 286.20 239.00 C 286.30 239.00 286.40 239.20 286.40 239.60 L 285.60 240.90 L 285.40 260.20 L 288.00 260.00 L 288.00 237.90 C 288.00 234.10 288.00 231.30 288.00 229.30 L 292.10 231.00 C 292.50 231.00 292.50 231.30 292.10 231.80 C 292.00 232.10 291.80 232.70 291.50 233.70 L 291.10 260.00 L 293.50 259.80 L 293.90 245.00 L 293.70 237.10 L 298.00 239.20 C 298.20 239.20 298.20 239.40 298.00 239.80 L 297.20 241.10 L 296.80 259.90 L 297.40 260.50 C 297.50 260.80 297.60 260.90 297.60 261.10 C 297.50 261.20 297.30 261.30 297.00 261.30 C 295.10 261.20 291.20 261.30 285.20 261.70 L 285.20 261.70 Z M 304.40 254.50 C 302.90 254.50 301.30 254.60 299.70 254.90 C 299.80 254.90 299.80 254.90 299.50 254.90 L 297.80 253.60 L 306.20 253.40 L 306.20 253.20 L 306.00 247.90 L 310.30 249.20 C 310.70 249.30 310.70 249.60 310.50 250.10 L 310.10 250.90 L 310.10 253.30 L 314.20 253.30 L 315.70 251.80 L 318.00 253.90 C 318.20 254.20 318.20 254.30 317.80 254.30 L 310.10 254.30 L 310.10 258.40 L 313.10 258.40 L 315.00 256.90 L 316.90 259.00 C 317.10 259.30 317.10 259.40 316.70 259.40 L 310.10 259.60 L 309.90 263.90 L 317.80 263.70 L 320.20 261.40 L 323.00 264.00 C 323.10 264.10 323.10 264.30 322.80 264.60 L 309.90 264.80 L 309.90 270.20 C 309.60 271.60 308.80 272.90 307.30 274.30 C 306.90 274.70 306.60 274.90 306.40 274.90 C 306.10 274.90 306.00 274.70 306.00 274.30 L 306.20 264.90 L 302.60 264.90 C 302.20 264.90 301.70 265.00 301.10 265.10 C 299.50 265.10 298.30 265.20 297.70 265.50 L 296.00 264.00 L 306.10 263.80 L 306.10 263.40 L 306.10 259.50 L 305.90 259.50 C 304.50 259.50 303.10 259.60 301.80 259.90 C 301.40 259.90 301.20 259.90 301.00 259.90 L 299.30 258.60 L 306.10 258.40 L 306.10 254.50 L 304.40 254.50 Z M 325.90 250.80 C 326.10 250.80 326.30 250.90 326.30 251.20 C 326.30 251.30 326.20 251.50 325.90 251.60 C 324.50 251.90 323.10 252.90 321.60 254.80 C 315.60 251.70 311.30 248.20 308.80 244.50 C 305.40 247.40 301.90 249.90 298.30 252.20 C 297.90 252.50 297.90 252.30 298.10 251.80 C 301.90 248.70 305.00 245.60 307.50 242.40 C 306.70 240.90 306.00 239.20 305.20 237.30 C 303.40 239.60 301.60 241.80 299.60 244.10 C 299.20 244.20 299.10 244.10 299.20 243.70 C 302.40 238.40 304.50 233.90 305.40 230.00 C 305.40 229.60 305.50 229.50 305.80 229.60 L 308.80 232.00 C 309.00 232.10 309.00 232.30 308.80 232.60 C 308.50 233.00 308.20 233.40 307.90 233.90 L 313.00 233.70 L 314.70 232.00 L 318.30 234.80 C 318.50 234.90 318.50 235.10 318.10 235.40 L 316.40 236.90 C 314.50 239.20 312.60 241.20 310.60 243.10 C 313.40 245.60 318.60 248.20 325.90 250.80 Z M 307.40 234.80 C 306.80 235.30 306.30 235.90 305.90 236.70 C 306.70 238.30 307.60 239.80 308.70 241.00 C 310.30 238.90 311.70 236.70 312.80 234.40 L 307.40 234.80 Z" fill="#99000f" fill-rule="nonzero" group-id="2,4,8" node-id="481" stroke="none" target-height="45.59999" target-width="43.899994" target-x="282.4" target-y="229.3"/><path d="M 287.90 277.60 L 292.00 279.50 L 292.40 279.70 L 292.00 280.10 L 291.40 281.60 L 291.40 288.40 L 292.30 288.20 L 294.60 285.90 L 297.20 288.50 C 297.30 288.80 297.30 288.90 297.00 289.10 L 291.40 289.30 L 291.40 297.00 C 291.90 296.80 292.60 296.40 293.70 296.10 C 294.90 295.60 295.90 295.20 296.50 294.80 C 296.70 294.80 296.70 295.00 296.50 295.40 C 294.60 296.90 292.90 298.30 291.20 299.50 L 291.20 305.70 L 291.40 313.60 C 291.50 317.20 289.70 320.10 286.00 322.20 C 285.70 322.30 285.60 322.30 285.40 322.20 C 285.30 322.10 285.30 321.90 285.40 321.60 C 285.50 320.20 285.00 319.00 283.90 318.00 C 283.80 317.90 283.70 317.70 283.70 317.60 C 283.70 317.50 283.80 317.40 284.10 317.40 C 286.70 317.50 287.90 317.00 287.50 315.70 L 287.50 302.40 C 285.50 304.00 284.10 305.30 283.20 306.20 C 282.80 306.60 282.60 306.60 282.40 306.20 L 280.90 301.10 C 280.80 301.00 280.80 300.90 280.90 300.90 C 280.80 300.90 280.80 300.80 281.10 300.70 C 282.70 300.30 284.90 299.60 287.50 298.40 L 287.50 289.40 L 286.40 289.40 C 286.00 289.40 285.60 289.50 285.10 289.60 C 283.60 289.60 282.60 289.70 282.10 290.00 L 281.00 288.50 L 287.60 288.30 L 287.60 287.20 C 287.60 283.00 287.50 279.90 287.40 278.00 C 287.30 277.60 287.50 277.50 287.90 277.60 Z M 297.80 296.80 L 300.80 298.30 C 302.70 296.90 304.00 295.70 304.70 294.50 L 307.10 297.50 C 307.20 297.80 307.20 297.90 306.90 297.90 L 306.00 298.10 C 304.60 298.50 303.10 298.80 301.30 299.00 L 300.70 300.50 L 300.70 305.90 L 302.60 305.90 L 304.10 304.00 L 306.50 306.10 C 306.70 306.40 306.70 306.50 306.30 306.50 L 300.70 306.90 L 300.50 315.70 L 307.40 315.50 L 307.60 291.90 L 301.60 292.10 C 299.60 292.00 297.90 292.10 296.50 292.50 L 295.20 291.20 L 307.60 291.00 L 307.60 289.30 L 307.40 283.30 C 304.80 283.70 301.90 284.10 298.80 284.40 C 298.50 284.40 298.40 284.30 298.40 284.20 C 298.30 284.10 298.30 284.00 298.60 283.80 C 308.60 280.80 314.40 278.90 315.90 278.00 L 318.90 281.40 C 319.10 281.80 319.00 282.00 318.50 282.20 C 317.40 282.20 314.20 282.50 309.10 283.10 L 311.70 284.20 C 311.90 284.20 311.90 284.30 311.70 284.60 L 311.30 285.90 L 311.30 291.00 L 318.80 290.80 L 321.20 288.40 L 324.00 291.40 C 324.20 291.70 324.20 291.80 323.80 291.80 L 311.20 292.00 L 311.00 315.60 L 317.20 315.60 L 317.40 306.40 L 313.10 306.40 C 312.80 306.40 312.70 306.30 312.50 306.00 C 312.50 305.80 312.60 305.60 312.90 305.60 L 317.40 305.40 L 317.40 299.00 L 312.90 299.20 C 312.60 299.20 312.50 299.00 312.50 298.60 C 312.50 298.40 312.60 298.20 312.90 298.20 L 317.20 298.20 L 318.90 295.60 L 322.70 297.90 C 322.90 298.00 323.00 298.20 322.90 298.50 L 322.00 300.00 L 321.80 308.40 L 322.00 314.00 C 322.20 316.30 321.30 318.40 319.20 320.60 C 318.60 321.40 318.10 321.30 317.70 320.40 C 317.70 320.10 317.60 319.80 317.50 319.50 C 317.20 318.00 316.90 317.00 316.60 316.50 L 300.50 316.70 L 300.50 317.30 C 300.40 318.80 299.60 320.30 298.20 321.80 C 297.90 322.00 297.70 322.20 297.40 322.20 C 297.10 322.20 297.00 322.00 297.00 321.60 L 297.20 312.80 L 297.40 303.20 C 297.40 300.30 297.30 298.30 297.20 297.00 C 297.40 296.80 297.60 296.80 297.80 296.80 Z" fill="#99000f" fill-rule="nonzero" group-id="2,4,8" node-id="483" stroke="none" target-height="44.799988" target-width="43.400024" target-x="280.8" target-y="277.5"/><path d="M 288.30 345.10 C 286.00 345.10 284.40 345.30 283.20 345.70 L 281.70 344.00 L 317.50 343.20 L 320.30 340.20 L 323.90 343.60 L 324.10 344.00 C 324.00 344.10 323.80 344.20 323.70 344.20 L 301.20 344.80 L 305.50 346.90 C 305.70 347.00 305.70 347.30 305.30 347.70 L 304.00 348.60 C 300.40 353.50 296.30 358.20 291.80 362.90 L 312.80 361.40 C 312.00 359.40 310.80 357.30 309.00 355.20 C 309.00 354.80 309.10 354.70 309.40 354.80 C 309.60 355.10 310.10 355.40 310.70 355.70 C 316.30 359.60 319.40 362.30 319.90 364.00 C 320.00 365.70 318.80 367.40 316.30 368.90 C 315.80 369.40 315.40 369.10 315.00 368.00 C 314.50 366.10 313.90 364.20 313.10 362.40 C 300.30 364.90 292.20 366.90 288.50 368.40 C 288.00 368.80 287.70 368.70 287.60 368.20 L 285.50 363.90 C 285.50 363.50 285.60 363.30 285.90 363.30 L 290.20 363.10 C 294.40 356.00 297.40 349.90 299.20 344.90 L 288.30 345.10 Z M 293.70 331.80 C 291.40 331.80 289.80 332.00 288.60 332.40 L 287.10 330.90 L 311.30 330.30 L 314.10 327.50 L 317.70 330.70 C 317.80 331.00 317.70 331.10 317.30 331.10 L 293.70 331.80 Z" fill="#99000f" fill-rule="nonzero" group-id="2,4,8" node-id="485" stroke="none" target-height="41.899994" target-width="42.399994" target-x="281.7" target-y="327.5"/></g></g></g></svg>