<svg height="1024" node-id="1" sillyvg="true" template-height="1024" template-width="1024" version="1.1" viewBox="0 0 1024 1024" width="1024" xmlns="http://www.w3.org/2000/svg" xmlns:xlink="http://www.w3.org/1999/xlink"><defs node-id="477"><linearGradient gradientUnits="userSpaceOnUse" id="SVGID_3_" node-id="13" spreadMethod="pad" x1="756.5517" x2="756.5517" y1="426.5173" y2="346.0387"><stop offset="0" stop-color="#ffcdd6"/><stop offset="0.3975" stop-color="#6d8daf"/><stop offset="1" stop-color="#253a59"/></linearGradient><linearGradient gradientUnits="userSpaceOnUse" id="SVGID_4_" node-id="21" spreadMethod="pad" x1="401.9256" x2="401.9256" y1="552.5722" y2="510.3473"><stop offset="0" stop-color="#ffcdd6"/><stop offset="0.3975" stop-color="#6d8daf"/><stop offset="1" stop-color="#253a59"/></linearGradient><linearGradient gradientUnits="userSpaceOnUse" id="SVGID_5_" node-id="26" spreadMethod="pad" x1="201.4005" x2="201.4005" y1="552.5722" y2="503.8185"><stop offset="0" stop-color="#ffcdd6"/><stop offset="0.3975" stop-color="#6d8daf"/><stop offset="1" stop-color="#253a59"/></linearGradient><linearGradient gradientUnits="userSpaceOnUse" id="SVGID_6_" node-id="31" spreadMethod="pad" x1="572.2388" x2="572.2388" y1="551.5426" y2="534.5597"><stop offset="0" stop-color="#ffcdd6"/><stop offset="0.3975" stop-color="#6d8daf"/><stop offset="1" stop-color="#253a59"/></linearGradient><linearGradient gradientUnits="userSpaceOnUse" id="SVGID_7_" node-id="37" spreadMethod="pad" x1="401.9256" x2="401.9256" y1="-337.52597" y2="-303.89795"><stop offset="0" stop-color="#ffcdd6"/><stop offset="0.3975" stop-color="#6d8daf"/><stop offset="1" stop-color="#253a59"/></linearGradient><linearGradient gradientUnits="userSpaceOnUse" id="SVGID_8_" node-id="42" spreadMethod="pad" x1="201.4005" x2="201.4005" y1="-337.52597" y2="-298.69852"><stop offset="0" stop-color="#ffcdd6"/><stop offset="0.3975" stop-color="#6d8daf"/><stop offset="1" stop-color="#253a59"/></linearGradient><linearGradient gradientUnits="userSpaceOnUse" id="SVGID_9_" node-id="47" spreadMethod="pad" x1="572.2388" x2="572.2388" y1="-336.7059" y2="-323.1808"><stop offset="0" stop-color="#ffcdd6"/><stop offset="0.3975" stop-color="#6d8daf"/><stop offset="1" stop-color="#253a59"/></linearGradient><linearGradient gradientUnits="userSpaceOnUse" id="SVGID_10_" node-id="53" spreadMethod="pad" x1="457.1668" x2="462.0736" y1="665.1884" y2="665.1884"><stop offset="0" stop-color="#ffcdd6"/><stop offset="0.3975" stop-color="#6d8daf"/><stop offset="1" stop-color="#253a59"/></linearGradient><linearGradient gradientUnits="userSpaceOnUse" id="SVGID_11_" node-id="58" spreadMethod="pad" x1="467.3336" x2="470.4247" y1="657.4583" y2="657.4583"><stop offset="0" stop-color="#ffcdd6"/><stop offset="0.3975" stop-color="#6d8daf"/><stop offset="1" stop-color="#253a59"/></linearGradient><linearGradient gradientTransform="matrix(0.9954 0.09612763 -0.09102593 0.9425 60.5976 10.3565)" gradientUnits="userSpaceOnUse" id="SVGID_12_" node-id="67" spreadMethod="pad" x1="593.4185" x2="251.7127" y1="640.3063" y2="640.3063"><stop offset="0" stop-color="#ffcdd6"/><stop offset="0.3975" stop-color="#6d8daf"/><stop offset="1" stop-color="#253a59"/></linearGradient><linearGradient gradientTransform="matrix(0.9954 0.09612763 -0.09102593 0.9425 60.5976 10.3565)" gradientUnits="userSpaceOnUse" id="SVGID_13_" node-id="72" spreadMethod="pad" x1="244.698" x2="593.4185" y1="645.4011" y2="645.4011"><stop offset="0" stop-color="#ffcdd6"/><stop offset="0.3975" stop-color="#6d8daf"/><stop offset="1" stop-color="#253a59"/></linearGradient><linearGradient gradientTransform="matrix(0.9954 0.09612763 -0.09102593 0.9425 60.5976 10.3565)" gradientUnits="userSpaceOnUse" id="SVGID_14_" node-id="77" spreadMethod="pad" x1="568.3578" x2="247.2299" y1="657.8138" y2="657.8138"><stop offset="0" stop-color="#ffcdd6"/><stop offset="0.3975" stop-color="#6d8daf"/><stop offset="1" stop-color="#253a59"/></linearGradient><linearGradient gradientTransform="matrix(0.9954 0.09612763 -0.09102593 0.9425 60.5976 10.3565)" gradientUnits="userSpaceOnUse" id="SVGID_15_" node-id="82" spreadMethod="pad" x1="498.1888" x2="287.7847" y1="649.1915" y2="649.1915"><stop offset="0" stop-color="#ffcdd6"/><stop offset="0.3975" stop-color="#6d8daf"/><stop offset="1" stop-color="#253a59"/></linearGradient><linearGradient gradientTransform="matrix(0.9954 0.09612763 -0.09102593 0.9425 60.5976 10.3565)" gradientUnits="userSpaceOnUse" id="SVGID_16_" node-id="87" spreadMethod="pad" x1="385.6172" x2="314.768" y1="645.1031" y2="645.1031"><stop offset="0" stop-color="#ffcdd6"/><stop offset="0.3975" stop-color="#6d8daf"/><stop offset="1" stop-color="#253a59"/></linearGradient><linearGradient gradientTransform="matrix(0.9954 0.09612763 -0.09102593 0.9425 60.5976 10.3565)" gradientUnits="userSpaceOnUse" id="SVGID_17_" node-id="92" spreadMethod="pad" x1="406.2677" x2="357.7694" y1="649.9517" y2="649.9517"><stop offset="0" stop-color="#ffcdd6"/><stop offset="0.3975" stop-color="#6d8daf"/><stop offset="1" stop-color="#253a59"/></linearGradient><linearGradient gradientTransform="matrix(0.9954 0.09612763 -0.09102593 0.9425 60.5976 10.3565)" gradientUnits="userSpaceOnUse" id="SVGID_18_" node-id="97" spreadMethod="pad" x1="501.9647" x2="453.8954" y1="652.056" y2="652.056"><stop offset="0" stop-color="#ffcdd6"/><stop offset="0.3975" stop-color="#6d8daf"/><stop offset="1" stop-color="#253a59"/></linearGradient><linearGradient gradientTransform="matrix(0.9954 0.09612763 -0.09102593 0.9425 60.5976 10.3565)" gradientUnits="userSpaceOnUse" id="SVGID_19_" node-id="102" spreadMethod="pad" x1="388.0042" x2="388.0042" y1="659.2228" y2="630.6617"><stop offset="0" stop-color="#ffcdd6"/><stop offset="0.3975" stop-color="#6d8daf"/><stop offset="1" stop-color="#253a59"/></linearGradient><linearGradient gradientUnits="userSpaceOnUse" id="SVGID_20_" node-id="108" spreadMethod="pad" x1="312.4885" x2="317.3954" y1="652.9742" y2="652.9742"><stop offset="0" stop-color="#ffcdd6"/><stop offset="0.3975" stop-color="#6d8daf"/><stop offset="1" stop-color="#253a59"/></linearGradient><linearGradient gradientTransform="matrix(0.9981 0.06132474 -0.05807011 0.9451 38.8229 21.7383)" gradientUnits="userSpaceOnUse" id="SVGID_21_" node-id="114" spreadMethod="pad" x1="490.573" x2="134.3274" y1="667.9648" y2="667.9648"><stop offset="0" stop-color="#ffcdd6"/><stop offset="0.3975" stop-color="#6d8daf"/><stop offset="1" stop-color="#253a59"/></linearGradient><linearGradient gradientTransform="matrix(0.9981 0.06132474 -0.05807011 0.9451 38.8229 21.7383)" gradientUnits="userSpaceOnUse" id="SVGID_22_" node-id="119" spreadMethod="pad" x1="126.9954" x2="490.573" y1="673.1185" y2="673.1185"><stop offset="0" stop-color="#ffcdd6"/><stop offset="0.3975" stop-color="#6d8daf"/><stop offset="1" stop-color="#253a59"/></linearGradient><linearGradient gradientTransform="matrix(0.9981 0.06132474 -0.05807011 0.9451 38.8229 21.7383)" gradientUnits="userSpaceOnUse" id="SVGID_23_" node-id="124" spreadMethod="pad" x1="464.406" x2="129.6288" y1="685.7206" y2="685.7206"><stop offset="0" stop-color="#ffcdd6"/><stop offset="0.3975" stop-color="#6d8daf"/><stop offset="1" stop-color="#253a59"/></linearGradient><linearGradient gradientTransform="matrix(0.9981 0.06132474 -0.05807011 0.9451 38.8229 21.7383)" gradientUnits="userSpaceOnUse" id="SVGID_24_" node-id="129" spreadMethod="pad" x1="391.2463" x2="171.901" y1="677.1658" y2="677.1658"><stop offset="0" stop-color="#ffcdd6"/><stop offset="0.3975" stop-color="#6d8daf"/><stop offset="1" stop-color="#253a59"/></linearGradient><linearGradient gradientTransform="matrix(0.9981 0.06132474 -0.05807011 0.9451 38.8229 21.7383)" gradientUnits="userSpaceOnUse" id="SVGID_25_" node-id="134" spreadMethod="pad" x1="273.9194" x2="200.0134" y1="673.1782" y2="673.1782"><stop offset="0" stop-color="#ffcdd6"/><stop offset="0.3975" stop-color="#6d8daf"/><stop offset="1" stop-color="#253a59"/></linearGradient><linearGradient gradientTransform="matrix(0.9981 0.06132474 -0.05807011 0.9451 38.8229 21.7383)" gradientUnits="userSpaceOnUse" id="SVGID_26_" node-id="139" spreadMethod="pad" x1="295.4295" x2="244.8382" y1="677.8718" y2="677.8718"><stop offset="0" stop-color="#ffcdd6"/><stop offset="0.3975" stop-color="#6d8daf"/><stop offset="1" stop-color="#253a59"/></linearGradient><linearGradient gradientTransform="matrix(0.9981 0.06132474 -0.05807011 0.9451 38.8229 21.7383)" gradientUnits="userSpaceOnUse" id="SVGID_27_" node-id="144" spreadMethod="pad" x1="395.2188" x2="345.0558" y1="679.5397" y2="679.5397"><stop offset="0" stop-color="#ffcdd6"/><stop offset="0.3975" stop-color="#6d8daf"/><stop offset="1" stop-color="#253a59"/></linearGradient><linearGradient gradientTransform="matrix(0.9981 0.06132474 -0.05807011 0.9451 38.8229 21.7383)" gradientUnits="userSpaceOnUse" id="SVGID_28_" node-id="149" spreadMethod="pad" x1="276.3887" x2="276.3887" y1="686.739" y2="659.1589"><stop offset="0" stop-color="#ffcdd6"/><stop offset="0.3975" stop-color="#6d8daf"/><stop offset="1" stop-color="#253a59"/></linearGradient><linearGradient gradientUnits="userSpaceOnUse" id="SVGID_29_" node-id="156" spreadMethod="pad" x1="173.7008" x2="178.0882" y1="687.7256" y2="687.7256"><stop offset="0" stop-color="#ffcdd6"/><stop offset="0.3975" stop-color="#6d8daf"/><stop offset="1" stop-color="#253a59"/></linearGradient><linearGradient gradientUnits="userSpaceOnUse" id="SVGID_30_" node-id="161" spreadMethod="pad" x1="368.605" x2="373.8875" y1="712.8978" y2="712.8978"><stop offset="0" stop-color="#ffcdd6"/><stop offset="0.3975" stop-color="#6d8daf"/><stop offset="1" stop-color="#253a59"/></linearGradient><linearGradient gradientUnits="userSpaceOnUse" id="SVGID_31_" node-id="167" spreadMethod="pad" x1="402.4554" x2="46.2099" y1="698.4216" y2="698.4216"><stop offset="0" stop-color="#ffcdd6"/><stop offset="0.3975" stop-color="#6d8daf"/><stop offset="1" stop-color="#253a59"/></linearGradient><linearGradient gradientUnits="userSpaceOnUse" id="SVGID_32_" node-id="172" spreadMethod="pad" x1="38.8778" x2="402.4554" y1="704.0826" y2="704.0826"><stop offset="0" stop-color="#ffcdd6"/><stop offset="0.3975" stop-color="#6d8daf"/><stop offset="1" stop-color="#253a59"/></linearGradient><linearGradient gradientUnits="userSpaceOnUse" id="SVGID_33_" node-id="177" spreadMethod="pad" x1="376.2885" x2="41.5112" y1="717.9251" y2="717.9251"><stop offset="0" stop-color="#ffcdd6"/><stop offset="0.3975" stop-color="#6d8daf"/><stop offset="1" stop-color="#253a59"/></linearGradient><linearGradient gradientUnits="userSpaceOnUse" id="SVGID_34_" node-id="182" spreadMethod="pad" x1="303.1287" x2="83.7834" y1="708.5283" y2="708.5283"><stop offset="0" stop-color="#ffcdd6"/><stop offset="0.3975" stop-color="#6d8daf"/><stop offset="1" stop-color="#253a59"/></linearGradient><linearGradient gradientUnits="userSpaceOnUse" id="SVGID_35_" node-id="187" spreadMethod="pad" x1="185.8018" x2="111.8958" y1="704.1482" y2="704.1482"><stop offset="0" stop-color="#ffcdd6"/><stop offset="0.3975" stop-color="#6d8daf"/><stop offset="1" stop-color="#253a59"/></linearGradient><linearGradient gradientUnits="userSpaceOnUse" id="SVGID_36_" node-id="192" spreadMethod="pad" x1="207.3119" x2="156.7206" y1="709.3038" y2="709.3038"><stop offset="0" stop-color="#ffcdd6"/><stop offset="0.3975" stop-color="#6d8daf"/><stop offset="1" stop-color="#253a59"/></linearGradient><linearGradient gradientUnits="userSpaceOnUse" id="SVGID_37_" node-id="197" spreadMethod="pad" x1="307.1012" x2="256.9382" y1="711.1359" y2="711.1359"><stop offset="0" stop-color="#ffcdd6"/><stop offset="0.3975" stop-color="#6d8daf"/><stop offset="1" stop-color="#253a59"/></linearGradient><linearGradient gradientUnits="userSpaceOnUse" id="SVGID_38_" node-id="202" spreadMethod="pad" x1="188.2711" x2="188.2711" y1="719.0437" y2="688.7491"><stop offset="0" stop-color="#ffcdd6"/><stop offset="0.3975" stop-color="#6d8daf"/><stop offset="1" stop-color="#253a59"/></linearGradient><linearGradient gradientUnits="userSpaceOnUse" id="SVGID_39_" node-id="208" spreadMethod="pad" x1="130.7469" x2="137.6981" y1="791.3511" y2="791.3511"><stop offset="0" stop-color="#ffcdd6"/><stop offset="0.3975" stop-color="#6d8daf"/><stop offset="1" stop-color="#253a59"/></linearGradient><linearGradient gradientTransform="matrix(1.1161 -0.0743207 0.06644225 0.9978 -61.9296 23.2944)" gradientUnits="userSpaceOnUse" id="SVGID_40_" node-id="215" spreadMethod="pad" x1="343.7588" x2="343.7588" y1="691.9668" y2="807.5519"><stop offset="0" stop-color="#ffcdd6"/><stop offset="0.3975" stop-color="#6d8daf"/><stop offset="1" stop-color="#253a59"/></linearGradient><linearGradient gradientTransform="matrix(1.1161 -0.0743207 0.06644225 0.9978 -61.9296 23.2944)" gradientUnits="userSpaceOnUse" id="SVGID_41_" node-id="220" spreadMethod="pad" x1="121.8865" x2="565.6311" y1="730.4995" y2="730.4995"><stop offset="0" stop-color="#ffcdd6"/><stop offset="0.3975" stop-color="#6d8daf"/><stop offset="1" stop-color="#253a59"/></linearGradient><linearGradient gradientUnits="userSpaceOnUse" id="SVGID_42_" node-id="231" spreadMethod="pad" x1="606.1646" x2="606.1646" y1="674.5292" y2="671.3304"><stop offset="0" stop-color="#ffcdd6"/><stop offset="0.3975" stop-color="#6d8daf"/><stop offset="1" stop-color="#253a59"/></linearGradient><linearGradient gradientUnits="userSpaceOnUse" id="SVGID_43_" node-id="236" spreadMethod="pad" x1="719.502" x2="719.502" y1="716.3124" y2="673.124"><stop offset="0" stop-color="#ffcdd6"/><stop offset="0.3975" stop-color="#6d8daf"/><stop offset="1" stop-color="#253a59"/></linearGradient><linearGradient gradientUnits="userSpaceOnUse" id="SVGID_44_" node-id="241" spreadMethod="pad" x1="744.4127" x2="744.4127" y1="715.0056" y2="669.5312"><stop offset="0" stop-color="#ffcdd6"/><stop offset="0.3975" stop-color="#6d8daf"/><stop offset="1" stop-color="#253a59"/></linearGradient><linearGradient gradientUnits="userSpaceOnUse" id="SVGID_45_" node-id="246" spreadMethod="pad" x1="552.4384" x2="894.8864" y1="698.0197" y2="698.0197"><stop offset="0" stop-color="#ffcdd6"/><stop offset="0.3975" stop-color="#6d8daf"/><stop offset="1" stop-color="#253a59"/></linearGradient><linearGradient gradientUnits="userSpaceOnUse" id="SVGID_46_" node-id="251" spreadMethod="pad" x1="558.7569" x2="889.6852" y1="713.1603" y2="713.1603"><stop offset="0" stop-color="#ffcdd6"/><stop offset="0.3975" stop-color="#6d8daf"/><stop offset="1" stop-color="#253a59"/></linearGradient><linearGradient gradientUnits="userSpaceOnUse" id="SVGID_47_" node-id="256" spreadMethod="pad" x1="724.6459" x2="724.6459" y1="723.7222" y2="676.1952"><stop offset="0" stop-color="#ffcdd6"/><stop offset="0.3975" stop-color="#6d8daf"/><stop offset="1" stop-color="#253a59"/></linearGradient><linearGradient gradientUnits="userSpaceOnUse" id="SVGID_48_" node-id="261" spreadMethod="pad" x1="588.6414" x2="588.6414" y1="682.1519" y2="673.2873"><stop offset="0" stop-color="#ffcdd6"/><stop offset="0.3975" stop-color="#6d8daf"/><stop offset="1" stop-color="#253a59"/></linearGradient><linearGradient gradientUnits="userSpaceOnUse" id="SVGID_49_" node-id="266" spreadMethod="pad" x1="688.4418" x2="688.4418" y1="680.4268" y2="709.5803"><stop offset="0" stop-color="#ffcdd6"/><stop offset="0.3975" stop-color="#6d8daf"/><stop offset="1" stop-color="#253a59"/></linearGradient><linearGradient gradientUnits="userSpaceOnUse" id="SVGID_50_" node-id="271" spreadMethod="pad" x1="622.0856" x2="622.0856" y1="680.4268" y2="687.0398"><stop offset="0" stop-color="#ffcdd6"/><stop offset="0.3975" stop-color="#6d8daf"/><stop offset="1" stop-color="#253a59"/></linearGradient><linearGradient gradientUnits="userSpaceOnUse" id="SVGID_51_" node-id="276" spreadMethod="pad" x1="644.0138" x2="644.0138" y1="684.3305" y2="691.9705"><stop offset="0" stop-color="#ffcdd6"/><stop offset="0.3975" stop-color="#6d8daf"/><stop offset="1" stop-color="#253a59"/></linearGradient><linearGradient gradientUnits="userSpaceOnUse" id="SVGID_52_" node-id="281" spreadMethod="pad" x1="718.2856" x2="718.2856" y1="703.1843" y2="694.2382"><stop offset="0" stop-color="#ffcdd6"/><stop offset="0.3975" stop-color="#6d8daf"/><stop offset="1" stop-color="#253a59"/></linearGradient><linearGradient gradientUnits="userSpaceOnUse" id="SVGID_53_" node-id="286" spreadMethod="pad" x1="737.1609" x2="895.3767" y1="715.9792" y2="715.9792"><stop offset="0" stop-color="#ffcdd6"/><stop offset="0.3975" stop-color="#6d8daf"/><stop offset="1" stop-color="#253a59"/></linearGradient><linearGradient gradientUnits="userSpaceOnUse" id="SVGID_54_" node-id="291" spreadMethod="pad" x1="564.0822" x2="570.3637" y1="686.4034" y2="686.4034"><stop offset="0" stop-color="#ffcdd6"/><stop offset="0.3975" stop-color="#6d8daf"/><stop offset="1" stop-color="#253a59"/></linearGradient><linearGradient gradientUnits="userSpaceOnUse" id="SVGID_55_" node-id="296" spreadMethod="pad" x1="676.5156" x2="681.0718" y1="710.0137" y2="710.0137"><stop offset="0" stop-color="#ffcdd6"/><stop offset="0.3975" stop-color="#6d8daf"/><stop offset="1" stop-color="#253a59"/></linearGradient><linearGradient gradientUnits="userSpaceOnUse" id="SVGID_56_" node-id="306" spreadMethod="pad" x1="520.6375" x2="520.6375" y1="691.6592" y2="686.2289"><stop offset="0" stop-color="#ffcdd6"/><stop offset="0.3975" stop-color="#6d8daf"/><stop offset="1" stop-color="#253a59"/></linearGradient><linearGradient gradientUnits="userSpaceOnUse" id="SVGID_57_" node-id="311" spreadMethod="pad" x1="655.8723" x2="655.8723" y1="762.5923" y2="689.2736"><stop offset="0" stop-color="#ffcdd6"/><stop offset="0.3975" stop-color="#6d8daf"/><stop offset="1" stop-color="#253a59"/></linearGradient><linearGradient gradientUnits="userSpaceOnUse" id="SVGID_58_" node-id="316" spreadMethod="pad" x1="685.5958" x2="685.5958" y1="760.3738" y2="683.1744"><stop offset="0" stop-color="#ffcdd6"/><stop offset="0.3975" stop-color="#6d8daf"/><stop offset="1" stop-color="#253a59"/></linearGradient><linearGradient gradientUnits="userSpaceOnUse" id="SVGID_59_" node-id="321" spreadMethod="pad" x1="456.5312" x2="865.1417" y1="731.5378" y2="731.5378"><stop offset="0" stop-color="#ffcdd6"/><stop offset="0.3975" stop-color="#6d8daf"/><stop offset="1" stop-color="#253a59"/></linearGradient><linearGradient gradientUnits="userSpaceOnUse" id="SVGID_60_" node-id="326" spreadMethod="pad" x1="464.0704" x2="858.9355" y1="757.2413" y2="757.2413"><stop offset="0" stop-color="#ffcdd6"/><stop offset="0.3975" stop-color="#6d8daf"/><stop offset="1" stop-color="#253a59"/></linearGradient><linearGradient gradientUnits="userSpaceOnUse" id="SVGID_61_" node-id="331" spreadMethod="pad" x1="662.0099" x2="662.0099" y1="775.1716" y2="694.4875"><stop offset="0" stop-color="#ffcdd6"/><stop offset="0.3975" stop-color="#6d8daf"/><stop offset="1" stop-color="#253a59"/></linearGradient><linearGradient gradientUnits="userSpaceOnUse" id="SVGID_62_" node-id="336" spreadMethod="pad" x1="499.7288" x2="499.7288" y1="704.5999" y2="689.5509"><stop offset="0" stop-color="#ffcdd6"/><stop offset="0.3975" stop-color="#6d8daf"/><stop offset="1" stop-color="#253a59"/></linearGradient><linearGradient gradientUnits="userSpaceOnUse" id="SVGID_63_" node-id="341" spreadMethod="pad" x1="618.811" x2="618.811" y1="701.6713" y2="751.1636"><stop offset="0" stop-color="#ffcdd6"/><stop offset="0.3975" stop-color="#6d8daf"/><stop offset="1" stop-color="#253a59"/></linearGradient><linearGradient gradientUnits="userSpaceOnUse" id="SVGID_64_" node-id="346" spreadMethod="pad" x1="539.6346" x2="539.6346" y1="701.6713" y2="712.8978"><stop offset="0" stop-color="#ffcdd6"/><stop offset="0.3975" stop-color="#6d8daf"/><stop offset="1" stop-color="#253a59"/></linearGradient><linearGradient gradientUnits="userSpaceOnUse" id="SVGID_65_" node-id="351" spreadMethod="pad" x1="565.7993" x2="565.7993" y1="708.2984" y2="721.2683"><stop offset="0" stop-color="#ffcdd6"/><stop offset="0.3975" stop-color="#6d8daf"/><stop offset="1" stop-color="#253a59"/></linearGradient><linearGradient gradientUnits="userSpaceOnUse" id="SVGID_66_" node-id="356" spreadMethod="pad" x1="654.4209" x2="654.4209" y1="740.3055" y2="725.1181"><stop offset="0" stop-color="#ffcdd6"/><stop offset="0.3975" stop-color="#6d8daf"/><stop offset="1" stop-color="#253a59"/></linearGradient><linearGradient gradientUnits="userSpaceOnUse" id="SVGID_67_" node-id="361" spreadMethod="pad" x1="676.9429" x2="865.7267" y1="762.0268" y2="762.0268"><stop offset="0" stop-color="#ffcdd6"/><stop offset="0.3975" stop-color="#6d8daf"/><stop offset="1" stop-color="#253a59"/></linearGradient><linearGradient gradientUnits="userSpaceOnUse" id="SVGID_68_" node-id="366" spreadMethod="pad" x1="588.8536" x2="597.7031" y1="758.5789" y2="758.5789"><stop offset="0" stop-color="#ffcdd6"/><stop offset="0.3975" stop-color="#6d8daf"/><stop offset="1" stop-color="#253a59"/></linearGradient><linearGradient gradientUnits="userSpaceOnUse" id="SVGID_69_" node-id="371" spreadMethod="pad" x1="470.4247" x2="477.9198" y1="721.2683" y2="721.2683"><stop offset="0" stop-color="#ffcdd6"/><stop offset="0.3975" stop-color="#6d8daf"/><stop offset="1" stop-color="#253a59"/></linearGradient><linearGradient gradientUnits="userSpaceOnUse" id="SVGID_70_" node-id="381" spreadMethod="pad" x1="411.4037" x2="411.4037" y1="717.1304" y2="709.3913"><stop offset="0" stop-color="#ffcdd6"/><stop offset="0.3975" stop-color="#6d8daf"/><stop offset="1" stop-color="#253a59"/></linearGradient><linearGradient gradientUnits="userSpaceOnUse" id="SVGID_71_" node-id="386" spreadMethod="pad" x1="555.7855" x2="555.7855" y1="818.2218" y2="713.7305"><stop offset="0" stop-color="#ffcdd6"/><stop offset="0.3975" stop-color="#6d8daf"/><stop offset="1" stop-color="#253a59"/></linearGradient><linearGradient gradientUnits="userSpaceOnUse" id="SVGID_72_" node-id="391" spreadMethod="pad" x1="587.5195" x2="587.5195" y1="815.0601" y2="705.0381"><stop offset="0" stop-color="#ffcdd6"/><stop offset="0.3975" stop-color="#6d8daf"/><stop offset="1" stop-color="#253a59"/></linearGradient><linearGradient gradientUnits="userSpaceOnUse" id="SVGID_73_" node-id="396" spreadMethod="pad" x1="342.9614" x2="779.2094" y1="773.9641" y2="773.9641"><stop offset="0" stop-color="#ffcdd6"/><stop offset="0.3975" stop-color="#6d8daf"/><stop offset="1" stop-color="#253a59"/></linearGradient><linearGradient gradientUnits="userSpaceOnUse" id="SVGID_74_" node-id="401" spreadMethod="pad" x1="351.0106" x2="772.5836" y1="810.5958" y2="810.5958"><stop offset="0" stop-color="#ffcdd6"/><stop offset="0.3975" stop-color="#6d8daf"/><stop offset="1" stop-color="#253a59"/></linearGradient><linearGradient gradientUnits="userSpaceOnUse" id="SVGID_75_" node-id="406" spreadMethod="pad" x1="562.3383" x2="562.3383" y1="836.1494" y2="721.1611"><stop offset="0" stop-color="#ffcdd6"/><stop offset="0.3975" stop-color="#6d8daf"/><stop offset="1" stop-color="#253a59"/></linearGradient><linearGradient gradientUnits="userSpaceOnUse" id="SVGID_76_" node-id="411" spreadMethod="pad" x1="389.0808" x2="389.0808" y1="735.573" y2="714.1257"><stop offset="0" stop-color="#ffcdd6"/><stop offset="0.3975" stop-color="#6d8daf"/><stop offset="1" stop-color="#253a59"/></linearGradient><linearGradient gradientUnits="userSpaceOnUse" id="SVGID_77_" node-id="416" spreadMethod="pad" x1="516.2175" x2="516.2175" y1="731.3992" y2="801.9339"><stop offset="0" stop-color="#ffcdd6"/><stop offset="0.3975" stop-color="#6d8daf"/><stop offset="1" stop-color="#253a59"/></linearGradient><linearGradient gradientUnits="userSpaceOnUse" id="SVGID_78_" node-id="421" spreadMethod="pad" x1="431.6857" x2="431.6857" y1="731.3992" y2="747.3989"><stop offset="0" stop-color="#ffcdd6"/><stop offset="0.3975" stop-color="#6d8daf"/><stop offset="1" stop-color="#253a59"/></linearGradient><linearGradient gradientUnits="userSpaceOnUse" id="SVGID_79_" node-id="426" spreadMethod="pad" x1="459.6202" x2="459.6202" y1="740.844" y2="759.3282"><stop offset="0" stop-color="#ffcdd6"/><stop offset="0.3975" stop-color="#6d8daf"/><stop offset="1" stop-color="#253a59"/></linearGradient><linearGradient gradientUnits="userSpaceOnUse" id="SVGID_80_" node-id="431" spreadMethod="pad" x1="554.236" x2="554.236" y1="786.4594" y2="764.8149"><stop offset="0" stop-color="#ffcdd6"/><stop offset="0.3975" stop-color="#6d8daf"/><stop offset="1" stop-color="#253a59"/></linearGradient><linearGradient gradientUnits="userSpaceOnUse" id="SVGID_81_" node-id="436" spreadMethod="pad" x1="578.2813" x2="779.834" y1="817.4158" y2="817.4158"><stop offset="0" stop-color="#ffcdd6"/><stop offset="0.3975" stop-color="#6d8daf"/><stop offset="1" stop-color="#253a59"/></linearGradient><linearGradient gradientUnits="userSpaceOnUse" id="SVGID_82_" node-id="441" spreadMethod="pad" x1="484.2338" x2="493.6819" y1="812.5019" y2="812.5019"><stop offset="0" stop-color="#ffcdd6"/><stop offset="0.3975" stop-color="#6d8daf"/><stop offset="1" stop-color="#253a59"/></linearGradient><linearGradient gradientUnits="userSpaceOnUse" id="SVGID_83_" node-id="446" spreadMethod="pad" x1="357.7946" x2="365.7967" y1="759.3282" y2="759.3282"><stop offset="0" stop-color="#ffcdd6"/><stop offset="0.3975" stop-color="#6d8daf"/><stop offset="1" stop-color="#253a59"/></linearGradient><linearGradient gradientUnits="userSpaceOnUse" id="SVGID_84_" node-id="451" spreadMethod="pad" x1="501.0246" x2="506.8289" y1="819.974" y2="819.974"><stop offset="0" stop-color="#ffcdd6"/><stop offset="0.3975" stop-color="#6d8daf"/><stop offset="1" stop-color="#253a59"/></linearGradient><linearGradient gradientUnits="userSpaceOnUse" id="SVGID_85_" node-id="456" spreadMethod="pad" x1="70.7303" x2="79.505" y1="719.1385" y2="719.1385"><stop offset="0" stop-color="#ffcdd6"/><stop offset="0.3975" stop-color="#6d8daf"/><stop offset="1" stop-color="#253a59"/></linearGradient><clipPath id="SVGID_2_" node-id="10"><path d="M 980.40 512.00 C 980.40 636.23 931.05 755.37 843.21 843.21 C 755.37 931.05 636.23 980.40 512.00 980.40 C 387.77 980.40 268.63 931.05 180.79 843.21 C 92.95 755.37 43.60 636.23 43.60 512.00 C 43.60 387.77 92.95 268.63 180.79 180.79 C 268.63 92.95 387.77 43.60 512.00 43.60 C 636.23 43.60 755.37 92.95 843.21 180.79 C 931.05 268.63 980.40 387.77 980.40 512.00 Z" fill="#000000" fill-rule="nonzero" node-id="1144" stroke="none" target-height="936.80005" target-width="936.80005" target-x="43.6" target-y="43.6"/></clipPath></defs><path d="M 2.50 -2.10 L 2.50 1021.90 L 1026.50 1021.90 L 1026.50 -2.10 L 2.50 -2.10 Z M 512.00 980.40 C 253.30 980.40 43.60 770.70 43.60 512.00 C 43.60 253.30 253.30 43.60 512.00 43.60 C 770.70 43.60 980.40 253.30 980.40 512.00 C 980.40 770.70 770.70 980.40 512.00 980.40 Z" fill="#eeebe6" fill-opacity="0" fill-rule="nonzero" node-id="1148" stroke="none" target-height="1024" target-width="1024" target-x="2.5" target-y="-2.1"/><path d="M 980.40 512.00 C 980.40 636.23 931.05 755.37 843.21 843.21 C 755.37 931.05 636.23 980.40 512.00 980.40 C 387.77 980.40 268.63 931.05 180.79 843.21 C 92.95 755.37 43.60 636.23 43.60 512.00 C 43.60 387.77 92.95 268.63 180.79 180.79 C 268.63 92.95 387.77 43.60 512.00 43.60 C 636.23 43.60 755.37 92.95 843.21 180.79 C 931.05 268.63 980.40 387.77 980.40 512.00 Z" fill="none" node-id="1150" stroke="none" target-height="936.80005" target-width="936.80005" target-x="43.6" target-y="43.6"/><path d="M 980.40 512.00 C 980.40 636.23 931.05 755.37 843.21 843.21 C 755.37 931.05 636.23 980.40 512.00 980.40 C 387.77 980.40 268.63 931.05 180.79 843.21 C 92.95 755.37 43.60 636.23 43.60 512.00 C 43.60 387.77 92.95 268.63 180.79 180.79 C 268.63 92.95 387.77 43.60 512.00 43.60 C 636.23 43.60 755.37 92.95 843.21 180.79 C 931.05 268.63 980.40 387.77 980.40 512.00 Z" fill="none" node-id="1152" stroke="none" target-height="936.80005" target-width="936.80005" target-x="43.6" target-y="43.6"/><g node-id="1460"><g clip-path="url(#SVGID_2_)" group-id="1" id="sillyvg_g_1" node-id="1156"><path d="M 796.80 386.30 C 796.80 408.50 778.80 426.50 756.60 426.50 C 734.40 426.50 716.40 408.50 716.40 386.30 C 716.40 364.10 734.40 346.10 756.60 346.10 C 778.80 346.10 796.80 364.10 796.80 386.30 Z" fill="url(#SVGID_3_)" fill-rule="nonzero" group-id="1,3" node-id="1158" stroke="none" target-height="80.399994" target-width="80.39996" target-x="716.4" target-y="346.1"/><path d="M 784.50 630.70 C 784.50 639.92 772.01 647.40 756.60 647.40 C 741.19 647.40 728.70 639.92 728.70 630.70 C 728.70 621.48 741.19 614.00 756.60 614.00 C 772.01 614.00 784.50 621.48 784.50 630.70 Z" fill="#c5d1d6" fill-opacity="0.36" fill-rule="nonzero" group-id="1,3,5" node-id="1162" stroke="none" target-height="33.400024" target-width="55.799988" target-x="728.7" target-y="614"/><path d="M 100.70 552.60 C 100.70 552.60 222.00 509.10 297.80 510.40 C 373.60 511.70 405.50 531.30 457.50 534.60 C 509.50 537.90 528.50 534.10 560.50 534.60 C 592.40 535.10 684.30 546.20 684.30 546.20 L 703.10 551.60 L 100.70 552.60 Z" fill="url(#SVGID_4_)" fill-opacity="0.61" fill-rule="nonzero" group-id="1,3,6,10" node-id="1169" stroke="none" target-height="43.49997" target-width="602.39996" target-x="100.7" target-y="509.1"/><path d="M 70.10 551.50 L 419.40 551.50 C 419.40 551.50 227.90 507.50 162.10 505.00 C 111.30 503.00 48.00 499.80 -1.90 530.00 C -18.80 540.30 -16.40 552.50 -16.40 552.50 L 70.10 551.50 Z" fill="url(#SVGID_5_)" fill-opacity="0.61" fill-rule="nonzero" group-id="1,3,6,10" node-id="1171" stroke="none" target-height="52.700012" target-width="438.19998" target-x="-18.8" target-y="499.8"/><path d="M 75.30 551.50 L 1069.10 551.50 C 1069.10 551.50 943.10 537.40 774.10 544.50 C 605.00 551.50 389.50 533.20 344.40 534.60 C 299.30 536.00 99.30 544.50 75.30 551.50 Z" fill="url(#SVGID_6_)" fill-opacity="0.61" fill-rule="nonzero" group-id="1,3,6,10" node-id="1173" stroke="none" target-height="18.299988" target-width="993.8" target-x="75.3" target-y="533.2"/><path d="M 100.70 552.60 C 100.70 552.60 222.00 587.20 297.80 586.20 C 373.60 585.20 405.50 569.60 457.50 566.90 C 509.50 564.20 528.50 567.30 560.50 566.90 C 592.40 566.50 684.30 557.70 684.30 557.70 L 703.10 553.40 L 100.70 552.60 Z" fill="url(#SVGID_7_)" fill-opacity="0.061" fill-rule="nonzero" group-id="1,3,6,11" node-id="1178" stroke="none" target-height="34.600037" target-width="602.39996" target-x="100.7" target-y="552.6"/><path d="M 70.10 553.40 L 419.40 553.40 C 419.40 553.40 227.90 588.40 162.10 590.50 C 111.30 592.10 48.00 594.60 -1.90 570.60 C -18.80 562.40 -16.40 552.70 -16.40 552.70 L 70.10 553.40 Z" fill="url(#SVGID_8_)" fill-opacity="0.061" fill-rule="nonzero" group-id="1,3,6,11" node-id="1180" stroke="none" target-height="41.899963" target-width="438.19998" target-x="-18.8" target-y="552.7"/><path d="M 75.30 553.40 L 1069.10 553.40 C 1069.10 553.40 943.10 564.60 774.10 559.00 C 605.00 553.40 389.50 568.00 344.40 566.90 C 299.30 565.80 99.30 559.00 75.30 553.40 Z" fill="url(#SVGID_9_)" fill-opacity="0.061" fill-rule="nonzero" group-id="1,3,6,11" node-id="1182" stroke="none" target-height="14.599976" target-width="993.8" target-x="75.3" target-y="553.4"/><path d="M 457.20 639.90 L 462.10 639.90 L 462.10 690.60 L 457.20 690.60 Z" fill="url(#SVGID_10_)" fill-rule="nonzero" group-id="1,3,7" node-id="1188" stroke="none" target-height="50.69995" target-width="4.899994" target-x="457.2" target-y="639.9"/><path d="M 467.30 624.40 L 470.40 624.40 L 470.40 690.50 L 467.30 690.50 Z" fill="url(#SVGID_11_)" fill-rule="nonzero" group-id="1,3,7" node-id="1190" stroke="none" target-height="66.099976" target-width="3.100006" target-x="467.3" target-y="624.4"/><path d="M 398.70 676.80 C 398.70 676.80 332.60 675.60 331.90 675.40 C 331.90 675.40 247.00 669.60 215.20 671.80 C 182.70 674.00 145.30 672.60 135.90 674.10 C 128.30 675.30 126.50 681.90 126.40 682.40 C 126.40 682.40 126.40 682.40 126.40 682.40 L 124.30 687.30 C 124.20 687.40 124.10 687.50 123.90 687.60 C 117.30 689.60 120.70 690.90 129.40 690.90 C 129.40 690.90 129.40 690.90 129.40 690.90 C 130.50 691.00 174.20 702.80 264.00 697.40 C 341.40 692.80 355.60 690.90 355.90 690.90 C 356.80 690.90 398.00 684.20 398.70 676.80 Z M 129.60 690.90" fill="#c5d1d6" fill-opacity="0.36" fill-rule="nonzero" group-id="1,3,7,12" node-id="1194" stroke="none" target-height="33.200012" target-width="281.40002" target-x="117.3" target-y="669.6"/><path d="M 440.50 655.90 C 440.50 655.90 363.10 645.50 332.60 647.60 C 301.40 649.80 265.60 648.40 256.60 649.90 C 249.30 651.10 247.60 657.70 247.50 658.20 C 247.50 658.20 247.50 658.20 247.50 658.20 L 245.50 663.10 C 245.40 663.20 245.30 663.30 245.10 663.40 C 238.80 665.40 242.10 666.70 250.40 666.70 C 250.40 666.70 250.40 666.70 250.40 666.70 C 251.40 666.80 293.30 678.60 379.50 673.20 C 453.70 668.60 467.30 666.70 467.60 666.70 C 468.30 666.80 441.10 656.10 440.50 655.90 Z M 250.50 666.80" fill="#c5d1d6" fill-opacity="0.36" fill-rule="nonzero" group-id="1,3,7,13,21" node-id="1201" stroke="none" target-height="33.099976" target-width="229.49998" target-x="238.8" target-y="645.5"/><path d="M 253.70 629.00 C 253.70 629.00 304.50 630.30 414.00 649.70 C 523.50 669.10 592.00 680.70 592.00 680.70 L 412.60 650.90 L 258.80 631.70 L 253.70 629.00 Z" fill="url(#SVGID_12_)" fill-rule="nonzero" group-id="1,3,7,13,22" node-id="1206" stroke="none" target-height="51.700012" target-width="338.3" target-x="253.7" target-y="629"/><path d="M 247.60 631.20 C 246.10 631.30 245.80 633.40 247.20 634.00 C 262.40 640.10 310.70 658.30 347.70 662.10 C 403.60 667.70 566.30 686.60 566.30 686.60 L 592.00 680.80 C 592.00 680.80 404.50 648.80 387.10 646.70 C 375.40 645.20 324.20 636.50 285.00 632.80 C 278.20 632.10 271.80 631.60 266.10 631.30 C 258.80 630.80 252.40 630.80 247.60 631.20 Z" fill="url(#SVGID_13_)" fill-rule="nonzero" group-id="1,3,7,13,22" node-id="1208" stroke="none" target-height="55.799988" target-width="346.2" target-x="245.8" target-y="630.8"/><path d="M 248.80 641.80 C 248.80 641.80 249.80 652.70 259.10 655.60 C 270.30 659.10 315.30 671.00 354.40 678.30 C 393.40 685.60 517.70 700.20 517.70 700.20 L 566.40 686.50 C 566.40 686.50 350.50 661.70 320.60 656.80 C 290.70 651.90 248.80 634.30 248.80 634.30 L 248.80 641.80 Z" fill="url(#SVGID_14_)" fill-rule="nonzero" group-id="1,3,7,13,22" node-id="1210" stroke="none" target-height="65.900024" target-width="317.60004" target-x="248.8" target-y="634.3"/><path d="M 288.70 642.50 C 288.70 642.50 477.90 671.90 496.70 677.10 C 496.70 677.10 421.60 671.40 386.20 665.20 C 350.80 659.00 294.70 646.80 288.70 642.50 Z" fill="url(#SVGID_15_)" fill-rule="nonzero" group-id="1,3,7,13,22" node-id="1212" stroke="none" target-height="34.599976" target-width="208" target-x="288.7" target-y="642.5"/><path d="M 314.90 651.20 L 363.20 649.40 L 386.10 651.70 L 326.40 653.60 Z" fill="url(#SVGID_16_)" fill-rule="nonzero" group-id="1,3,7,13,22" node-id="1214" stroke="none" target-height="4.199951" target-width="71.20001" target-x="314.9" target-y="649.4"/><path d="M 357.40 659.20 L 393.00 658.10 L 406.10 659.50 L 367.30 660.90 Z" fill="url(#SVGID_17_)" fill-rule="nonzero" group-id="1,3,7,13,22" node-id="1216" stroke="none" target-height="2.8000488" target-width="48.700012" target-x="357.4" target-y="658.1"/><path d="M 452.60 673.40 L 489.40 667.10 L 501.30 669.00 L 470.00 675.20 Z" fill="url(#SVGID_18_)" fill-rule="nonzero" group-id="1,3,7,13,22" node-id="1218" stroke="none" target-height="8.100037" target-width="48.69998" target-x="452.6" target-y="667.1"/><path d="M 247.60 628.60 C 247.40 628.70 247.20 628.80 247.10 628.80 L 247.10 628.80 C 245.10 630.20 245.50 633.20 247.80 634.20 C 261.20 639.70 297.50 653.00 317.80 656.90 C 396.10 672.00 530.40 682.50 530.40 682.50 C 530.40 682.50 339.40 660.00 297.50 646.70 C 261.90 635.40 250.20 627.50 247.60 628.60 Z" fill="url(#SVGID_19_)" fill-rule="nonzero" group-id="1,3,7,13,22" node-id="1220" stroke="none" target-height="55" target-width="285.30002" target-x="245.1" target-y="627.5"/><path d="M 249.30 628.00 L 249.20 629.10 C 249.20 629.10 257.60 636.50 286.90 645.50 C 309.40 652.50 315.70 654.60 379.80 665.70 C 400.30 669.30 509.20 680.00 509.20 680.00 L 564.00 686.20 L 564.10 684.60 C 564.10 684.60 417.10 668.50 393.90 664.50 C 371.10 660.50 278.00 645.70 250.90 627.20 C 250.30 626.80 249.40 627.20 249.30 628.00 Z" fill="#253a59" fill-rule="nonzero" group-id="1,3,7,13,22" node-id="1222" stroke="none" target-height="59.400024" target-width="314.89996" target-x="249.2" target-y="626.8"/><path d="M 312.50 627.60 L 317.40 627.60 L 317.40 678.30 L 312.50 678.30 Z" fill="url(#SVGID_20_)" fill-rule="nonzero" group-id="1,3,7" node-id="1226" stroke="none" target-height="50.700012" target-width="4.899994" target-x="312.5" target-y="627.6"/><path d="M 134.60 653.00 C 134.60 653.00 187.60 652.40 302.50 667.80 C 417.40 683.20 489.10 692.30 489.10 692.30 L 301.00 669.10 L 140.00 655.50 L 134.60 653.00 Z" fill="url(#SVGID_21_)" fill-rule="nonzero" group-id="1,3,7,14" node-id="1230" stroke="none" target-height="39.899963" target-width="354.5" target-x="134.6" target-y="652.4"/><path d="M 128.30 655.40 C 126.70 655.60 126.50 657.70 128.00 658.20 C 144.10 663.70 195.00 680.20 233.70 682.60 C 292.10 686.20 462.40 699.20 462.40 699.20 L 489.00 692.40 C 489.00 692.40 292.40 667.30 274.20 665.70 C 262.00 664.70 208.30 657.80 167.30 655.50 C 160.20 655.10 153.50 654.80 147.50 654.70 C 140.00 654.60 133.30 654.80 128.30 655.40 Z" fill="url(#SVGID_22_)" fill-rule="nonzero" group-id="1,3,7,14" node-id="1232" stroke="none" target-height="44.600037" target-width="362.5" target-x="126.5" target-y="654.6"/><path d="M 129.90 665.90 C 129.90 665.90 131.30 676.80 141.10 679.40 C 152.90 682.50 200.30 692.70 241.20 698.60 C 282.20 704.50 412.20 714.60 412.20 714.60 L 462.50 699.20 C 462.50 699.20 236.50 682.30 205.20 678.50 C 173.90 674.70 129.60 658.60 129.60 658.60 L 129.90 665.90 Z" fill="url(#SVGID_23_)" fill-rule="nonzero" group-id="1,3,7,14" node-id="1234" stroke="none" target-height="56" target-width="332.9" target-x="129.6" target-y="658.6"/><path d="M 171.50 665.20 C 171.50 665.20 369.80 687.70 389.60 692.20 C 389.60 692.20 311.10 689.20 274.00 684.30 C 236.90 679.40 178.00 669.20 171.50 665.20 Z" fill="url(#SVGID_24_)" fill-rule="nonzero" group-id="1,3,7,14" node-id="1236" stroke="none" target-height="27" target-width="218.1" target-x="171.5" target-y="665.2"/><path d="M 199.20 672.90 L 249.50 669.40 L 273.40 670.90 L 211.20 674.90 Z" fill="url(#SVGID_25_)" fill-rule="nonzero" group-id="1,3,7,14" node-id="1238" stroke="none" target-height="5.5" target-width="74.2" target-x="199.2" target-y="669.4"/><path d="M 243.70 679.40 L 280.80 677.00 L 294.50 677.90 L 254.10 680.80 Z" fill="url(#SVGID_26_)" fill-rule="nonzero" group-id="1,3,7,14" node-id="1240" stroke="none" target-height="3.7999878" target-width="50.800003" target-x="243.7" target-y="677"/><path d="M 343.50 690.10 L 381.60 682.50 L 394.10 684.00 L 361.70 691.20 Z" fill="url(#SVGID_27_)" fill-rule="nonzero" group-id="1,3,7,14" node-id="1242" stroke="none" target-height="8.700012" target-width="50.600006" target-x="343.5" target-y="682.5"/><path d="M 128.20 652.80 C 128.00 652.90 127.80 653.00 127.60 653.10 L 127.60 653.10 C 125.60 654.60 126.10 657.60 128.50 658.40 C 142.70 663.40 180.90 675.30 202.30 678.50 C 284.40 690.70 424.80 696.40 424.80 696.40 C 424.80 696.40 225.00 680.90 180.80 669.10 C 143.40 659.00 130.90 651.60 128.20 652.80 Z" fill="url(#SVGID_28_)" fill-rule="nonzero" group-id="1,3,7,14" node-id="1244" stroke="none" target-height="44.80005" target-width="299.19998" target-x="125.6" target-y="651.6"/><path d="M 130.00 652.10 L 129.90 653.20 C 129.90 653.20 138.90 660.30 169.80 668.30 C 193.50 674.40 200.10 676.30 267.30 685.10 C 288.80 687.90 402.70 694.70 402.70 694.70 L 460.10 698.90 L 460.20 697.30 C 460.20 697.30 306.40 686.60 282.10 683.40 C 258.20 680.30 160.60 668.90 131.70 651.30 C 130.90 650.90 130.00 651.30 130.00 652.10 Z" fill="#253a59" fill-rule="nonzero" group-id="1,3,7,14" node-id="1246" stroke="none" target-height="48" target-width="330.30002" target-x="129.9" target-y="650.9"/><path d="M 387.70 713.20 C 387.70 713.20 303.80 711.00 302.90 710.70 C 302.90 710.70 195.20 700.40 154.80 704.20 C 113.60 708.10 66.10 705.60 54.20 708.40 C 44.50 710.60 42.30 722.40 42.20 723.10 C 42.20 723.10 42.20 723.20 42.20 723.20 L 39.60 732.00 C 39.50 732.20 39.30 732.40 39.10 732.50 C 30.70 736.10 35.10 738.40 46.10 738.40 C 46.10 738.40 46.10 738.40 46.20 738.40 C 47.60 738.50 103.00 759.60 217.10 750.10 C 315.40 741.90 333.40 738.50 333.70 738.50 C 334.60 738.40 386.90 726.50 387.70 713.20 Z M 46.20 738.40" fill="#c5d1d6" fill-opacity="0.36" fill-rule="nonzero" group-id="1,3,7,15" node-id="1251" stroke="none" target-height="59.19995" target-width="357" target-x="30.7" target-y="700.4"/><path d="M 173.70 658.90 L 178.10 658.90 L 178.10 716.50 L 173.70 716.50 Z" fill="url(#SVGID_29_)" fill-rule="nonzero" group-id="1,3,7" node-id="1254" stroke="none" target-height="57.599976" target-width="4.400009" target-x="173.7" target-y="658.9"/><path d="M 368.60 684.10 L 373.90 684.10 L 373.90 741.70 L 368.60 741.70 Z" fill="url(#SVGID_30_)" fill-rule="nonzero" group-id="1,3,7" node-id="1256" stroke="none" target-height="57.600037" target-width="5.299988" target-x="368.6" target-y="684.1"/><path d="M 46.20 688.70 C 46.20 688.70 99.10 684.20 214.70 693.90 C 330.30 703.60 402.50 709.00 402.50 709.00 L 213.30 695.40 L 51.80 691.10 L 46.20 688.70 Z" fill="url(#SVGID_31_)" fill-rule="nonzero" group-id="1,3,7,16" node-id="1260" stroke="none" target-height="24.799988" target-width="356.3" target-x="46.2" target-y="684.2"/><path d="M 40.10 692.00 C 38.50 692.30 38.50 694.70 40.00 695.20 C 56.40 700.40 108.20 715.90 147.00 715.90 C 205.50 715.90 376.30 718.80 376.30 718.80 L 402.50 709.10 C 402.50 709.10 204.70 694.00 186.50 693.50 C 174.30 693.20 120.20 689.10 79.20 689.30 C 72.10 689.30 65.40 689.50 59.40 689.80 C 51.60 690.30 45.00 690.90 40.10 692.00 Z" fill="url(#SVGID_32_)" fill-rule="nonzero" group-id="1,3,7,16" node-id="1262" stroke="none" target-height="29.700012" target-width="364" target-x="38.5" target-y="689.1"/><path d="M 42.30 704.10 C 42.30 704.10 44.40 716.60 54.30 718.90 C 66.20 721.60 114.20 730.10 155.40 734.00 C 196.60 737.90 327.00 740.30 327.00 740.30 L 376.20 718.90 C 376.20 718.90 149.60 715.40 118.10 713.20 C 86.60 711.00 41.40 695.60 41.40 695.60 L 42.30 704.10 Z" fill="url(#SVGID_33_)" fill-rule="nonzero" group-id="1,3,7,16" node-id="1264" stroke="none" target-height="44.700012" target-width="334.80002" target-x="41.4" target-y="695.6"/><path d="M 83.80 700.30 C 83.80 700.30 283.10 712.30 303.10 716.10 C 303.10 716.10 224.50 718.30 187.20 715.20 C 149.90 712.00 90.50 704.50 83.80 700.30 Z" fill="url(#SVGID_34_)" fill-rule="nonzero" group-id="1,3,7,16" node-id="1266" stroke="none" target-height="18" target-width="219.3" target-x="83.8" target-y="700.3"/><path d="M 111.90 707.20 L 161.90 699.60 L 185.80 699.60 L 124.00 708.70 Z" fill="url(#SVGID_35_)" fill-rule="nonzero" group-id="1,3,7,16" node-id="1268" stroke="none" target-height="9.100037" target-width="73.9" target-x="111.9" target-y="699.6"/><path d="M 156.70 711.60 L 193.60 706.20 L 207.30 706.20 L 167.20 712.40 Z" fill="url(#SVGID_36_)" fill-rule="nonzero" group-id="1,3,7,16" node-id="1270" stroke="none" target-height="6.200012" target-width="50.600006" target-x="156.7" target-y="706.2"/><path d="M 256.90 716.90 L 294.60 705.40 L 307.10 706.20 L 275.20 716.90 Z" fill="url(#SVGID_37_)" fill-rule="nonzero" group-id="1,3,7,16" node-id="1272" stroke="none" target-height="11.5" target-width="50.200012" target-x="256.9" target-y="705.4"/><path d="M 39.80 689.00 C 39.60 689.10 39.40 689.20 39.30 689.30 L 39.30 689.30 C 37.40 691.10 38.00 694.60 40.50 695.40 C 55.00 700.20 93.90 711.30 115.40 713.40 C 198.10 721.70 338.60 718.30 338.60 718.30 C 338.60 718.30 138.30 714.60 93.50 704.10 C 55.30 695.10 42.40 687.40 39.80 689.00 Z" fill="url(#SVGID_38_)" fill-rule="nonzero" group-id="1,3,7,16" node-id="1274" stroke="none" target-height="34.299988" target-width="301.2" target-x="37.4" target-y="687.4"/><path d="M 41.50 688.10 L 41.50 689.30 C 41.50 689.30 50.90 696.90 82.20 703.90 C 106.30 709.30 113.00 711.00 180.60 716.40 C 202.20 718.10 316.30 717.90 316.30 717.90 L 373.80 718.70 L 373.80 716.90 C 373.80 716.90 219.60 715.40 195.10 713.50 C 171.10 711.60 73.20 705.00 43.00 687.10 C 42.40 686.60 41.50 687.20 41.50 688.10 Z" fill="#253a59" fill-rule="nonzero" group-id="1,3,7,16" node-id="1276" stroke="none" target-height="32.100037" target-width="332.3" target-x="41.5" target-y="686.6"/><path d="M 130.70 757.00 L 137.70 757.00 L 137.70 825.70 L 130.70 825.70 Z" fill="url(#SVGID_39_)" fill-rule="nonzero" group-id="1,3,7" node-id="1279" stroke="none" target-height="68.70001" target-width="7" target-x="130.7" target-y="757"/><path d="M 124.70 774.30 L 127.00 806.30 L 153.90 818.30 L 612.30 677.40 L 615.30 671.70 Z" fill="url(#SVGID_40_)" fill-rule="nonzero" group-id="1,3,7,17,23" node-id="1285" stroke="none" target-height="146.59998" target-width="490.59998" target-x="124.7" target-y="671.7"/><path d="M 124.70 774.30 L 614.90 665.60 L 615.30 671.70 L 152.20 785.90 Z" fill="url(#SVGID_41_)" fill-rule="nonzero" group-id="1,3,7,17,23" node-id="1287" stroke="none" target-height="120.30005" target-width="490.59998" target-x="124.7" target-y="665.6"/><path d="M 153.70 847.50 L 129.10 838.80 L 127.00 806.30 L 155.00 818.30 L 560.10 692.70 L 563.10 698.40 Z" fill="#c5d1d6" fill-opacity="0.36" fill-rule="nonzero" group-id="1,3,7,17,24" node-id="1292" stroke="none" target-height="154.79999" target-width="436.09998" target-x="127" target-y="692.7"/><path d="M 549.70 690.70 L 540.90 693.90 C 540.90 693.90 553.40 706.40 618.70 722.60 C 684.00 738.80 812.70 760.00 829.40 763.40 C 846.10 766.80 867.70 774.40 871.50 774.60 C 875.30 774.80 882.60 772.20 878.00 766.80 C 873.40 761.40 872.20 764.00 868.40 753.60 C 864.60 743.20 862.80 743.00 858.20 741.50 C 853.60 740.00 717.30 721.40 717.30 721.40 L 607.90 706.00 L 549.70 690.70 Z" fill="#c5d1d6" fill-opacity="0.36" fill-rule="nonzero" group-id="1,3,7,18,25,28" node-id="1302" stroke="none" target-height="84.099976" target-width="341.69995" target-x="540.9" target-y="690.7"/><path d="M 599.10 671.30 L 597.70 673.70 L 603.70 674.50 L 614.60 673.70 Z" fill="url(#SVGID_42_)" fill-rule="nonzero" group-id="1,3,7,18,25,29" node-id="1307" stroke="none" target-height="3.2000122" target-width="16.899963" target-x="597.7" target-y="671.3"/><path d="M 565.00 676.20 L 613.20 673.10 L 653.80 678.90 L 720.30 687.30 L 773.80 695.70 L 832.30 705.30 L 870.60 712.30 L 874.00 715.00 L 849.00 716.30 L 740.80 709.70 L 670.50 701.50 L 608.60 692.30 L 570.30 681.50 Z" fill="url(#SVGID_43_)" fill-rule="nonzero" group-id="1,3,7,18,25,29" node-id="1309" stroke="none" target-height="43.200012" target-width="309" target-x="565" target-y="673.1"/><path d="M 599.10 671.30 L 607.10 669.50 C 607.10 669.50 643.10 676.30 654.20 677.90 C 664.20 679.40 698.10 683.30 726.70 687.10 C 744.20 689.40 889.70 713.10 889.70 713.10 L 876.30 714.90 C 876.30 714.90 783.10 696.90 715.00 688.20 C 641.60 679.00 599.10 671.30 599.10 671.30 Z" fill="url(#SVGID_44_)" fill-rule="nonzero" group-id="1,3,7,18,25,29" node-id="1311" stroke="none" target-height="45.400024" target-width="290.60004" target-x="599.1" target-y="669.5"/><path d="M 552.40 676.20 L 562.70 674.30 C 562.70 674.30 593.50 690.00 645.90 695.60 C 698.30 701.20 711.00 706.80 869.90 713.20 C 869.90 713.20 889.60 712.80 889.70 713.20 L 891.10 717.60 L 894.90 719.00 L 894.90 721.90 L 882.80 721.90 L 857.40 721.90 L 808.40 718.20 L 745.40 713.20 L 694.50 708.00 L 652.40 703.20 L 611.40 696.60 L 574.60 688.40 L 558.90 681.20 L 552.60 678.20 L 552.60 676.20 Z" fill="url(#SVGID_45_)" fill-rule="nonzero" group-id="1,3,7,18,25,29" node-id="1313" stroke="none" target-height="47.600037" target-width="342.5" target-x="552.4" target-y="674.3"/><path d="M 558.80 683.40 C 558.80 683.40 560.10 689.60 564.10 692.00 C 568.20 694.40 629.90 712.30 671.90 718.90 C 713.90 725.50 802.90 744.30 840.80 743.00 C 878.80 741.70 889.60 723.80 889.60 723.80 L 869.00 723.20 L 841.70 721.70 L 795.50 718.40 L 756.30 715.10 L 680.90 707.50 L 628.70 701.30 L 597.50 695.70 L 574.30 689.60 L 558.80 683.40 Z" fill="url(#SVGID_46_)" fill-rule="nonzero" group-id="1,3,7,18,25,29" node-id="1315" stroke="none" target-height="60.899963" target-width="330.8" target-x="558.8" target-y="683.4"/><path d="M 552.40 676.20 C 552.40 676.20 578.70 687.70 590.90 690.60 C 603.10 693.50 633.90 702.90 781.30 714.90 C 928.70 726.90 891.20 717.60 891.20 717.60 C 891.20 717.60 900.80 717.60 899.30 721.10 C 897.80 724.60 883.10 723.80 883.10 723.80 C 883.10 723.80 796.40 721.30 644.70 703.30 C 568.30 694.20 550.00 678.50 550.00 678.50 L 552.40 676.20 Z" fill="url(#SVGID_47_)" fill-rule="nonzero" group-id="1,3,7,18,25,29" node-id="1317" stroke="none" target-height="50.700012" target-width="378.7" target-x="550" target-y="676.2"/><path d="M 566.70 676.10 L 610.70 673.30 L 610.20 680.40 L 582.70 682.10 C 582.70 682.10 575.10 679.50 573.20 678.90 C 571.30 678.30 566.70 676.10 566.70 676.10 Z" fill="url(#SVGID_48_)" fill-rule="nonzero" group-id="1,3,7,18,25,29" node-id="1319" stroke="none" target-height="8.799988" target-width="44" target-x="566.7" target-y="673.3"/><path d="M 582.70 682.20 C 582.70 682.20 606.20 689.90 625.20 692.70 C 641.50 695.10 705.00 702.80 715.90 703.90 L 757.50 707.40 L 794.20 709.70 C 794.20 709.70 625.30 686.20 610.10 680.50 L 582.70 682.20 Z" fill="url(#SVGID_49_)" fill-rule="nonzero" group-id="1,3,7,18,25,29" node-id="1321" stroke="none" target-height="29.200012" target-width="211.5" target-x="582.7" target-y="680.5"/><path d="M 587.60 683.70 L 641.50 680.40 L 656.60 682.40 L 599.10 687.00 Z" fill="url(#SVGID_50_)" fill-rule="nonzero" group-id="1,3,7,18,25,29" node-id="1323" stroke="none" target-height="6.5999756" target-width="69" target-x="587.6" target-y="680.4"/><path d="M 609.20 689.50 L 665.10 684.30 L 678.80 686.00 L 621.30 692.00 Z" fill="url(#SVGID_51_)" fill-rule="nonzero" group-id="1,3,7,18,25,29" node-id="1325" stroke="none" target-height="7.700012" target-width="69.599976" target-x="609.2" target-y="684.3"/><path d="M 679.50 699.60 L 739.50 694.20 L 757.50 696.80 L 709.80 703.20 L 679.10 699.50" fill="url(#SVGID_52_)" fill-rule="nonzero" group-id="1,3,7,18,25,29" node-id="1327" stroke="none" target-height="9" target-width="78.400024" target-x="679.1" target-y="694.2"/><path d="M 737.20 711.00 C 737.20 711.00 883.90 722.90 891.20 717.50 C 891.20 717.50 896.70 718.90 895.20 719.90 C 893.70 720.90 884.10 721.00 875.20 720.90 C 837.70 720.20 737.20 711.00 737.20 711.00 Z" fill="url(#SVGID_53_)" fill-rule="nonzero" group-id="1,3,7,18,25,29" node-id="1329" stroke="none" target-height="11.900024" target-width="159.5" target-x="737.2" target-y="711"/><path d="M 564.10 662.20 L 570.40 662.20 L 570.40 710.70 L 564.10 710.70 Z" fill="url(#SVGID_54_)" fill-rule="nonzero" group-id="1,3,7,18" node-id="1333" stroke="none" target-height="48.5" target-width="6.300049" target-x="564.1" target-y="662.2"/><path d="M 676.50 684.30 L 681.10 684.30 L 681.10 735.70 L 676.50 735.70 Z" fill="url(#SVGID_55_)" fill-rule="nonzero" group-id="1,3,7,18" node-id="1335" stroke="none" target-height="51.400024" target-width="4.5999756" target-x="676.5" target-y="684.3"/><path d="M 453.20 719.10 L 442.70 724.50 C 442.70 724.50 457.70 745.70 535.60 773.20 C 613.50 800.70 767.10 836.60 787.00 842.40 C 806.90 848.20 832.80 861.10 837.30 861.40 C 841.80 861.70 850.50 857.30 845.10 848.20 C 839.70 839.00 838.20 843.40 833.70 825.80 C 829.20 808.20 827.10 807.90 821.60 805.30 C 816.10 802.70 653.40 771.20 653.40 771.20 L 522.90 745.10 L 453.20 719.10 Z" fill="#c5d1d6" fill-opacity="0.36" fill-rule="nonzero" group-id="1,3,7,19,26,30" node-id="1344" stroke="none" target-height="142.60004" target-width="407.8" target-x="442.7" target-y="719.1"/><path d="M 512.30 686.20 L 510.60 690.20 L 517.70 691.70 L 530.70 690.20 Z" fill="url(#SVGID_56_)" fill-rule="nonzero" group-id="1,3,7,19,26,31" node-id="1349" stroke="none" target-height="5.5" target-width="20.100006" target-x="510.6" target-y="686.2"/><path d="M 471.50 694.50 L 529.00 689.30 L 577.50 699.10 L 656.80 713.40 L 720.70 727.60 L 790.40 743.90 L 836.20 755.80 L 840.30 760.40 L 810.40 762.60 L 681.20 751.40 L 597.40 737.50 L 523.60 721.80 L 477.80 703.50 Z" fill="url(#SVGID_57_)" fill-rule="nonzero" group-id="1,3,7,19,26,31" node-id="1351" stroke="none" target-height="73.29999" target-width="368.8" target-x="471.5" target-y="689.3"/><path d="M 512.30 686.20 L 521.80 683.10 C 521.80 683.10 564.80 694.60 578.00 697.40 C 590.00 699.90 630.30 706.60 664.50 713.00 C 685.30 716.90 859.00 757.20 859.00 757.20 L 843.00 760.30 C 843.00 760.30 731.80 729.80 650.50 715.00 C 563.00 699.20 512.30 686.20 512.30 686.20 Z" fill="url(#SVGID_58_)" fill-rule="nonzero" group-id="1,3,7,19,26,31" node-id="1353" stroke="none" target-height="77.20001" target-width="346.7" target-x="512.3" target-y="683.1"/><path d="M 456.50 694.50 L 468.70 691.20 C 468.70 691.20 505.40 717.80 567.90 727.30 C 630.40 736.80 645.50 746.20 835.20 757.20 C 835.20 757.20 858.70 756.50 858.90 757.20 L 860.60 764.60 L 865.10 767.00 L 865.10 771.90 L 850.60 771.90 L 820.20 771.90 L 761.80 765.70 L 686.60 757.30 L 625.90 748.40 L 575.60 740.30 L 526.80 729.00 L 482.90 715.10 L 464.20 702.90 L 456.70 697.80 L 456.70 694.50 Z" fill="url(#SVGID_59_)" fill-rule="nonzero" group-id="1,3,7,19,26,31" node-id="1355" stroke="none" target-height="80.70001" target-width="408.59998" target-x="456.5" target-y="691.2"/><path d="M 464.10 706.60 C 464.10 706.60 465.60 717.10 470.50 721.20 C 475.30 725.30 549.00 755.60 599.20 766.90 C 649.30 778.20 755.50 810.00 800.80 807.70 C 846.10 805.40 859.10 775.00 859.10 775.00 L 834.50 774.00 L 801.90 771.40 L 746.70 765.80 L 700.00 760.10 L 610.00 747.20 L 547.80 736.60 L 510.60 727.10 L 482.90 716.70 L 464.10 706.60 Z" fill="url(#SVGID_60_)" fill-rule="nonzero" group-id="1,3,7,19,26,31" node-id="1357" stroke="none" target-height="103.400024" target-width="394.99997" target-x="464.1" target-y="706.6"/><path d="M 456.50 694.50 C 456.50 694.50 487.90 714.00 502.40 718.90 C 516.90 723.90 553.70 739.70 729.50 760.10 C 905.30 780.50 860.60 764.60 860.60 764.60 C 860.60 764.60 872.10 764.60 870.30 770.50 C 868.50 776.40 851.00 775.00 851.00 775.00 C 851.00 775.00 747.60 770.70 566.50 740.20 C 475.30 724.80 453.50 698.10 453.50 698.10 L 456.50 694.50 Z" fill="url(#SVGID_61_)" fill-rule="nonzero" group-id="1,3,7,19,26,31" node-id="1359" stroke="none" target-height="86" target-width="451.8" target-x="453.5" target-y="694.5"/><path d="M 473.50 694.30 L 526.00 689.50 L 525.40 701.60 L 492.60 704.50 C 492.60 704.50 483.60 700.00 481.30 699.00 C 479.00 698.10 473.50 694.30 473.50 694.30 Z" fill="url(#SVGID_62_)" fill-rule="nonzero" group-id="1,3,7,19,26,31" node-id="1361" stroke="none" target-height="15" target-width="52.5" target-x="473.5" target-y="689.5"/><path d="M 492.60 704.60 C 492.60 704.60 520.60 717.80 543.30 722.40 C 562.80 726.40 638.50 739.60 651.50 741.30 L 701.20 747.20 L 745.00 751.10 C 745.00 751.10 543.50 711.30 525.40 701.60 L 492.60 704.60 Z" fill="url(#SVGID_63_)" fill-rule="nonzero" group-id="1,3,7,19,26,31" node-id="1363" stroke="none" target-height="49.5" target-width="252.4" target-x="492.6" target-y="701.6"/><path d="M 498.50 707.30 L 562.80 701.70 L 580.80 705.00 L 512.30 712.90 Z" fill="url(#SVGID_64_)" fill-rule="nonzero" group-id="1,3,7,19,26,31" node-id="1365" stroke="none" target-height="11.200012" target-width="82.29999" target-x="498.5" target-y="701.7"/><path d="M 524.30 717.10 L 591.00 708.30 L 607.30 711.20 L 538.70 721.30 Z" fill="url(#SVGID_65_)" fill-rule="nonzero" group-id="1,3,7,19,26,31" node-id="1367" stroke="none" target-height="13" target-width="83" target-x="524.3" target-y="708.3"/><path d="M 608.10 734.20 L 679.70 725.10 L 701.20 729.40 L 644.30 740.30 L 607.60 734.10" fill="url(#SVGID_66_)" fill-rule="nonzero" group-id="1,3,7,19,26,31" node-id="1369" stroke="none" target-height="15.200012" target-width="93.60004" target-x="607.6" target-y="725.1"/><path d="M 676.90 753.60 C 676.90 753.60 852.00 773.80 860.60 764.60 C 860.60 764.60 867.20 766.90 865.30 768.70 C 863.40 770.50 852.00 770.60 841.40 770.30 C 796.90 769.20 676.90 753.60 676.90 753.60 Z" fill="url(#SVGID_67_)" fill-rule="nonzero" group-id="1,3,7,19,26,31" node-id="1371" stroke="none" target-height="20.200012" target-width="190.29999" target-x="676.9" target-y="753.6"/><path d="M 588.90 726.90 L 597.70 726.90 L 597.70 790.30 L 588.90 790.30 Z" fill="url(#SVGID_68_)" fill-rule="nonzero" group-id="1,3,7,19" node-id="1375" stroke="none" target-height="63.399963" target-width="8.799988" target-x="588.9" target-y="726.9"/><path d="M 470.40 689.60 L 477.90 689.60 L 477.90 753.00 L 470.40 753.00 Z" fill="url(#SVGID_69_)" fill-rule="nonzero" group-id="1,3,7,19" node-id="1377" stroke="none" target-height="63.400024" target-width="7.5" target-x="470.4" target-y="689.6"/><path d="M 354.10 752.40 L 343.00 760.00 C 343.00 760.00 359.00 790.20 442.20 829.30 C 525.40 868.40 689.40 919.70 710.60 927.90 C 731.90 936.10 759.50 954.50 764.30 955.00 C 769.10 955.50 778.40 947.30 772.60 934.20 C 766.80 921.10 765.20 929.40 760.40 904.20 C 755.60 879.00 749.20 877.10 743.30 873.40 C 737.40 869.70 567.90 826.30 567.90 826.30 L 428.60 789.10 L 354.10 752.40 Z" fill="#c5d1d6" fill-opacity="0.36" fill-rule="nonzero" group-id="1,3,7,20,27,32" node-id="1386" stroke="none" target-height="203.09998" target-width="435.40002" target-x="343" target-y="752.4"/><path d="M 402.50 709.40 L 400.60 715.10 L 408.30 717.10 L 422.20 715.10 Z" fill="url(#SVGID_70_)" fill-rule="nonzero" group-id="1,3,7,20,27,33" node-id="1391" stroke="none" target-height="7.699951" target-width="21.600006" target-x="400.6" target-y="709.4"/><path d="M 358.90 721.20 L 420.40 713.70 L 472.10 727.80 L 556.80 748.10 L 625.00 768.40 L 699.40 791.60 L 748.30 808.50 L 752.60 815.10 L 720.70 818.20 L 582.90 802.30 L 493.40 782.40 L 414.50 760.00 L 365.70 734.10 Z" fill="url(#SVGID_71_)" fill-rule="nonzero" group-id="1,3,7,20,27,33" node-id="1393" stroke="none" target-height="104.5" target-width="393.69998" target-x="358.9" target-y="713.7"/><path d="M 402.50 709.40 L 412.70 705.00 C 412.70 705.00 458.60 721.40 472.70 725.30 C 485.50 728.90 528.60 738.40 565.10 747.50 C 587.40 753.10 772.70 810.50 772.70 810.50 L 755.60 815.00 C 755.60 815.00 636.90 771.50 550.10 750.40 C 456.60 727.90 402.50 709.40 402.50 709.40 Z" fill="url(#SVGID_72_)" fill-rule="nonzero" group-id="1,3,7,20,27,33" node-id="1395" stroke="none" target-height="110" target-width="370.2" target-x="402.5" target-y="705"/><path d="M 343.00 721.20 L 356.10 716.50 C 356.10 716.50 395.30 754.40 462.00 767.90 C 528.70 781.40 544.90 794.90 747.40 810.60 C 747.40 810.60 772.50 809.60 772.70 810.60 L 774.50 821.10 L 779.30 824.50 L 779.30 831.40 L 763.90 831.40 L 731.50 831.40 L 669.10 822.50 L 588.80 810.50 L 524.00 797.80 L 470.30 786.20 L 418.10 770.20 L 371.00 750.50 L 351.00 733.10 L 343.00 725.80 L 343.00 721.20 Z" fill="url(#SVGID_73_)" fill-rule="nonzero" group-id="1,3,7,20,27,33" node-id="1397" stroke="none" target-height="114.900024" target-width="436.3" target-x="343" target-y="716.5"/><path d="M 351.00 738.50 C 351.00 738.50 352.60 753.40 357.80 759.20 C 363.00 765.00 441.60 808.20 495.20 824.30 C 548.70 840.40 672.60 885.70 720.90 882.50 C 769.20 879.30 772.60 835.90 772.60 835.90 L 746.30 834.50 L 711.50 830.80 L 652.60 822.80 L 602.70 814.70 L 506.70 796.30 L 440.30 781.20 L 400.60 767.60 L 371.00 752.90 L 351.00 738.50 Z" fill="url(#SVGID_74_)" fill-rule="nonzero" group-id="1,3,7,20,27,33" node-id="1399" stroke="none" target-height="147.20001" target-width="421.59998" target-x="351" target-y="738.5"/><path d="M 343.00 721.20 C 343.00 721.20 376.50 748.90 392.00 756.00 C 407.50 763.10 446.80 785.70 634.50 814.70 C 822.20 843.70 774.40 821.10 774.40 821.10 C 774.40 821.10 786.70 821.10 784.70 829.50 C 782.70 837.90 764.10 836.00 764.10 836.00 C 764.10 836.00 653.70 829.90 460.30 786.30 C 362.90 764.40 339.70 726.30 339.70 726.30 L 343.00 721.20 Z" fill="url(#SVGID_75_)" fill-rule="nonzero" group-id="1,3,7,20,27,33" node-id="1401" stroke="none" target-height="122.5" target-width="482.5" target-x="339.7" target-y="721.2"/><path d="M 361.10 720.90 L 417.10 714.10 L 416.50 731.40 L 381.50 735.60 C 381.50 735.60 371.80 729.20 369.40 727.80 C 367.00 726.30 361.10 720.90 361.10 720.90 Z" fill="url(#SVGID_76_)" fill-rule="nonzero" group-id="1,3,7,20,27,33" node-id="1403" stroke="none" target-height="21.5" target-width="56" target-x="361.1" target-y="714.1"/><path d="M 381.50 735.60 C 381.50 735.60 411.40 754.30 435.60 761.00 C 456.40 766.70 537.20 785.50 551.20 788.00 L 604.30 796.40 L 651.10 801.90 C 651.10 801.90 436.00 745.20 416.60 731.40 L 381.50 735.60 Z" fill="url(#SVGID_77_)" fill-rule="nonzero" group-id="1,3,7,20,27,33" node-id="1405" stroke="none" target-height="70.5" target-width="269.59998" target-x="381.5" target-y="731.4"/><path d="M 387.70 739.40 L 456.40 731.40 L 475.60 736.10 L 402.50 747.40 Z" fill="url(#SVGID_78_)" fill-rule="nonzero" group-id="1,3,7,20,27,33" node-id="1407" stroke="none" target-height="16" target-width="87.899994" target-x="387.7" target-y="731.4"/><path d="M 415.30 753.40 L 486.50 740.80 L 503.90 745.00 L 430.70 759.30 Z" fill="url(#SVGID_79_)" fill-rule="nonzero" group-id="1,3,7,20,27,33" node-id="1409" stroke="none" target-height="18.5" target-width="88.600006" target-x="415.3" target-y="740.8"/><path d="M 504.80 777.80 L 581.20 764.80 L 604.20 770.90 L 543.40 786.50 L 504.30 777.60" fill="url(#SVGID_80_)" fill-rule="nonzero" group-id="1,3,7,20,27,33" node-id="1411" stroke="none" target-height="21.700012" target-width="99.900024" target-x="504.3" target-y="764.8"/><path d="M 578.30 805.40 C 578.30 805.40 765.20 834.10 774.40 821.10 C 774.40 821.10 781.50 824.40 779.50 826.90 C 777.50 829.40 765.30 829.60 754.00 829.20 C 706.40 827.60 578.30 805.40 578.30 805.40 Z" fill="url(#SVGID_81_)" fill-rule="nonzero" group-id="1,3,7,20,27,33" node-id="1413" stroke="none" target-height="28.699951" target-width="203.20001" target-x="578.3" target-y="805.4"/><path d="M 484.20 767.40 L 493.60 767.40 L 493.60 857.70 L 484.20 857.70 Z" fill="url(#SVGID_82_)" fill-rule="nonzero" group-id="1,3,7,20" node-id="1417" stroke="none" target-height="90.29999" target-width="9.399994" target-x="484.2" target-y="767.4"/><path d="M 357.80 714.20 L 365.80 714.20 L 365.80 804.50 L 357.80 804.50 Z" fill="url(#SVGID_83_)" fill-rule="nonzero" group-id="1,3,7,20" node-id="1419" stroke="none" target-height="90.29999" target-width="8" target-x="357.8" target-y="714.2"/><path d="M 501.00 774.80 L 506.80 774.80 L 506.80 865.10 L 501.00 865.10 Z" fill="url(#SVGID_84_)" fill-rule="nonzero" group-id="1,3,7,20" node-id="1421" stroke="none" target-height="90.29999" target-width="5.799988" target-x="501" target-y="774.8"/><path d="M 70.70 684.80 L 79.50 684.80 L 79.50 753.50 L 70.70 753.50 Z" fill="url(#SVGID_85_)" fill-rule="nonzero" group-id="1,3,7" node-id="1424" stroke="none" target-height="68.70001" target-width="8.800003" target-x="70.7" target-y="684.8"/></g></g><g node-id="1461"><path d="M 980.40 512.00 C 980.40 636.23 931.05 755.37 843.21 843.21 C 755.37 931.05 636.23 980.40 512.00 980.40 C 387.77 980.40 268.63 931.05 180.79 843.21 C 92.95 755.37 43.60 636.23 43.60 512.00 C 43.60 387.77 92.95 268.63 180.79 180.79 C 268.63 92.95 387.77 43.60 512.00 43.60 C 636.23 43.60 755.37 92.95 843.21 180.79 C 931.05 268.63 980.40 387.77 980.40 512.00 Z" fill="none" group-id="2" node-id="1431" stroke="none" target-height="936.80005" target-width="936.80005" target-x="43.6" target-y="43.6"/><path d="M 980.40 512.00 C 980.40 636.23 931.05 755.37 843.21 843.21 C 755.37 931.05 636.23 980.40 512.00 980.40 C 387.77 980.40 268.63 931.05 180.79 843.21 C 92.95 755.37 43.60 636.23 43.60 512.00 C 43.60 387.77 92.95 268.63 180.79 180.79 C 268.63 92.95 387.77 43.60 512.00 43.60 C 636.23 43.60 755.37 92.95 843.21 180.79 C 931.05 268.63 980.40 387.77 980.40 512.00 Z" fill="none" group-id="2" node-id="1433" stroke="none" target-height="936.80005" target-width="936.80005" target-x="43.6" target-y="43.6"/><g node-id="1463"><g node-id="1467"><path d="M 334.50 370.60 C 332.90 370.30 331.20 372.10 331.10 374.30 C 331.50 374.50 332.10 375.30 332.80 375.40 C 334.20 375.60 336.10 373.80 336.00 372.10 C 335.90 371.60 335.10 370.70 334.50 370.60 Z" fill="#99000f" fill-rule="nonzero" group-id="2,4,8" node-id="1439" stroke="none" target-height="5.3000183" target-width="5" target-x="331.1" target-y="370.3"/><path d="M 285.10 175.70 C 287.60 176.60 289.70 175.90 291.60 174.40 C 296.60 170.20 311.30 171.10 316.20 173.50 L 316.20 173.50 C 316.20 173.50 316.20 173.50 316.20 173.50 C 316.30 173.50 316.40 173.60 316.50 173.60 C 316.60 173.70 316.80 173.80 316.90 173.90 C 318.00 174.50 320.20 175.70 321.50 176.30 C 321.50 176.30 321.50 176.30 321.50 176.30 C 321.70 176.40 321.90 176.50 322.10 176.60 C 323.10 177.10 324.30 177.40 325.30 177.70 C 326.50 178.10 327.80 178.30 328.90 178.90 C 329.40 179.10 329.90 179.80 330.00 180.40 C 330.40 181.80 330.70 183.20 331.00 184.60 C 331.30 186.00 331.80 187.50 331.90 188.90 C 332.40 193.80 332.80 198.40 333.50 203.30 C 333.60 204.20 335.00 204.90 335.80 205.70 C 336.20 204.80 337.00 204.00 337.10 203.10 C 337.20 198.10 337.20 193.20 337.10 188.20 C 337.10 185.00 336.00 182.20 332.70 180.40 C 332.30 180.20 331.90 179.40 332.00 178.90 C 332.70 175.50 332.30 175.10 329.00 173.20 C 324.60 170.60 319.60 169.70 314.70 169.10 C 309.80 168.50 297.60 167.30 292.60 169.20 C 291.80 169.50 290.80 169.40 289.90 169.20 C 287.50 168.80 284.90 169.60 283.60 171.40 C 282.30 173.20 282.90 174.90 285.10 175.70 Z" fill="#99000f" fill-rule="nonzero" group-id="2,4,8" node-id="1441" stroke="none" target-height="38.399994" target-width="54.900024" target-x="282.3" target-y="167.3"/><path d="M 328.70 378.50 C 325.70 380.90 322.30 380.30 318.80 379.90 C 316.50 379.60 314.10 379.70 311.80 379.70 C 308.80 379.70 298.80 380.10 295.80 379.90 C 293.20 379.70 290.60 379.20 288.20 378.30 C 285.40 377.20 282.90 375.50 280.10 374.20 C 277.10 372.80 275.30 370.70 275.00 367.70 C 274.80 365.80 274.60 363.90 274.40 362.10 C 273.70 353.30 272.80 344.50 272.30 335.70 C 272.00 330.50 272.70 329.40 272.50 324.20 C 272.30 316.40 271.80 317.80 271.50 310.00 C 271.30 304.30 271.10 308.50 270.90 302.80 C 270.80 299.00 270.40 295.10 270.40 291.30 C 270.50 284.60 270.90 277.80 271.10 271.10 C 271.20 268.40 271.00 265.70 271.00 263.00 C 271.10 255.60 271.20 251.10 271.30 243.70 C 271.30 237.90 271.30 234.60 271.20 228.80 C 271.20 228.80 270.80 225.80 271.20 224.50 C 271.20 224.50 271.20 224.50 271.20 224.40 C 271.20 224.90 271.20 225.10 271.20 225.10 C 271.20 224.80 271.20 224.60 271.20 224.30 C 271.50 223.20 271.70 221.40 271.40 219.50 C 271.40 219.50 271.40 219.40 271.40 219.40 C 271.50 217.40 271.60 215.50 271.70 212.70 C 271.80 210.30 271.70 207.80 271.90 205.40 C 271.90 205.10 272.00 204.70 272.10 204.40 C 272.30 203.10 272.80 200.80 273.10 200.20 C 273.60 199.40 273.70 195.80 273.80 194.70 C 273.80 194.60 273.80 194.50 273.80 194.40 C 273.90 193.90 274.90 193.20 275.60 193.10 C 277.50 192.90 278.30 192.00 278.30 190.40 C 278.30 188.40 278.60 186.40 278.10 184.60 C 277.30 181.80 278.00 179.70 279.90 177.50 C 280.50 176.80 280.10 175.50 280.20 174.50 C 279.10 174.80 277.80 174.80 277.00 175.40 C 275.30 176.70 274.10 178.50 272.50 179.90 C 270.50 181.60 269.40 183.50 269.40 185.90 C 269.40 186.70 269.10 187.50 269.00 188.30 C 268.20 195.30 266.70 202.00 266.60 209.00 C 266.40 222.10 267.10 222.30 267.30 235.40 C 267.50 244.30 267.50 250.30 267.50 259.20 C 267.50 261.80 267.40 264.50 267.40 267.10 C 267.50 271.10 267.80 275.20 267.70 279.20 C 267.50 289.10 266.80 295.10 266.80 305.00 C 266.80 316.10 267.30 311.80 267.50 322.90 C 267.70 337.30 267.80 347.50 268.10 361.90 C 268.20 368.10 269.20 374.20 273.60 379.50 C 276.10 382.60 279.20 384.50 282.40 383.80 C 290.20 382.20 305.00 383.10 312.40 384.90 C 318.30 386.40 323.20 385.10 328.10 382.80 C 330.00 381.90 331.00 380.40 330.60 378.10 C 329.90 378.20 329.20 378.20 328.70 378.50 Z" fill="#99000f" fill-rule="nonzero" group-id="2,4,8" node-id="1443" stroke="none" target-height="211.9" target-width="64.600006" target-x="266.4" target-y="174.5"/><path d="M 336.50 211.00 C 336.40 210.10 335.60 209.30 335.10 208.50 C 334.80 208.60 334.40 208.60 334.10 208.70 C 333.90 210.00 333.40 211.30 333.40 212.60 C 333.40 218.30 333.50 213.60 333.40 219.30 C 333.40 223.70 333.20 225.70 333.10 230.10 C 333.10 231.20 332.70 231.80 331.90 232.00 L 332.80 236.00 C 333.00 236.10 333.30 236.10 333.50 236.20 C 334.30 236.40 335.30 237.00 335.90 236.80 C 336.50 236.50 337.00 235.60 337.00 234.80 C 337.20 233.50 336.90 232.10 337.00 230.80 C 337.60 219.80 337.90 221.90 336.50 211.00 Z" fill="#99000f" fill-rule="nonzero" group-id="2,4,8" node-id="1445" stroke="none" target-height="28.5" target-width="6" target-x="331.9" target-y="208.5"/><path d="M 339.60 348.00 C 339.10 336.20 339.10 333.20 338.90 321.30 C 338.80 316.10 338.90 315.60 338.80 310.40 C 338.60 304.60 338.20 308.90 337.90 303.10 C 337.80 301.80 337.80 300.50 338.10 299.30 C 338.50 297.40 338.50 295.60 337.10 293.90 C 336.80 293.50 336.90 292.20 337.40 291.90 C 339.20 290.80 339.30 289.30 339.00 287.60 C 338.30 282.90 337.20 278.10 337.10 273.40 C 336.90 266.60 337.20 259.80 337.80 253.00 C 338.20 248.60 337.40 247.20 337.00 242.80 C 336.90 242.30 336.40 241.90 336.00 241.40 C 335.50 241.70 334.80 242.00 334.40 242.40 C 334.00 242.90 333.80 243.50 333.60 244.10 C 333.60 244.20 333.60 244.30 333.50 244.40 C 333.00 246.40 333.30 251.30 333.30 251.30 L 333.30 251.30 C 333.60 254.90 333.90 255.70 334.10 259.30 C 334.10 259.50 333.90 259.70 333.90 259.90 C 333.70 260.90 333.50 261.90 333.40 262.80 C 333.30 264.70 333.20 266.70 333.20 268.60 C 333.20 271.10 333.30 273.60 333.40 276.00 C 333.50 277.90 333.50 279.70 333.60 281.60 C 333.60 282.30 333.50 283.00 333.60 283.60 C 334.20 286.50 333.20 288.70 332.60 292.10 C 332.40 293.20 332.40 294.30 332.40 294.60 C 332.50 299.10 332.30 297.70 332.50 302.20 C 332.60 304.10 333.40 304.00 333.40 305.90 C 333.60 312.70 333.70 311.00 333.90 317.80 C 334.10 328.20 334.30 329.70 334.50 340.10 C 334.60 344.30 334.60 348.60 334.60 352.80 C 334.60 354.70 334.40 356.70 334.30 358.60 C 334.20 361.10 334.20 363.70 334.20 366.20 C 334.20 366.80 334.30 367.80 334.70 367.90 C 335.20 368.10 336.50 367.90 336.70 367.60 C 337.60 366.20 338.70 364.70 339.00 363.20 C 339.80 358.20 339.80 353.10 339.60 348.00 Z" fill="#99000f" fill-rule="nonzero" group-id="2,4,8" node-id="1447" stroke="none" target-height="126.70001" target-width="7.5" target-x="332.3" target-y="241.4"/></g><g node-id="1468"><path d="M 292.60 186.10 C 290.80 186.10 289.20 186.20 287.50 186.50 L 285.80 185.00 L 312.80 184.80 L 315.60 182.20 L 319.00 185.40 C 319.20 185.50 319.20 185.70 318.80 185.80 L 301.40 186.00 L 305.50 187.70 C 305.70 187.80 305.70 188.10 305.50 188.50 L 304.60 190.40 L 304.60 205.60 L 317.40 205.40 L 320.20 202.40 L 324.10 205.80 C 324.20 206.10 324.20 206.20 323.90 206.40 L 304.60 206.80 L 304.60 216.70 L 304.80 221.80 C 304.40 223.80 303.00 225.70 300.70 227.60 C 300.20 227.50 299.80 227.20 299.60 226.70 L 300.00 217.70 L 300.00 206.80 L 287.60 207.00 C 287.20 207.00 286.70 207.10 286.10 207.20 C 284.20 207.20 283.00 207.30 282.30 207.60 L 281.00 206.10 L 299.90 205.70 L 299.90 193.90 L 299.70 186.20 L 292.60 186.10 Z M 288.30 190.60 C 291.30 192.60 293.30 194.10 294.30 195.10 C 295.30 196.10 295.90 197.10 296.00 198.10 C 296.00 198.90 295.80 199.60 295.40 200.40 C 295.00 201.30 294.40 201.90 293.50 202.30 C 292.50 202.70 291.90 202.20 291.60 201.00 C 291.20 197.20 290.00 193.90 288.00 191.10 C 287.90 190.60 288.00 190.50 288.30 190.60 Z M 313.00 188.90 L 317.50 191.30 C 317.90 191.60 317.90 191.90 317.70 192.20 L 316.60 193.10 C 313.30 197.40 310.20 201.20 307.20 204.50 L 306.80 204.30 C 309.40 199.20 311.50 194.00 313.00 188.90 Z" fill="#99000f" fill-rule="nonzero" group-id="2,4,9" node-id="1452" stroke="none" target-height="45.40001" target-width="43.200012" target-x="281" target-y="182.2"/><path d="M 281.70 241.60 C 285.30 243.10 287.00 244.70 286.80 246.30 C 286.70 247.60 286.00 248.40 284.70 248.90 C 283.70 249.00 283.10 248.60 283.00 247.60 C 282.90 245.10 282.30 243.20 281.30 242.00 C 281.20 241.60 281.30 241.50 281.70 241.60 Z M 292.00 242.20 L 287.70 261.50 C 287.10 263.60 287.10 266.10 287.90 268.80 C 288.10 269.60 288.00 270.20 287.50 270.70 C 286.60 271.60 285.50 272.00 284.10 272.00 C 283.50 272.10 283.30 271.70 283.50 270.70 C 283.70 269.10 283.90 267.50 283.90 265.80 C 283.90 264.70 283.10 264.00 281.60 263.70 C 281.50 263.50 281.50 263.30 281.80 263.10 C 283.20 263.40 284.10 262.90 284.40 261.80 L 291.30 242.10 C 291.40 242.00 291.50 241.90 291.70 241.70 C 291.90 241.90 292.00 242.00 292.00 242.20 Z M 285.80 231.50 C 289.60 232.90 291.50 234.30 291.60 235.60 C 291.50 236.90 290.80 237.80 289.50 238.40 C 288.60 238.70 288.10 238.30 287.80 237.50 C 287.30 235.00 286.50 233.10 285.40 231.90 L 285.40 231.70 C 285.30 231.50 285.40 231.50 285.80 231.50 Z M 319.20 231.50 L 322.40 233.90 C 322.60 233.90 322.60 234.00 322.40 234.30 L 321.50 235.40 L 321.70 259.60 C 322.30 266.50 320.40 270.70 316.10 272.40 C 316.20 270.80 315.90 269.80 315.20 269.40 C 315.10 269.20 315.10 269.00 315.20 268.80 C 317.50 269.40 318.40 266.40 318.00 259.80 L 317.80 234.70 L 313.50 234.90 L 312.90 236.40 L 312.70 244.50 L 316.10 244.50 C 316.50 244.50 316.70 244.60 316.70 244.90 C 316.70 245.20 316.50 245.30 316.10 245.50 L 312.70 245.70 L 312.50 249.60 C 312.60 251.60 312.50 253.40 312.10 255.00 L 316.00 255.00 C 316.40 255.00 316.60 255.10 316.60 255.40 C 316.50 255.80 316.30 256.00 316.00 256.00 L 312.10 256.20 C 311.50 266.20 303.80 272.70 289.00 275.70 C 288.60 275.70 288.40 275.60 288.20 275.30 C 288.20 275.20 288.30 275.00 288.60 274.90 C 297.20 272.40 302.70 269.50 305.10 266.10 C 308.00 262.60 309.40 256.60 309.40 248.10 L 309.40 240.60 C 309.40 237.40 309.30 234.70 309.00 232.50 C 309.00 232.10 309.10 232.00 309.40 232.10 L 313.20 234.00 L 317.50 233.80 L 319.20 231.50 Z M 296.30 240.70 C 295.40 240.70 294.30 240.80 292.90 241.10 C 292.60 241.20 292.50 241.30 292.30 241.30 L 291.20 239.80 L 297.80 239.60 L 297.80 235.80 L 298.00 229.80 L 302.50 231.10 C 302.70 231.40 302.70 231.60 302.50 231.90 L 301.60 233.20 L 301.20 239.60 L 303.30 239.60 L 305.40 237.30 L 308.00 239.90 C 308.10 240.30 308.10 240.50 307.80 240.50 L 301.20 240.70 L 300.40 251.00 L 301.20 251.00 L 302.90 248.70 L 306.10 250.80 C 306.10 250.90 306.10 251.10 306.10 251.20 L 305.20 252.50 L 305.20 261.90 L 305.60 263.00 C 305.70 263.30 305.70 263.40 305.60 263.60 L 305.20 263.60 C 302.90 263.40 299.80 263.20 295.80 263.20 L 295.80 265.30 C 294.50 267.20 293.50 267.80 292.80 267.20 L 292.60 249.60 C 292.60 249.40 292.70 249.20 292.80 249.20 L 293.00 249.20 L 295.60 251.30 L 297.30 251.30 L 297.70 240.80 L 296.30 240.80 Z M 295.80 252.10 L 295.80 262.20 L 301.40 262.20 L 301.20 251.90 L 295.80 252.10 Z" fill="#99000f" fill-rule="nonzero" group-id="2,4,9" node-id="1454" stroke="none" target-height="45.90001" target-width="41.399994" target-x="281.2" target-y="229.8"/><path d="M 297.40 277.60 L 300.40 280.80 C 300.50 280.90 300.50 281.10 300.40 281.20 C 300.40 281.30 300.30 281.40 300.00 281.40 C 299.70 281.40 299.10 281.50 298.10 281.80 C 296.00 282.20 294.30 282.40 293.00 282.60 L 295.80 283.70 C 296.00 283.70 296.00 283.80 295.80 284.10 L 295.00 285.60 L 295.00 291.00 L 296.90 291.00 L 299.20 288.70 L 301.60 291.10 C 301.80 291.50 301.80 291.70 301.40 291.90 L 295.00 292.10 L 294.80 297.50 C 297.80 298.60 299.60 299.80 300.20 300.90 C 300.30 301.80 299.80 302.70 298.70 303.70 C 297.80 304.20 297.30 304.00 297.20 303.10 C 296.60 301.20 295.80 299.70 294.80 298.40 L 294.60 308.50 L 294.80 317.10 C 294.50 318.50 293.50 320.00 291.80 321.60 C 290.90 322.20 290.50 322.20 290.50 321.60 L 290.70 308.10 L 290.90 301.90 C 288.50 305.00 284.60 309.00 279.30 313.90 C 278.90 314.20 278.80 314.10 278.90 313.70 C 284.30 306.90 288.30 300.00 290.90 292.90 L 291.10 292.00 L 289.40 292.00 C 287.80 292.00 286.00 292.10 284.10 292.40 L 282.80 291.10 L 291.10 290.90 L 291.10 288.50 C 291.10 286.20 291.00 284.40 290.90 282.90 C 290.30 283.00 289.30 283.20 288.10 283.50 C 286.50 283.90 285.20 284.10 284.30 284.30 C 283.80 284.20 283.70 283.90 284.10 283.50 C 290.80 281.30 295.20 279.40 297.40 277.60 Z M 308.10 278.50 C 308.10 278.30 308.20 278.20 308.50 278.30 L 312.80 280.40 C 313.20 280.70 313.20 281.00 312.80 281.30 L 311.90 282.40 L 311.90 295.20 C 311.90 296.10 311.90 297.00 311.90 297.80 C 313.30 305.40 317.90 312.10 325.80 317.90 C 326.00 317.90 326.20 318.00 326.20 318.10 C 326.20 318.30 326.10 318.50 325.80 318.50 C 323.90 318.50 321.80 319.40 319.40 321.10 C 315.30 317.50 312.70 310.60 311.70 300.50 C 311.20 310.80 304.70 318.40 292.20 323.60 C 291.90 323.60 291.80 323.50 291.80 323.20 C 291.70 323.10 291.70 322.90 292.00 322.80 C 303.50 317.90 309.00 308.20 308.50 293.50 L 308.30 285.20 C 308.30 281.90 308.30 279.70 308.10 278.50 Z M 303.80 286.00 C 303.80 285.80 303.90 285.60 304.20 285.60 C 304.30 285.60 304.40 285.70 304.40 286.00 C 305.90 291.30 306.10 295.00 305.00 297.30 C 304.40 298.60 303.10 299.40 301.20 299.70 C 300.10 299.20 299.90 298.20 300.80 296.70 C 302.80 294.20 303.80 290.70 303.80 286.00 Z M 319.00 285.50 L 322.90 287.80 C 323.30 287.90 323.30 288.20 322.90 288.60 C 321.50 289.40 318.30 291.80 313.10 295.90 C 312.80 296.00 312.70 296.00 312.70 295.90 C 312.60 295.80 312.60 295.60 312.70 295.30 C 315.90 291.40 318.00 288.10 319.00 285.50 Z" fill="#99000f" fill-rule="nonzero" group-id="2,4,9" node-id="1456" stroke="none" target-height="46" target-width="47.400024" target-x="278.8" target-y="277.6"/><path d="M 313.40 326.00 L 317.70 328.30 C 317.90 328.40 317.90 328.60 317.70 328.70 L 316.40 330.40 L 316.80 360.00 C 317.20 365.30 314.90 368.70 310.00 370.30 C 310.20 367.90 309.70 366.40 308.30 365.80 C 308.00 365.50 308.10 365.40 308.50 365.20 C 311.40 365.40 312.60 364.30 312.10 361.80 L 311.90 329.50 L 298.80 329.90 L 298.80 338.70 L 309.90 338.30 C 310.50 338.60 310.50 338.90 309.90 339.40 L 298.80 339.60 L 298.80 344.50 C 298.80 346.60 298.70 348.10 298.60 349.00 L 310.20 348.60 C 310.40 348.60 310.60 348.80 310.60 349.20 C 310.60 349.50 310.40 349.60 310.00 349.80 L 298.40 350.20 C 298.10 358.10 292.40 365.10 281.10 371.40 C 280.80 371.40 280.70 371.30 280.70 371.00 C 280.60 370.90 280.60 370.70 280.90 370.60 C 286.40 367.00 290.00 363.40 291.80 359.90 C 293.80 356.30 294.80 351.20 294.80 344.50 L 294.80 331.60 L 294.60 326.30 C 294.60 325.90 294.70 325.80 295.00 325.90 L 298.80 328.70 L 311.70 328.30 L 313.40 326.00 Z" fill="#99000f" fill-rule="nonzero" group-id="2,4,9" node-id="1458" stroke="none" target-height="45.600006" target-width="37.299988" target-x="280.6" target-y="325.8"/></g></g></g></svg>