<svg height="1024" node-id="1" sillyvg="true" template-height="1024" template-width="1024" version="1.1" viewBox="0 0 1024 1024" width="1024" xmlns="http://www.w3.org/2000/svg" xmlns:xlink="http://www.w3.org/1999/xlink"><defs node-id="182"><linearGradient gradientTransform="matrix(0.9976 0.06956195 -0.06956195 0.9976 88.8449 1.3291)" gradientUnits="userSpaceOnUse" id="SVGID_3_" node-id="15" spreadMethod="pad" x1="212.9588" x2="219.2972" y1="405.7283" y2="405.7283"><stop offset="0" stop-color="#ffcdd6"/><stop offset="0.3975" stop-color="#6d8daf"/><stop offset="1" stop-color="#253a59"/></linearGradient><linearGradient gradientTransform="matrix(0.9976 0.06956195 -0.06956195 0.9976 88.8449 1.3291)" gradientUnits="userSpaceOnUse" id="SVGID_4_" node-id="20" spreadMethod="pad" x1="210.1405" x2="222.1156" y1="391.7169" y2="391.7169"><stop offset="0" stop-color="#ffcdd6"/><stop offset="0.3975" stop-color="#6d8daf"/><stop offset="1" stop-color="#253a59"/></linearGradient><linearGradient gradientTransform="matrix(0.9976 0.06956195 -0.06956195 0.9976 88.8449 1.3291)" gradientUnits="userSpaceOnUse" id="SVGID_5_" node-id="25" spreadMethod="pad" x1="202.5869" x2="229.6692" y1="377.5255" y2="377.5255"><stop offset="0" stop-color="#ffcdd6"/><stop offset="0.3975" stop-color="#6d8daf"/><stop offset="1" stop-color="#253a59"/></linearGradient><linearGradient gradientUnits="userSpaceOnUse" id="SVGID_6_" node-id="32" spreadMethod="pad" x1="224.4715" x2="224.5557" y1="508.1282" y2="508.1282"><stop offset="0" stop-color="#ffcdd6"/><stop offset="0.3975" stop-color="#6d8daf"/><stop offset="1" stop-color="#253a59"/></linearGradient><linearGradient gradientUnits="userSpaceOnUse" id="SVGID_7_" node-id="37" spreadMethod="pad" x1="224.8469" x2="316.0371" y1="466.8059" y2="466.8059"><stop offset="0" stop-color="#ffcdd6"/><stop offset="0.3975" stop-color="#6d8daf"/><stop offset="1" stop-color="#253a59"/></linearGradient><linearGradient gradientUnits="userSpaceOnUse" id="SVGID_8_" node-id="42" spreadMethod="pad" x1="276.7804" x2="279.0698" y1="519.2261" y2="519.2261"><stop offset="0" stop-color="#ffcdd6"/><stop offset="0.3975" stop-color="#6d8daf"/><stop offset="1" stop-color="#253a59"/></linearGradient><linearGradient gradientUnits="userSpaceOnUse" id="SVGID_9_" node-id="48" spreadMethod="pad" x1="271.789" x2="278.7105" y1="511.3311" y2="511.3311"><stop offset="0" stop-color="#ffcdd6"/><stop offset="0.3975" stop-color="#6d8daf"/><stop offset="1" stop-color="#253a59"/></linearGradient><linearGradient gradientUnits="userSpaceOnUse" id="SVGID_10_" node-id="56" spreadMethod="pad" x1="223.6703" x2="223.7545" y1="597.5491" y2="597.5491"><stop offset="0" stop-color="#ffcdd6"/><stop offset="0.3975" stop-color="#6d8daf"/><stop offset="1" stop-color="#253a59"/></linearGradient><linearGradient gradientUnits="userSpaceOnUse" id="SVGID_11_" node-id="61" spreadMethod="pad" x1="224.0457" x2="315.2359" y1="556.2267" y2="556.2267"><stop offset="0" stop-color="#ffcdd6"/><stop offset="0.3975" stop-color="#6d8daf"/><stop offset="1" stop-color="#253a59"/></linearGradient><linearGradient gradientUnits="userSpaceOnUse" id="SVGID_12_" node-id="66" spreadMethod="pad" x1="275.9792" x2="278.2686" y1="608.647" y2="608.647"><stop offset="0" stop-color="#ffcdd6"/><stop offset="0.3975" stop-color="#6d8daf"/><stop offset="1" stop-color="#253a59"/></linearGradient><linearGradient gradientTransform="matrix(0.9995 0.0317225 -0.0317225 0.9995 39.2708 -0.2142)" gradientUnits="userSpaceOnUse" id="SVGID_13_" node-id="72" spreadMethod="pad" x1="246.4643" x2="252.8027" y1="594.7299" y2="594.7299"><stop offset="0" stop-color="#ffcdd6"/><stop offset="0.3975" stop-color="#6d8daf"/><stop offset="1" stop-color="#253a59"/></linearGradient><linearGradient gradientTransform="matrix(0.9993 -0.03788128 0.03788128 0.9993 -49.5606 1.8232)" gradientUnits="userSpaceOnUse" id="SVGID_14_" node-id="79" spreadMethod="pad" x1="244.7485" x2="244.8327" y1="699.0027" y2="699.0027"><stop offset="0" stop-color="#ffcdd6"/><stop offset="0.3975" stop-color="#6d8daf"/><stop offset="1" stop-color="#253a59"/></linearGradient><linearGradient gradientTransform="matrix(0.9993 -0.03788128 0.03788128 0.9993 -49.5606 1.8232)" gradientUnits="userSpaceOnUse" id="SVGID_15_" node-id="84" spreadMethod="pad" x1="245.1239" x2="336.3141" y1="657.6804" y2="657.6804"><stop offset="0" stop-color="#ffcdd6"/><stop offset="0.3975" stop-color="#6d8daf"/><stop offset="1" stop-color="#253a59"/></linearGradient><linearGradient gradientTransform="matrix(0.9993 -0.03788128 0.03788128 0.9993 -49.5606 1.8232)" gradientUnits="userSpaceOnUse" id="SVGID_16_" node-id="89" spreadMethod="pad" x1="297.0574" x2="299.3468" y1="710.1006" y2="710.1006"><stop offset="0" stop-color="#ffcdd6"/><stop offset="0.3975" stop-color="#6d8daf"/><stop offset="1" stop-color="#253a59"/></linearGradient><radialGradient cx="165.4081" cy="763.0338" fx="165.4081" fy="763.0338" gradientTransform="matrix(1.8998 -1.0968 4.3694 0.819 -3378.2986 248.257)" gradientUnits="userSpaceOnUse" id="SVGID_17_" node-id="94" r="7.3371" rev="14" spreadMethod="pad"><stop offset="0" stop-color="#ffcdd6"/><stop offset="0.3975" stop-color="#6d8daf"/><stop offset="1" stop-color="#253a59"/></radialGradient><linearGradient gradientTransform="matrix(0.9993 -0.03788128 0.03788128 0.9993 -49.5606 1.8232)" gradientUnits="userSpaceOnUse" id="SVGID_18_" node-id="100" spreadMethod="pad" x1="244.7485" x2="244.8327" y1="699.0027" y2="699.0027"><stop offset="0" stop-color="#ffcdd6"/><stop offset="0.3975" stop-color="#6d8daf"/><stop offset="1" stop-color="#253a59"/></linearGradient><linearGradient gradientTransform="matrix(0.9993 -0.03788128 0.03788128 0.9993 -49.5606 1.8232)" gradientUnits="userSpaceOnUse" id="SVGID_19_" node-id="105" spreadMethod="pad" x1="245.1239" x2="336.3141" y1="657.6804" y2="657.6804"><stop offset="0" stop-color="#ffcdd6"/><stop offset="0.3975" stop-color="#6d8daf"/><stop offset="1" stop-color="#253a59"/></linearGradient><linearGradient gradientTransform="matrix(0.9993 -0.03788128 0.03788128 0.9993 -49.5606 1.8232)" gradientUnits="userSpaceOnUse" id="SVGID_20_" node-id="110" spreadMethod="pad" x1="297.0574" x2="299.3468" y1="710.1006" y2="710.1006"><stop offset="0" stop-color="#ffcdd6"/><stop offset="0.3975" stop-color="#6d8daf"/><stop offset="1" stop-color="#253a59"/></linearGradient><linearGradient gradientTransform="matrix(0.9418 0.3362 -0.3362 0.9418 96.596 -139.7728)" gradientUnits="userSpaceOnUse" id="SVGID_21_" node-id="115" spreadMethod="pad" x1="478.4794" x2="478.4794" y1="435.0794" y2="-150.31"><stop offset="0" stop-color="#ffcdd6"/><stop offset="0.3975" stop-color="#6d8daf"/><stop offset="1" stop-color="#253a59"/></linearGradient><linearGradient gradientUnits="userSpaceOnUse" id="SVGID_22_" node-id="121" spreadMethod="pad" x1="394.2599" x2="394.2599" y1="580.9083" y2="563.3178"><stop offset="0" stop-color="#ffcdd6"/><stop offset="0.3975" stop-color="#6d8daf"/><stop offset="1" stop-color="#253a59"/></linearGradient><linearGradient gradientUnits="userSpaceOnUse" id="SVGID_23_" node-id="126" spreadMethod="pad" x1="502.931" x2="502.931" y1="533.9645" y2="520.592"><stop offset="0" stop-color="#ffcdd6"/><stop offset="0.3975" stop-color="#6d8daf"/><stop offset="1" stop-color="#253a59"/></linearGradient><linearGradient gradientUnits="userSpaceOnUse" id="SVGID_24_" node-id="131" spreadMethod="pad" x1="573.7095" x2="573.7095" y1="561.6194" y2="551.6437"><stop offset="0" stop-color="#ffcdd6"/><stop offset="0.3975" stop-color="#6d8daf"/><stop offset="1" stop-color="#253a59"/></linearGradient><linearGradient gradientUnits="userSpaceOnUse" id="SVGID_25_" node-id="136" spreadMethod="pad" x1="580.5449" x2="580.5449" y1="462.9861" y2="457.4843"><stop offset="0" stop-color="#ffcdd6"/><stop offset="0.3975" stop-color="#6d8daf"/><stop offset="1" stop-color="#253a59"/></linearGradient><linearGradient gradientUnits="userSpaceOnUse" id="SVGID_26_" node-id="141" spreadMethod="pad" x1="640.3491" x2="640.3491" y1="465.7369" y2="460.2352"><stop offset="0" stop-color="#ffcdd6"/><stop offset="0.3975" stop-color="#6d8daf"/><stop offset="1" stop-color="#253a59"/></linearGradient><linearGradient gradientUnits="userSpaceOnUse" id="SVGID_27_" node-id="148" spreadMethod="pad" x1="627.5521" x2="627.5521" y1="847.0816" y2="818.9394"><stop offset="0" stop-color="#ffcdd6"/><stop offset="0.3975" stop-color="#6d8daf"/><stop offset="1" stop-color="#253a59"/></linearGradient><linearGradient gradientUnits="userSpaceOnUse" id="SVGID_28_" node-id="153" spreadMethod="pad" x1="780.6455" x2="780.6455" y1="847.0816" y2="814.3644"><stop offset="0" stop-color="#ffcdd6"/><stop offset="0.3975" stop-color="#6d8daf"/><stop offset="1" stop-color="#253a59"/></linearGradient><linearGradient gradientUnits="userSpaceOnUse" id="SVGID_29_" node-id="159" spreadMethod="pad" x1="627.5521" x2="627.5521" y1="-582.6223" y2="-566.0916"><stop offset="0" stop-color="#ffcdd6"/><stop offset="0.3975" stop-color="#6d8daf"/><stop offset="1" stop-color="#253a59"/></linearGradient><linearGradient gradientUnits="userSpaceOnUse" id="SVGID_30_" node-id="164" spreadMethod="pad" x1="780.6455" x2="780.6455" y1="-582.6223" y2="-563.40424"><stop offset="0" stop-color="#ffcdd6"/><stop offset="0.3975" stop-color="#6d8daf"/><stop offset="1" stop-color="#253a59"/></linearGradient><clipPath id="SVGID_2_" node-id="11"><path d="M 980.40 512.00 C 980.40 636.23 931.05 755.37 843.21 843.21 C 755.37 931.05 636.23 980.40 512.00 980.40 C 387.77 980.40 268.63 931.05 180.79 843.21 C 92.95 755.37 43.60 636.23 43.60 512.00 C 43.60 387.77 92.95 268.63 180.79 180.79 C 268.63 92.95 387.77 43.60 512.00 43.60 C 636.23 43.60 755.37 92.95 843.21 180.79 C 931.05 268.63 980.40 387.77 980.40 512.00 Z" fill="#000000" fill-rule="nonzero" node-id="409" stroke="none" target-height="936.80005" target-width="936.80005" target-x="43.6" target-y="43.6"/></clipPath></defs><path d="M 980.40 512.00 C 980.40 636.23 931.05 755.37 843.21 843.21 C 755.37 931.05 636.23 980.40 512.00 980.40 C 387.77 980.40 268.63 931.05 180.79 843.21 C 92.95 755.37 43.60 636.23 43.60 512.00 C 43.60 387.77 92.95 268.63 180.79 180.79 C 268.63 92.95 387.77 43.60 512.00 43.60 C 636.23 43.60 755.37 92.95 843.21 180.79 C 931.05 268.63 980.40 387.77 980.40 512.00 Z" fill="none" node-id="413" stroke="none" target-height="936.80005" target-width="936.80005" target-x="43.6" target-y="43.6"/><path d="M 0.00 0.00 L 0.00 1024.00 L 1024.00 1024.00 L 1024.00 0.00 L 0.00 0.00 Z M 512.00 980.40 C 253.30 980.40 43.60 770.70 43.60 512.00 C 43.60 253.30 253.30 43.60 512.00 43.60 C 770.70 43.60 980.40 253.30 980.40 512.00 C 980.40 770.70 770.70 980.40 512.00 980.40 Z" fill="#eeebe6" fill-opacity="0" fill-rule="nonzero" node-id="415" stroke="none" target-height="1024" target-width="1024" target-x="0" target-y="0"/><path d="M 980.40 512.00 C 980.40 636.23 931.05 755.37 843.21 843.21 C 755.37 931.05 636.23 980.40 512.00 980.40 C 387.77 980.40 268.63 931.05 180.79 843.21 C 92.95 755.37 43.60 636.23 43.60 512.00 C 43.60 387.77 92.95 268.63 180.79 180.79 C 268.63 92.95 387.77 43.60 512.00 43.60 C 636.23 43.60 755.37 92.95 843.21 180.79 C 931.05 268.63 980.40 387.77 980.40 512.00 Z" fill="none" node-id="417" stroke="none" target-height="936.80005" target-width="936.80005" target-x="43.6" target-y="43.6"/><path d="M 980.40 512.00 C 980.40 636.23 931.05 755.37 843.21 843.21 C 755.37 931.05 636.23 980.40 512.00 980.40 C 387.77 980.40 268.63 931.05 180.79 843.21 C 92.95 755.37 43.60 636.23 43.60 512.00 C 43.60 387.77 92.95 268.63 180.79 180.79 C 268.63 92.95 387.77 43.60 512.00 43.60 C 636.23 43.60 755.37 92.95 843.21 180.79 C 931.05 268.63 980.40 387.77 980.40 512.00 Z" fill="none" node-id="419" stroke="none" target-height="936.80005" target-width="936.80005" target-x="43.6" target-y="43.6"/><g node-id="559"><g clip-path="url(#SVGID_2_)" group-id="1" id="sillyvg_g_1" node-id="423"><path d="M 278.30 431.20 L 272.90 430.80 C 272.70 430.80 272.50 430.60 272.50 430.30 L 273.80 411.50 C 273.80 411.30 274.00 411.10 274.30 411.10 L 279.70 411.50 C 279.90 411.50 280.10 411.70 280.10 412.00 L 278.80 430.80 C 278.70 431.00 278.50 431.20 278.30 431.20 Z" fill="url(#SVGID_3_)" fill-rule="nonzero" group-id="1,3,6" node-id="427" stroke="none" target-height="20.100006" target-width="7.600006" target-x="272.5" target-y="411.1"/><path d="M 277.60 401.20 C 274.30 401.00 271.40 403.50 271.20 406.80 C 271.00 410.10 273.50 413.00 276.80 413.20 C 280.10 413.40 283.00 410.90 283.20 407.60 C 283.40 404.20 280.90 401.40 277.60 401.20 Z M 276.90 411.30 C 274.60 411.10 272.90 409.20 273.10 406.90 C 273.30 404.60 275.20 402.90 277.50 403.10 C 279.80 403.30 281.50 405.20 281.30 407.50 C 281.20 409.70 279.20 411.40 276.90 411.30 Z" fill="url(#SVGID_4_)" fill-rule="nonzero" group-id="1,3,6" node-id="429" stroke="none" target-height="12.399994" target-width="12.399994" target-x="271" target-y="401"/><path d="M 279.10 379.50 C 271.60 379.00 265.20 384.60 264.60 392.10 C 264.10 399.60 269.70 406.00 277.20 406.60 C 284.70 407.10 291.10 401.50 291.70 394.00 C 292.20 386.50 286.60 380.00 279.10 379.50 Z M 277.50 402.30 C 272.40 401.90 268.50 397.50 268.80 392.30 C 269.20 387.20 273.60 383.30 278.80 383.60 C 283.90 384.00 287.80 388.40 287.50 393.60 C 287.10 398.80 282.70 402.60 277.50 402.30 Z" fill="url(#SVGID_5_)" fill-rule="nonzero" group-id="1,3,6" node-id="431" stroke="none" target-height="28.100006" target-width="28.100006" target-x="264.1" target-y="379"/><path d="M 271.09 502.07 L 280.59 502.63 L 289.11 503.47 L 297.20 504.61 L 303.77 505.89 L 309.70 507.48 L 313.60 508.99 L 315.80 510.31 L 316.82 511.43 L 317.11 512.44 L 316.74 513.43 L 315.63 514.47 L 313.33 515.60 L 309.33 516.79 L 303.29 517.90 L 296.63 518.64 L 288.48 519.12 L 279.92 519.26 L 270.40 519.05 L 260.90 518.49 L 252.38 517.65 L 244.29 516.51 L 237.72 515.23 L 231.79 513.65 L 227.89 512.13 L 225.70 510.81 L 224.67 509.69 L 224.38 508.68 L 224.75 507.69 L 225.87 506.65 L 228.16 505.52 L 232.17 504.33 L 238.21 503.22 L 244.86 502.49 L 253.02 502.00 L 261.58 501.86 L 271.09 502.07 Z" fill="#253a59" fill-rule="nonzero" group-id="1,3,6,9" node-id="435" stroke="none" target-height="17.401428" target-width="92.72574" target-x="224.38461" target-y="501.85962"/><path d="M 224.60 508.00 C 224.50 508.10 224.50 508.20 224.50 508.30 C 224.50 508.20 224.50 508.10 224.60 508.00 Z" fill="url(#SVGID_6_)" fill-rule="nonzero" group-id="1,3,6,10" node-id="440" stroke="none" target-height="0.2999878" target-width="0.1000061" target-x="224.5" target-y="508"/><path d="M 271.00 502.10 C 293.20 503.00 311.60 506.60 316.00 510.60 C 316.00 510.60 316.00 510.60 316.00 510.60 C 308.80 498.50 302.40 469.90 302.00 448.10 C 301.60 424.50 281.60 423.20 276.00 423.30 C 271.20 422.60 250.10 421.10 247.20 445.20 C 244.50 467.60 234.20 496.70 224.90 507.40 C 224.90 507.50 224.80 507.50 224.80 507.50 C 228.10 503.60 247.60 501.20 271.00 502.10 Z" fill="url(#SVGID_7_)" fill-rule="nonzero" group-id="1,3,6,10" node-id="442" stroke="none" target-height="89.5" target-width="91.2" target-x="224.8" target-y="421.1"/><path d="M 276.80 519.20 C 277.30 519.20 277.80 519.30 278.20 519.30 C 278.30 519.30 278.40 519.30 278.50 519.30 C 278.50 519.30 278.50 519.30 278.60 519.30 C 278.80 519.30 278.90 519.30 279.10 519.30 C 278.30 519.20 277.50 519.20 276.80 519.20 Z" fill="url(#SVGID_8_)" fill-rule="nonzero" group-id="1,3,6,10" node-id="444" stroke="none" target-height="0.099975586" target-width="2.3000183" target-x="276.8" target-y="519.2"/><path d="M 274.20 502.30 C 273.60 502.30 273.00 502.30 272.40 502.30 L 271.80 517.00 C 271.70 518.70 273.00 520.30 274.70 520.40 C 276.40 520.50 278.00 519.20 278.10 517.50 L 278.70 502.60 C 277.20 502.50 275.70 502.40 274.20 502.30 Z" fill="url(#SVGID_9_)" fill-rule="nonzero" group-id="1,3,6,11" node-id="449" stroke="none" target-height="18.200012" target-width="7" target-x="271.7" target-y="502.3"/><path d="M 270.27 591.49 L 279.77 592.05 L 288.29 592.89 L 296.38 594.03 L 302.96 595.31 L 308.88 596.89 L 312.78 598.41 L 314.98 599.73 L 316.00 600.85 L 316.29 601.86 L 315.92 602.85 L 314.81 603.89 L 312.51 605.02 L 308.51 606.21 L 302.47 607.32 L 295.81 608.05 L 287.66 608.54 L 279.10 608.68 L 269.58 608.47 L 260.08 607.91 L 251.56 607.07 L 243.47 605.93 L 236.90 604.65 L 230.97 603.06 L 227.07 601.55 L 224.88 600.23 L 223.85 599.11 L 223.56 598.10 L 223.93 597.11 L 225.05 596.07 L 227.34 594.94 L 231.35 593.74 L 237.39 592.64 L 244.04 591.90 L 252.20 591.42 L 260.76 591.28 L 270.27 591.49 Z" fill="#253a59" fill-rule="nonzero" group-id="1,3,6,11,15,19" node-id="455" stroke="none" target-height="17.401367" target-width="92.72577" target-x="223.5647" target-y="591.27856"/><path d="M 223.80 597.40 C 223.70 597.50 223.70 597.60 223.70 597.70 C 223.70 597.60 223.70 597.50 223.80 597.40 Z" fill="url(#SVGID_10_)" fill-rule="nonzero" group-id="1,3,6,11,15,20" node-id="460" stroke="none" target-height="0.2999878" target-width="0.1000061" target-x="223.7" target-y="597.4"/><path d="M 270.20 591.50 C 292.40 592.40 310.80 596.00 315.20 600.00 C 315.20 600.00 315.20 600.00 315.20 600.00 C 308.00 587.90 301.60 559.30 301.20 537.50 C 300.80 513.90 280.80 512.60 275.20 512.70 C 270.40 512.00 249.30 510.50 246.40 534.60 C 243.70 557.00 233.40 586.10 224.10 596.80 C 224.10 596.90 224.00 596.90 224.00 596.90 C 227.30 593.00 246.80 590.60 270.20 591.50 Z" fill="url(#SVGID_11_)" fill-rule="nonzero" group-id="1,3,6,11,15,20" node-id="462" stroke="none" target-height="89.5" target-width="91.20001" target-x="224" target-y="510.5"/><path d="M 276.00 608.60 C 276.50 608.60 277.00 608.70 277.40 608.70 C 277.50 608.70 277.60 608.70 277.70 608.70 C 277.70 608.70 277.70 608.70 277.80 608.70 C 278.00 608.70 278.10 608.70 278.30 608.70 C 277.50 608.60 276.70 608.60 276.00 608.60 Z" fill="url(#SVGID_12_)" fill-rule="nonzero" group-id="1,3,6,11,15,20" node-id="464" stroke="none" target-height="0.10003662" target-width="2.2999878" target-x="276" target-y="608.6"/><path d="M 272.30 612.10 L 266.80 611.90 C 266.60 611.90 266.40 611.70 266.40 611.40 L 267.00 592.50 C 267.00 592.30 267.20 592.10 267.50 592.10 L 273.00 592.30 C 273.20 592.30 273.40 592.50 273.40 592.80 L 272.80 611.70 C 272.80 611.90 272.60 612.10 272.30 612.10 Z" fill="url(#SVGID_13_)" fill-rule="nonzero" group-id="1,3,6,12" node-id="471" stroke="none" target-height="20" target-width="7" target-x="266.4" target-y="592.1"/><path d="M 267.77 683.21 L 277.28 683.42 L 285.83 683.93 L 293.96 684.77 L 300.57 685.79 L 306.56 687.16 L 310.51 688.52 L 312.75 689.75 L 313.82 690.84 L 314.15 691.84 L 313.82 692.84 L 312.74 693.92 L 310.49 695.14 L 306.53 696.48 L 300.54 697.81 L 293.92 698.80 L 285.79 699.60 L 277.24 700.06 L 267.72 700.21 L 258.21 700.01 L 249.66 699.50 L 241.53 698.66 L 234.92 697.64 L 228.93 696.27 L 224.98 694.91 L 222.74 693.68 L 221.67 692.59 L 221.35 691.59 L 221.67 690.59 L 222.75 689.51 L 225.00 688.29 L 228.96 686.95 L 234.95 685.62 L 241.57 684.63 L 249.71 683.83 L 258.25 683.37 L 267.77 683.21 Z" fill="#253a59" fill-rule="nonzero" group-id="1,3,6,12,16" node-id="475" stroke="none" target-height="17" target-width="92.79999" target-x="221.34534" target-y="683.21497"/><path d="M 221.60 690.90 C 221.60 691.00 221.50 691.10 221.50 691.20 C 221.50 691.10 221.50 691.00 221.60 690.90 Z" fill="url(#SVGID_14_)" fill-rule="nonzero" group-id="1,3,6,12,17" node-id="480" stroke="none" target-height="0.2999878" target-width="0.1000061" target-x="221.5" target-y="690.9"/><path d="M 267.80 683.30 C 290.00 683.40 308.50 686.30 313.10 690.10 C 313.10 690.10 313.10 690.10 313.10 690.10 C 305.50 678.20 297.90 649.90 296.70 628.20 C 295.40 604.60 275.40 604.10 269.80 604.40 C 265.00 603.90 243.80 603.20 241.90 627.40 C 240.00 649.90 230.80 679.30 221.90 690.40 C 221.90 690.50 221.90 690.50 221.80 690.50 C 224.90 686.30 244.30 683.20 267.80 683.30 Z" fill="url(#SVGID_15_)" fill-rule="nonzero" group-id="1,3,6,12,17" node-id="482" stroke="none" target-height="87.29999" target-width="91.3" target-x="221.8" target-y="603.2"/><path d="M 274.20 700.10 C 274.70 700.10 275.20 700.10 275.60 700.10 C 275.70 700.10 275.80 700.10 275.90 700.10 C 275.90 700.10 275.90 700.10 276.00 700.10 C 276.20 700.10 276.30 700.10 276.50 700.10 C 275.70 700.10 274.90 700.10 274.20 700.10 Z" fill="url(#SVGID_16_)" fill-rule="nonzero" group-id="1,3,6,12,17" node-id="484" stroke="none" target-height="0" target-width="2.2999878" target-x="274.2" target-y="700.1"/><path d="M 272.20 701.40 L 272.20 701.40 C 267.50 702.50 262.90 699.60 261.80 694.90 L 261.20 692.50 C 260.10 687.90 263.00 683.20 267.70 682.10 L 267.70 682.10 C 272.30 681.00 277.00 683.90 278.10 688.60 L 278.70 691.00 C 279.70 695.60 276.80 700.30 272.20 701.40 Z" fill="url(#SVGID_17_)" fill-rule="nonzero" group-id="1,3,6,12" node-id="487" stroke="none" target-height="21.5" target-width="19.600006" target-x="260.1" target-y="681"/><path d="M 221.60 690.90 C 221.60 691.00 221.50 691.10 221.50 691.20 C 221.50 691.10 221.50 691.00 221.60 690.90 Z" fill="url(#SVGID_18_)" fill-rule="nonzero" group-id="1,3,6,12,18" node-id="491" stroke="none" target-height="0.2999878" target-width="0.1000061" target-x="221.5" target-y="690.9"/><path d="M 267.80 683.30 C 290.00 683.40 308.50 686.30 313.10 690.10 C 313.10 690.10 313.10 690.10 313.10 690.10 C 305.50 678.20 297.90 649.90 296.70 628.20 C 295.40 604.60 275.40 604.10 269.80 604.40 C 265.00 603.90 243.80 603.20 241.90 627.40 C 240.00 649.90 230.80 679.30 221.90 690.40 C 221.90 690.50 221.90 690.50 221.80 690.50 C 224.90 686.30 244.30 683.20 267.80 683.30 Z" fill="url(#SVGID_19_)" fill-rule="nonzero" group-id="1,3,6,12,18" node-id="493" stroke="none" target-height="87.29999" target-width="91.3" target-x="221.8" target-y="603.2"/><path d="M 274.20 700.10 C 274.70 700.10 275.20 700.10 275.60 700.10 C 275.70 700.10 275.80 700.10 275.90 700.10 C 275.90 700.10 275.90 700.10 276.00 700.10 C 276.20 700.10 276.30 700.10 276.50 700.10 C 275.70 700.10 274.90 700.10 274.20 700.10 Z" fill="url(#SVGID_20_)" fill-rule="nonzero" group-id="1,3,6,12,18" node-id="495" stroke="none" target-height="0" target-width="2.2999878" target-x="274.2" target-y="700.1"/><path d="M 974.10 43.60 C 975.30 43.20 975.40 41.50 974.20 41.00 L 247.60 -245.50 C 246.90 -245.80 246.10 -245.50 245.80 -244.80 C 239.00 -229.10 168.40 -67.00 157.30 -31.50 C 146.30 3.80 -32.10 225.10 118.30 291.00 C 119.30 291.40 119.20 292.80 120.20 292.40 C 122.70 291.40 126.70 290.20 128.50 292.00 C 131.10 294.50 139.80 304.20 140.90 305.50 C 141.00 305.60 141.00 305.70 141.10 305.80 C 141.70 306.90 146.10 314.40 156.80 311.30 C 165.90 308.70 168.30 304.00 168.90 302.00 C 169.10 301.50 169.50 301.10 170.10 301.10 L 188.50 299.70 C 188.90 299.70 189.30 299.80 189.60 300.10 L 209.70 320.10 C 209.80 320.20 210.00 320.40 210.20 320.40 L 212.50 321.20 C 212.70 321.30 212.90 321.40 213.10 321.60 L 234.60 345.50 C 234.80 345.70 234.90 345.80 235.20 345.90 L 239.70 347.50 C 239.90 347.60 240.10 347.70 240.30 347.90 L 271.40 383.90 C 271.50 384.00 271.50 384.10 271.60 384.10 C 272.80 385.00 281.50 390.70 289.60 381.90 C 293.10 378.20 289.10 375.10 292.60 373.40 C 296.10 371.70 306.30 372.10 308.20 365.70 C 310.10 359.30 298.20 351.30 308.70 351.40 C 320.10 351.50 326.40 347.10 322.30 338.80 C 318.00 330.20 313.90 340.70 310.50 340.40 C 304.60 339.80 309.10 333.90 306.30 330.00 C 303.00 325.30 296.10 322.90 293.20 322.10 C 292.50 321.90 292.10 321.10 292.30 320.40 L 295.00 311.10 C 295.20 310.30 296.00 309.90 296.80 310.20 L 305.40 313.30 C 306.00 313.50 306.70 313.30 307.10 312.70 L 312.20 304.00 C 312.50 303.40 313.20 303.20 313.90 303.40 L 321.00 305.90 C 321.60 306.10 322.30 305.90 322.60 305.30 L 328.50 295.60 C 328.80 295.00 329.50 294.80 330.10 295.00 L 337.50 297.60 C 338.20 297.80 338.90 297.50 339.20 296.90 L 344.40 286.60 C 344.70 286.10 345.30 285.80 345.90 285.90 L 359.10 288.10 C 359.70 288.20 360.20 287.90 360.50 287.40 L 367.50 275.70 C 367.90 275.10 368.70 274.80 369.30 275.20 L 381.00 281.40 C 381.60 281.70 382.40 281.50 382.80 281.00 L 395.60 262.10 C 395.90 261.60 396.50 261.40 397.10 261.50 L 423.30 268.20 C 423.90 268.30 424.50 268.10 424.80 267.60 L 436.60 249.60 C 436.90 249.20 437.40 248.90 437.90 249.00 L 455.00 250.90 C 455.50 251.00 456.00 250.70 456.30 250.30 L 457.70 243.70 C 458.10 243.20 461.00 240.00 462.70 238.60 C 462.90 238.50 463.10 238.40 463.20 238.30 C 463.50 238.10 463.80 238.00 464.00 237.90 L 464.00 237.90 L 464.00 237.90 C 465.90 237.40 463.20 243.80 466.50 243.80 C 466.50 243.80 465.80 249.60 470.80 251.10 C 475.90 252.70 474.90 254.40 474.90 254.40 C 474.90 254.40 479.10 246.20 482.40 244.70 C 485.70 243.20 489.20 233.20 489.20 233.20 C 489.20 233.20 493.00 235.30 496.30 222.70 L 501.90 219.10 C 501.90 219.10 505.30 221.40 509.00 221.80 C 512.80 222.20 510.50 230.20 521.70 226.60 C 521.70 226.60 526.70 234.10 531.50 232.70 C 531.50 232.70 532.30 236.20 535.10 237.20 C 535.10 237.20 536.30 231.30 537.80 230.10 C 537.80 230.10 545.30 228.00 548.90 220.40 C 548.90 220.40 554.90 217.70 557.30 206.50 L 563.80 204.30 C 563.80 204.30 570.40 210.30 574.10 201.40 L 583.40 197.40 C 583.40 197.40 587.40 201.00 592.10 198.90 C 592.10 198.90 593.70 204.10 597.70 202.80 C 597.70 202.80 590.70 210.10 603.90 210.80 C 603.90 210.80 607.40 211.00 608.60 213.30 C 608.60 213.30 612.10 206.80 617.50 203.90 C 622.90 200.90 626.40 189.50 626.40 189.50 C 626.40 189.50 635.20 190.70 635.20 179.30 L 646.20 172.80 C 646.20 172.80 653.00 174.80 659.60 173.60 C 663.60 177.30 671.10 173.80 671.00 174.50 C 670.90 176.00 671.10 178.60 673.10 179.60 C 675.50 180.80 683.00 183.20 685.10 183.90 C 685.40 184.00 685.70 184.20 685.90 184.60 L 686.70 186.00 C 687.30 187.10 688.80 186.90 689.20 185.80 L 690.90 181.00 C 691.00 180.70 691.20 180.50 691.40 180.30 C 693.40 178.90 703.80 171.40 704.80 167.60 C 705.70 164.30 707.30 160.20 708.00 158.70 C 708.20 158.30 708.50 158.00 708.90 157.90 L 725.60 153.70 C 725.80 153.60 726.00 153.50 726.20 153.40 L 740.10 140.10 C 740.30 139.90 740.60 139.80 740.80 139.70 L 748.90 138.40 C 749.10 138.40 749.30 138.30 749.40 138.20 L 757.40 133.00 C 757.90 132.70 758.60 132.70 759.00 133.10 C 761.40 135.10 768.40 141.00 769.90 141.60 C 771.70 142.30 777.20 147.90 783.40 148.10 C 785.80 148.20 787.10 148.80 787.90 149.60 C 788.50 150.30 789.60 150.10 790.10 149.30 C 790.90 147.90 792.10 146.30 794.00 145.20 C 798.00 143.00 812.30 134.20 814.70 123.60 C 814.80 123.10 815.10 122.70 815.60 122.60 C 818.20 121.80 826.60 118.40 828.00 109.90 C 828.10 109.30 828.50 108.90 829.10 108.80 C 830.60 108.60 833.60 107.70 835.00 104.50 C 835.30 103.80 836.20 103.50 836.90 103.90 C 841.10 105.90 853.70 111.40 859.70 109.80 C 866.60 108.00 873.30 103.80 877.60 99.00 C 878.00 98.50 878.70 98.40 879.30 98.70 C 881.40 99.80 886.70 102.40 889.90 102.50 C 890.30 102.50 890.70 102.70 890.90 103.10 C 892.50 105.40 899.10 113.90 906.50 111.10 C 911.80 109.20 914.50 111.60 915.90 113.80 C 916.50 114.70 917.80 114.70 918.30 113.70 C 920.00 110.40 923.20 105.30 927.30 103.90 C 933.10 102.00 947.10 92.10 947.10 84.60 C 947.10 84.00 947.50 83.50 948.00 83.30 C 951.30 82.30 961.30 78.10 965.60 66.20 L 972.00 48.40 C 972.30 47.70 971.90 46.90 971.20 46.60 C 970.00 46.20 970.00 44.40 971.20 44.00 L 974.10 43.60 Z" fill="url(#SVGID_21_)" fill-rule="nonzero" group-id="1,3" node-id="500" stroke="none" target-height="636.5" target-width="1007.5" target-x="-32.1" target-y="-245.8"/><path d="M 367.40 570.90 C 367.40 570.90 392.20 572.70 392.90 580.90 C 392.90 580.90 404.00 565.60 421.20 564.10 C 421.20 564.10 404.40 559.30 392.80 572.40 C 392.80 572.50 378.60 565.40 367.40 570.90 Z" fill="url(#SVGID_22_)" fill-rule="nonzero" group-id="1,3,7" node-id="504" stroke="none" target-height="21.600037" target-width="53.80002" target-x="367.4" target-y="559.3"/><path d="M 482.50 526.40 C 482.50 526.40 501.30 527.70 501.90 534.00 C 501.90 534.00 510.30 522.40 523.40 521.30 C 523.40 521.30 510.70 517.70 501.80 527.60 C 501.80 527.60 491.10 522.20 482.50 526.40 Z" fill="url(#SVGID_23_)" fill-rule="nonzero" group-id="1,3,7" node-id="506" stroke="none" target-height="16.299988" target-width="40.900024" target-x="482.5" target-y="517.7"/><path d="M 558.50 555.90 C 558.50 555.90 572.50 556.90 573.00 561.60 C 573.00 561.60 579.30 552.90 589.00 552.10 C 589.00 552.10 579.50 549.40 572.90 556.80 C 572.90 556.80 564.80 552.80 558.50 555.90 Z" fill="url(#SVGID_24_)" fill-rule="nonzero" group-id="1,3,7" node-id="508" stroke="none" target-height="12.199951" target-width="30.5" target-x="558.5" target-y="549.4"/><path d="M 572.10 459.90 C 572.10 459.90 579.80 460.40 580.10 463.00 C 580.10 463.00 583.60 458.20 588.90 457.80 C 588.90 457.80 583.70 456.30 580.00 460.40 C 580.10 460.40 575.70 458.10 572.10 459.90 Z" fill="url(#SVGID_25_)" fill-rule="nonzero" group-id="1,3,7" node-id="510" stroke="none" target-height="6.700012" target-width="16.800049" target-x="572.1" target-y="456.3"/><path d="M 631.90 462.60 C 631.90 462.60 639.60 463.10 639.90 465.70 C 639.90 465.70 643.40 460.90 648.70 460.50 C 648.70 460.50 643.50 459.00 639.80 463.10 C 639.90 463.10 635.50 460.90 631.90 462.60 Z" fill="url(#SVGID_26_)" fill-rule="nonzero" group-id="1,3,7" node-id="512" stroke="none" target-height="6.700012" target-width="16.799988" target-x="631.9" target-y="459"/><path d="M 444.70 847.10 L 810.40 847.10 C 810.40 847.10 774.90 821.00 743.60 820.60 C 697.00 820.10 687.10 829.40 670.10 835.40 C 656.70 840.10 627.60 818.00 604.90 819.00 C 573.60 820.30 568.80 845.10 533.60 835.70 C 499.50 826.70 490.40 818.90 444.70 847.10 Z" fill="url(#SVGID_27_)" fill-opacity="0.8" fill-rule="nonzero" group-id="1,3,8,13" node-id="519" stroke="none" target-height="29.099976" target-width="365.7" target-x="444.7" target-y="818"/><path d="M 576.30 847.10 L 984.90 847.10 C 984.90 847.10 836.30 810.30 789.50 814.80 C 742.70 819.30 720.20 834.30 694.70 840.30 C 669.30 846.20 637.80 797.60 576.30 847.10 Z" fill="url(#SVGID_28_)" fill-opacity="0.8" fill-rule="nonzero" group-id="1,3,8,13" node-id="521" stroke="none" target-height="49.5" target-width="408.60004" target-x="576.3" target-y="797.6"/><path d="M 444.70 847.10 L 810.40 847.10 C 810.40 847.10 774.90 862.50 743.60 862.60 C 697.00 862.90 687.10 857.40 670.10 853.90 C 656.70 851.10 627.60 864.10 604.90 863.60 C 573.60 862.80 568.80 848.30 533.60 853.80 C 499.50 859.10 490.40 863.60 444.70 847.10 Z" fill="url(#SVGID_29_)" fill-opacity="0.1" fill-rule="nonzero" group-id="1,3,8,14" node-id="526" stroke="none" target-height="17" target-width="365.7" target-x="444.7" target-y="847.1"/><path d="M 576.30 847.10 L 984.90 847.10 C 984.90 847.10 836.30 868.70 789.50 866.10 C 742.70 863.50 720.20 854.60 694.70 851.10 C 669.30 847.60 637.80 876.20 576.30 847.10 Z" fill="url(#SVGID_30_)" fill-opacity="0.1" fill-rule="nonzero" group-id="1,3,8,14" node-id="528" stroke="none" target-height="29.100037" target-width="408.60004" target-x="576.3" target-y="847.1"/></g></g><g node-id="560"><g node-id="562"><path d="M 752.00 417.80 C 750.40 417.50 748.70 419.30 748.60 421.50 C 749.00 421.70 749.60 422.50 750.30 422.60 C 751.70 422.80 753.60 421.00 753.50 419.30 C 753.50 418.80 752.60 417.90 752.00 417.80 Z" fill="#99000f" fill-rule="nonzero" group-id="2,4" node-id="538" stroke="none" target-height="5.299988" target-width="5" target-x="748.6" target-y="417.5"/><path d="M 702.60 222.90 C 705.10 223.80 707.20 223.10 709.10 221.60 C 714.10 217.40 728.80 218.30 733.70 220.70 L 733.70 220.70 C 733.70 220.70 733.70 220.70 733.70 220.70 C 733.80 220.70 733.90 220.80 734.00 220.80 C 734.10 220.90 734.30 221.00 734.40 221.10 C 735.50 221.70 737.70 222.90 739.00 223.50 C 739.00 223.50 739.00 223.50 739.00 223.50 C 739.20 223.60 739.40 223.70 739.60 223.80 C 740.60 224.30 741.80 224.60 742.80 224.90 C 744.00 225.30 745.30 225.50 746.40 226.10 C 746.90 226.30 747.40 227.00 747.50 227.60 C 747.90 229.00 748.20 230.40 748.50 231.80 C 748.80 233.20 749.30 234.70 749.40 236.10 C 749.90 241.00 750.30 245.60 751.00 250.50 C 751.10 251.40 752.50 252.10 753.30 252.90 C 753.70 252.00 754.50 251.20 754.60 250.30 C 754.70 245.30 754.70 240.40 754.60 235.40 C 754.60 232.20 753.50 229.40 750.20 227.60 C 749.80 227.40 749.40 226.60 749.50 226.10 C 750.20 222.70 749.80 222.30 746.50 220.40 C 742.10 217.80 737.10 216.90 732.20 216.30 C 727.30 215.70 715.10 214.50 710.10 216.40 C 709.30 216.70 708.30 216.60 707.40 216.40 C 705.00 216.00 702.40 216.80 701.10 218.60 C 699.90 220.40 700.40 222.10 702.60 222.90 Z" fill="#99000f" fill-rule="nonzero" group-id="2,4" node-id="540" stroke="none" target-height="38.399994" target-width="54.799988" target-x="699.9" target-y="214.5"/><path d="M 746.30 425.70 C 743.30 428.10 739.90 427.50 736.40 427.10 C 734.10 426.80 731.70 426.90 729.40 426.90 C 726.40 426.90 716.40 427.30 713.40 427.10 C 710.80 426.90 708.20 426.40 705.80 425.50 C 703.00 424.40 700.50 422.70 697.70 421.40 C 694.70 420.00 692.90 417.90 692.60 414.90 C 692.40 413.00 692.20 411.10 692.00 409.30 C 691.30 400.50 690.40 391.70 689.90 382.90 C 689.60 377.70 690.30 376.60 690.10 371.40 C 689.90 363.60 689.40 365.00 689.10 357.20 C 688.90 351.50 688.70 355.70 688.50 350.00 C 688.40 346.20 688.00 342.30 688.00 338.50 C 688.10 331.80 688.50 325.00 688.70 318.30 C 688.80 315.60 688.60 312.90 688.60 310.20 C 688.70 302.80 688.80 298.30 688.90 290.90 C 688.90 285.10 688.90 281.80 688.80 276.00 C 688.80 276.00 688.40 273.00 688.80 271.70 C 688.80 271.70 688.80 271.70 688.80 271.60 C 688.80 272.10 688.80 272.30 688.80 272.30 C 688.80 272.00 688.80 271.80 688.80 271.50 C 689.10 270.40 689.30 268.60 689.00 266.70 C 689.00 266.70 689.00 266.60 689.00 266.60 C 689.10 264.60 689.20 262.70 689.30 259.90 C 689.40 257.50 689.30 255.00 689.50 252.60 C 689.50 252.30 689.60 251.90 689.70 251.60 C 689.90 250.30 690.40 248.00 690.70 247.40 C 691.20 246.60 691.30 243.00 691.40 241.90 C 691.40 241.80 691.40 241.70 691.40 241.60 C 691.50 241.10 692.50 240.40 693.20 240.30 C 695.10 240.10 695.90 239.20 695.90 237.60 C 695.90 235.60 696.20 233.60 695.70 231.80 C 694.90 229.00 695.60 226.90 697.50 224.70 C 698.10 224.00 697.70 222.70 697.80 221.70 C 696.70 222.00 695.40 222.00 694.60 222.60 C 692.90 223.90 691.70 225.70 690.10 227.10 C 688.10 228.80 687.00 230.70 687.00 233.10 C 687.00 233.90 686.70 234.70 686.60 235.50 C 685.80 242.50 684.30 249.20 684.20 256.20 C 684.00 269.30 684.70 269.50 684.90 282.60 C 685.10 291.50 685.10 297.50 685.10 306.40 C 685.10 309.00 685.00 311.70 685.00 314.30 C 685.10 318.30 685.40 322.40 685.30 326.40 C 685.10 336.30 684.40 342.30 684.40 352.20 C 684.40 363.30 684.90 359.00 685.10 370.10 C 685.30 384.50 685.40 394.70 685.70 409.10 C 685.80 415.30 686.80 421.40 691.20 426.70 C 693.70 429.80 696.80 431.70 700.00 431.00 C 707.80 429.40 722.60 430.30 730.00 432.10 C 735.90 433.60 740.80 432.30 745.70 430.00 C 747.60 429.10 748.60 427.60 748.20 425.30 C 747.50 425.40 746.70 425.40 746.30 425.70 Z" fill="#99000f" fill-rule="nonzero" group-id="2,4" node-id="542" stroke="none" target-height="211.90001" target-width="64.599976" target-x="684" target-y="221.7"/><path d="M 754.00 258.20 C 753.90 257.30 753.10 256.50 752.60 255.70 C 752.30 255.80 751.90 255.80 751.60 255.90 C 751.40 257.20 750.90 258.50 750.90 259.80 C 750.90 265.50 751.00 260.80 750.90 266.50 C 750.90 270.90 750.70 272.90 750.60 277.30 C 750.60 278.40 750.20 279.00 749.40 279.20 L 750.30 283.20 C 750.50 283.30 750.80 283.30 751.00 283.40 C 751.80 283.60 752.80 284.20 753.40 284.00 C 754.00 283.70 754.50 282.80 754.50 282.00 C 754.70 280.70 754.40 279.30 754.50 278.00 C 755.20 267.00 755.50 269.10 754.00 258.20 Z" fill="#99000f" fill-rule="nonzero" group-id="2,4" node-id="544" stroke="none" target-height="28.500015" target-width="6.0999756" target-x="749.4" target-y="255.7"/><path d="M 757.10 395.20 C 756.60 383.40 756.60 380.40 756.40 368.50 C 756.30 363.30 756.40 362.80 756.30 357.60 C 756.10 351.80 755.70 356.10 755.40 350.30 C 755.30 349.00 755.30 347.70 755.60 346.50 C 756.00 344.60 756.00 342.80 754.60 341.10 C 754.30 340.70 754.40 339.40 754.90 339.10 C 756.70 338.00 756.80 336.50 756.50 334.80 C 755.80 330.10 754.70 325.30 754.60 320.60 C 754.40 313.80 754.70 307.00 755.30 300.20 C 755.70 295.80 754.90 294.40 754.50 290.00 C 754.40 289.50 753.90 289.10 753.50 288.60 C 753.00 288.90 752.30 289.20 751.90 289.60 C 751.50 290.10 751.30 290.70 751.10 291.30 C 751.10 291.40 751.10 291.50 751.00 291.60 C 750.50 293.60 750.80 298.50 750.80 298.50 L 750.80 298.50 C 751.10 302.10 751.40 302.90 751.60 306.50 C 751.60 306.70 751.40 306.90 751.40 307.10 C 751.20 308.10 751.00 309.10 750.90 310.00 C 750.80 311.90 750.70 313.90 750.70 315.80 C 750.70 318.30 750.80 320.80 750.90 323.20 C 751.00 325.10 751.00 326.90 751.10 328.80 C 751.10 329.50 751.00 330.20 751.10 330.80 C 751.70 333.70 750.70 335.90 750.10 339.30 C 749.90 340.40 749.90 341.50 749.90 341.80 C 750.00 346.30 749.80 344.90 750.00 349.40 C 750.10 351.30 750.90 351.20 750.90 353.10 C 751.10 359.90 751.20 358.20 751.40 365.00 C 751.60 375.40 751.80 376.90 752.00 387.30 C 752.10 391.50 752.10 395.80 752.10 400.00 C 752.10 401.90 751.90 403.90 751.80 405.80 C 751.70 408.30 751.70 410.90 751.70 413.40 C 751.70 414.00 751.80 415.00 752.20 415.10 C 752.70 415.30 754.00 415.10 754.20 414.80 C 755.10 413.40 756.20 411.90 756.50 410.40 C 757.40 405.40 757.40 400.30 757.10 395.20 Z" fill="#99000f" fill-rule="nonzero" group-id="2,4" node-id="546" stroke="none" target-height="126.69998" target-width="7.6000366" target-x="749.8" target-y="288.6"/></g><g node-id="563"><path d="M 705.60 237.20 C 703.10 237.30 701.30 237.60 700.30 238.00 L 698.60 236.10 L 717.50 235.70 L 718.30 228.40 L 723.40 230.30 C 723.60 230.60 723.60 230.80 723.40 231.10 C 722.90 231.50 722.50 232.10 722.30 233.00 L 721.90 235.80 L 735.20 235.40 L 738.00 232.20 L 741.80 235.80 C 742.00 235.90 742.00 236.10 741.80 236.40 L 721.70 237.00 L 720.90 243.00 L 731.00 242.80 L 733.10 240.20 L 737.20 242.80 C 737.40 242.90 737.40 243.10 737.20 243.40 L 735.90 245.10 L 735.90 260.30 L 736.10 266.90 C 736.20 269.80 734.50 272.20 730.80 274.00 C 730.50 274.10 730.40 274.10 730.40 273.80 C 730.40 271.90 729.80 270.70 728.70 270.20 C 728.30 269.90 728.30 269.70 728.70 269.40 C 730.60 269.60 731.40 269.40 731.30 268.60 L 731.10 243.70 L 708.40 244.30 L 708.40 268.00 C 708.10 270.00 707.20 271.90 705.60 273.60 C 705.20 274.00 704.90 274.10 704.70 274.00 C 704.40 273.90 704.30 273.60 704.30 273.20 L 704.50 262.10 L 704.50 246.00 L 704.50 241.10 C 704.50 240.90 704.60 240.80 704.90 240.90 L 708.50 243.20 L 716.80 243.00 L 717.40 236.80 L 705.60 237.20 Z M 723.60 244.20 L 727.70 246.30 L 728.10 246.50 C 728.10 246.60 728.00 246.80 727.70 246.90 L 726.90 247.70 L 722.60 252.00 L 724.90 252.00 L 726.80 249.90 L 729.20 252.20 C 729.30 252.50 729.30 252.60 729.00 252.80 L 721.90 253.00 L 721.90 259.20 L 725.80 259.20 L 727.90 257.30 L 730.50 259.60 C 730.60 259.90 730.60 260.00 730.30 260.00 L 721.90 260.20 L 721.90 263.00 L 722.10 267.50 C 721.70 269.10 720.70 270.80 719.10 272.60 C 718.10 273.10 717.60 272.80 717.60 271.80 L 717.80 264.50 L 717.80 260.20 L 710.30 260.40 C 709.90 260.40 709.70 260.20 709.70 259.80 C 709.70 259.60 709.90 259.40 710.30 259.40 L 717.80 259.20 L 718.00 253.00 L 711.80 253.20 C 711.40 253.20 711.20 253.10 711.20 252.80 C 711.10 252.40 711.20 252.20 711.60 252.20 L 714.80 252.20 C 714.50 249.90 714.20 247.80 713.90 245.80 C 713.80 245.60 713.80 245.50 714.10 245.60 L 717.50 246.40 C 717.90 246.50 718.00 246.80 717.90 247.20 L 717.70 252.10 L 721.60 252.10 L 723.60 244.20 Z" fill="#99000f" fill-rule="nonzero" group-id="2,5" node-id="551" stroke="none" target-height="45.700012" target-width="43.400024" target-x="698.6" target-y="228.4"/><path d="M 707.90 277.90 C 707.90 277.70 708.00 277.60 708.30 277.70 L 712.80 280.00 L 732.10 279.60 L 734.20 277.30 L 738.10 279.70 C 738.50 279.80 738.50 280.10 738.10 280.50 L 737.20 281.80 L 737.00 286.90 L 737.40 287.50 C 737.50 287.80 737.50 287.90 737.20 287.90 C 735.10 287.80 732.90 287.70 730.60 287.70 L 733.80 289.40 C 734.00 289.40 734.00 289.50 733.80 289.80 L 732.90 290.60 C 732.80 290.70 732.60 290.90 732.50 291.00 C 731.00 292.80 729.50 294.30 728.00 295.70 L 733.40 295.70 L 735.70 293.30 L 738.50 295.90 C 738.70 296.00 738.70 296.20 738.50 296.50 L 728.70 296.70 L 731.70 298.20 C 731.90 298.20 731.90 298.30 731.70 298.60 L 731.30 299.70 L 731.30 305.30 L 735.10 305.10 L 737.50 302.50 L 740.70 305.50 C 740.90 305.60 740.90 305.80 740.70 306.10 L 731.30 306.30 L 731.30 309.50 L 731.50 316.80 C 731.20 318.80 730.20 320.60 728.50 322.20 C 728.10 322.40 727.90 322.50 727.70 322.40 C 727.40 322.40 727.30 322.20 727.30 321.80 L 727.50 311.50 L 727.50 306.00 L 723.00 306.20 C 723.50 312.20 718.00 317.60 706.50 322.50 C 706.20 322.50 706.10 322.40 705.90 322.10 C 705.80 322.00 705.80 321.80 706.10 321.70 C 715.00 317.40 719.40 312.30 719.40 306.10 L 717.30 306.10 C 715.30 306.10 713.60 306.30 712.20 306.70 L 710.90 305.40 L 719.30 305.20 L 719.30 301.10 C 719.30 298.70 719.20 297.20 719.10 296.60 C 717.50 296.60 715.90 296.70 714.40 297.00 L 713.10 295.90 L 726.60 295.50 C 728.00 292.80 728.90 290.10 729.40 287.60 L 728.50 287.60 L 712.20 288.00 L 712.20 294.90 C 712.60 304.80 707.40 313.30 696.60 320.60 C 696.30 320.70 696.20 320.70 696.20 320.40 C 696.20 320.10 696.30 320.00 696.40 319.80 C 701.00 315.80 704.00 312.00 705.40 308.40 C 706.90 305.20 707.80 299.80 708.00 292.30 L 708.00 283.70 L 707.90 277.90 Z M 732.30 286.50 L 732.30 280.70 L 712.40 280.90 L 712.40 281.30 L 712.40 286.90 L 732.30 286.50 Z M 717.60 288.20 C 721.00 289.60 722.70 290.80 722.90 292.00 C 722.60 293.00 722.00 293.90 720.80 294.60 C 720.00 294.90 719.60 294.60 719.50 293.80 C 719.40 291.50 718.70 289.70 717.40 288.40 C 717.30 288.20 717.40 288.10 717.60 288.20 Z M 723.30 299.30 L 723.30 305.30 L 727.60 305.10 L 727.60 296.50 L 721.00 296.70 L 723.30 297.80 C 723.70 297.90 723.70 298.20 723.50 298.60 L 723.30 299.30 Z" fill="#99000f" fill-rule="nonzero" group-id="2,5" node-id="553" stroke="none" target-height="45.200012" target-width="44.700012" target-x="696.2" target-y="277.3"/><path d="M 715.60 331.60 C 715.80 331.70 715.80 331.90 715.60 332.00 L 714.70 333.30 L 714.30 348.30 L 714.50 353.70 C 714.50 356.00 713.90 357.90 712.60 359.50 C 712.10 360.00 711.70 360.30 711.50 360.30 C 711.10 360.30 710.90 360.00 710.90 359.40 C 710.80 358.20 710.40 356.80 709.80 355.50 C 709.70 355.30 709.60 355.10 709.60 354.90 L 704.70 355.10 C 704.70 357.00 704.00 359.00 702.60 361.10 C 702.30 361.40 702.10 361.50 701.80 361.50 C 701.70 361.40 701.60 361.20 701.60 360.90 L 701.60 353.00 L 702.00 337.40 C 702.00 334.50 701.90 332.00 701.60 329.90 C 701.60 329.50 701.80 329.40 702.20 329.50 L 705.20 331.20 L 710.80 331.00 L 712.50 329.30 L 715.60 331.60 Z M 731.50 349.60 L 730.90 350.70 L 729.60 360.60 C 729.30 362.00 729.90 362.70 731.30 362.90 C 733.00 363.30 735.00 363.20 737.10 362.70 C 738.30 362.60 739.40 361.50 740.10 359.50 C 740.20 359.30 740.40 359.10 740.70 359.10 C 740.90 359.20 741.00 359.40 740.90 359.70 C 740.50 361.20 740.90 362.30 742.00 363.10 C 743.40 364.80 742.60 366.20 739.60 367.20 C 736.30 367.80 733.10 367.80 729.80 367.20 C 727.20 366.40 726.00 364.20 726.20 360.40 L 727.30 348.40 L 726.50 348.40 C 723.40 357.00 715.80 364.40 703.80 370.50 C 703.40 370.60 703.30 370.40 703.40 369.70 C 713.50 363.60 719.90 356.50 722.50 348.30 L 719.30 348.30 C 719.00 349.90 718.30 351.40 717.00 352.60 C 716.50 353.00 716.20 352.90 716.10 352.40 L 716.30 340.80 C 716.40 339.90 716.40 338.60 716.30 336.90 C 716.30 336.40 716.30 336.10 716.30 336.00 C 716.30 335.80 716.40 335.70 716.70 335.80 L 719.50 337.30 L 724.20 337.30 C 725.60 335.40 727.10 333.10 728.70 330.20 L 721.80 330.40 C 721.40 330.80 720.70 331.50 719.70 332.50 C 718.60 333.50 717.80 334.30 717.30 334.80 C 717.00 334.90 716.90 334.80 716.90 334.40 C 719.40 330.90 721.00 327.60 721.80 324.50 C 721.80 324.10 721.90 324.00 722.20 324.10 L 725.00 326.70 C 725.00 326.80 724.90 327.00 724.80 327.30 C 724.20 328.10 723.50 328.80 722.70 329.60 L 728.90 329.40 L 730.40 327.90 L 734.20 330.30 C 734.40 330.70 734.40 330.90 734.20 331.10 L 732.70 331.90 C 729.90 334.30 727.50 336.20 725.40 337.50 L 733.50 337.30 L 735.40 335.00 L 739.30 337.60 C 739.50 337.60 739.50 337.70 739.30 338.00 L 738.40 339.50 L 738.20 347.60 L 738.60 348.20 C 738.60 348.50 738.50 348.60 738.40 348.60 C 738.30 348.60 737.90 348.60 737.30 348.60 C 735.00 348.50 733.20 348.50 731.70 348.60 L 728.90 348.60 L 731.50 349.60 Z M 705.10 333.30 L 704.90 341.90 L 709.20 341.70 C 709.60 341.70 709.80 341.90 709.80 342.30 C 709.80 342.60 709.60 342.70 709.20 342.90 L 704.90 342.90 L 704.70 354.00 L 710.30 354.00 C 710.40 353.60 710.50 353.30 710.50 353.10 L 710.70 332.10 L 705.40 332.30 L 705.10 333.30 Z M 723.10 347.50 C 724.10 344.80 724.70 341.60 725.00 338.10 L 719.70 338.30 L 719.50 347.70 L 723.10 347.50 Z M 729.10 338.10 C 728.80 341.50 728.20 344.60 727.00 347.50 L 733.40 347.50 L 733.60 337.90 L 729.10 338.10 Z" fill="#99000f" fill-rule="nonzero" group-id="2,5" node-id="555" stroke="none" target-height="46.600006" target-width="41.80005" target-x="701.6" target-y="324"/><path d="M 704.90 372.20 L 709.40 373.70 L 709.80 373.90 C 709.80 374.00 709.70 374.20 709.40 374.30 L 709.00 375.20 C 708.20 377.10 707.50 378.80 706.70 380.50 L 712.50 380.30 L 714.60 378.00 L 717.20 380.60 C 717.40 380.60 717.40 380.70 717.20 381.00 L 706.30 381.20 C 704.00 386.10 701.00 391.30 697.10 397.00 C 696.70 397.10 696.60 397.00 696.70 396.60 C 700.70 389.50 703.40 381.40 704.90 372.20 Z M 703.40 389.10 C 703.10 389.20 703.00 389.10 703.00 388.70 C 702.90 388.50 702.90 388.30 703.20 388.10 L 712.40 387.70 L 714.30 385.80 L 716.70 388.10 C 716.90 388.40 716.90 388.50 716.70 388.50 L 710.50 388.90 L 710.30 397.00 L 712.60 396.80 L 714.70 394.70 L 717.50 397.10 L 717.30 397.50 L 710.40 397.90 L 710.20 410.70 L 718.50 407.30 C 719.00 407.20 719.10 407.30 718.70 407.70 L 709.30 414.10 C 707.40 415.30 706.10 416.30 705.40 416.90 C 705.00 417.30 704.80 417.30 704.60 417.10 L 702.30 413.70 C 702.00 413.40 702.10 413.30 702.50 413.30 C 703.70 412.80 705.10 412.40 706.60 412.20 L 706.40 398.10 L 706.20 398.10 C 705.20 398.20 703.90 398.40 702.30 398.70 C 701.70 398.80 701.20 398.90 701.00 398.90 L 699.50 397.60 L 706.40 397.20 L 706.40 389.10 L 703.40 389.10 Z M 730.80 375.40 L 730.40 377.50 L 730.20 384.40 L 734.70 384.40 L 736.40 382.00 L 740.70 384.40 C 740.90 384.70 740.90 384.80 740.70 385.00 L 739.80 386.70 L 739.80 396.30 L 740.20 397.10 C 740.20 397.50 740.10 397.70 739.80 397.70 C 738.20 397.60 735.00 397.50 730.20 397.50 L 730.20 404.40 L 730.40 412.70 C 729.90 415.20 728.80 417.10 727.00 418.30 C 726.60 418.30 726.40 418.00 726.20 417.50 L 726.40 408.50 L 726.40 397.60 C 724.50 397.60 723.00 397.70 721.90 397.80 L 721.90 398.90 C 721.50 400.40 720.60 401.80 719.30 403.00 C 718.80 403.30 718.40 403.20 718.20 402.80 L 718.60 393.80 L 718.60 387.80 L 718.40 382.70 C 718.40 382.50 718.50 382.40 718.80 382.50 L 722.00 384.80 L 726.50 384.60 L 726.50 381.40 L 726.30 372.80 L 730.60 374.90 C 730.70 374.80 730.80 375.00 730.80 375.40 Z M 721.90 385.70 L 721.90 396.60 L 726.40 396.40 L 726.40 385.50 L 721.90 385.70 Z M 734.90 385.30 L 730.20 385.50 L 730.20 396.40 L 734.90 396.20 L 734.90 385.30 Z" fill="#99000f" fill-rule="nonzero" group-id="2,5" node-id="557" stroke="none" target-height="46.099976" target-width="44.30005" target-x="696.6" target-y="372.2"/></g></g></svg>